<?xml version="1.0" encoding="UTF-8" standalone="no"?>
<svg
   xmlns:dc="http://purl.org/dc/elements/1.1/"
   xmlns:cc="http://creativecommons.org/ns#"
   xmlns:rdf="http://www.w3.org/1999/02/22-rdf-syntax-ns#"
   xmlns:svg="http://www.w3.org/2000/svg"
   xmlns="http://www.w3.org/2000/svg"
   xmlns:xlink="http://www.w3.org/1999/xlink"
   xmlns:sodipodi="http://sodipodi.sourceforge.net/DTD/sodipodi-0.dtd"
   xmlns:inkscape="http://www.inkscape.org/namespaces/inkscape"
   height="250.529297pt"
   version="1.1"
   viewBox="0 0 169.814105 250.529297"
   width="169.814105pt"
   id="svg6252"
   sodipodi:docname="main.svg"
   inkscape:version="1.0 (4035a4fb49, 2020-05-01)">
  <metadata
     id="metadata6256">
    <rdf:RDF>
      <cc:Work
         rdf:about="">
        <dc:format>image/svg+xml</dc:format>
        <dc:type
           rdf:resource="http://purl.org/dc/dcmitype/StillImage" />
      </cc:Work>
    </rdf:RDF>
  </metadata>
  <sodipodi:namedview
     inkscape:document-rotation="0"
     pagecolor="#ffffff"
     bordercolor="#666666"
     borderopacity="1"
     objecttolerance="10"
     gridtolerance="10"
     guidetolerance="10"
     inkscape:pageopacity="0"
     inkscape:pageshadow="2"
     inkscape:window-width="2274"
     inkscape:window-height="1159"
     id="namedview6254"
     showgrid="false"
     inkscape:zoom="2.1337733"
     inkscape:cx="51.799881"
     inkscape:cy="157.30221"
     inkscape:window-x="0"
     inkscape:window-y="0"
     inkscape:window-maximized="1"
     inkscape:current-layer="patch_2" />
  <defs
     id="defs5849">
    <style
       type="text/css"
       id="style5847">

*{stroke-linecap:butt;stroke-linejoin:round;}

  </style>
  </defs>
  <g
     id="figure_1">
    <g
       id="patch_1">
      <path
         d="M -0 250.529297   L 169.814105 250.529297   L 169.814105 0   L -0 0   z  "
         style="fill:none;"
         id="path5851" />
    </g>
    <g
       id="axes_1">
      <g
         id="patch_2" />
      <g
         id="line2d_1">
        <path
           clip-path="url(#p037097634a)"
           d="M 47.34081 187.034671   L 47.34081 161.685566   L 47.34081 136.336461   "
           style="fill:none;stroke:#808080;stroke-linecap:square;"
           id="path5857" />
      </g>
      <g
         id="line2d_2">
        <path
           clip-path="url(#p037097634a)"
           d="M 148.737231 187.034671   L 148.737231 161.685566   L 148.737231 136.336461   "
           style="fill:none;stroke:#808080;stroke-linecap:square;"
           id="path5860" />
      </g>
      <g
         id="line2d_3">
        <path
           clip-path="url(#p037097634a)"
           d="M 47.34081 136.336461   L 98.03902 136.336461   L 148.737231 136.336461   "
           style="fill:none;stroke:#808080;stroke-linecap:square;"
           id="path5863" />
      </g>
      <g
         id="line2d_4">
        <path
           clip-path="url(#p037097634a)"
           d="M 47.34081 136.336461   L 47.34081 110.987356   L 47.34081 85.638251   "
           style="fill:none;stroke:#808080;stroke-linecap:square;"
           id="path5866" />
      </g>
      <g
         id="line2d_5">
        <path
           clip-path="url(#p037097634a)"
           d="M 148.737231 136.336461   L 148.737231 110.987356   L 148.737231 85.638251   "
           style="fill:none;stroke:#808080;stroke-linecap:square;"
           id="path5869" />
      </g>
      <g
         id="line2d_6">
        <path
           clip-path="url(#p037097634a)"
           d="M 47.34081 85.638251   L 98.03902 85.638251   L 148.737231 85.638251   "
           style="fill:none;stroke:#808080;stroke-linecap:square;"
           id="path5872" />
      </g>
      <g
         id="line2d_7">
        <path
           clip-path="url(#p037097634a)"
           d="M 47.34081 85.638251   L 47.34081 60.289145   L 47.34081 34.94004   "
           style="fill:none;stroke:#808080;stroke-linecap:square;"
           id="path5875" />
      </g>
      <g
         id="line2d_8">
        <path
           clip-path="url(#p037097634a)"
           d="M 148.737231 85.638251   L 148.737231 60.289145   L 148.737231 34.94004   "
           style="fill:none;stroke:#808080;stroke-linecap:square;"
           id="path5878" />
      </g>
      <g
         id="line2d_9">
        <path
           clip-path="url(#p037097634a)"
           d="M 47.34081 34.94004   L 98.03902 34.94004   L 148.737231 34.94004   "
           style="fill:none;stroke:#808080;stroke-linecap:square;"
           id="path5881" />
      </g>
      <g
         id="line2d_21">
        <path
           clip-path="url(#p037097634a)"
           d="M 47.34081 187.034671   "
           style="fill:none;stroke:#000000;stroke-linecap:square;stroke-width:1.5;"
           id="path6072" />
        <defs
           id="defs6075">
          <path
             d="M -3 3   L 3 3   L 3 -3   L -3 -3   z  "
             id="m864c1b69d9"
             style="stroke:#000000;stroke-linejoin:miter;" />
        </defs>
        <g
           clip-path="url(#p037097634a)"
           id="g6079">
          <use
             style="stroke:#000000;stroke-linejoin:miter;"
             x="47.34081"
             xlink:href="#m864c1b69d9"
             y="187.034671"
             id="use6077" />
        </g>
      </g>
      <g
         id="line2d_22">
        <path
           clip-path="url(#p037097634a)"
           d="M 148.737231 187.034671   "
           style="fill:none;stroke:#000000;stroke-linecap:square;stroke-width:1.5;"
           id="path6082" />
        <g
           clip-path="url(#p037097634a)"
           id="g6086">
          <use
             style="stroke:#000000;stroke-linejoin:miter;"
             x="148.737231"
             xlink:href="#m864c1b69d9"
             y="187.034671"
             id="use6084" />
        </g>
      </g>
      <g
         id="line2d_23">
        <path
           clip-path="url(#p037097634a)"
           d="M 47.34081 136.336461   "
           style="fill:none;stroke:#000000;stroke-linecap:square;stroke-width:1.5;"
           id="path6089" />
        <g
           clip-path="url(#p037097634a)"
           id="g6093">
          <use
             style="stroke:#000000;stroke-linejoin:miter;"
             x="47.34081"
             xlink:href="#m864c1b69d9"
             y="136.336461"
             id="use6091" />
        </g>
      </g>
      <g
         id="line2d_24">
        <path
           clip-path="url(#p037097634a)"
           d="M 148.737231 136.336461   "
           style="fill:none;stroke:#000000;stroke-linecap:square;stroke-width:1.5;"
           id="path6096" />
        <g
           clip-path="url(#p037097634a)"
           id="g6100">
          <use
             style="stroke:#000000;stroke-linejoin:miter;"
             x="148.737231"
             xlink:href="#m864c1b69d9"
             y="136.336461"
             id="use6098" />
        </g>
      </g>
      <g
         id="line2d_25">
        <path
           clip-path="url(#p037097634a)"
           d="M 47.34081 85.638251   "
           style="fill:none;stroke:#000000;stroke-linecap:square;stroke-width:1.5;"
           id="path6103" />
        <g
           clip-path="url(#p037097634a)"
           id="g6107">
          <use
             style="stroke:#000000;stroke-linejoin:miter;"
             x="47.34081"
             xlink:href="#m864c1b69d9"
             y="85.638251"
             id="use6105" />
        </g>
      </g>
      <g
         id="line2d_26">
        <path
           clip-path="url(#p037097634a)"
           d="M 148.737231 85.638251   "
           style="fill:none;stroke:#000000;stroke-linecap:square;stroke-width:1.5;"
           id="path6110" />
        <g
           clip-path="url(#p037097634a)"
           id="g6114">
          <use
             style="stroke:#000000;stroke-linejoin:miter;"
             x="148.737231"
             xlink:href="#m864c1b69d9"
             y="85.638251"
             id="use6112" />
        </g>
      </g>
      <g
         id="line2d_27">
        <path
           clip-path="url(#p037097634a)"
           d="M 47.34081 34.94004   "
           style="fill:none;stroke:#000000;stroke-linecap:square;stroke-width:1.5;"
           id="path6117" />
        <g
           clip-path="url(#p037097634a)"
           id="g6121">
          <use
             style="stroke:#000000;stroke-linejoin:miter;"
             x="47.34081"
             xlink:href="#m864c1b69d9"
             y="34.94004"
             id="use6119" />
        </g>
      </g>
      <g
         id="line2d_28">
        <path
           clip-path="url(#p037097634a)"
           d="M 148.737231 34.94004   "
           style="fill:none;stroke:#000000;stroke-linecap:square;stroke-width:1.5;"
           id="path6124" />
        <g
           clip-path="url(#p037097634a)"
           id="g6128">
          <use
             style="stroke:#000000;stroke-linejoin:miter;"
             x="148.737231"
             xlink:href="#m864c1b69d9"
             y="34.94004"
             id="use6126" />
        </g>
      </g>
      <g
         id="line2d_29">
        <path
           clip-path="url(#p037097634a)"
           d="M 47.34081 116.62049   L 47.450807 116.716744   L 47.69248 117.213312   L 47.961911 117.995271   L 47.998225 117.96633   L 48.424176 117.271766   L 48.669335 116.540232   L 48.716672 116.586687   L 48.906152 117.264148   L 48.960636 117.104456   L 49.195719 116.217341   L 49.217342 116.251555   L 49.31179 116.93446   L 49.684145 121.607387   L 49.728959 121.498554   L 49.841848 120.008731   L 50.017391 114.097027   L 50.362718 102.945469   L 50.413398 103.211737   L 50.546316 106.392304   L 50.858937 113.758246   L 50.894462 113.810124   L 50.929254 113.745458   L 51.040572 113.020366   L 51.255076 111.111678   L 51.29511 111.244662   L 51.400061 113.037143   L 51.571123 120.963354   L 51.814612 132.240692   L 51.846059 131.897367   L 51.949052 126.227549   L 52.13585 100.887542   L 52.407041 75.62376   L 52.424335 75.52997   L 52.456867 75.912948   L 52.547577 80.617751   L 52.835791 113.489774   L 53.339933 161.293764   L 53.429082 163.416027   L 53.471016 162.904158   L 53.575139 157.317419   L 53.936452 117.433813   L 54.383959 78.547266   L 54.619476 67.667777   L 54.645853 67.896734   L 54.7217 71.620404   L 54.87289 93.770683   L 55.35038 201.299381   L 55.427321 195.533582   L 55.564977 158.038407   L 55.947027 19.094808   L 56.003447 24.79816   L 56.153701 75.737607   L 56.567479 215.747895   L 56.600905 216.767535   L 56.64957 214.580876   L 56.764633 193.120578   L 57.280668 40.243096   L 57.36927 48.468668   L 57.518783 92.081745   L 57.871377 188.529801   L 57.898483 188.117922   L 57.98634 178.66361   L 58.198121 120.673783   L 58.545522 37.0629   L 58.564528 37.162075   L 58.608831 40.002301   L 58.750773 69.69513   L 59.206191 168.741459   L 59.293758 172.813191   L 59.342876 171.415699   L 59.444942 158.923573   L 59.858329 78.662613   L 59.932613 81.061983   L 60.077085 98.180074   L 60.473415 154.740133   L 60.505985 154.178426   L 60.61432 145.067386   L 61.217141 73.028875   L 61.267732 73.723192   L 61.365323 80.861746   L 61.603237 121.72762   L 61.87842 150.845187   L 61.884602 150.853286   L 61.89876 150.729587   L 61.97948 146.312209   L 62.136743 121.11863   L 62.534508 46.87259   L 62.563944 47.489134   L 62.65752 58.291199   L 62.844076 113.049425   L 63.169596 194.444755   L 63.184978 194.497956   L 63.200359 194.185093   L 63.290816 185.746071   L 63.572291 126.15098   L 63.942637 59.415865   L 63.957491 59.539146   L 64.019032 63.309267   L 64.206767 95.842573   L 64.475059 128.367406   L 64.478071 128.370742   L 64.498211 128.230194   L 64.617166 124.676477   L 64.70112 122.990134   L 64.763221 123.467214   L 65.123806 131.720162   L 65.332374 141.884707   L 65.462763 145.218223   L 65.49238 144.92957   L 65.602161 139.920848   L 66.130275 110.797472   L 66.19585 109.84163   L 66.250027 110.551654   L 66.368215 118.008574   L 66.603296 133.345569   L 66.634966 133.053609   L 66.74115 127.92806   L 67.437014 82.730312   L 67.462478 82.918993   L 67.538564 85.936842   L 67.729422 107.538176   L 68.03874 136.728219   L 68.07516 137.098332   L 68.114695 136.737757   L 68.225467 132.518454   L 68.780625 96.601848   L 68.861571 98.680056   L 69.078317 116.345123   L 69.374048 133.856962   L 69.391673 133.877475   L 69.409298 133.742462   L 69.485426 131.327095   L 69.639004 118.975868   L 69.948145 99.455331   L 69.971239 99.321079   L 70.002006 99.507795   L 70.10555 102.956676   L 70.680239 133.269811   L 70.754739 132.100458   L 70.895364 124.703931   L 71.290103 103.309032   L 71.324317 103.456894   L 71.421479 105.692307   L 71.742656 115.514793   L 71.782638 115.410478   L 71.994697 113.415396   L 72.049611 113.75884   L 72.361044 118.625687   L 72.629353 123.855171   L 72.661773 123.638727   L 72.780198 120.399067   L 73.11742 111.11969   L 73.178805 111.467899   L 73.372719 115.083126   L 73.644975 118.108319   L 73.688915 118.256484   L 73.733744 118.136663   L 73.851883 116.003182   L 74.135711 110.595868   L 74.156299 110.622547   L 74.253292 111.496438   L 74.550784 115.889348   L 74.62752 115.52978   L 74.78154 112.999344   L 75.078841 106.597446   L 75.12024 106.793228   L 75.205837 108.5423   L 75.402213 118.764802   L 75.657384 130.015535   L 75.676356 130.013839   L 75.72685 129.506378   L 75.950833 123.316613   L 76.301799 116.491028   L 76.344647 116.375947   L 76.392905 116.493085   L 76.519123 117.971735   L 76.714711 120.495553   L 76.744126 120.395597   L 76.849265 118.767556   L 77.274752 107.615677   L 77.372875 108.204965   L 77.465761 110.433864   L 77.644696 121.721603   L 78.001717 150.462626   L 78.058583 149.192536   L 78.19788 136.573756   L 78.694788 68.960342   L 78.788698 74.105308   L 78.942751 105.236617   L 79.272947 170.182726   L 79.289799 169.936896   L 79.359243 163.856685   L 79.559066 115.904636   L 79.858994 60.236034   L 79.888915 60.816643   L 79.979902 71.085187   L 80.4178 163.597685   L 80.534964 157.583949   L 80.70949 126.940862   L 81.07113 66.370748   L 81.129298 69.119555   L 81.271366 93.248585   L 81.642952 155.809721   L 81.695688 154.184999   L 81.835495 137.993617   L 82.257297 85.144489   L 82.290762 84.925053   L 82.323147 85.410016   L 82.432332 92.311652   L 82.677399 126.95671   L 82.905941 147.551406   L 82.922367 147.383982   L 82.976629 144.961988   L 83.117318 126.321527   L 83.45435 80.342911   L 83.470179 80.431931   L 83.546368 84.217237   L 83.713006 107.943855   L 84.068437 163.228665   L 84.097126 162.764503   L 84.195361 154.092349   L 84.675635 83.260105   L 84.768636 87.55351   L 84.964768 118.505084   L 85.259439 152.847361   L 85.280648 153.055203   L 85.312462 152.664619   L 85.401268 147.125843   L 85.600208 115.083584   L 85.869164 81.723223   L 85.883966 81.719397   L 85.893241 81.825018   L 85.964522 85.116417   L 86.162723 109.477255   L 86.562868 153.437448   L 86.580071 153.46148   L 86.595464 153.298123   L 86.666726 150.273272   L 86.826008 132.783166   L 87.140408 105.192213   L 87.183979 104.857071   L 87.231277 105.37825   L 87.371426 110.738687   L 87.627835 119.761969   L 87.653604 119.653466   L 87.730798 117.69898   L 87.904256 106.054658   L 88.306116 78.139143   L 88.32221 78.214302   L 88.397282 81.11717   L 88.554336 101.29039   L 89.017782 167.602958   L 89.077613 165.901731   L 89.206041 152.950943   L 89.69923 92.468985   L 89.715496 92.523539   L 89.792901 94.534363   L 89.97966 107.193639   L 90.332981 129.527029   L 90.387075 129.04503   L 90.471792 126.110804   L 90.919358 99.991025   L 90.998552 101.508418   L 91.176716 112.468776   L 91.571013 134.652327   L 91.602146 134.540206   L 91.677918 132.321911   L 91.862676 117.110161   L 92.184677 94.642215   L 92.222549 94.372913   L 92.261201 94.640407   L 92.373598 98.026833   L 93.169229 129.64276   L 93.224213 129.014984   L 93.356545 122.948574   L 93.713364 105.474618   L 93.79943 104.480044   L 93.846564 105.004362   L 93.927379 108.190112   L 94.367655 138.085654   L 94.46106 136.271755   L 94.635184 125.041784   L 95.157059 87.531964   L 95.188892 87.719427   L 95.266029 90.8332   L 95.41474 107.569975   L 95.785847 154.918191   L 95.802249 154.81194   L 95.879516 150.768854   L 96.104006 119.76874   L 96.356363 96.450598   L 96.385291 96.193185   L 96.428747 96.579816   L 96.583456 102.39934   L 96.811807 107.982904   L 97.046562 110.240857   L 97.23039 116.664628   L 97.43435 121.960691   L 97.444559 121.91912   L 97.542191 120.369971   L 97.935401 113.180713   L 97.974481 113.130097   L 98.005892 113.241138   L 98.10392 114.515845   L 98.281552 121.100697   L 98.509447 128.724523   L 98.527124 128.662064   L 98.609575 126.91369   L 98.982776 108.666027   L 99.086378 109.964484   L 99.347572 116.625937   L 99.523091 121.091042   L 99.562326 120.816837   L 99.690028 116.746544   L 100.00155 105.796206   L 100.019437 105.875884   L 100.117471 108.092699   L 100.702627 129.35845   L 100.779973 128.163302   L 100.974125 119.289027   L 101.449999 96.71466   L 101.47538 96.813548   L 101.569335 98.974582   L 101.737191 110.724551   L 102.097742 140.856548   L 102.130867 140.687045   L 102.230813 136.887003   L 102.799899 101.050917   L 102.877193 102.484852   L 103.054898 114.132606   L 103.326054 128.055186   L 103.358767 127.897103   L 103.501116 124.788469   L 104.266368 106.049195   L 104.345384 106.747077   L 104.515343 112.016701   L 104.93245 129.785548   L 105.001525 128.773276   L 105.253336 118.681242   L 105.513771 112.125013   L 105.557228 111.965136   L 105.610465 112.095211   L 105.733414 113.558118   L 105.911385 116.406927   L 105.961343 115.981686   L 106.112244 111.482753   L 106.308812 106.957985   L 106.334946 107.063891   L 106.43646 109.299234   L 106.92576 126.642892   L 107.017518 126.192199   L 107.355588 122.874568   L 107.696447 117.410048   L 107.728552 117.356417   L 107.776105 117.495751   L 107.864784 118.475314   L 108.303444 127.065186   L 108.380202 126.256008   L 108.50727 121.310601   L 108.943584 92.441277   L 109.035844 94.937486   L 109.203977 109.911884   L 109.552115 137.034086   L 109.555309 137.040621   L 109.571318 136.987703   L 109.648402 134.797972   L 109.837266 119.513489   L 110.153211 98.648998   L 110.186552 98.374074   L 110.230385 98.757133   L 110.329291 102.682645   L 110.830612 133.417671   L 110.904082 132.761372   L 111.036103 127.41121   L 111.51875 101.95149   L 111.546481 102.093539   L 111.641256 104.252253   L 112.104844 122.347177   L 112.190896 121.277555   L 112.612707 109.768707   L 112.720945 110.54997   L 112.851635 113.818789   L 113.238248 130.277364   L 113.330965 128.385828   L 113.533858 114.802991   L 113.775804 103.644389   L 113.784669 103.667118   L 113.85702 105.26999   L 114.088289 119.392944   L 114.312662 127.386481   L 114.330894 127.31523   L 114.387729 126.321401   L 114.570254 118.152816   L 114.832896 110.215605   L 114.833989 110.215781   L 114.86269 110.327386   L 114.964811 112.295275   L 115.286253 122.306245   L 115.358227 121.722361   L 115.556116 116.129695   L 115.752708 112.479558   L 115.773655 112.508034   L 115.8896 113.456639   L 116.005781 114.129602   L 116.038147 113.994465   L 116.208799 111.952963   L 116.340586 111.039972   L 116.36106 111.102689   L 116.453556 112.294914   L 116.625814 118.567225   L 117.016583 132.206087   L 117.043199 132.120428   L 117.121017 130.743425   L 117.303378 121.530768   L 117.655857 104.629735   L 117.675353 104.58347   L 117.714346 104.742171   L 117.829017 106.567598   L 118.156056 111.240134   L 118.438057 114.502202   L 118.706765 121.933205   L 118.914817 126.349027   L 118.940603 126.20145   L 119.042285 123.528321   L 119.247635 109.846674   L 119.455962 100.522999   L 119.480885 100.613437   L 119.551697 102.615191   L 119.778027 118.75691   L 119.971141 126.173732   L 119.978834 126.162669   L 120.044472 125.281336   L 120.239181 117.782772   L 120.420899 113.311466   L 120.43898 113.372876   L 120.513413 114.833504   L 120.838866 127.41179   L 120.905121 126.191718   L 121.057223 117.304704   L 121.404561 98.579982   L 121.463355 99.51453   L 121.613973 107.682577   L 121.939229 123.145947   L 121.953558 123.191492   L 121.991618 123.077085   L 122.098813 121.22457   L 122.429204 114.846138   L 122.439264 114.8702   L 122.510389 115.588565   L 122.720573 121.577638   L 122.944625 125.066877   L 123.002605 124.713306   L 123.116668 122.272145   L 123.47909 111.900509   L 123.515397 112.043048   L 123.634141 114.398252   L 124.166537 130.626599   L 124.234723 129.600282   L 124.367015 121.308248   L 124.768612 93.170503   L 124.785241 93.181262   L 124.842555 94.286402   L 124.974941 103.020623   L 125.394082 142.664406   L 125.447498 141.518541   L 125.584457 129.598986   L 125.996833 90.089465   L 126.013985 90.196001   L 126.068492 91.677842   L 126.229187 104.305829   L 126.649183 138.347671   L 126.655704 138.341736   L 126.690118 137.983394   L 126.805768 133.349197   L 127.446153 100.994203   L 127.465136 100.901822   L 127.509661 101.079388   L 127.625342 103.928048   L 127.862344 116.831028   L 128.212062 132.156673   L 128.23508 132.181639   L 128.253309 132.088346   L 128.35339 129.928012   L 128.635547 116.189196   L 128.962219 105.082886   L 128.989898 105.0011   L 129.027786 105.180039   L 129.129487 107.221452   L 129.368866 117.824504   L 129.724661 131.146656   L 129.751921 131.235366   L 129.790599 131.005107   L 129.903826 127.863894   L 130.186611 109.959698   L 130.367976 104.081459   L 130.394779 104.242386   L 130.496563 106.675712   L 131.026917 126.420712   L 131.111359 125.030872   L 131.310883 114.059443   L 131.511404 107.603408   L 131.527771 107.680307   L 131.624832 109.545496   L 132.094099 121.2827   L 132.476892 126.734703   L 132.544958 125.847665   L 132.6591 119.533906   L 132.987273 96.393489   L 133.019693 96.847179   L 133.118217 103.132564   L 133.493778 135.5069   L 133.520947 135.372621   L 133.604497 132.694649   L 133.792856 116.744154   L 134.154333 86.98732   L 134.171868 86.909152   L 134.205431 87.24886   L 134.293286 91.276427   L 134.493449 114.186169   L 134.83223 148.174267   L 134.86513 148.364534   L 134.903001 147.796772   L 135.017836 141.655726   L 135.353757 106.284755   L 135.605482 89.004693   L 135.60992 89.010591   L 135.672258 90.223584   L 135.818797 99.271408   L 136.323923 131.566081   L 136.362634 131.711636   L 136.404368 131.429485   L 136.542222 128.096603   L 137.011385 108.537734   L 137.296148 97.165183   L 137.347915 96.923357   L 137.397266 97.149311   L 137.512824 99.280247   L 137.681521 108.193524   L 138.17533 150.493387   L 138.269869 145.495956   L 138.449841 116.812386   L 138.740401 82.591969   L 138.787724 83.398452   L 138.933277 92.953796   L 139.507677 134.277224   L 139.575473 134.706297   L 139.625226 134.545969   L 139.862227 132.140003   L 140.043556 127.987642   L 140.628077 108.996942   L 140.678568 109.238173   L 140.82146 111.736151   L 141.247235 122.2422   L 141.30978 121.762533   L 141.418278 118.556989   L 141.801719 102.537927   L 141.862197 103.183624   L 141.970992 107.330134   L 142.394471 130.810952   L 142.472452 129.701471   L 142.646832 120.154845   L 142.968776 105.12485   L 142.987918 105.118046   L 143.000372 105.173471   L 143.0927 106.893152   L 143.286439 116.466385   L 143.604009 129.859565   L 143.630628 129.939599   L 143.666197 129.780196   L 143.77582 127.677724   L 144.395866 109.656742   L 144.474975 110.375982   L 144.618437 114.700109   L 145.041789 130.860129   L 145.089719 130.58171   L 145.19943 127.348674   L 145.45209 109.841094   L 145.675121 99.635785   L 145.683232 99.641399   L 145.747084 100.808712   L 145.889466 109.124135   L 146.24534 129.232981   L 146.302292 128.566134   L 146.422156 123.92896   L 146.811826 109.025635   L 146.903371 108.609341   L 146.957369 108.730036   L 147.082732 110.107634   L 147.294993 115.709278   L 147.642337 123.265682   L 147.684268 123.337701   L 147.718163 123.220314   L 147.810782 122.05481   L 148.195341 113.981462   L 148.274565 114.616263   L 148.568997 118.760509   L 148.633647 118.361659   L 148.799241 114.722644   L 149.055609 109.983494   L 149.069167 109.987958   L 149.139006 110.570736   L 149.314223 115.238143   L 149.721141 125.640981   L 149.773867 125.843012   L 149.830483 125.66873   L 149.944159 123.989828   L 150.116694 117.531625   L 150.437252 107.084066   L 150.463675 107.017593   L 150.501838 107.184227   L 150.608998 109.176317   L 151.09883 123.411395   L 151.170842 122.975783   L 151.312359 119.812868   L 151.732479 109.549706   L 151.746499 109.55467   L 151.825565 110.140447   L 152.017851 114.567513   L 152.364818 121.528988   L 152.380545 121.537064   L 152.401602 121.496402   L 152.506211 120.476827   L 152.750346 114.974565   L 153.000148 111.445041   L 153.037615 111.473544   L 153.142361 112.353258   L 153.648451 120.211321   L 153.747045 119.78776   L 153.944811 116.880769   L 154.267576 112.87349   L 154.305037 112.871173   L 154.337004 112.960539   L 154.43083 113.666808   L 154.940612 119.279802   L 154.991275 119.145111   L 155.132743 117.962901   L 155.553973 113.939367   L 155.578563 113.946208   L 155.656779 114.204111   L 155.839697 115.867992   L 156.186942 118.644228   L 156.25636 118.580498   L 156.40081 117.752017   L 156.846325 114.76969   L 156.854519 114.774856   L 156.947656 115.032576   L 157.116518 116.199048   L 157.116518 116.199048   "
           style="fill:none;stroke:#1f77b4;stroke-linecap:square;stroke-width:0.5;"
           id="path6131" />
      </g>
      <g
         id="line2d_30">
        <path
           clip-path="url(#p037097634a)"
           d="M 47.34081 116.62049   L 47.688977 116.72891   L 47.851586 116.815254   L 47.871932 116.786845   L 48.034531 116.48314   L 48.094317 116.599944   L 48.243635 117.078645   L 48.295128 116.965396   L 48.483691 116.320776   L 48.538934 116.423648   L 48.763296 117.18555   L 48.819979 117.053829   L 49.013229 115.657659   L 49.08816 116.171734   L 49.272776 117.867262   L 49.317676 117.764417   L 49.469468 116.588341   L 49.559351 116.174877   L 49.612191 116.323587   L 49.766756 117.181806   L 49.826119 116.91397   L 50.039386 115.033081   L 50.110169 115.297494   L 50.300444 116.800825   L 50.362966 116.551223   L 50.564733 115.422156   L 50.615936 115.469314   L 50.693875 115.530346   L 50.726229 115.476771   L 50.855375 115.119722   L 50.906141 115.257336   L 51.101896 116.44658   L 51.185236 116.238767   L 51.24132 116.165754   L 51.284128 116.279296   L 51.426733 117.663645   L 51.593212 118.582145   L 51.612097 118.554239   L 51.683965 117.890452   L 52.025907 113.291335   L 52.061927 113.402487   L 52.16489 114.822406   L 52.284441 116.35057   L 52.335744 116.044244   L 52.516612 113.713834   L 52.587211 114.195751   L 52.717377 115.584308   L 52.777062 115.395228   L 52.827517 115.232201   L 52.870968 115.401912   L 52.961665 117.045095   L 53.217554 121.673997   L 53.23522 121.646611   L 53.309099 120.987588   L 53.517932 118.718666   L 53.5586 118.812549   L 53.678582 119.801754   L 53.751676 120.3298   L 53.803341 120.009753   L 53.942182 116.391497   L 54.087077 114.220014   L 54.125611 114.314315   L 54.208583 114.59106   L 54.242901 114.447455   L 54.351432 112.553871   L 54.513205 109.406248   L 54.560996 109.934053   L 54.68753 115.409251   L 54.831395 119.275556   L 54.870079 119.054504   L 54.967351 118.270316   L 55.013784 118.637598   L 55.152253 123.20322   L 55.200906 123.9819   L 55.251788 123.043151   L 55.483201 112.166289   L 55.585986 113.922476   L 55.65756 114.988887   L 55.71005 114.316362   L 55.807746 111.498106   L 55.858694 113.211921   L 56.032313 128.576113   L 56.106822 124.054233   L 56.279648 106.792939   L 56.339101 109.894192   L 56.530522 129.380416   L 56.600551 125.72402   L 56.776008 111.088462   L 56.83566 113.376163   L 56.995482 123.080417   L 57.051964 121.199889   L 57.22358 110.770403   L 57.285196 113.014179   L 57.466775 123.834129   L 57.521906 122.330035   L 57.72491 111.441643   L 57.802999 113.317953   L 57.999336 120.434931   L 58.049947 119.608236   L 58.272642 111.930914   L 58.348565 113.029541   L 58.574565 117.250047   L 58.626379 117.135173   L 58.697757 116.398849   L 58.903939 111.151945   L 58.979689 112.916008   L 59.205412 123.595472   L 59.27189 121.868709   L 59.488901 111.078918   L 59.558105 113.079964   L 59.765198 123.831033   L 59.829779 122.093869   L 60.025212 111.707123   L 60.090415 113.598928   L 60.264662 122.335072   L 60.321385 121.002094   L 60.517135 110.472948   L 60.589746 112.956706   L 60.755565 121.888009   L 60.813205 120.687081   L 61.025753 110.452483   L 61.112396 112.059153   L 61.311169 117.626317   L 61.365415 117.241222   L 61.528133 115.836838   L 61.560308 115.84578   L 61.660563 115.984618   L 61.770617 116.774231   L 61.8611 117.432531   L 61.909965 117.176067   L 62.053472 114.017623   L 62.185558 112.421182   L 62.226155 112.526418   L 62.468109 114.291186   L 62.830765 118.855868   L 62.916516 119.435397   L 62.964393 119.194713   L 63.091487 116.061759   L 63.158145 115.123762   L 63.203176 115.783176   L 63.438507 124.29532   L 63.520588 121.63447   L 63.745031 110.360091   L 63.798557 111.10326   L 63.924118 118.699394   L 64.011005 122.358552   L 64.064825 120.823692   L 64.272045 108.074224   L 64.352198 110.59296   L 64.591024 117.520723   L 64.734877 120.262126   L 64.795922 121.010087   L 64.843648 120.544974   L 65.038167 114.929797   L 65.115062 117.069053   L 65.272194 124.558056   L 65.332418 123.110098   L 65.533066 112.769617   L 65.600686 114.684062   L 65.781553 123.397338   L 65.840021 121.912478   L 66.033152 112.549796   L 66.105805 114.165429   L 66.319154 122.755439   L 66.388258 121.203839   L 66.603399 111.155528   L 66.678686 112.940147   L 66.864401 120.259805   L 66.915437 119.380447   L 67.128063 111.479198   L 67.204618 112.74997   L 67.348742 115.234058   L 67.389103 115.050288   L 67.473385 114.554905   L 67.525718 114.798697   L 67.707861 117.798066   L 67.788918 116.710219   L 67.928955 114.171652   L 67.984542 114.662007   L 68.203106 118.540131   L 68.266231 118.004341   L 68.464244 115.585344   L 68.506193 115.692658   L 68.615953 116.099446   L 68.669044 115.978323   L 68.714259 115.92475   L 68.750555 116.042325   L 68.85871 117.505581   L 68.943358 118.382931   L 68.993781 117.947872   L 69.162723 114.571118   L 69.23324 115.586137   L 69.378078 118.370761   L 69.425228 117.889183   L 69.609799 113.647153   L 69.678866 114.915089   L 69.833831 119.353753   L 69.886756 118.654259   L 70.063576 114.42553   L 70.128322 115.225878   L 70.285792 118.433198   L 70.341457 117.974924   L 70.497374 115.407553   L 70.560774 115.97584   L 70.716088 118.885248   L 70.778574 118.271708   L 70.948885 114.341179   L 71.019444 115.281977   L 71.180295 118.848487   L 71.237135 118.314489   L 71.431184 114.759253   L 71.503677 115.24603   L 71.627724 116.444035   L 71.67684 116.200113   L 71.829707 114.193315   L 71.893624 114.844718   L 72.088281 119.320011   L 72.158391 118.154637   L 72.305643 114.129559   L 72.367597 115.168037   L 72.527292 119.90716   L 72.585349 118.892856   L 72.764458 112.796641   L 72.835212 114.172163   L 73.00719 120.469665   L 73.072149 119.269122   L 73.250368 113.835903   L 73.307321 114.618906   L 73.472611 118.245949   L 73.536357 117.651005   L 73.724461 115.058871   L 73.782078 115.185774   L 73.916873 116.41693   L 74.063227 117.237966   L 74.095309 117.188061   L 74.232462 116.315697   L 74.330815 115.98141   L 74.379389 116.051603   L 74.468546 116.177383   L 74.514065 116.082052   L 74.656432 115.417163   L 74.724262 115.594008   L 74.871078 115.68255   L 74.962702 115.881568   L 75.437452 117.493898   L 75.448008 117.488669   L 75.504384 117.284774   L 75.687402 115.440455   L 75.760069 116.096766   L 75.947391 119.417709   L 76.007565 118.863668   L 76.19212 115.495255   L 76.256756 116.095651   L 76.429423 118.649422   L 76.482347 118.283813   L 76.722648 115.233877   L 76.793506 115.589605   L 76.951865 116.766557   L 77.001606 116.638425   L 77.161414 115.83533   L 77.223255 116.046778   L 77.455548 116.829783   L 77.533802 117.353805   L 77.763775 120.569134   L 77.833481 119.878829   L 78.055658 115.323226   L 78.123812 115.81479   L 78.289616 117.847446   L 78.337147 117.387927   L 78.479256 112.533527   L 78.549887 110.900937   L 78.601081 111.690411   L 78.839194 122.327687   L 78.927681 119.807672   L 79.073704 113.731342   L 79.124081 114.719663   L 79.24069 118.509167   L 79.287861 117.486403   L 79.450126 111.002585   L 79.514828 112.562084   L 79.687162 120.168006   L 79.75298 118.778669   L 79.891108 114.433275   L 79.949283 115.380677   L 80.118754 122.007057   L 80.185493 119.932862   L 80.367826 108.517663   L 80.439955 111.608285   L 80.601055 124.116069   L 80.660416 121.804055   L 80.841992 108.044542   L 80.910237 110.937955   L 81.093368 123.941519   L 81.146558 122.322743   L 81.342291 111.941192   L 81.410334 113.647878   L 81.558289 118.503752   L 81.606993 117.839703   L 81.77023 113.675179   L 81.834081 114.597487   L 82.016744 119.339206   L 82.075151 118.860185   L 82.210235 115.158707   L 82.301871 113.316971   L 82.35123 113.915604   L 82.551728 119.694682   L 82.627593 118.499843   L 82.816531 114.837522   L 82.869479 115.083559   L 82.986963 115.957692   L 83.035652 115.710249   L 83.174922 113.970948   L 83.235239 114.520621   L 83.45868 119.686346   L 83.532715 118.542501   L 83.677518 115.20203   L 83.724235 115.776952   L 83.909108 121.233405   L 83.977665 119.495393   L 84.146479 111.613244   L 84.212224 113.180859   L 84.390611 121.622113   L 84.453747 120.260044   L 84.622581 113.466051   L 84.685549 114.853123   L 84.86296 121.947175   L 84.921278 120.653796   L 85.110068 112.326058   L 85.171238 113.932563   L 85.34029 121.359412   L 85.400057 119.714097   L 85.576988 110.864877   L 85.64072 112.486148   L 85.827996 122.309556   L 85.893765 120.678125   L 86.079905 111.83988   L 86.140686 113.173448   L 86.335145 121.445111   L 86.404703 120.100053   L 86.576333 114.629869   L 86.639299 115.479685   L 86.82884 119.612088   L 86.883182 119.259749   L 87.13658 117.572117   L 87.231032 117.48908   L 87.329356 116.845893   L 87.61806 115.020482   L 87.74204 114.631085   L 87.890729 114.142444   L 87.938132 114.196934   L 88.026858 114.400604   L 88.075253 114.233472   L 88.169441 112.960224   L 88.226674 112.498666   L 88.274811 112.916569   L 88.420871 117.520338   L 88.544777 119.492425   L 88.578986 119.321203   L 88.784042 116.512215   L 88.866299 117.385386   L 89.043187 120.762381   L 89.103681 120.125289   L 89.299129 116.09832   L 89.364425 116.859747   L 89.522207 119.918072   L 89.584023 119.22563   L 89.803688 113.940592   L 89.872319 114.69258   L 90.056503 117.960637   L 90.117175 117.434993   L 90.306822 114.072086   L 90.375773 114.891813   L 90.523436 117.694961   L 90.575782 117.360346   L 90.751891 114.792326   L 90.822766 115.475763   L 91.005831 118.670627   L 91.059799 118.162761   L 91.239433 114.819629   L 91.302847 115.520295   L 91.485694 119.242331   L 91.541536 118.59017   L 91.746056 113.779143   L 91.809745 114.534761   L 91.99224 118.204565   L 92.05415 117.573841   L 92.247729 114.049851   L 92.312287 114.60699   L 92.459348 116.452887   L 92.513229 116.122957   L 92.663905 114.056325   L 92.727937 114.729106   L 92.934121 119.476575   L 93.013249 118.527455   L 93.206656 114.93267   L 93.25856 115.238725   L 93.564517 118.028464   L 93.603774 117.802967   L 93.789203 114.335933   L 93.862974 115.613052   L 94.042016 121.438131   L 94.102822 120.1952   L 94.284427 112.717487   L 94.343762 114.186106   L 94.513693 121.101208   L 94.571116 119.882989   L 94.75353 112.820837   L 94.81885 113.878068   L 94.962802 117.540613   L 95.02022 116.766131   L 95.169861 112.846196   L 95.229825 113.881549   L 95.440611 121.308845   L 95.513758 120.101555   L 95.712839 113.917287   L 95.76952 114.715435   L 95.961644 118.391411   L 96.011267 118.215739   L 96.175451 117.038805   L 96.24375 117.317627   L 96.362642 118.288625   L 96.420042 117.894857   L 96.678383 112.262651   L 96.776188 113.801935   L 96.951995 117.585544   L 97.00401 117.302523   L 97.138933 115.940994   L 97.194383 116.233016   L 97.313584 117.114745   L 97.366883 116.822828   L 97.531039 114.627129   L 97.595572 115.364948   L 97.75551 118.839116   L 97.821385 118.116091   L 97.987042 114.975319   L 98.03963 115.497233   L 98.248174 119.524837   L 98.322199 118.822641   L 98.52204 114.163332   L 98.592057 115.007188   L 98.792295 117.705926   L 98.822384 117.64706   L 98.932564 117.264166   L 98.979423 117.452867   L 99.050185 117.778004   L 99.093991 117.498804   L 99.258351 114.835423   L 99.317326 115.561257   L 99.456669 118.289773   L 99.510216 117.545762   L 99.68074 112.781318   L 99.742156 113.768099   L 99.929328 119.292678   L 99.994878 118.477948   L 100.178487 114.852912   L 100.237561 115.216942   L 100.468821 118.270596   L 100.553564 117.913054   L 100.794049 115.471373   L 100.864293 116.030437   L 100.991499 117.564614   L 101.046195 117.145216   L 101.215527 114.098277   L 101.28822 114.839953   L 101.427188 116.769328   L 101.478436 116.384873   L 101.598589 115.169429   L 101.648324 115.50764   L 101.853626 119.745625   L 101.943803 118.220027   L 102.103454 113.86109   L 102.159702 114.741709   L 102.349833 120.148884   L 102.409604 119.342343   L 102.604336 114.195148   L 102.669665 114.89275   L 102.862466 118.91516   L 102.932881 118.28903   L 103.131951 114.977322   L 103.212552 115.55362   L 103.423352 116.705918   L 103.531472 117.896493   L 103.637254 119.056663   L 103.680314 118.735925   L 103.848247 114.397862   L 103.894342 113.899743   L 103.945347 114.434327   L 104.121202 118.108695   L 104.1823 117.444333   L 104.338925 114.801304   L 104.393091 115.208725   L 104.622209 118.268562   L 104.679041 117.987684   L 104.904139 115.6983   L 104.979658 115.995755   L 105.204747 118.169948   L 105.289238 117.624715   L 105.459449 116.194267   L 105.509919 116.337127   L 105.662184 117.123891   L 105.741959 116.997924   L 105.813073 116.64804   L 105.941548 114.757119   L 106.031534 113.718668   L 106.085378 114.156916   L 106.307329 118.467847   L 106.389736 117.67262   L 106.534319 115.791623   L 106.591615 116.075673   L 106.72912 117.226854   L 106.781957 117.026118   L 106.900527 116.408886   L 106.947145 116.591935   L 107.088485 118.479652   L 107.154896 118.943737   L 107.200715 118.691282   L 107.413957 115.482296   L 107.487531 116.415562   L 107.634004 118.842475   L 107.687612 118.461163   L 107.857953 116.116277   L 107.915728 116.531925   L 108.084119 118.703565   L 108.146877 118.247081   L 108.348642 115.911213   L 108.404958 116.057121   L 108.483482 116.268892   L 108.527975 116.138035   L 108.66571 114.458133   L 108.722192 114.102184   L 108.776229 114.464186   L 108.994901 117.837104   L 109.094034 117.156859   L 109.25079 115.85167   L 109.292751 115.987604   L 109.46664 117.021824   L 109.525302 116.815995   L 109.711344 115.657033   L 109.764082 115.876681   L 109.961959 117.654953   L 110.031079 117.183513   L 110.194853 115.318928   L 110.253073 115.735808   L 110.439986 118.318904   L 110.50267 117.739546   L 110.677554 114.777183   L 110.733062 115.408953   L 110.906313 119.257177   L 110.979255 118.311291   L 111.150278 114.500797   L 111.207932 115.113568   L 111.381228 118.279805   L 111.438 117.748014   L 111.61411 114.797082   L 111.677973 115.268887   L 111.843952 117.417934   L 111.897447 117.082625   L 112.088276 114.758053   L 112.158181 115.157339   L 112.366397 117.243031   L 112.438429 117.003367   L 112.632239 116.457703   L 112.795547 116.598355   L 112.91259 117.732295   L 113.007984 118.523391   L 113.059957 118.2097   L 113.289464 114.973271   L 113.385116 115.582125   L 113.583594 117.291604   L 113.634563 117.199009   L 113.745396 116.90262   L 113.794657 117.027928   L 113.931366 117.827843   L 113.988436 117.53518   L 114.185864 115.192499   L 114.257828 115.727524   L 114.399038 116.840858   L 114.439602 116.743734   L 114.567964 116.29357   L 114.617411 116.464844   L 114.805272 117.933678   L 114.885596 117.52561   L 115.036051 116.504283   L 115.087451 116.584189   L 115.149453 116.681407   L 115.189199 116.592005   L 115.304161 115.526619   L 115.363909 115.202469   L 115.415061 115.394236   L 115.646439 117.825435   L 115.739123 117.345965   L 116.06768 115.056984   L 116.128179 115.266398   L 116.374431 117.328203   L 116.473086 117.085161   L 116.537923 117.009042   L 116.585203 117.100953   L 116.797186 117.753322   L 116.859156 117.646946   L 117.379833 116.260428   L 117.43672 116.422814   L 117.613676 117.332096   L 117.67474 117.053744   L 117.928638 114.488386   L 118.002765 114.901532   L 118.204511 116.586735   L 118.254445 116.458943   L 118.37244 116.031091   L 118.424921 116.163443   L 118.687593 117.926081   L 118.776703 117.492335   L 119.038348 115.416758   L 119.094042 115.464542   L 119.215698 115.657445   L 119.378787 116.875275   L 119.564834 117.742837   L 119.583988 117.715664   L 119.667025 117.124429   L 119.90864 114.795169   L 119.954865 114.978121   L 120.210858 117.584352   L 120.34203 117.226476   L 120.372503 117.227998   L 120.402078 117.310429   L 120.509257 118.300136   L 120.596094 118.971095   L 120.643526 118.647509   L 120.897399 113.884378   L 120.989618 115.018901   L 121.151554 117.524534   L 121.194717 117.244723   L 121.361161 115.001523   L 121.429154 115.657228   L 121.575353 118.185615   L 121.632942 117.683948   L 121.831953 113.599546   L 121.901688 114.473266   L 122.085324 118.303691   L 122.144647 117.835326   L 122.298388 115.809718   L 122.359045 116.216598   L 122.546057 118.756067   L 122.612546 118.340026   L 122.803829 115.539871   L 122.876611 116.102762   L 123.028119 117.944552   L 123.082302 117.597051   L 123.248264 115.402873   L 123.310693 115.847482   L 123.504355 118.62896   L 123.567306 118.155702   L 123.74233 115.862511   L 123.80515 116.307816   L 123.988461 118.678643   L 124.056892 118.287473   L 124.301002 114.512326   L 124.356838 114.045627   L 124.410974 114.396675   L 124.607109 117.423212   L 124.682424 116.721903   L 124.824664 114.837475   L 124.879824 115.291963   L 125.095466 119.04644   L 125.162106 118.444254   L 125.376323 114.760691   L 125.45176 115.208928   L 125.647649 116.760502   L 125.698948 116.665207   L 125.831264 116.315434   L 125.88662 116.406719   L 126.021534 116.668255   L 126.06518 116.603492   L 126.230724 116.16087   L 126.288037 116.275379   L 126.481301 116.976198   L 126.548026 116.850134   L 126.671127 116.463729   L 126.721548 116.601728   L 126.986303 118.281915   L 127.063051 117.930798   L 127.208478 115.225995   L 127.297379 114.064547   L 127.346467 114.389316   L 127.543471 117.688414   L 127.617798 116.905479   L 127.754104 114.933251   L 127.807632 115.27285   L 128.018384 118.549173   L 128.09198 117.943585   L 128.263194 115.861779   L 128.314289 116.146832   L 128.498193 118.210587   L 128.570716 117.815271   L 128.796832 115.250298   L 128.86043 115.615587   L 129.03915 117.193323   L 129.08715 117.009365   L 129.257415 115.786773   L 129.315834 116.079624   L 129.529206 118.030308   L 129.594219 117.774229   L 129.830084 116.594102   L 129.883771 116.636171   L 129.969686 116.678234   L 130.003992 116.617473   L 130.145361 116.206232   L 130.194962 116.318194   L 130.40655 117.603184   L 130.478081 117.173848   L 130.640154 114.885049   L 130.703148 115.40735   L 130.882491 118.567285   L 130.944546 117.890325   L 131.142007 113.96583   L 131.208402 114.644364   L 131.429503 118.988573   L 131.492607 118.444889   L 131.705264 115.101201   L 131.770594 115.517511   L 131.989423 117.175486   L 132.021862 117.131025   L 132.124809 116.935894   L 132.172673 117.023199   L 132.304764 118.034876   L 132.393861 118.610455   L 132.439323 118.315873   L 132.555753 115.342285   L 132.684189 112.433901   L 132.730501 112.865327   L 132.9659 119.78108   L 133.072055 118.279526   L 133.380835 114.630875   L 133.418188 114.457375   L 133.465365 114.781923   L 133.654547 117.873604   L 133.727093 117.094533   L 133.902032 113.51673   L 133.962357 114.227408   L 134.126148 117.245117   L 134.184019 116.829488   L 134.329969 115.140582   L 134.377744 115.486749   L 134.573509 118.769712   L 134.656974 117.977781   L 134.805142 116.006476   L 134.849237 116.28272   L 135.060243 119.285238   L 135.132681 118.705316   L 135.375769 113.887624   L 135.45688 115.020326   L 135.61877 118.100802   L 135.67258 117.56721   L 135.867433 113.197262   L 135.940747 114.272879   L 136.123004 118.493994   L 136.17948 117.957341   L 136.335432 115.465028   L 136.398926 115.995628   L 136.590073 119.201795   L 136.661139 118.662206   L 136.959716 113.638759   L 137.041685 114.623503   L 137.188221 117.509352   L 137.242814 117.03221   L 137.439697 112.990365   L 137.506792 113.880831   L 137.714981 119.030255   L 137.789971 118.382193   L 137.897414 117.256448   L 137.941789 117.527491   L 138.086728 119.918954   L 138.151305 118.880945   L 138.34856 111.702225   L 138.422686 113.500985   L 138.601308 120.342272   L 138.656879 119.545794   L 138.911496 112.879385   L 138.981363 113.64188   L 139.177763 117.445964   L 139.249388 116.96964   L 139.369462 115.837143   L 139.422607 116.14012   L 139.661917 119.574005   L 139.757255 118.993858   L 140.053357 117.379259   L 140.495818 116.553145   L 140.587007 116.617386   L 140.691243 116.555147   L 140.842764 116.313463   L 140.901857 116.396472   L 141.105378 116.927784   L 141.165797 116.782169   L 141.318255 115.625066   L 141.448347 115.147144   L 141.478211 115.194569   L 141.59128 115.961075   L 141.774139 116.917608   L 141.804005 116.887737   L 141.967522 116.58856   L 142.027411 116.699359   L 142.193378 117.270547   L 142.252574 117.101614   L 142.4747 115.412924   L 142.556677 115.879145   L 142.747586 117.466507   L 142.788755 117.351104   L 143.000106 116.422769   L 143.066901 116.509122   L 143.315533 117.262354   L 143.39864 117.042244   L 143.557983 116.408403   L 143.60366 116.534043   L 143.828819 117.84936   L 143.909502 117.565298   L 144.121824 116.333328   L 144.18549 116.45665   L 144.37063 116.719661   L 144.49194 116.827748   L 144.841393 117.474893   L 144.878348 117.443274   L 144.997844 117.056704   L 145.260206 116.348584   L 145.382859 115.939184   L 145.463793 115.686124   L 145.510266 115.801394   L 145.674321 117.306249   L 145.7553 117.694856   L 145.80283 117.56571   L 146.037596 115.751384   L 146.141444 116.156398   L 146.225433 116.383069   L 146.271384 116.297898   L 146.361322 116.123247   L 146.406038 116.202209   L 146.528748 117.11931   L 146.637821 117.813719   L 146.687244 117.626494   L 146.920784 115.259023   L 147.013884 115.800833   L 147.19398 117.191935   L 147.24055 117.050821   L 147.41218 116.149234   L 147.472475 116.315394   L 147.667205 117.358609   L 147.728541 117.155732   L 147.907781 115.952202   L 147.966862 116.185791   L 148.179848 118.001829   L 148.246552 117.744043   L 148.481149 115.750302   L 148.562111 115.955729   L 148.657978 116.137107   L 148.703553 116.102193   L 148.809304 116.032768   L 148.844348 116.083948   L 149.000488 116.726715   L 149.134464 117.024813   L 149.170262 116.994844   L 149.398574 116.561285   L 149.46819 116.700698   L 149.717262 117.361165   L 149.772168 117.31779   L 149.923845 116.868204   L 150.132117 115.829749   L 150.206726 116.173565   L 150.364837 117.090785   L 150.406084 116.987712   L 150.599822 116.020777   L 150.671151 116.258638   L 150.828155 116.942682   L 150.884806 116.824851   L 151.06146 116.160543   L 151.12209 116.276222   L 151.298158 116.835618   L 151.356694 116.735392   L 151.532633 116.266629   L 151.590558 116.354991   L 151.768119 116.759092   L 151.829002 116.674522   L 152.006285 116.347664   L 152.052661 116.401602   L 152.251322 116.698721   L 152.296279 116.643709   L 152.476233 116.407908   L 152.521617 116.44922   L 152.732547 116.654929   L 152.760703 116.626929   L 152.976364 116.472095   L 152.993418 116.488214   L 153.225461 116.615642   L 153.241138 116.601268   L 153.467401 116.519333   L 153.704413 116.599742   L 153.943136 116.544026   L 154.197385 116.584157   L 154.426237 116.566588   L 154.689858 116.578472   L 154.944338 116.596173   L 155.220945 116.572381   L 155.924195 116.613743   L 157.116518 116.615406   L 157.116518 116.615406   "
           style="fill:none;stroke:#ff7f0e;stroke-linecap:square;stroke-width:0.5;"
           id="path6134" />
      </g>
      <g
         id="line2d_31">
        <path
           clip-path="url(#p037097634a)"
           d="M 47.34081 116.62049   L 47.708803 116.728937   L 47.792164 116.77758   L 47.829941 116.727231   L 47.967797 116.499266   L 48.012278 116.566279   L 48.160565 116.898387   L 48.214743 116.78822   L 48.337407 116.438651   L 48.395661 116.559728   L 48.502404 116.80497   L 48.55202 116.737327   L 48.65472 116.581817   L 48.699705 116.648371   L 48.805129 116.911629   L 48.861127 116.75725   L 48.980772 116.060443   L 49.040271 116.350218   L 49.159483 117.189735   L 49.218385 116.988649   L 49.30829 116.614038   L 49.356703 116.755598   L 49.448983 117.087219   L 49.500929 116.917036   L 49.621419 116.394236   L 49.673711 116.543591   L 49.767119 116.86856   L 49.815877 116.704495   L 49.958228 115.900482   L 50.022187 116.099702   L 50.193401 116.315719   L 50.429718 116.362543   L 50.527251 116.319537   L 50.537075 116.296535   L 50.756712 115.731219   L 50.816112 115.857284   L 50.986039 116.40789   L 51.040149 116.299019   L 51.129617 116.054744   L 51.179038 116.178365   L 51.359291 117.153939   L 51.460619 117.01676   L 51.505666 117.087698   L 51.631373 117.698522   L 51.688271 117.339862   L 51.868372 115.275705   L 51.933752 115.458102   L 51.962361 115.508911   L 52.004791 115.350797   L 52.089338 114.884458   L 52.135867 115.168545   L 52.259185 116.516562   L 52.317895 116.111368   L 52.433584 115.017614   L 52.481987 115.302254   L 52.597107 116.310261   L 52.657553 115.980016   L 52.762913 114.838262   L 52.820022 115.3673   L 52.98236 118.260908   L 53.042941 117.885976   L 53.101293 117.574213   L 53.150276 117.918618   L 53.281318 119.874312   L 53.343409 119.1616   L 53.464948 117.235944   L 53.517766 117.626991   L 53.639791 118.844631   L 53.694892 118.609446   L 54.334459 114.437861   L 54.45746 113.52147   L 54.508576 113.158714   L 54.560602 113.55717   L 54.750851 116.943982   L 54.860254 116.645887   L 54.933947 117.588361   L 55.10679 120.019362   L 55.148232 119.817528   L 55.751563 113.545349   L 55.759102 113.555138   L 55.797495 114.40804   L 55.951926 123.09097   L 56.028538 119.426337   L 56.138042 113.123918   L 56.188522 114.531957   L 56.312608 119.283483   L 56.370197 118.30077   L 56.461253 116.369408   L 56.513139 117.292647   L 56.624068 120.348296   L 56.683174 119.322331   L 56.810747 115.792725   L 56.871498 116.619288   L 56.967795 118.226182   L 57.019665 117.525338   L 57.13691 114.910718   L 57.194993 115.723331   L 57.32287 118.647307   L 57.375799 118.056722   L 57.483917 116.381892   L 57.535152 116.906062   L 57.621165 117.881279   L 57.672758 117.368821   L 57.812039 114.634932   L 57.872157 115.481862   L 58.007676 118.557319   L 58.059038 117.821496   L 58.198423 114.512582   L 58.259478 115.155725   L 58.341186 116.197925   L 58.401859 115.772432   L 58.477017 115.128959   L 58.530838 115.500712   L 58.661829 117.638354   L 58.720194 116.840238   L 58.865808 112.989376   L 58.923467 114.264289   L 59.064767 119.053434   L 59.135433 118.126134   L 59.198181 117.32545   L 59.261001 117.630942   L 59.311386 117.898151   L 59.360999 117.551506   L 59.513006 114.543951   L 59.579993 115.752161   L 59.718969 119.528241   L 59.778209 118.905744   L 59.938906 115.760684   L 60.002258 116.196869   L 60.134343 117.658919   L 60.192181 117.370225   L 60.49214 115.699576   L 60.52114 115.631378   L 60.561415 115.817263   L 60.712803 117.397236   L 60.783699 116.974202   L 61.136917 114.478462   L 61.163743 114.571647   L 61.264839 116.099174   L 61.362802 117.006843   L 61.405128 116.854171   L 61.636935 116.07601   L 61.660401 116.103575   L 61.741216 116.642184   L 61.82742 117.246596   L 61.881751 116.93553   L 62.04746 114.974763   L 62.13271 115.316571   L 62.166307 115.39203   L 62.207495 115.227856   L 62.339454 113.843262   L 62.403842 114.509154   L 62.552116 117.033463   L 62.608459 116.715486   L 62.678019 116.311749   L 62.726627 116.642965   L 62.881619 118.943295   L 62.948299 118.050464   L 63.080705 115.356198   L 63.134435 116.087997   L 63.281494 119.564002   L 63.34933 118.902021   L 63.41767 118.249116   L 63.481293 118.438494   L 63.502045 118.466888   L 63.532816 118.308422   L 63.643847 115.914828   L 63.779863 114.032329   L 63.811552 114.320453   L 63.974891 119.238799   L 64.048364 117.078622   L 64.161161 113.339705   L 64.209392 114.081537   L 64.30942 116.302178   L 64.361883 115.540758   L 64.465301 112.645232   L 64.516406 113.783888   L 64.676587 120.646728   L 64.739995 119.171662   L 64.860283 115.448206   L 64.914574 116.266389   L 65.042942 118.633981   L 65.098714 118.346915   L 65.156669 118.025696   L 65.202637 118.278828   L 65.284409 118.785873   L 65.335428 118.462263   L 65.505017 116.45962   L 65.575316 116.850149   L 65.742945 118.353736   L 65.792645 118.100427   L 65.959975 116.505429   L 66.036196 116.71287   L 66.070695 116.777263   L 66.130313 116.646189   L 66.175687 116.750581   L 66.247294 117.648189   L 66.344037 119.114078   L 66.396719 118.535308   L 66.563025 114.564262   L 66.632018 115.335279   L 66.757218 117.276366   L 66.815568 116.904064   L 66.942968 116.09398   L 66.98937 116.141166   L 67.032076 116.144061   L 67.054421 116.079327   L 67.191875 114.931934   L 67.303018 114.483916   L 67.332149 114.582968   L 67.466058 116.317756   L 67.566795 116.882574   L 67.60665 116.790881   L 67.783699 115.812765   L 67.853428 116.082163   L 67.973857 116.677981   L 68.022303 116.548077   L 68.100354 116.19942   L 68.150145 116.455918   L 68.266931 117.340354   L 68.322752 117.128119   L 68.49522 116.176077   L 68.543003 116.223965   L 68.591498 116.255311   L 68.633273 116.158903   L 68.683355 116.059924   L 68.728468 116.206665   L 68.883384 117.724308   L 68.948752 117.166996   L 69.073979 115.409171   L 69.131775 115.946659   L 69.250933 117.901212   L 69.308445 117.293176   L 69.435248 115.220958   L 69.487104 115.639727   L 69.621501 117.010862   L 69.674977 116.90059   L 69.855265 116.344083   L 69.909857 116.464086   L 70.036486 116.945764   L 70.096727 116.784651   L 70.217321 116.36813   L 70.274386 116.465112   L 70.642692 117.190923   L 70.697784 117.038822   L 70.87474 116.171662   L 70.931238 116.354831   L 71.053636 117.213598   L 71.110553 116.970116   L 71.227095 116.231829   L 71.281661 116.460248   L 71.378031 117.024839   L 71.429699 116.784737   L 71.58157 115.574235   L 71.641558 115.794504   L 71.715189 116.051852   L 71.774952 115.916566   L 71.813094 115.86767   L 71.849188 115.96635   L 72.040202 117.46677   L 72.114143 116.898316   L 72.232501 115.801554   L 72.280333 116.143172   L 72.41309 118.111992   L 72.477468 117.436983   L 72.60326 115.47673   L 72.655513 115.855087   L 72.776267 116.93841   L 72.826966 116.781083   L 72.901318 116.497452   L 72.954585 116.662331   L 73.063111 117.045509   L 73.116108 116.942136   L 73.377257 116.426802   L 73.516856 116.362547   L 73.543084 116.435309   L 73.658654 116.864521   L 73.715015 116.644137   L 73.839584 115.54938   L 73.900995 115.988264   L 74.028801 117.311187   L 74.088207 117.009366   L 74.212949 116.070173   L 74.26499 116.298549   L 74.366473 116.898823   L 74.415969 116.701119   L 74.563533 115.590946   L 74.621512 115.926   L 74.726625 116.797597   L 74.776508 116.439628   L 74.880279 115.457027   L 74.937011 115.831016   L 75.07017 117.187343   L 75.120274 116.936239   L 75.221603 116.285261   L 75.268488 116.495745   L 75.405502 117.639014   L 75.459846 117.303454   L 75.608905 115.709684   L 75.664023 116.106377   L 75.809576 117.719557   L 75.869921 117.412988   L 75.989144 116.801803   L 76.045526 116.920068   L 76.138833 117.138847   L 76.192346 117.050471   L 76.322287 116.750353   L 76.366247 116.823876   L 76.499497 117.122989   L 76.548233 117.043771   L 76.751542 116.03116   L 76.832459 116.298913   L 76.921905 116.568315   L 76.970865 116.463884   L 77.074395 116.214382   L 77.117619 116.302371   L 77.256688 116.769232   L 77.31269 116.606675   L 77.396893 116.218767   L 77.44658 116.411823   L 77.633952 118.264056   L 77.737002 118.043255   L 77.86934 117.478354   L 78.124377 116.512637   L 78.133618 116.51579   L 78.29604 116.762219   L 78.330142 116.567869   L 78.513 114.065031   L 78.585762 115.05867   L 78.732144 118.0685   L 78.791686 117.679382   L 78.872427 117.322842   L 78.931289 117.374748   L 78.976527 117.260768   L 79.060805 116.96537   L 79.100477 117.141697   L 79.158194 117.592817   L 79.204441 117.146007   L 79.344044 113.138063   L 79.415203 114.909758   L 79.526257 118.256481   L 79.579589 117.454801   L 79.699671 114.544441   L 79.752669 115.414509   L 79.886095 118.855588   L 79.946484 118.077422   L 80.035627 116.680963   L 80.097552 117.060261   L 80.146486 117.393215   L 80.197246 117.049892   L 80.34808 113.798762   L 80.414952 115.183899   L 80.531661 119.38867   L 80.587424 118.088128   L 80.711309 113.753624   L 80.767121 114.797868   L 80.886434 117.708713   L 80.942132 117.082683   L 81.037276 115.651931   L 81.08586 116.149153   L 81.211205 118.714093   L 81.269404 117.913133   L 81.402053 114.869087   L 81.461672 115.496843   L 81.568555 116.75675   L 81.620211 116.424546   L 81.718271 115.675544   L 81.765429 115.950973   L 81.899597 117.402056   L 81.953765 117.058548   L 82.03666 116.367488   L 82.092566 116.736321   L 82.16237 117.229691   L 82.205549 116.860968   L 82.31847 115.198262   L 82.372583 115.787119   L 82.497757 117.95429   L 82.554141 117.368671   L 82.653399 116.176264   L 82.706948 116.501505   L 82.794723 117.160132   L 82.844537 116.840859   L 82.998136 115.033799   L 83.07158 115.373053   L 83.473644 117.437588   L 83.499026 117.413911   L 83.510724 117.368537   L 83.635322 116.466258   L 83.691442 116.855168   L 83.837135 118.429826   L 83.891143 118.003705   L 84.062308 115.205977   L 84.127944 115.878935   L 84.253509 117.613817   L 84.309343 117.242062   L 84.420588 116.364933   L 84.470982 116.595287   L 84.6022 117.415175   L 84.651986 117.291909   L 84.735078 117.067842   L 84.781111 117.189586   L 84.876648 117.715138   L 84.930727 117.459453   L 85.074244 115.768484   L 85.139912 116.321986   L 85.262584 117.912176   L 85.313445 117.471701   L 85.459562 115.28258   L 85.519359 115.667935   L 85.684522 116.97687   L 85.748161 116.917911   L 85.770416 116.902216   L 85.809948 116.993632   L 85.893019 117.225289   L 85.933468 117.09173   L 86.107793 115.872694   L 86.171951 116.284512   L 86.318934 117.692633   L 86.386619 117.505583   L 86.527291 116.940786   L 86.583055 117.014702   L 86.66599 117.119198   L 86.701296 117.054884   L 86.780158 116.84293   L 86.825858 116.9956   L 86.981995 118.343618   L 87.047585 117.81764   L 87.179809 116.447103   L 87.233046 116.699088   L 87.320516 117.151262   L 87.36304 116.958869   L 87.524892 115.605434   L 87.597827 115.859954   L 87.658166 116.011204   L 87.702174 115.848978   L 87.835626 115.077393   L 87.893426 115.288274   L 87.996452 115.733926   L 88.042067 115.540235   L 88.181032 114.008733   L 88.238985 114.62927   L 88.393437 117.309468   L 88.453597 116.906525   L 88.513207 116.536547   L 88.559244 116.811549   L 88.681828 118.065789   L 88.732509 117.721111   L 88.834564 116.662164   L 88.88776 117.039722   L 89.017047 118.858201   L 89.076213 118.341413   L 89.202757 116.555228   L 89.257135 116.908125   L 89.380274 118.098856   L 89.431269 117.836038   L 89.600568 116.70657   L 89.648412 116.770484   L 89.698714 116.783924   L 89.728975 116.697652   L 89.881216 115.68962   L 89.951419 116.089887   L 90.068837 117.067821   L 90.119213 116.810696   L 90.269029 115.524252   L 90.324069 115.871387   L 90.435242 117.180099   L 90.492613 116.707784   L 90.59617 115.531422   L 90.654413 115.93115   L 90.780472 117.115989   L 90.839687 116.867916   L 90.92953 116.395985   L 90.980874 116.586566   L 91.080242 117.051549   L 91.126632 116.893207   L 91.241297 116.203249   L 91.295253 116.466796   L 91.431882 117.488971   L 91.486017 117.26547   L 91.649122 115.98515   L 91.71223 116.181992   L 91.82793 116.445019   L 91.879131 116.401433   L 91.958313 116.35264   L 91.994612 116.404509   L 92.084482 116.538242   L 92.122349 116.462763   L 92.294782 115.832882   L 92.37198 115.962758   L 92.42824 116.016603   L 92.476483 115.93089   L 92.599554 115.513705   L 92.651187 115.73084   L 92.837425 117.271845   L 92.934132 116.990276   L 92.986608 116.89139   L 93.041114 116.965419   L 93.087878 117.00266   L 93.12829 116.910785   L 93.347932 115.941976   L 93.407495 116.252543   L 93.541435 117.852149   L 93.597665 117.292233   L 93.729526 114.959871   L 93.783474 115.686355   L 93.922526 118.72217   L 93.990246 118.088839   L 94.140961 116.072793   L 94.207068 116.361231   L 94.355543 117.398254   L 94.419624 117.156646   L 94.55301 116.49322   L 94.607398 116.582554   L 94.706161 116.786985   L 94.744141 116.683458   L 94.954431 115.474643   L 95.080591 115.553319   L 95.168235 116.089443   L 95.416921 117.45806   L 95.510223 117.800219   L 95.563367 117.572689   L 95.723367 115.958939   L 95.790812 116.439126   L 95.856748 116.994906   L 95.915998 116.64154   L 95.95228 116.536567   L 96.000457 116.759101   L 96.126935 117.688022   L 96.184513 117.472922   L 96.292517 116.918218   L 96.354279 117.045263   L 96.386704 117.053239   L 96.414335 116.950899   L 96.659289 114.885459   L 96.750054 115.422841   L 96.890102 116.313698   L 96.935499 116.266544   L 96.985663 116.207673   L 97.02989 116.298996   L 97.19185 117.31317   L 97.257414 116.865206   L 97.397059 115.576833   L 97.451878 115.777705   L 97.634417 117.23357   L 97.705991 116.920769   L 97.823487 116.159703   L 97.880646 116.404173   L 98.005561 117.217752   L 98.059581 117.049298   L 98.145189 116.701974   L 98.193624 116.886125   L 98.314369 117.831549   L 98.365674 117.4447   L 98.497894 115.442507   L 98.564769 116.101061   L 98.655559 116.982033   L 98.708467 116.695283   L 98.789184 116.192388   L 98.836966 116.430191   L 98.991263 118.077026   L 99.048007 117.481064   L 99.17509 114.883087   L 99.238571 115.7839   L 99.35661 118.456572   L 99.41261 117.581386   L 99.545884 114.162022   L 99.602354 114.960062   L 99.725493 117.680005   L 99.779501 117.093551   L 99.884579 115.39703   L 99.937798 115.891124   L 100.064453 118.048416   L 100.117169 117.488786   L 100.247721 115.22958   L 100.301294 115.77731   L 100.437746 117.976046   L 100.490576 117.523748   L 100.62078 116.287194   L 100.676442 116.47586   L 100.756448 116.745244   L 100.818959 116.65532   L 100.871721 116.601943   L 100.941704 116.64652   L 101.00555 116.465341   L 101.139715 115.667587   L 101.203027 115.958606   L 101.303137 116.714837   L 101.354789 116.457134   L 101.477778 115.211744   L 101.536205 115.674185   L 101.682772 117.68684   L 101.740393 117.391889   L 101.85464 116.904745   L 101.897859 116.936776   L 101.958413 116.851737   L 102.086543 116.214026   L 102.147668 116.519175   L 102.285154 117.437616   L 102.343179 117.259713   L 102.604662 116.555552   L 102.703109 116.394289   L 102.75295 116.50872   L 102.931964 117.238005   L 102.98281 117.052316   L 103.132395 116.098972   L 103.207058 116.303597   L 103.2385 116.357595   L 103.288127 116.208273   L 103.347176 116.066499   L 103.385411 116.210357   L 103.576161 118.088488   L 103.641854 117.483186   L 103.780881 115.752763   L 103.843837 116.004838   L 103.972683 117.006178   L 104.034081 116.687545   L 104.151471 115.741481   L 104.20172 115.991897   L 104.332292 117.111019   L 104.395251 116.799924   L 104.499464 116.000369   L 104.552863 116.322576   L 104.679626 117.812295   L 104.74184 117.283257   L 104.861932 115.823391   L 104.921896 116.175206   L 105.066255 117.151207   L 105.116668 117.077059   L 105.253142 116.782598   L 105.303543 116.862987   L 105.396208 116.998868   L 105.441639 116.909201   L 105.59569 116.495418   L 105.653701 116.56756   L 105.781221 116.896274   L 105.829778 116.684353   L 105.985997 114.957446   L 106.059151 115.628301   L 106.183731 117.181856   L 106.240984 116.87139   L 106.331358 116.298656   L 106.383628 116.507701   L 106.505494 117.295919   L 106.563305 117.076659   L 106.721168 116.080447   L 106.778322 116.288086   L 106.939264 117.33259   L 106.999828 117.199259   L 107.055952 117.088002   L 107.107624 117.192105   L 107.182734 117.351348   L 107.237324 117.234196   L 107.398417 116.349591   L 107.450244 116.685091   L 107.556033 117.583578   L 107.611487 117.313032   L 107.722961 116.39542   L 107.779188 116.671337   L 107.908265 117.661952   L 107.957591 117.4397   L 108.082908 116.589101   L 108.143775 116.817969   L 108.246719 117.312948   L 108.296331 117.153325   L 108.479523 115.856381   L 108.570521 116.017527   L 108.593207 116.00984   L 108.616674 115.945463   L 108.712688 115.613672   L 108.765279 115.795428   L 108.932151 116.784142   L 109.004458 116.628564   L 109.052197 116.578682   L 109.099459 116.648575   L 109.201902 116.803884   L 109.24619 116.732858   L 109.400266 116.398853   L 109.456758 116.470674   L 109.555095 116.574157   L 109.602426 116.508158   L 109.71805 116.299436   L 109.764035 116.394238   L 109.91993 116.998305   L 109.97545 116.824315   L 110.116011 116.134852   L 110.169091 116.311347   L 110.315537 117.088791   L 110.37231 116.95623   L 110.613255 116.359515   L 110.637437 116.387532   L 110.749441 116.927101   L 110.842303 117.289268   L 110.890712 117.129937   L 111.035643 116.296022   L 111.101469 116.506508   L 111.199889 116.901411   L 111.255739 116.765062   L 111.381665 116.284495   L 111.438328 116.413528   L 111.544932 116.712542   L 111.595118 116.616062   L 111.731193 116.220359   L 111.783816 116.30143   L 111.887007 116.486728   L 111.931275 116.422907   L 112.098926 116.088254   L 112.157894 116.135413   L 112.291774 116.476687   L 112.528733 116.814152   L 112.606947 116.726365   L 112.739212 116.318085   L 112.790845 116.513123   L 112.951735 117.74252   L 113.017471 117.289142   L 113.143434 116.136733   L 113.202516 116.334265   L 113.289518 116.694105   L 113.332746 116.524797   L 113.43907 115.891297   L 113.494225 116.161762   L 113.635509 117.226433   L 113.700985 116.985768   L 113.77734 116.713559   L 113.829129 116.894527   L 113.917888 117.324011   L 113.964244 117.123684   L 114.111438 115.884044   L 114.168289 116.20841   L 114.273867 116.973204   L 114.321044 116.718731   L 114.430834 115.749857   L 114.481671 116.059562   L 114.618319 117.468669   L 114.682379 117.156282   L 114.796337 116.472619   L 114.842432 116.6272   L 114.968652 117.27588   L 115.022398 117.10953   L 115.255236 115.990735   L 115.305662 116.098829   L 115.484942 116.699982   L 115.546379 116.639072   L 115.607373 116.637781   L 115.633345 116.686943   L 115.771834 117.149815   L 115.82351 116.958411   L 116.005033 115.681062   L 116.069489 115.900393   L 116.220708 116.666476   L 116.270509 116.580249   L 116.339128 116.460535   L 116.389782 116.561342   L 116.551654 117.27834   L 116.62402 117.088544   L 116.720303 116.830406   L 116.763915 116.917866   L 116.893107 117.319148   L 116.947821 117.191459   L 117.114766 116.700569   L 117.165755 116.741892   L 117.235982 116.733051   L 117.262344 116.676987   L 117.369593 116.428769   L 117.419801 116.528471   L 117.565259 116.976226   L 117.615436 116.858915   L 117.805225 115.930304   L 117.89277 115.998325   L 118.044578 115.880478   L 118.091295 116.025637   L 118.252014 116.454707   L 118.291857 116.429836   L 118.371218 116.453013   L 118.389149 116.491772   L 118.720188 117.075574   L 118.789904 116.975743   L 119.169038 115.950988   L 119.220171 116.03404   L 119.550755 116.976586   L 119.606179 117.030473   L 119.649089 116.928572   L 119.877277 115.873777   L 119.942271 115.98507   L 120.471883 117.570647   L 120.546868 117.640149   L 120.576849 117.560106   L 120.713613 116.403349   L 120.871574 115.971522   L 120.944859 115.934677   L 120.984435 115.998949   L 121.149507 116.508868   L 121.220322 116.366313   L 121.311356 116.183181   L 121.353116 116.297329   L 121.49622 117.194758   L 121.558874 116.824154   L 121.692112 115.712598   L 121.751112 115.920081   L 121.871054 116.327763   L 121.926487 116.285086   L 121.987944 116.260171   L 122.022964 116.319816   L 122.237984 116.96171   L 122.329779 116.868338   L 122.415382 116.939293   L 122.578949 117.254735   L 122.624536 117.153018   L 122.779524 116.456093   L 122.845106 116.673848   L 122.946798 117.04357   L 122.997368 116.886079   L 123.139251 116.23547   L 123.189145 116.398875   L 123.333415 117.107612   L 123.391786 116.975742   L 123.476237 116.785345   L 123.52428 116.873526   L 123.622204 117.082527   L 123.670849 117.005772   L 123.785187 116.725143   L 123.835451 116.848173   L 123.972249 117.301984   L 124.026738 117.226118   L 124.219573 116.514684   L 124.336821 115.165398   L 124.39373 115.622023   L 124.515301 117.001793   L 124.572969 116.639546   L 124.686601 115.632281   L 124.740379 115.909777   L 124.885375 117.102057   L 124.952612 116.883293   L 125.018791 116.665995   L 125.071078 116.831922   L 125.172685 117.463168   L 125.223493 117.220916   L 125.384088 115.773942   L 125.444656 116.004557   L 125.581751 116.463296   L 125.631291 116.405395   L 125.703041 116.351741   L 125.746289 116.434403   L 125.881404 116.838872   L 125.941196 116.666538   L 126.065134 116.26255   L 126.111302 116.343406   L 126.251901 116.728673   L 126.313941 116.627645   L 126.410154 116.483418   L 126.452076 116.545461   L 126.575813 116.746517   L 126.627205 116.691154   L 126.688909 116.68293   L 126.715759 116.735133   L 127.024221 117.282835   L 127.031554 117.273814   L 127.10249 116.901596   L 127.261581 115.473915   L 127.320003 115.841599   L 127.438783 116.904389   L 127.495794 116.643301   L 127.608693 115.822253   L 127.664263 116.041041   L 127.804808 117.040085   L 127.86062 116.853622   L 127.953026 116.493626   L 128.001346 116.650609   L 128.126465 117.351366   L 128.179937 117.114252   L 128.293897 116.397661   L 128.350518 116.629555   L 128.466676 117.31502   L 128.522834 117.143026   L 128.702793 116.367269   L 128.760226 116.39594   L 129.319277 116.682478   L 129.550441 116.996074   L 129.708177 117.060023   L 129.735199 116.980156   L 129.911128 116.524903   L 129.963516 116.553431   L 130.039957 116.524245   L 130.054421 116.502493   L 130.122525 116.463788   L 130.158057 116.518501   L 130.367248 116.956153   L 130.420343 116.876551   L 130.580602 115.856457   L 130.659145 116.351821   L 130.776365 117.29483   L 130.832018 117.100528   L 130.987863 116.046524   L 131.050277 116.240792   L 131.116411 116.426024   L 131.169347 116.273003   L 131.239688 116.063626   L 131.286153 116.245538   L 131.456571 117.612817   L 131.521773 117.21423   L 131.651718 116.086537   L 131.708582 116.260466   L 131.796286 116.593322   L 131.856622 116.456354   L 131.927745 116.317607   L 131.974437 116.437942   L 132.149308 117.220557   L 132.219287 117.116411   L 132.258526 117.084104   L 132.303806 117.160837   L 132.395933 117.514977   L 132.439082 117.30899   L 132.639764 114.873297   L 132.722654 115.646574   L 132.850887 117.166191   L 132.910815 116.975775   L 132.970499 116.747883   L 133.023672 116.965785   L 133.159501 118.482405   L 133.212924 117.795278   L 133.346964 114.274611   L 133.408117 115.369126   L 133.524183 118.057644   L 133.578953 117.274222   L 133.700865 115.060444   L 133.75213 115.456629   L 133.86959 116.826099   L 133.928221 116.465549   L 134.046855 115.402926   L 134.102681 115.697651   L 134.250704 116.752738   L 134.301643 116.612991   L 134.375212 116.406361   L 134.422193 116.531617   L 134.562823 117.331122   L 134.627181 117.073989   L 134.727926 116.633817   L 134.776986 116.772649   L 134.926 117.504185   L 134.985019 117.360063   L 135.066745 117.162395   L 135.114751 117.266387   L 135.145447 117.3158   L 135.191966 117.18625   L 135.36555 115.349547   L 135.448669 116.163898   L 135.545687 117.135248   L 135.601961 116.838369   L 135.751232 115.491702   L 135.817085 115.737789   L 135.963932 116.464234   L 136.02755 116.365633   L 136.081098 116.297631   L 136.129237 116.385615   L 136.293026 117.023069   L 136.366887 116.906648   L 136.425062 116.845374   L 136.467868 116.915123   L 136.648527 117.453791   L 136.718731 117.386165   L 136.766289 117.198507   L 136.933453 114.827607   L 137.013404 115.903016   L 137.10969 117.285691   L 137.162823 116.756632   L 137.287319 114.860744   L 137.343536 115.295922   L 137.46095 116.455629   L 137.510353 116.260497   L 137.587139 115.93568   L 137.628905 116.120812   L 137.815084 117.759358   L 137.906547 117.52712   L 137.932446 117.532159   L 137.953671 117.603173   L 138.04346 118.140489   L 138.090603 117.844681   L 138.278348 114.871883   L 138.351873 115.660262   L 138.469984 117.217717   L 138.528383 116.887599   L 138.612883 116.288248   L 138.664979 116.567491   L 138.754064 117.474233   L 138.806912 117.01472   L 138.952165 114.151001   L 139.012346 115.035427   L 139.131633 117.433786   L 139.190855 116.84816   L 139.291921 115.533736   L 139.344694 116.056309   L 139.476224 118.079061   L 139.538937 117.615074   L 139.63091 116.807838   L 139.677386 117.122982   L 139.800267 118.654863   L 139.856986 118.189546   L 139.990126 116.33119   L 140.051416 116.734795   L 140.154807 117.59678   L 140.204859 117.297079   L 140.332534 116.099966   L 140.393541 116.414113   L 140.503163 117.146877   L 140.552898 116.916128   L 140.677641 116.086616   L 140.730677 116.277905   L 140.858313 116.922978   L 140.907142 116.77748   L 141.020765 116.353495   L 141.070622 116.490423   L 141.166462 116.833926   L 141.213236 116.683471   L 141.367489 115.815299   L 141.434709 115.96232   L 141.679309 116.409919   L 141.779071 116.589475   L 141.902824 116.813932   L 141.944828 116.773793   L 142.052659 116.690179   L 142.085699 116.731486   L 142.196121 116.911932   L 142.2408 116.810941   L 142.418884 116.139281   L 142.47881 116.266556   L 142.632285 116.739355   L 142.680647 116.682175   L 142.763584 116.605209   L 142.806072 116.672978   L 142.923874 116.960996   L 142.971044 116.857395   L 143.101873 116.40426   L 143.157787 116.568472   L 143.289719 117.117863   L 143.33701 116.988674   L 143.47375 116.413952   L 143.524826 116.538696   L 143.667 117.129186   L 143.72493 117.021181   L 143.817193 116.838405   L 143.867376 116.93061   L 143.949227 117.06148   L 143.994215 116.98345   L 144.166984 116.483567   L 144.235523 116.571162   L 144.690298 116.950982   L 144.927898 117.003594   L 144.947707 116.941098   L 145.102216 116.607477   L 145.138271 116.628434   L 145.224183 116.621287   L 145.247194 116.571451   L 145.416141 116.024111   L 145.480422 116.250054   L 145.628797 116.936805   L 145.683468 116.839699   L 145.789329 116.738832   L 145.826656 116.75854   L 145.924316 116.68208   L 146.209721 116.295371   L 146.295617 116.27463   L 146.323958 116.3291   L 146.590379 116.969206   L 146.634029 116.915785   L 146.982993 116.279853   L 147.022787 116.314121   L 147.249587 116.676184   L 147.313134 116.610089   L 147.420834 116.600092   L 147.440802 116.624048   L 147.66735 116.773779   L 147.677485 116.765876   L 147.883827 116.482062   L 147.947064 116.625626   L 148.108513 117.024424   L 148.150937 116.989649   L 148.369038 116.669934   L 148.599171 116.248997   L 148.698292 116.166924   L 148.73457 116.224487   L 148.914774 116.616395   L 148.985158 116.567654   L 149.064835 116.602398   L 149.074173 116.619346   L 149.204895 116.848491   L 149.261478 116.762655   L 149.384293 116.568474   L 149.426432 116.618959   L 149.598614 116.949022   L 149.668581 116.889556   L 149.752561 116.895141   L 149.776542 116.925241   L 149.848068 116.952464   L 149.885744 116.895089   L 150.038286 116.293205   L 150.090658 116.106408   L 150.144821 116.320303   L 150.26196 116.948257   L 150.316121 116.763834   L 150.434221 116.232312   L 150.482796 116.369836   L 150.602807 116.846903   L 150.655293 116.72289   L 150.771135 116.32383   L 150.82695 116.433625   L 150.95127 116.771321   L 151.002472 116.666056   L 151.115839 116.392202   L 151.169999 116.475994   L 151.295742 116.717898   L 151.338677 116.654917   L 151.469294 116.446922   L 151.51818 116.5171   L 151.639992 116.679895   L 151.683302 116.630381   L 151.813101 116.48454   L 151.853673 116.525841   L 151.990073 116.650213   L 152.026494 116.616202   L 152.180058 116.527488   L 152.202626 116.549892   L 152.361155 116.614566   L 152.384782 116.592802   L 152.555747 116.570072   L 152.735484 116.585792   L 152.906079 116.581544   L 153.088741 116.581922   L 153.295466 116.604573   L 153.719092 116.603275   L 154.267445 116.594386   L 154.887835 116.596241   L 157.116518 116.621627   L 157.116518 116.621627   "
           style="fill:none;stroke:#2ca02c;stroke-linecap:square;stroke-width:0.5;"
           id="path6137" />
      </g>
      <g
         id="patch_4">
        <path
           d="M 162.614105 226.651172   L 162.614105 9.211172   "
           style="fill:none;"
           id="path6143" />
      </g>
      <g
         id="patch_6">
        <path
           d="M 41.667188 9.211172   L 162.614105 9.211172   "
           style="fill:none;"
           id="path6149" />
      </g>
      <g
         id="line2d_32">
        <path
           clip-path="url(#p037097634a)"
           d="M 47.164775 187.034671   "
           style="fill:none;stroke:#000000;stroke-linecap:square;stroke-width:1.5;"
           id="path6152" />
        <defs
           id="defs6155">
          <path
             d="M 4.5 0   L -4.5 -4.5   L -4.5 4.5   z  "
             id="m5a4c4f5482"
             style="stroke:#000000;stroke-linejoin:miter;" />
        </defs>
        <g
           clip-path="url(#p037097634a)"
           id="g6159">
          <use
             style="fill-opacity:0;stroke:#000000;stroke-linejoin:miter;"
             x="47.164775"
             xlink:href="#m5a4c4f5482"
             y="187.034671"
             id="use6157" />
        </g>
      </g>
      <g
         id="line2d_33">
        <path
           clip-path="url(#p037097634a)"
           d="M 47.34081 187.210707   "
           style="fill:none;stroke:#000000;stroke-linecap:square;stroke-width:1.5;"
           id="path6162" />
        <defs
           id="defs6165">
          <path
             d="M 0 -4.5   L -4.5 4.5   L 4.5 4.5   z  "
             id="maea068428a"
             style="stroke:#000000;stroke-linejoin:miter;" />
        </defs>
        <g
           clip-path="url(#p037097634a)"
           id="g6169">
          <use
             style="fill-opacity:0;stroke:#000000;stroke-linejoin:miter;"
             x="47.34081"
             xlink:href="#maea068428a"
             y="187.210707"
             id="use6167" />
        </g>
      </g>
      <g
         id="line2d_34">
        <path
           clip-path="url(#p037097634a)"
           d="M 47.34081 187.034671   "
           style="fill:none;stroke:#000000;stroke-linecap:square;stroke-width:1.5;"
           id="path6172" />
        <defs
           id="defs6175">
          <path
             d="M -4.5 4.5   L 4.5 4.5   L 4.5 -4.5   L -4.5 -4.5   z  "
             id="md8dc9dd6e8"
             style="stroke:#000000;stroke-linejoin:miter;" />
        </defs>
        <g
           clip-path="url(#p037097634a)"
           id="g6179">
          <use
             style="fill-opacity:0;stroke:#000000;stroke-linejoin:miter;"
             x="47.34081"
             xlink:href="#md8dc9dd6e8"
             y="187.034671"
             id="use6177" />
        </g>
      </g>
      <g
         id="line2d_35">
        <path
           clip-path="url(#p037097634a)"
           d="M 148.561195 187.034671   "
           style="fill:none;stroke:#000000;stroke-linecap:square;stroke-width:1.5;"
           id="path6182" />
        <g
           clip-path="url(#p037097634a)"
           id="g6186">
          <use
             style="fill-opacity:0;stroke:#000000;stroke-linejoin:miter;"
             x="148.561195"
             xlink:href="#m5a4c4f5482"
             y="187.034671"
             id="use6184" />
        </g>
      </g>
      <g
         id="line2d_36">
        <path
           clip-path="url(#p037097634a)"
           d="M 148.737231 187.210707   "
           style="fill:none;stroke:#000000;stroke-linecap:square;stroke-width:1.5;"
           id="path6189" />
        <g
           clip-path="url(#p037097634a)"
           id="g6193">
          <use
             style="fill-opacity:0;stroke:#000000;stroke-linejoin:miter;"
             x="148.737231"
             xlink:href="#maea068428a"
             y="187.210707"
             id="use6191" />
        </g>
      </g>
      <g
         id="line2d_37">
        <path
           clip-path="url(#p037097634a)"
           d="M 148.737231 187.034671   "
           style="fill:none;stroke:#000000;stroke-linecap:square;stroke-width:1.5;"
           id="path6196" />
        <g
           clip-path="url(#p037097634a)"
           id="g6200">
          <use
             style="fill-opacity:0;stroke:#000000;stroke-linejoin:miter;"
             x="148.737231"
             xlink:href="#md8dc9dd6e8"
             y="187.034671"
             id="use6198" />
        </g>
      </g>
      <g
         id="line2d_38">
        <path
           clip-path="url(#p037097634a)"
           d="M 47.34081 136.336461   "
           style="fill:none;stroke:#000000;stroke-linecap:square;stroke-width:1.5;"
           id="path6203" />
        <g
           clip-path="url(#p037097634a)"
           id="g6207">
          <use
             style="fill-opacity:0;stroke:#000000;stroke-linejoin:miter;"
             x="47.34081"
             xlink:href="#md8dc9dd6e8"
             y="136.336461"
             id="use6205" />
        </g>
      </g>
      <g
         id="line2d_39">
        <path
           clip-path="url(#p037097634a)"
           d="M 148.737231 136.336461   "
           style="fill:none;stroke:#000000;stroke-linecap:square;stroke-width:1.5;"
           id="path6210" />
        <g
           clip-path="url(#p037097634a)"
           id="g6214">
          <use
             style="fill-opacity:0;stroke:#000000;stroke-linejoin:miter;"
             x="148.737231"
             xlink:href="#md8dc9dd6e8"
             y="136.336461"
             id="use6212" />
        </g>
      </g>
      <g
         id="line2d_40">
        <path
           clip-path="url(#p037097634a)"
           d="M 47.34081 85.638251   "
           style="fill:none;stroke:#000000;stroke-linecap:square;stroke-width:1.5;"
           id="path6217" />
        <g
           clip-path="url(#p037097634a)"
           id="g6221">
          <use
             style="fill-opacity:0;stroke:#000000;stroke-linejoin:miter;"
             x="47.34081"
             xlink:href="#md8dc9dd6e8"
             y="85.638251"
             id="use6219" />
        </g>
      </g>
      <g
         id="line2d_41">
        <path
           clip-path="url(#p037097634a)"
           d="M 148.737231 85.638251   "
           style="fill:none;stroke:#000000;stroke-linecap:square;stroke-width:1.5;"
           id="path6224" />
        <g
           clip-path="url(#p037097634a)"
           id="g6228">
          <use
             style="fill-opacity:0;stroke:#000000;stroke-linejoin:miter;"
             x="148.737231"
             xlink:href="#md8dc9dd6e8"
             y="85.638251"
             id="use6226" />
        </g>
      </g>
      <g
         id="line2d_42">
        <path
           clip-path="url(#p037097634a)"
           d="M 47.34081 34.94004   "
           style="fill:none;stroke:#000000;stroke-linecap:square;stroke-width:1.5;"
           id="path6231" />
        <g
           clip-path="url(#p037097634a)"
           id="g6235">
          <use
             style="fill-opacity:0;stroke:#000000;stroke-linejoin:miter;"
             x="47.34081"
             xlink:href="#md8dc9dd6e8"
             y="34.94004"
             id="use6233" />
        </g>
      </g>
      <g
         id="line2d_43">
        <path
           clip-path="url(#p037097634a)"
           d="M 148.737231 34.94004   "
           style="fill:none;stroke:#000000;stroke-linecap:square;stroke-width:1.5;"
           id="path6238" />
        <g
           clip-path="url(#p037097634a)"
           id="g6242">
          <use
             style="fill-opacity:0;stroke:#000000;stroke-linejoin:miter;"
             x="148.737231"
             xlink:href="#md8dc9dd6e8"
             y="34.94004"
             id="use6240" />
        </g>
      </g>
    </g>
  </g>
  <defs
     id="defs6250">
    <clipPath
       id="p037097634a">
      <rect
         height="217.44"
         width="120.946918"
         x="41.667188"
         y="9.211172"
         id="rect6247" />
    </clipPath>
  </defs>
</svg>
