<?xml version="1.0" encoding="utf-8" standalone="no"?>
<!DOCTYPE svg PUBLIC "-//W3C//DTD SVG 1.1//EN"
  "http://www.w3.org/Graphics/SVG/1.1/DTD/svg11.dtd">
<!-- Created with matplotlib (https://matplotlib.org/) -->
<svg height="248.518125pt" version="1.1" viewBox="0 0 380.482813 248.518125" width="380.482813pt" xmlns="http://www.w3.org/2000/svg" xmlns:xlink="http://www.w3.org/1999/xlink">
 <defs>
  <style type="text/css">
*{stroke-linecap:butt;stroke-linejoin:round;}
  </style>
 </defs>
 <g id="figure_1">
  <g id="patch_1">
   <path d="M -0 248.518125 
L 380.482813 248.518125 
L 380.482813 0 
L -0 0 
z
" style="fill:none;"/>
  </g>
  <g id="axes_1">
   <g id="patch_2">
    <path d="M 38.482813 224.64 
L 373.282813 224.64 
L 373.282813 7.2 
L 38.482813 7.2 
z
" style="fill:#ffffff;"/>
   </g>
   <g id="line2d_1">
    <path clip-path="url(#p982ed2b47e)" d="M 53.700994 115.92 
L 97.181514 115.92 
" style="fill:none;stroke:#808080;stroke-linecap:square;"/>
   </g>
   <g id="line2d_2">
    <path clip-path="url(#p982ed2b47e)" d="M 53.700994 115.92 
L 75.441254 93.92684 
L 97.181514 71.93368 
" style="fill:none;stroke:#ff0000;stroke-dasharray:1.5,2.475;stroke-dashoffset:0;stroke-width:1.5;"/>
   </g>
   <g id="line2d_3">
    <path clip-path="url(#p982ed2b47e)" d="M 97.181514 115.92 
L 140.662033 115.92 
" style="fill:none;stroke:#808080;stroke-linecap:square;"/>
   </g>
   <g id="line2d_4">
    <path clip-path="url(#p982ed2b47e)" d="M 97.181514 71.93368 
L 118.921774 133.557145 
L 140.662033 195.18061 
" style="fill:none;stroke:#ff0000;stroke-dasharray:1.5,2.475;stroke-dashoffset:0;stroke-width:1.5;"/>
   </g>
   <g id="line2d_5">
    <path clip-path="url(#p982ed2b47e)" d="M 140.662033 115.92 
L 184.142553 115.92 
" style="fill:none;stroke:#808080;stroke-linecap:square;"/>
   </g>
   <g id="line2d_6">
    <path clip-path="url(#p982ed2b47e)" d="M 140.662033 195.18061 
L 162.402293 106.132123 
L 184.142553 17.083636 
" style="fill:none;stroke:#ff0000;stroke-dasharray:1.5,2.475;stroke-dashoffset:0;stroke-width:1.5;"/>
   </g>
   <g id="line2d_7">
    <path clip-path="url(#p982ed2b47e)" d="M 184.142553 115.92 
L 227.623072 115.92 
" style="fill:none;stroke:#808080;stroke-linecap:square;"/>
   </g>
   <g id="line2d_8">
    <path clip-path="url(#p982ed2b47e)" d="M 184.142553 17.083636 
L 205.882812 115.92 
L 227.623072 214.756364 
" style="fill:none;stroke:#ff0000;stroke-dasharray:1.5,2.475;stroke-dashoffset:0;stroke-width:1.5;"/>
   </g>
   <g id="line2d_9">
    <path clip-path="url(#p982ed2b47e)" d="M 227.623072 115.92 
L 271.103592 115.92 
" style="fill:none;stroke:#808080;stroke-linecap:square;"/>
   </g>
   <g id="line2d_10">
    <path clip-path="url(#p982ed2b47e)" d="M 227.623072 214.756364 
L 249.363332 125.707877 
L 271.103592 36.65939 
" style="fill:none;stroke:#ff0000;stroke-dasharray:1.5,2.475;stroke-dashoffset:0;stroke-width:1.5;"/>
   </g>
   <g id="line2d_11">
    <path clip-path="url(#p982ed2b47e)" d="M 271.103592 115.92 
L 314.584111 115.92 
" style="fill:none;stroke:#808080;stroke-linecap:square;"/>
   </g>
   <g id="line2d_12">
    <path clip-path="url(#p982ed2b47e)" d="M 271.103592 36.65939 
L 292.843851 54.296535 
L 314.584111 71.93368 
" style="fill:none;stroke:#ff0000;stroke-dasharray:1.5,2.475;stroke-dashoffset:0;stroke-width:1.5;"/>
   </g>
   <g id="line2d_13">
    <path clip-path="url(#p982ed2b47e)" d="M 314.584111 115.92 
L 358.064631 115.92 
" style="fill:none;stroke:#808080;stroke-linecap:square;"/>
   </g>
   <g id="line2d_14">
    <path clip-path="url(#p982ed2b47e)" d="M 314.584111 71.93368 
L 336.324371 93.92684 
L 358.064631 115.92 
" style="fill:none;stroke:#ff0000;stroke-dasharray:1.5,2.475;stroke-dashoffset:0;stroke-width:1.5;"/>
   </g>
   <g id="line2d_15">
    <path clip-path="url(#p982ed2b47e)" d="M 53.700994 115.92 
L 55.989443 115.567289 
L 58.277891 114.560458 
L 60.566339 112.976463 
L 62.854788 110.892259 
L 65.143236 108.384802 
L 67.431685 105.531046 
L 69.720133 102.407946 
L 72.008581 99.092459 
L 74.29703 95.661539 
L 76.585478 92.192141 
L 78.873927 88.761221 
L 81.162375 85.445734 
L 83.450823 82.322635 
L 85.739272 79.468879 
L 88.02772 76.961421 
L 90.316169 74.877217 
L 92.604617 73.293222 
L 94.893065 72.286392 
L 97.181514 71.93368 
" style="fill:none;stroke:#ff0000;stroke-linecap:square;stroke-width:1.5;"/>
   </g>
   <g id="line2d_16">
    <path clip-path="url(#p982ed2b47e)" d="M 97.181514 71.93368 
L 99.469962 72.921956 
L 101.758411 75.743033 
L 104.046859 80.181288 
L 106.335307 86.021097 
L 108.623756 93.046837 
L 110.912204 101.042883 
L 113.200653 109.793613 
L 115.489101 119.083402 
L 117.777549 128.696627 
L 120.065998 138.417663 
L 122.354446 148.030888 
L 124.642895 157.320677 
L 126.931343 166.071406 
L 129.219791 174.067453 
L 131.50824 181.093193 
L 133.796688 186.933002 
L 136.085136 191.371257 
L 138.373585 194.192334 
L 140.662033 195.18061 
" style="fill:none;stroke:#ff0000;stroke-linecap:square;stroke-width:1.5;"/>
   </g>
   <g id="line2d_17">
    <path clip-path="url(#p982ed2b47e)" d="M 140.662033 195.18061 
L 142.950482 193.75251 
L 145.23893 189.675936 
L 147.527378 183.262471 
L 149.815827 174.823702 
L 152.104275 164.671214 
L 154.392724 153.116592 
L 156.681172 140.471421 
L 158.96962 127.047287 
L 161.258069 113.155775 
L 163.546517 99.108471 
L 165.834966 85.216959 
L 168.123414 71.792825 
L 170.411862 59.147654 
L 172.700311 47.593032 
L 174.988759 37.440544 
L 177.277208 29.001775 
L 179.565656 22.58831 
L 181.854104 18.511736 
L 184.142553 17.083636 
" style="fill:none;stroke:#ff0000;stroke-linecap:square;stroke-width:1.5;"/>
   </g>
   <g id="line2d_18">
    <path clip-path="url(#p982ed2b47e)" d="M 184.142553 17.083636 
L 186.431001 18.668707 
L 188.71945 23.193363 
L 191.007898 30.311772 
L 193.296346 39.678099 
L 195.584795 50.946511 
L 197.873243 63.771174 
L 200.161692 77.806254 
L 202.45014 92.705919 
L 204.738588 108.124334 
L 207.027037 123.715666 
L 209.315485 139.134081 
L 211.603933 154.033746 
L 213.892382 168.068826 
L 216.18083 180.893489 
L 218.469279 192.161901 
L 220.757727 201.528228 
L 223.046175 208.646637 
L 225.334624 213.171293 
L 227.623072 214.756364 
" style="fill:none;stroke:#ff0000;stroke-linecap:square;stroke-width:1.5;"/>
   </g>
   <g id="line2d_19">
    <path clip-path="url(#p982ed2b47e)" d="M 227.623072 214.756364 
L 229.911521 213.328264 
L 232.199969 209.25169 
L 234.488417 202.838225 
L 236.776866 194.399456 
L 239.065314 184.246968 
L 241.353763 172.692346 
L 243.642211 160.047175 
L 245.930659 146.623041 
L 248.219108 132.731529 
L 250.507556 118.684225 
L 252.796005 104.792713 
L 255.084453 91.368579 
L 257.372901 78.723408 
L 259.66135 67.168786 
L 261.949798 57.016298 
L 264.238247 48.577529 
L 266.526695 42.164064 
L 268.815143 38.08749 
L 271.103592 36.65939 
" style="fill:none;stroke:#ff0000;stroke-linecap:square;stroke-width:1.5;"/>
   </g>
   <g id="line2d_20">
    <path clip-path="url(#p982ed2b47e)" d="M 271.103592 36.65939 
L 273.39204 36.942243 
L 275.680489 37.749659 
L 277.968937 39.019924 
L 280.257385 40.691325 
L 282.545834 42.70215 
L 284.834282 44.990685 
L 287.12273 47.495216 
L 289.411179 50.15403 
L 291.699627 52.905415 
L 293.988076 55.687656 
L 296.276524 58.43904 
L 298.564972 61.097854 
L 300.853421 63.602386 
L 303.141869 65.89092 
L 305.430318 67.901745 
L 307.718766 69.573147 
L 310.007214 70.843412 
L 312.295663 71.650828 
L 314.584111 71.93368 
" style="fill:none;stroke:#ff0000;stroke-linecap:square;stroke-width:1.5;"/>
   </g>
   <g id="line2d_21">
    <path clip-path="url(#p982ed2b47e)" d="M 314.584111 71.93368 
L 316.87256 72.286392 
L 319.161008 73.293222 
L 321.449456 74.877217 
L 323.737905 76.961421 
L 326.026353 79.468879 
L 328.314802 82.322635 
L 330.60325 85.445734 
L 332.891698 88.761221 
L 335.180147 92.192141 
L 337.468595 95.661539 
L 339.757044 99.092459 
L 342.045492 102.407946 
L 344.33394 105.531046 
L 346.622389 108.384802 
L 348.910837 110.892259 
L 351.199286 112.976463 
L 353.487734 114.560458 
L 355.776182 115.567289 
L 358.064631 115.92 
" style="fill:none;stroke:#ff0000;stroke-linecap:square;stroke-width:1.5;"/>
   </g>
   <g id="line2d_22">
    <path clip-path="url(#p982ed2b47e)" d="M 53.700994 115.92 
L 97.181514 115.92 
" style="fill:none;stroke:#808080;stroke-linecap:square;"/>
   </g>
   <g id="line2d_23">
    <path clip-path="url(#p982ed2b47e)" d="M 53.700994 115.92 
L 75.441254 155.550305 
L 97.181514 195.18061 
" style="fill:none;stroke:#0000ff;stroke-dasharray:1.5,2.475;stroke-dashoffset:0;stroke-width:1.5;"/>
   </g>
   <g id="line2d_24">
    <path clip-path="url(#p982ed2b47e)" d="M 97.181514 115.92 
L 140.662033 115.92 
" style="fill:none;stroke:#808080;stroke-linecap:square;"/>
   </g>
   <g id="line2d_25">
    <path clip-path="url(#p982ed2b47e)" d="M 97.181514 195.18061 
L 118.921774 106.132123 
L 140.662033 17.083636 
" style="fill:none;stroke:#0000ff;stroke-dasharray:1.5,2.475;stroke-dashoffset:0;stroke-width:1.5;"/>
   </g>
   <g id="line2d_26">
    <path clip-path="url(#p982ed2b47e)" d="M 140.662033 115.92 
L 184.142553 115.92 
" style="fill:none;stroke:#808080;stroke-linecap:square;"/>
   </g>
   <g id="line2d_27">
    <path clip-path="url(#p982ed2b47e)" d="M 140.662033 17.083636 
L 162.402293 88.494978 
L 184.142553 159.90632 
" style="fill:none;stroke:#0000ff;stroke-dasharray:1.5,2.475;stroke-dashoffset:0;stroke-width:1.5;"/>
   </g>
   <g id="line2d_28">
    <path clip-path="url(#p982ed2b47e)" d="M 184.142553 115.92 
L 227.623072 115.92 
" style="fill:none;stroke:#808080;stroke-linecap:square;"/>
   </g>
   <g id="line2d_29">
    <path clip-path="url(#p982ed2b47e)" d="M 184.142553 159.90632 
L 205.882812 159.90632 
L 227.623072 159.90632 
" style="fill:none;stroke:#0000ff;stroke-dasharray:1.5,2.475;stroke-dashoffset:0;stroke-width:1.5;"/>
   </g>
   <g id="line2d_30">
    <path clip-path="url(#p982ed2b47e)" d="M 227.623072 115.92 
L 271.103592 115.92 
" style="fill:none;stroke:#808080;stroke-linecap:square;"/>
   </g>
   <g id="line2d_31">
    <path clip-path="url(#p982ed2b47e)" d="M 227.623072 159.90632 
L 249.363332 88.494978 
L 271.103592 17.083636 
" style="fill:none;stroke:#0000ff;stroke-dasharray:1.5,2.475;stroke-dashoffset:0;stroke-width:1.5;"/>
   </g>
   <g id="line2d_32">
    <path clip-path="url(#p982ed2b47e)" d="M 271.103592 115.92 
L 314.584111 115.92 
" style="fill:none;stroke:#808080;stroke-linecap:square;"/>
   </g>
   <g id="line2d_33">
    <path clip-path="url(#p982ed2b47e)" d="M 271.103592 17.083636 
L 292.843851 26.871513 
L 314.584111 36.65939 
" style="fill:none;stroke:#0000ff;stroke-dasharray:1.5,2.475;stroke-dashoffset:0;stroke-width:1.5;"/>
   </g>
   <g id="line2d_34">
    <path clip-path="url(#p982ed2b47e)" d="M 314.584111 115.92 
L 358.064631 115.92 
" style="fill:none;stroke:#808080;stroke-linecap:square;"/>
   </g>
   <g id="line2d_35">
    <path clip-path="url(#p982ed2b47e)" d="M 314.584111 36.65939 
L 336.324371 76.289695 
L 358.064631 115.92 
" style="fill:none;stroke:#0000ff;stroke-dasharray:1.5,2.475;stroke-dashoffset:0;stroke-width:1.5;"/>
   </g>
   <g id="line2d_36">
    <path clip-path="url(#p982ed2b47e)" d="M 53.700994 115.92 
L 55.989443 116.555564 
L 58.277891 118.36981 
L 60.566339 121.224071 
L 62.854788 124.979676 
L 65.143236 129.497958 
L 67.431685 134.640249 
L 69.720133 140.267879 
L 72.008581 146.242181 
L 74.29703 152.424485 
L 76.585478 158.676124 
L 78.873927 164.858429 
L 81.162375 170.83273 
L 83.450823 176.460361 
L 85.739272 181.602651 
L 88.02772 186.120934 
L 90.316169 189.876539 
L 92.604617 192.730799 
L 94.893065 194.545046 
L 97.181514 195.18061 
" style="fill:none;stroke:#0000ff;stroke-linecap:square;stroke-width:1.5;"/>
   </g>
   <g id="line2d_37">
    <path clip-path="url(#p982ed2b47e)" d="M 97.181514 195.18061 
L 99.469962 193.75251 
L 101.758411 189.675936 
L 104.046859 183.262471 
L 106.335307 174.823702 
L 108.623756 164.671214 
L 110.912204 153.116592 
L 113.200653 140.471421 
L 115.489101 127.047287 
L 117.777549 113.155775 
L 120.065998 99.108471 
L 122.354446 85.216959 
L 124.642895 71.792825 
L 126.931343 59.147654 
L 129.219791 47.593032 
L 131.50824 37.440544 
L 133.796688 29.001775 
L 136.085136 22.58831 
L 138.373585 18.511736 
L 140.662033 17.083636 
" style="fill:none;stroke:#0000ff;stroke-linecap:square;stroke-width:1.5;"/>
   </g>
   <g id="line2d_38">
    <path clip-path="url(#p982ed2b47e)" d="M 140.662033 17.083636 
L 142.950482 18.228883 
L 145.23893 21.498042 
L 147.527378 26.641241 
L 149.815827 33.408609 
L 152.104275 41.550272 
L 154.392724 50.816359 
L 156.681172 60.956999 
L 158.96962 71.722319 
L 161.258069 82.862446 
L 163.546517 94.12751 
L 165.834966 105.267638 
L 168.123414 116.032957 
L 170.411862 126.173597 
L 172.700311 135.439684 
L 174.988759 143.581348 
L 177.277208 150.348715 
L 179.565656 155.491914 
L 181.854104 158.761073 
L 184.142553 159.90632 
" style="fill:none;stroke:#0000ff;stroke-linecap:square;stroke-width:1.5;"/>
   </g>
   <g id="line2d_39">
    <path clip-path="url(#p982ed2b47e)" d="M 184.142553 159.90632 
L 186.431001 159.90632 
L 188.71945 159.90632 
L 191.007898 159.90632 
L 193.296346 159.90632 
L 195.584795 159.90632 
L 197.873243 159.90632 
L 200.161692 159.90632 
L 202.45014 159.90632 
L 204.738588 159.90632 
L 207.027037 159.90632 
L 209.315485 159.90632 
L 211.603933 159.90632 
L 213.892382 159.90632 
L 216.18083 159.90632 
L 218.469279 159.90632 
L 220.757727 159.90632 
L 223.046175 159.90632 
L 225.334624 159.90632 
L 227.623072 159.90632 
" style="fill:none;stroke:#0000ff;stroke-linecap:square;stroke-width:1.5;"/>
   </g>
   <g id="line2d_40">
    <path clip-path="url(#p982ed2b47e)" d="M 227.623072 159.90632 
L 229.911521 158.761073 
L 232.199969 155.491914 
L 234.488417 150.348715 
L 236.776866 143.581348 
L 239.065314 135.439684 
L 241.353763 126.173597 
L 243.642211 116.032957 
L 245.930659 105.267638 
L 248.219108 94.12751 
L 250.507556 82.862446 
L 252.796005 71.722319 
L 255.084453 60.956999 
L 257.372901 50.816359 
L 259.66135 41.550272 
L 261.949798 33.408609 
L 264.238247 26.641241 
L 266.526695 21.498042 
L 268.815143 18.228883 
L 271.103592 17.083636 
" style="fill:none;stroke:#0000ff;stroke-linecap:square;stroke-width:1.5;"/>
   </g>
   <g id="line2d_41">
    <path clip-path="url(#p982ed2b47e)" d="M 271.103592 17.083636 
L 273.39204 17.240608 
L 275.680489 17.68869 
L 277.968937 18.393634 
L 280.257385 19.321192 
L 282.545834 20.437115 
L 284.834282 21.707156 
L 287.12273 23.097066 
L 289.411179 24.572597 
L 291.699627 26.0995 
L 293.988076 27.643527 
L 296.276524 29.17043 
L 298.564972 30.645961 
L 300.853421 32.035871 
L 303.141869 33.305912 
L 305.430318 34.421835 
L 307.718766 35.349393 
L 310.007214 36.054337 
L 312.295663 36.502419 
L 314.584111 36.65939 
" style="fill:none;stroke:#0000ff;stroke-linecap:square;stroke-width:1.5;"/>
   </g>
   <g id="line2d_42">
    <path clip-path="url(#p982ed2b47e)" d="M 314.584111 36.65939 
L 316.87256 37.294954 
L 319.161008 39.109201 
L 321.449456 41.963461 
L 323.737905 45.719066 
L 326.026353 50.237349 
L 328.314802 55.379639 
L 330.60325 61.00727 
L 332.891698 66.981571 
L 335.180147 73.163876 
L 337.468595 79.415515 
L 339.757044 85.597819 
L 342.045492 91.572121 
L 344.33394 97.199751 
L 346.622389 102.342042 
L 348.910837 106.860324 
L 351.199286 110.615929 
L 353.487734 113.47019 
L 355.776182 115.284436 
L 358.064631 115.92 
" style="fill:none;stroke:#0000ff;stroke-linecap:square;stroke-width:1.5;"/>
   </g>
   <g id="line2d_43">
    <path clip-path="url(#p982ed2b47e)" d="M 53.700994 115.92 
L 97.181514 115.92 
" style="fill:none;stroke:#808080;stroke-linecap:square;"/>
   </g>
   <g id="line2d_44">
    <path clip-path="url(#p982ed2b47e)" d="M 53.700994 115.92 
L 75.441254 66.501818 
L 97.181514 17.083636 
" style="fill:none;stroke:#008000;stroke-dasharray:1.5,2.475;stroke-dashoffset:0;stroke-width:1.5;"/>
   </g>
   <g id="line2d_45">
    <path clip-path="url(#p982ed2b47e)" d="M 97.181514 115.92 
L 140.662033 115.92 
" style="fill:none;stroke:#808080;stroke-linecap:square;"/>
   </g>
   <g id="line2d_46">
    <path clip-path="url(#p982ed2b47e)" d="M 97.181514 17.083636 
L 118.921774 88.494978 
L 140.662033 159.90632 
" style="fill:none;stroke:#008000;stroke-dasharray:1.5,2.475;stroke-dashoffset:0;stroke-width:1.5;"/>
   </g>
   <g id="line2d_47">
    <path clip-path="url(#p982ed2b47e)" d="M 140.662033 115.92 
L 184.142553 115.92 
" style="fill:none;stroke:#808080;stroke-linecap:square;"/>
   </g>
   <g id="line2d_48">
    <path clip-path="url(#p982ed2b47e)" d="M 140.662033 159.90632 
L 162.402293 177.543465 
L 184.142553 195.18061 
" style="fill:none;stroke:#008000;stroke-dasharray:1.5,2.475;stroke-dashoffset:0;stroke-width:1.5;"/>
   </g>
   <g id="line2d_49">
    <path clip-path="url(#p982ed2b47e)" d="M 184.142553 115.92 
L 227.623072 115.92 
" style="fill:none;stroke:#808080;stroke-linecap:square;"/>
   </g>
   <g id="line2d_50">
    <path clip-path="url(#p982ed2b47e)" d="M 184.142553 195.18061 
L 205.882812 115.92 
L 227.623072 36.65939 
" style="fill:none;stroke:#008000;stroke-dasharray:1.5,2.475;stroke-dashoffset:0;stroke-width:1.5;"/>
   </g>
   <g id="line2d_51">
    <path clip-path="url(#p982ed2b47e)" d="M 227.623072 115.92 
L 271.103592 115.92 
" style="fill:none;stroke:#808080;stroke-linecap:square;"/>
   </g>
   <g id="line2d_52">
    <path clip-path="url(#p982ed2b47e)" d="M 227.623072 36.65939 
L 249.363332 54.296535 
L 271.103592 71.93368 
" style="fill:none;stroke:#008000;stroke-dasharray:1.5,2.475;stroke-dashoffset:0;stroke-width:1.5;"/>
   </g>
   <g id="line2d_53">
    <path clip-path="url(#p982ed2b47e)" d="M 271.103592 115.92 
L 314.584111 115.92 
" style="fill:none;stroke:#808080;stroke-linecap:square;"/>
   </g>
   <g id="line2d_54">
    <path clip-path="url(#p982ed2b47e)" d="M 271.103592 71.93368 
L 292.843851 44.508658 
L 314.584111 17.083636 
" style="fill:none;stroke:#008000;stroke-dasharray:1.5,2.475;stroke-dashoffset:0;stroke-width:1.5;"/>
   </g>
   <g id="line2d_55">
    <path clip-path="url(#p982ed2b47e)" d="M 314.584111 115.92 
L 358.064631 115.92 
" style="fill:none;stroke:#808080;stroke-linecap:square;"/>
   </g>
   <g id="line2d_56">
    <path clip-path="url(#p982ed2b47e)" d="M 314.584111 17.083636 
L 336.324371 66.501818 
L 358.064631 115.92 
" style="fill:none;stroke:#008000;stroke-dasharray:1.5,2.475;stroke-dashoffset:0;stroke-width:1.5;"/>
   </g>
   <g id="line2d_57">
    <path clip-path="url(#p982ed2b47e)" d="M 53.700994 115.92 
L 55.989443 115.127465 
L 58.277891 112.865136 
L 60.566339 109.305932 
L 62.854788 104.622769 
L 65.143236 98.988563 
L 67.431685 92.576231 
L 69.720133 85.558691 
L 72.008581 78.108859 
L 74.29703 70.399651 
L 76.585478 62.603985 
L 78.873927 54.894778 
L 81.162375 47.444945 
L 83.450823 40.427405 
L 85.739272 34.015073 
L 88.02772 28.380868 
L 90.316169 23.697704 
L 92.604617 20.1385 
L 94.893065 17.876172 
L 97.181514 17.083636 
" style="fill:none;stroke:#008000;stroke-linecap:square;stroke-width:1.5;"/>
   </g>
   <g id="line2d_58">
    <path clip-path="url(#p982ed2b47e)" d="M 97.181514 17.083636 
L 99.469962 18.228883 
L 101.758411 21.498042 
L 104.046859 26.641241 
L 106.335307 33.408609 
L 108.623756 41.550272 
L 110.912204 50.816359 
L 113.200653 60.956999 
L 115.489101 71.722319 
L 117.777549 82.862446 
L 120.065998 94.12751 
L 122.354446 105.267638 
L 124.642895 116.032957 
L 126.931343 126.173597 
L 129.219791 135.439684 
L 131.50824 143.581348 
L 133.796688 150.348715 
L 136.085136 155.491914 
L 138.373585 158.761073 
L 140.662033 159.90632 
" style="fill:none;stroke:#008000;stroke-linecap:square;stroke-width:1.5;"/>
   </g>
   <g id="line2d_59">
    <path clip-path="url(#p982ed2b47e)" d="M 140.662033 159.90632 
L 142.950482 160.189172 
L 145.23893 160.996588 
L 147.527378 162.266853 
L 149.815827 163.938255 
L 152.104275 165.94908 
L 154.392724 168.237614 
L 156.681172 170.742146 
L 158.96962 173.40096 
L 161.258069 176.152344 
L 163.546517 178.934585 
L 165.834966 181.68597 
L 168.123414 184.344784 
L 170.411862 186.849315 
L 172.700311 189.13785 
L 174.988759 191.148675 
L 177.277208 192.820076 
L 179.565656 194.090341 
L 181.854104 194.897757 
L 184.142553 195.18061 
" style="fill:none;stroke:#008000;stroke-linecap:square;stroke-width:1.5;"/>
   </g>
   <g id="line2d_60">
    <path clip-path="url(#p982ed2b47e)" d="M 184.142553 195.18061 
L 186.431001 193.909482 
L 188.71945 190.280989 
L 191.007898 184.572469 
L 193.296346 177.061258 
L 195.584795 168.024693 
L 197.873243 157.740112 
L 200.161692 146.484851 
L 202.45014 134.536248 
L 204.738588 122.171639 
L 207.027037 109.668361 
L 209.315485 97.303752 
L 211.603933 85.355149 
L 213.892382 74.099888 
L 216.18083 63.815307 
L 218.469279 54.778742 
L 220.757727 47.267531 
L 223.046175 41.559011 
L 225.334624 37.930518 
L 227.623072 36.65939 
" style="fill:none;stroke:#008000;stroke-linecap:square;stroke-width:1.5;"/>
   </g>
   <g id="line2d_61">
    <path clip-path="url(#p982ed2b47e)" d="M 227.623072 36.65939 
L 229.911521 36.942243 
L 232.199969 37.749659 
L 234.488417 39.019924 
L 236.776866 40.691325 
L 239.065314 42.70215 
L 241.353763 44.990685 
L 243.642211 47.495216 
L 245.930659 50.15403 
L 248.219108 52.905415 
L 250.507556 55.687656 
L 252.796005 58.43904 
L 255.084453 61.097854 
L 257.372901 63.602386 
L 259.66135 65.89092 
L 261.949798 67.901745 
L 264.238247 69.573147 
L 266.526695 70.843412 
L 268.815143 71.650828 
L 271.103592 71.93368 
" style="fill:none;stroke:#008000;stroke-linecap:square;stroke-width:1.5;"/>
   </g>
   <g id="line2d_62">
    <path clip-path="url(#p982ed2b47e)" d="M 271.103592 71.93368 
L 273.39204 71.493856 
L 275.680489 70.238359 
L 277.968937 68.263149 
L 280.257385 65.66419 
L 282.545834 62.537441 
L 284.834282 58.978866 
L 287.12273 55.084425 
L 289.411179 50.95008 
L 291.699627 46.671792 
L 293.988076 42.345524 
L 296.276524 38.067237 
L 298.564972 33.932892 
L 300.853421 30.038451 
L 303.141869 26.479875 
L 305.430318 23.353127 
L 307.718766 20.754167 
L 310.007214 18.778958 
L 312.295663 17.52346 
L 314.584111 17.083636 
" style="fill:none;stroke:#008000;stroke-linecap:square;stroke-width:1.5;"/>
   </g>
   <g id="line2d_63">
    <path clip-path="url(#p982ed2b47e)" d="M 314.584111 17.083636 
L 316.87256 17.876172 
L 319.161008 20.1385 
L 321.449456 23.697704 
L 323.737905 28.380868 
L 326.026353 34.015073 
L 328.314802 40.427405 
L 330.60325 47.444945 
L 332.891698 54.894778 
L 335.180147 62.603985 
L 337.468595 70.399651 
L 339.757044 78.108859 
L 342.045492 85.558691 
L 344.33394 92.576231 
L 346.622389 98.988563 
L 348.910837 104.622769 
L 351.199286 109.305932 
L 353.487734 112.865136 
L 355.776182 115.127465 
L 358.064631 115.92 
" style="fill:none;stroke:#008000;stroke-linecap:square;stroke-width:1.5;"/>
   </g>
   <g id="line2d_64">
    <path clip-path="url(#p982ed2b47e)" d="M 53.700994 115.92 
L 97.181514 115.92 
" style="fill:none;stroke:#808080;stroke-linecap:square;"/>
   </g>
   <g id="line2d_65">
    <path clip-path="url(#p982ed2b47e)" d="M 53.700994 115.92 
L 75.441254 165.338182 
L 97.181514 214.756364 
" style="fill:none;stroke:#bfbf00;stroke-dasharray:1.5,2.475;stroke-dashoffset:0;stroke-width:1.5;"/>
   </g>
   <g id="line2d_66">
    <path clip-path="url(#p982ed2b47e)" d="M 97.181514 115.92 
L 140.662033 115.92 
" style="fill:none;stroke:#808080;stroke-linecap:square;"/>
   </g>
   <g id="line2d_67">
    <path clip-path="url(#p982ed2b47e)" d="M 97.181514 214.756364 
L 118.921774 187.331342 
L 140.662033 159.90632 
" style="fill:none;stroke:#bfbf00;stroke-dasharray:1.5,2.475;stroke-dashoffset:0;stroke-width:1.5;"/>
   </g>
   <g id="line2d_68">
    <path clip-path="url(#p982ed2b47e)" d="M 140.662033 115.92 
L 184.142553 115.92 
" style="fill:none;stroke:#808080;stroke-linecap:square;"/>
   </g>
   <g id="line2d_69">
    <path clip-path="url(#p982ed2b47e)" d="M 140.662033 159.90632 
L 162.402293 98.282855 
L 184.142553 36.65939 
" style="fill:none;stroke:#bfbf00;stroke-dasharray:1.5,2.475;stroke-dashoffset:0;stroke-width:1.5;"/>
   </g>
   <g id="line2d_70">
    <path clip-path="url(#p982ed2b47e)" d="M 184.142553 115.92 
L 227.623072 115.92 
" style="fill:none;stroke:#808080;stroke-linecap:square;"/>
   </g>
   <g id="line2d_71">
    <path clip-path="url(#p982ed2b47e)" d="M 184.142553 36.65939 
L 205.882812 36.65939 
L 227.623072 36.65939 
" style="fill:none;stroke:#bfbf00;stroke-dasharray:1.5,2.475;stroke-dashoffset:0;stroke-width:1.5;"/>
   </g>
   <g id="line2d_72">
    <path clip-path="url(#p982ed2b47e)" d="M 227.623072 115.92 
L 271.103592 115.92 
" style="fill:none;stroke:#808080;stroke-linecap:square;"/>
   </g>
   <g id="line2d_73">
    <path clip-path="url(#p982ed2b47e)" d="M 227.623072 36.65939 
L 249.363332 98.282855 
L 271.103592 159.90632 
" style="fill:none;stroke:#bfbf00;stroke-dasharray:1.5,2.475;stroke-dashoffset:0;stroke-width:1.5;"/>
   </g>
   <g id="line2d_74">
    <path clip-path="url(#p982ed2b47e)" d="M 271.103592 115.92 
L 314.584111 115.92 
" style="fill:none;stroke:#808080;stroke-linecap:square;"/>
   </g>
   <g id="line2d_75">
    <path clip-path="url(#p982ed2b47e)" d="M 271.103592 159.90632 
L 292.843851 88.494978 
L 314.584111 17.083636 
" style="fill:none;stroke:#bfbf00;stroke-dasharray:1.5,2.475;stroke-dashoffset:0;stroke-width:1.5;"/>
   </g>
   <g id="line2d_76">
    <path clip-path="url(#p982ed2b47e)" d="M 314.584111 115.92 
L 358.064631 115.92 
" style="fill:none;stroke:#808080;stroke-linecap:square;"/>
   </g>
   <g id="line2d_77">
    <path clip-path="url(#p982ed2b47e)" d="M 314.584111 17.083636 
L 336.324371 66.501818 
L 358.064631 115.92 
" style="fill:none;stroke:#bfbf00;stroke-dasharray:1.5,2.475;stroke-dashoffset:0;stroke-width:1.5;"/>
   </g>
   <g id="line2d_78">
    <path clip-path="url(#p982ed2b47e)" d="M 53.700994 115.92 
L 55.989443 116.712535 
L 58.277891 118.974864 
L 60.566339 122.534068 
L 62.854788 127.217231 
L 65.143236 132.851437 
L 67.431685 139.263769 
L 69.720133 146.281309 
L 72.008581 153.731141 
L 74.29703 161.440349 
L 76.585478 169.236015 
L 78.873927 176.945222 
L 81.162375 184.395055 
L 83.450823 191.412595 
L 85.739272 197.824927 
L 88.02772 203.459132 
L 90.316169 208.142296 
L 92.604617 211.7015 
L 94.893065 213.963828 
L 97.181514 214.756364 
" style="fill:none;stroke:#bfbf00;stroke-linecap:square;stroke-width:1.5;"/>
   </g>
   <g id="line2d_79">
    <path clip-path="url(#p982ed2b47e)" d="M 97.181514 214.756364 
L 99.469962 214.31654 
L 101.758411 213.061042 
L 104.046859 211.085833 
L 106.335307 208.486873 
L 108.623756 205.360125 
L 110.912204 201.801549 
L 113.200653 197.907108 
L 115.489101 193.772763 
L 117.777549 189.494476 
L 120.065998 185.168208 
L 122.354446 180.88992 
L 124.642895 176.755575 
L 126.931343 172.861134 
L 129.219791 169.302559 
L 131.50824 166.17581 
L 133.796688 163.576851 
L 136.085136 161.601641 
L 138.373585 160.346144 
L 140.662033 159.90632 
" style="fill:none;stroke:#bfbf00;stroke-linecap:square;stroke-width:1.5;"/>
   </g>
   <g id="line2d_80">
    <path clip-path="url(#p982ed2b47e)" d="M 140.662033 159.90632 
L 142.950482 158.918044 
L 145.23893 156.096967 
L 147.527378 151.658712 
L 149.815827 145.818903 
L 152.104275 138.793163 
L 154.392724 130.797117 
L 156.681172 122.046387 
L 158.96962 112.756598 
L 161.258069 103.143373 
L 163.546517 93.422337 
L 165.834966 83.809112 
L 168.123414 74.519323 
L 170.411862 65.768594 
L 172.700311 57.772547 
L 174.988759 50.746807 
L 177.277208 44.906998 
L 179.565656 40.468743 
L 181.854104 37.647666 
L 184.142553 36.65939 
" style="fill:none;stroke:#bfbf00;stroke-linecap:square;stroke-width:1.5;"/>
   </g>
   <g id="line2d_81">
    <path clip-path="url(#p982ed2b47e)" d="M 184.142553 36.65939 
L 186.431001 36.65939 
L 188.71945 36.65939 
L 191.007898 36.65939 
L 193.296346 36.65939 
L 195.584795 36.65939 
L 197.873243 36.65939 
L 200.161692 36.65939 
L 202.45014 36.65939 
L 204.738588 36.65939 
L 207.027037 36.65939 
L 209.315485 36.65939 
L 211.603933 36.65939 
L 213.892382 36.65939 
L 216.18083 36.65939 
L 218.469279 36.65939 
L 220.757727 36.65939 
L 223.046175 36.65939 
L 225.334624 36.65939 
L 227.623072 36.65939 
" style="fill:none;stroke:#bfbf00;stroke-linecap:square;stroke-width:1.5;"/>
   </g>
   <g id="line2d_82">
    <path clip-path="url(#p982ed2b47e)" d="M 227.623072 36.65939 
L 229.911521 37.647666 
L 232.199969 40.468743 
L 234.488417 44.906998 
L 236.776866 50.746807 
L 239.065314 57.772547 
L 241.353763 65.768594 
L 243.642211 74.519323 
L 245.930659 83.809112 
L 248.219108 93.422337 
L 250.507556 103.143373 
L 252.796005 112.756598 
L 255.084453 122.046387 
L 257.372901 130.797117 
L 259.66135 138.793163 
L 261.949798 145.818903 
L 264.238247 151.658712 
L 266.526695 156.096967 
L 268.815143 158.918044 
L 271.103592 159.90632 
" style="fill:none;stroke:#bfbf00;stroke-linecap:square;stroke-width:1.5;"/>
   </g>
   <g id="line2d_83">
    <path clip-path="url(#p982ed2b47e)" d="M 271.103592 159.90632 
L 273.39204 158.761073 
L 275.680489 155.491914 
L 277.968937 150.348715 
L 280.257385 143.581348 
L 282.545834 135.439684 
L 284.834282 126.173597 
L 287.12273 116.032957 
L 289.411179 105.267638 
L 291.699627 94.12751 
L 293.988076 82.862446 
L 296.276524 71.722319 
L 298.564972 60.956999 
L 300.853421 50.816359 
L 303.141869 41.550272 
L 305.430318 33.408609 
L 307.718766 26.641241 
L 310.007214 21.498042 
L 312.295663 18.228883 
L 314.584111 17.083636 
" style="fill:none;stroke:#bfbf00;stroke-linecap:square;stroke-width:1.5;"/>
   </g>
   <g id="line2d_84">
    <path clip-path="url(#p982ed2b47e)" d="M 314.584111 17.083636 
L 316.87256 17.876172 
L 319.161008 20.1385 
L 321.449456 23.697704 
L 323.737905 28.380868 
L 326.026353 34.015073 
L 328.314802 40.427405 
L 330.60325 47.444945 
L 332.891698 54.894778 
L 335.180147 62.603985 
L 337.468595 70.399651 
L 339.757044 78.108859 
L 342.045492 85.558691 
L 344.33394 92.576231 
L 346.622389 98.988563 
L 348.910837 104.622769 
L 351.199286 109.305932 
L 353.487734 112.865136 
L 355.776182 115.127465 
L 358.064631 115.92 
" style="fill:none;stroke:#bfbf00;stroke-linecap:square;stroke-width:1.5;"/>
   </g>
   <g id="line2d_85">
    <path clip-path="url(#p982ed2b47e)" d="M 53.700994 115.92 
L 97.181514 115.92 
" style="fill:none;stroke:#808080;stroke-linecap:square;"/>
   </g>
   <g id="line2d_86">
    <path clip-path="url(#p982ed2b47e)" d="M 53.700994 115.92 
L 75.441254 76.289695 
L 97.181514 36.65939 
" style="fill:none;stroke:#808080;stroke-dasharray:1.5,2.475;stroke-dashoffset:0;stroke-width:1.5;"/>
   </g>
   <g id="line2d_87">
    <path clip-path="url(#p982ed2b47e)" d="M 97.181514 115.92 
L 140.662033 115.92 
" style="fill:none;stroke:#808080;stroke-linecap:square;"/>
   </g>
   <g id="line2d_88">
    <path clip-path="url(#p982ed2b47e)" d="M 97.181514 36.65939 
L 118.921774 26.871513 
L 140.662033 17.083636 
" style="fill:none;stroke:#808080;stroke-dasharray:1.5,2.475;stroke-dashoffset:0;stroke-width:1.5;"/>
   </g>
   <g id="line2d_89">
    <path clip-path="url(#p982ed2b47e)" d="M 140.662033 115.92 
L 184.142553 115.92 
" style="fill:none;stroke:#808080;stroke-linecap:square;"/>
   </g>
   <g id="line2d_90">
    <path clip-path="url(#p982ed2b47e)" d="M 140.662033 17.083636 
L 162.402293 44.508658 
L 184.142553 71.93368 
" style="fill:none;stroke:#808080;stroke-dasharray:1.5,2.475;stroke-dashoffset:0;stroke-width:1.5;"/>
   </g>
   <g id="line2d_91">
    <path clip-path="url(#p982ed2b47e)" d="M 184.142553 115.92 
L 227.623072 115.92 
" style="fill:none;stroke:#808080;stroke-linecap:square;"/>
   </g>
   <g id="line2d_92">
    <path clip-path="url(#p982ed2b47e)" d="M 184.142553 71.93368 
L 205.882812 115.92 
L 227.623072 159.90632 
" style="fill:none;stroke:#808080;stroke-dasharray:1.5,2.475;stroke-dashoffset:0;stroke-width:1.5;"/>
   </g>
   <g id="line2d_93">
    <path clip-path="url(#p982ed2b47e)" d="M 227.623072 115.92 
L 271.103592 115.92 
" style="fill:none;stroke:#808080;stroke-linecap:square;"/>
   </g>
   <g id="line2d_94">
    <path clip-path="url(#p982ed2b47e)" d="M 227.623072 159.90632 
L 249.363332 187.331342 
L 271.103592 214.756364 
" style="fill:none;stroke:#808080;stroke-dasharray:1.5,2.475;stroke-dashoffset:0;stroke-width:1.5;"/>
   </g>
   <g id="line2d_95">
    <path clip-path="url(#p982ed2b47e)" d="M 271.103592 115.92 
L 314.584111 115.92 
" style="fill:none;stroke:#808080;stroke-linecap:square;"/>
   </g>
   <g id="line2d_96">
    <path clip-path="url(#p982ed2b47e)" d="M 271.103592 214.756364 
L 292.843851 125.707877 
L 314.584111 36.65939 
" style="fill:none;stroke:#808080;stroke-dasharray:1.5,2.475;stroke-dashoffset:0;stroke-width:1.5;"/>
   </g>
   <g id="line2d_97">
    <path clip-path="url(#p982ed2b47e)" d="M 314.584111 115.92 
L 358.064631 115.92 
" style="fill:none;stroke:#808080;stroke-linecap:square;"/>
   </g>
   <g id="line2d_98">
    <path clip-path="url(#p982ed2b47e)" d="M 314.584111 36.65939 
L 336.324371 76.289695 
L 358.064631 115.92 
" style="fill:none;stroke:#808080;stroke-dasharray:1.5,2.475;stroke-dashoffset:0;stroke-width:1.5;"/>
   </g>
   <g id="line2d_99">
    <path clip-path="url(#p982ed2b47e)" d="M 53.700994 115.92 
L 55.989443 115.284436 
L 58.277891 113.47019 
L 60.566339 110.615929 
L 62.854788 106.860324 
L 65.143236 102.342042 
L 67.431685 97.199751 
L 69.720133 91.572121 
L 72.008581 85.597819 
L 74.29703 79.415515 
L 76.585478 73.163876 
L 78.873927 66.981571 
L 81.162375 61.00727 
L 83.450823 55.379639 
L 85.739272 50.237349 
L 88.02772 45.719066 
L 90.316169 41.963461 
L 92.604617 39.109201 
L 94.893065 37.294954 
L 97.181514 36.65939 
" style="fill:none;stroke:#808080;stroke-linecap:square;stroke-width:1.5;"/>
   </g>
   <g id="line2d_100">
    <path clip-path="url(#p982ed2b47e)" d="M 97.181514 36.65939 
L 99.469962 36.502419 
L 101.758411 36.054337 
L 104.046859 35.349393 
L 106.335307 34.421835 
L 108.623756 33.305912 
L 110.912204 32.035871 
L 113.200653 30.645961 
L 115.489101 29.17043 
L 117.777549 27.643527 
L 120.065998 26.0995 
L 122.354446 24.572597 
L 124.642895 23.097066 
L 126.931343 21.707156 
L 129.219791 20.437115 
L 131.50824 19.321192 
L 133.796688 18.393634 
L 136.085136 17.68869 
L 138.373585 17.240608 
L 140.662033 17.083636 
" style="fill:none;stroke:#808080;stroke-linecap:square;stroke-width:1.5;"/>
   </g>
   <g id="line2d_101">
    <path clip-path="url(#p982ed2b47e)" d="M 140.662033 17.083636 
L 142.950482 17.52346 
L 145.23893 18.778958 
L 147.527378 20.754167 
L 149.815827 23.353127 
L 152.104275 26.479875 
L 154.392724 30.038451 
L 156.681172 33.932892 
L 158.96962 38.067237 
L 161.258069 42.345524 
L 163.546517 46.671792 
L 165.834966 50.95008 
L 168.123414 55.084425 
L 170.411862 58.978866 
L 172.700311 62.537441 
L 174.988759 65.66419 
L 177.277208 68.263149 
L 179.565656 70.238359 
L 181.854104 71.493856 
L 184.142553 71.93368 
" style="fill:none;stroke:#808080;stroke-linecap:square;stroke-width:1.5;"/>
   </g>
   <g id="line2d_102">
    <path clip-path="url(#p982ed2b47e)" d="M 184.142553 71.93368 
L 186.431001 72.639103 
L 188.71945 74.652764 
L 191.007898 77.820754 
L 193.296346 81.989162 
L 195.584795 87.004077 
L 197.873243 92.711589 
L 200.161692 98.957787 
L 202.45014 105.588762 
L 204.738588 112.450602 
L 207.027037 119.389398 
L 209.315485 126.251238 
L 211.603933 132.882213 
L 213.892382 139.128411 
L 216.18083 144.835923 
L 218.469279 149.850838 
L 220.757727 154.019246 
L 223.046175 157.187236 
L 225.334624 159.200897 
L 227.623072 159.90632 
" style="fill:none;stroke:#808080;stroke-linecap:square;stroke-width:1.5;"/>
   </g>
   <g id="line2d_103">
    <path clip-path="url(#p982ed2b47e)" d="M 227.623072 159.90632 
L 229.911521 160.346144 
L 232.199969 161.601641 
L 234.488417 163.576851 
L 236.776866 166.17581 
L 239.065314 169.302559 
L 241.353763 172.861134 
L 243.642211 176.755575 
L 245.930659 180.88992 
L 248.219108 185.168208 
L 250.507556 189.494476 
L 252.796005 193.772763 
L 255.084453 197.907108 
L 257.372901 201.801549 
L 259.66135 205.360125 
L 261.949798 208.486873 
L 264.238247 211.085833 
L 266.526695 213.061042 
L 268.815143 214.31654 
L 271.103592 214.756364 
" style="fill:none;stroke:#808080;stroke-linecap:square;stroke-width:1.5;"/>
   </g>
   <g id="line2d_104">
    <path clip-path="url(#p982ed2b47e)" d="M 271.103592 214.756364 
L 273.39204 213.328264 
L 275.680489 209.25169 
L 277.968937 202.838225 
L 280.257385 194.399456 
L 282.545834 184.246968 
L 284.834282 172.692346 
L 287.12273 160.047175 
L 289.411179 146.623041 
L 291.699627 132.731529 
L 293.988076 118.684225 
L 296.276524 104.792713 
L 298.564972 91.368579 
L 300.853421 78.723408 
L 303.141869 67.168786 
L 305.430318 57.016298 
L 307.718766 48.577529 
L 310.007214 42.164064 
L 312.295663 38.08749 
L 314.584111 36.65939 
" style="fill:none;stroke:#808080;stroke-linecap:square;stroke-width:1.5;"/>
   </g>
   <g id="line2d_105">
    <path clip-path="url(#p982ed2b47e)" d="M 314.584111 36.65939 
L 316.87256 37.294954 
L 319.161008 39.109201 
L 321.449456 41.963461 
L 323.737905 45.719066 
L 326.026353 50.237349 
L 328.314802 55.379639 
L 330.60325 61.00727 
L 332.891698 66.981571 
L 335.180147 73.163876 
L 337.468595 79.415515 
L 339.757044 85.597819 
L 342.045492 91.572121 
L 344.33394 97.199751 
L 346.622389 102.342042 
L 348.910837 106.860324 
L 351.199286 110.615929 
L 353.487734 113.47019 
L 355.776182 115.284436 
L 358.064631 115.92 
" style="fill:none;stroke:#808080;stroke-linecap:square;stroke-width:1.5;"/>
   </g>
   <g id="line2d_106">
    <path clip-path="url(#p982ed2b47e)" d="M 53.700994 115.92 
L 97.181514 115.92 
" style="fill:none;stroke:#808080;stroke-linecap:square;"/>
   </g>
   <g id="line2d_107">
    <path clip-path="url(#p982ed2b47e)" d="M 53.700994 115.92 
L 75.441254 137.91316 
L 97.181514 159.90632 
" style="fill:none;stroke:#ffc0cb;stroke-dasharray:1.5,2.475;stroke-dashoffset:0;stroke-width:1.5;"/>
   </g>
   <g id="line2d_108">
    <path clip-path="url(#p982ed2b47e)" d="M 97.181514 115.92 
L 140.662033 115.92 
" style="fill:none;stroke:#808080;stroke-linecap:square;"/>
   </g>
   <g id="line2d_109">
    <path clip-path="url(#p982ed2b47e)" d="M 97.181514 159.90632 
L 118.921774 177.543465 
L 140.662033 195.18061 
" style="fill:none;stroke:#ffc0cb;stroke-dasharray:1.5,2.475;stroke-dashoffset:0;stroke-width:1.5;"/>
   </g>
   <g id="line2d_110">
    <path clip-path="url(#p982ed2b47e)" d="M 140.662033 115.92 
L 184.142553 115.92 
" style="fill:none;stroke:#808080;stroke-linecap:square;"/>
   </g>
   <g id="line2d_111">
    <path clip-path="url(#p982ed2b47e)" d="M 140.662033 195.18061 
L 162.402293 204.968487 
L 184.142553 214.756364 
" style="fill:none;stroke:#ffc0cb;stroke-dasharray:1.5,2.475;stroke-dashoffset:0;stroke-width:1.5;"/>
   </g>
   <g id="line2d_112">
    <path clip-path="url(#p982ed2b47e)" d="M 184.142553 115.92 
L 227.623072 115.92 
" style="fill:none;stroke:#808080;stroke-linecap:square;"/>
   </g>
   <g id="line2d_113">
    <path clip-path="url(#p982ed2b47e)" d="M 184.142553 214.756364 
L 205.882812 214.756364 
L 227.623072 214.756364 
" style="fill:none;stroke:#ffc0cb;stroke-dasharray:1.5,2.475;stroke-dashoffset:0;stroke-width:1.5;"/>
   </g>
   <g id="line2d_114">
    <path clip-path="url(#p982ed2b47e)" d="M 227.623072 115.92 
L 271.103592 115.92 
" style="fill:none;stroke:#808080;stroke-linecap:square;"/>
   </g>
   <g id="line2d_115">
    <path clip-path="url(#p982ed2b47e)" d="M 227.623072 214.756364 
L 249.363332 204.968487 
L 271.103592 195.18061 
" style="fill:none;stroke:#ffc0cb;stroke-dasharray:1.5,2.475;stroke-dashoffset:0;stroke-width:1.5;"/>
   </g>
   <g id="line2d_116">
    <path clip-path="url(#p982ed2b47e)" d="M 271.103592 115.92 
L 314.584111 115.92 
" style="fill:none;stroke:#808080;stroke-linecap:square;"/>
   </g>
   <g id="line2d_117">
    <path clip-path="url(#p982ed2b47e)" d="M 271.103592 195.18061 
L 292.843851 133.557145 
L 314.584111 71.93368 
" style="fill:none;stroke:#ffc0cb;stroke-dasharray:1.5,2.475;stroke-dashoffset:0;stroke-width:1.5;"/>
   </g>
   <g id="line2d_118">
    <path clip-path="url(#p982ed2b47e)" d="M 314.584111 115.92 
L 358.064631 115.92 
" style="fill:none;stroke:#808080;stroke-linecap:square;"/>
   </g>
   <g id="line2d_119">
    <path clip-path="url(#p982ed2b47e)" d="M 314.584111 71.93368 
L 336.324371 93.92684 
L 358.064631 115.92 
" style="fill:none;stroke:#ffc0cb;stroke-dasharray:1.5,2.475;stroke-dashoffset:0;stroke-width:1.5;"/>
   </g>
   <g id="line2d_120">
    <path clip-path="url(#p982ed2b47e)" d="M 53.700994 115.92 
L 55.989443 116.272711 
L 58.277891 117.279542 
L 60.566339 118.863537 
L 62.854788 120.947741 
L 65.143236 123.455198 
L 67.431685 126.308954 
L 69.720133 129.432054 
L 72.008581 132.747541 
L 74.29703 136.178461 
L 76.585478 139.647859 
L 78.873927 143.078779 
L 81.162375 146.394266 
L 83.450823 149.517365 
L 85.739272 152.371121 
L 88.02772 154.878579 
L 90.316169 156.962783 
L 92.604617 158.546778 
L 94.893065 159.553608 
L 97.181514 159.90632 
" style="fill:none;stroke:#ffc0cb;stroke-linecap:square;stroke-width:1.5;"/>
   </g>
   <g id="line2d_121">
    <path clip-path="url(#p982ed2b47e)" d="M 97.181514 159.90632 
L 99.469962 160.189172 
L 101.758411 160.996588 
L 104.046859 162.266853 
L 106.335307 163.938255 
L 108.623756 165.94908 
L 110.912204 168.237614 
L 113.200653 170.742146 
L 115.489101 173.40096 
L 117.777549 176.152344 
L 120.065998 178.934585 
L 122.354446 181.68597 
L 124.642895 184.344784 
L 126.931343 186.849315 
L 129.219791 189.13785 
L 131.50824 191.148675 
L 133.796688 192.820076 
L 136.085136 194.090341 
L 138.373585 194.897757 
L 140.662033 195.18061 
" style="fill:none;stroke:#ffc0cb;stroke-linecap:square;stroke-width:1.5;"/>
   </g>
   <g id="line2d_122">
    <path clip-path="url(#p982ed2b47e)" d="M 140.662033 195.18061 
L 142.950482 195.337581 
L 145.23893 195.785663 
L 147.527378 196.490607 
L 149.815827 197.418165 
L 152.104275 198.534088 
L 154.392724 199.804129 
L 156.681172 201.194039 
L 158.96962 202.66957 
L 161.258069 204.196473 
L 163.546517 205.7405 
L 165.834966 207.267403 
L 168.123414 208.742934 
L 170.411862 210.132844 
L 172.700311 211.402885 
L 174.988759 212.518808 
L 177.277208 213.446366 
L 179.565656 214.15131 
L 181.854104 214.599392 
L 184.142553 214.756364 
" style="fill:none;stroke:#ffc0cb;stroke-linecap:square;stroke-width:1.5;"/>
   </g>
   <g id="line2d_123">
    <path clip-path="url(#p982ed2b47e)" d="M 184.142553 214.756364 
L 186.431001 214.756364 
L 188.71945 214.756364 
L 191.007898 214.756364 
L 193.296346 214.756364 
L 195.584795 214.756364 
L 197.873243 214.756364 
L 200.161692 214.756364 
L 202.45014 214.756364 
L 204.738588 214.756364 
L 207.027037 214.756364 
L 209.315485 214.756364 
L 211.603933 214.756364 
L 213.892382 214.756364 
L 216.18083 214.756364 
L 218.469279 214.756364 
L 220.757727 214.756364 
L 223.046175 214.756364 
L 225.334624 214.756364 
L 227.623072 214.756364 
" style="fill:none;stroke:#ffc0cb;stroke-linecap:square;stroke-width:1.5;"/>
   </g>
   <g id="line2d_124">
    <path clip-path="url(#p982ed2b47e)" d="M 227.623072 214.756364 
L 229.911521 214.599392 
L 232.199969 214.15131 
L 234.488417 213.446366 
L 236.776866 212.518808 
L 239.065314 211.402885 
L 241.353763 210.132844 
L 243.642211 208.742934 
L 245.930659 207.267403 
L 248.219108 205.7405 
L 250.507556 204.196473 
L 252.796005 202.66957 
L 255.084453 201.194039 
L 257.372901 199.804129 
L 259.66135 198.534088 
L 261.949798 197.418165 
L 264.238247 196.490607 
L 266.526695 195.785663 
L 268.815143 195.337581 
L 271.103592 195.18061 
" style="fill:none;stroke:#ffc0cb;stroke-linecap:square;stroke-width:1.5;"/>
   </g>
   <g id="line2d_125">
    <path clip-path="url(#p982ed2b47e)" d="M 271.103592 195.18061 
L 273.39204 194.192334 
L 275.680489 191.371257 
L 277.968937 186.933002 
L 280.257385 181.093193 
L 282.545834 174.067453 
L 284.834282 166.071406 
L 287.12273 157.320677 
L 289.411179 148.030888 
L 291.699627 138.417663 
L 293.988076 128.696627 
L 296.276524 119.083402 
L 298.564972 109.793613 
L 300.853421 101.042883 
L 303.141869 93.046837 
L 305.430318 86.021097 
L 307.718766 80.181288 
L 310.007214 75.743033 
L 312.295663 72.921956 
L 314.584111 71.93368 
" style="fill:none;stroke:#ffc0cb;stroke-linecap:square;stroke-width:1.5;"/>
   </g>
   <g id="line2d_126">
    <path clip-path="url(#p982ed2b47e)" d="M 314.584111 71.93368 
L 316.87256 72.286392 
L 319.161008 73.293222 
L 321.449456 74.877217 
L 323.737905 76.961421 
L 326.026353 79.468879 
L 328.314802 82.322635 
L 330.60325 85.445734 
L 332.891698 88.761221 
L 335.180147 92.192141 
L 337.468595 95.661539 
L 339.757044 99.092459 
L 342.045492 102.407946 
L 344.33394 105.531046 
L 346.622389 108.384802 
L 348.910837 110.892259 
L 351.199286 112.976463 
L 353.487734 114.560458 
L 355.776182 115.567289 
L 358.064631 115.92 
" style="fill:none;stroke:#ffc0cb;stroke-linecap:square;stroke-width:1.5;"/>
   </g>
   <g id="matplotlib.axis_1">
    <g id="xtick_1">
     <g id="line2d_127">
      <defs>
       <path d="M 0 0 
L 0 3.5 
" id="m26d0df2e76" style="stroke:#000000;stroke-width:0.8;"/>
      </defs>
      <g>
       <use style="stroke:#000000;stroke-width:0.8;" x="53.700994" xlink:href="#m26d0df2e76" y="224.64"/>
      </g>
     </g>
     <g id="text_1">
      <!-- 0.0 -->
      <defs>
       <path d="M 31.78125 66.40625 
Q 24.171875 66.40625 20.328125 58.90625 
Q 16.5 51.421875 16.5 36.375 
Q 16.5 21.390625 20.328125 13.890625 
Q 24.171875 6.390625 31.78125 6.390625 
Q 39.453125 6.390625 43.28125 13.890625 
Q 47.125 21.390625 47.125 36.375 
Q 47.125 51.421875 43.28125 58.90625 
Q 39.453125 66.40625 31.78125 66.40625 
z
M 31.78125 74.21875 
Q 44.046875 74.21875 50.515625 64.515625 
Q 56.984375 54.828125 56.984375 36.375 
Q 56.984375 17.96875 50.515625 8.265625 
Q 44.046875 -1.421875 31.78125 -1.421875 
Q 19.53125 -1.421875 13.0625 8.265625 
Q 6.59375 17.96875 6.59375 36.375 
Q 6.59375 54.828125 13.0625 64.515625 
Q 19.53125 74.21875 31.78125 74.21875 
z
" id="DejaVuSans-48"/>
       <path d="M 10.6875 12.40625 
L 21 12.40625 
L 21 0 
L 10.6875 0 
z
" id="DejaVuSans-46"/>
      </defs>
      <g transform="translate(45.749432 239.238437)scale(0.1 -0.1)">
       <use xlink:href="#DejaVuSans-48"/>
       <use x="63.623047" xlink:href="#DejaVuSans-46"/>
       <use x="95.410156" xlink:href="#DejaVuSans-48"/>
      </g>
     </g>
    </g>
    <g id="xtick_2">
     <g id="line2d_128">
      <g>
       <use style="stroke:#000000;stroke-width:0.8;" x="114.573722" xlink:href="#m26d0df2e76" y="224.64"/>
      </g>
     </g>
     <g id="text_2">
      <!-- 0.2 -->
      <defs>
       <path d="M 19.1875 8.296875 
L 53.609375 8.296875 
L 53.609375 0 
L 7.328125 0 
L 7.328125 8.296875 
Q 12.9375 14.109375 22.625 23.890625 
Q 32.328125 33.6875 34.8125 36.53125 
Q 39.546875 41.84375 41.421875 45.53125 
Q 43.3125 49.21875 43.3125 52.78125 
Q 43.3125 58.59375 39.234375 62.25 
Q 35.15625 65.921875 28.609375 65.921875 
Q 23.96875 65.921875 18.8125 64.3125 
Q 13.671875 62.703125 7.8125 59.421875 
L 7.8125 69.390625 
Q 13.765625 71.78125 18.9375 73 
Q 24.125 74.21875 28.421875 74.21875 
Q 39.75 74.21875 46.484375 68.546875 
Q 53.21875 62.890625 53.21875 53.421875 
Q 53.21875 48.921875 51.53125 44.890625 
Q 49.859375 40.875 45.40625 35.40625 
Q 44.1875 33.984375 37.640625 27.21875 
Q 31.109375 20.453125 19.1875 8.296875 
z
" id="DejaVuSans-50"/>
      </defs>
      <g transform="translate(106.622159 239.238437)scale(0.1 -0.1)">
       <use xlink:href="#DejaVuSans-48"/>
       <use x="63.623047" xlink:href="#DejaVuSans-46"/>
       <use x="95.410156" xlink:href="#DejaVuSans-50"/>
      </g>
     </g>
    </g>
    <g id="xtick_3">
     <g id="line2d_129">
      <g>
       <use style="stroke:#000000;stroke-width:0.8;" x="175.446449" xlink:href="#m26d0df2e76" y="224.64"/>
      </g>
     </g>
     <g id="text_3">
      <!-- 0.4 -->
      <defs>
       <path d="M 37.796875 64.3125 
L 12.890625 25.390625 
L 37.796875 25.390625 
z
M 35.203125 72.90625 
L 47.609375 72.90625 
L 47.609375 25.390625 
L 58.015625 25.390625 
L 58.015625 17.1875 
L 47.609375 17.1875 
L 47.609375 0 
L 37.796875 0 
L 37.796875 17.1875 
L 4.890625 17.1875 
L 4.890625 26.703125 
z
" id="DejaVuSans-52"/>
      </defs>
      <g transform="translate(167.494886 239.238437)scale(0.1 -0.1)">
       <use xlink:href="#DejaVuSans-48"/>
       <use x="63.623047" xlink:href="#DejaVuSans-46"/>
       <use x="95.410156" xlink:href="#DejaVuSans-52"/>
      </g>
     </g>
    </g>
    <g id="xtick_4">
     <g id="line2d_130">
      <g>
       <use style="stroke:#000000;stroke-width:0.8;" x="236.319176" xlink:href="#m26d0df2e76" y="224.64"/>
      </g>
     </g>
     <g id="text_4">
      <!-- 0.6 -->
      <defs>
       <path d="M 33.015625 40.375 
Q 26.375 40.375 22.484375 35.828125 
Q 18.609375 31.296875 18.609375 23.390625 
Q 18.609375 15.53125 22.484375 10.953125 
Q 26.375 6.390625 33.015625 6.390625 
Q 39.65625 6.390625 43.53125 10.953125 
Q 47.40625 15.53125 47.40625 23.390625 
Q 47.40625 31.296875 43.53125 35.828125 
Q 39.65625 40.375 33.015625 40.375 
z
M 52.59375 71.296875 
L 52.59375 62.3125 
Q 48.875 64.0625 45.09375 64.984375 
Q 41.3125 65.921875 37.59375 65.921875 
Q 27.828125 65.921875 22.671875 59.328125 
Q 17.53125 52.734375 16.796875 39.40625 
Q 19.671875 43.65625 24.015625 45.921875 
Q 28.375 48.1875 33.59375 48.1875 
Q 44.578125 48.1875 50.953125 41.515625 
Q 57.328125 34.859375 57.328125 23.390625 
Q 57.328125 12.15625 50.6875 5.359375 
Q 44.046875 -1.421875 33.015625 -1.421875 
Q 20.359375 -1.421875 13.671875 8.265625 
Q 6.984375 17.96875 6.984375 36.375 
Q 6.984375 53.65625 15.1875 63.9375 
Q 23.390625 74.21875 37.203125 74.21875 
Q 40.921875 74.21875 44.703125 73.484375 
Q 48.484375 72.75 52.59375 71.296875 
z
" id="DejaVuSans-54"/>
      </defs>
      <g transform="translate(228.367614 239.238437)scale(0.1 -0.1)">
       <use xlink:href="#DejaVuSans-48"/>
       <use x="63.623047" xlink:href="#DejaVuSans-46"/>
       <use x="95.410156" xlink:href="#DejaVuSans-54"/>
      </g>
     </g>
    </g>
    <g id="xtick_5">
     <g id="line2d_131">
      <g>
       <use style="stroke:#000000;stroke-width:0.8;" x="297.191903" xlink:href="#m26d0df2e76" y="224.64"/>
      </g>
     </g>
     <g id="text_5">
      <!-- 0.8 -->
      <defs>
       <path d="M 31.78125 34.625 
Q 24.75 34.625 20.71875 30.859375 
Q 16.703125 27.09375 16.703125 20.515625 
Q 16.703125 13.921875 20.71875 10.15625 
Q 24.75 6.390625 31.78125 6.390625 
Q 38.8125 6.390625 42.859375 10.171875 
Q 46.921875 13.96875 46.921875 20.515625 
Q 46.921875 27.09375 42.890625 30.859375 
Q 38.875 34.625 31.78125 34.625 
z
M 21.921875 38.8125 
Q 15.578125 40.375 12.03125 44.71875 
Q 8.5 49.078125 8.5 55.328125 
Q 8.5 64.0625 14.71875 69.140625 
Q 20.953125 74.21875 31.78125 74.21875 
Q 42.671875 74.21875 48.875 69.140625 
Q 55.078125 64.0625 55.078125 55.328125 
Q 55.078125 49.078125 51.53125 44.71875 
Q 48 40.375 41.703125 38.8125 
Q 48.828125 37.15625 52.796875 32.3125 
Q 56.78125 27.484375 56.78125 20.515625 
Q 56.78125 9.90625 50.3125 4.234375 
Q 43.84375 -1.421875 31.78125 -1.421875 
Q 19.734375 -1.421875 13.25 4.234375 
Q 6.78125 9.90625 6.78125 20.515625 
Q 6.78125 27.484375 10.78125 32.3125 
Q 14.796875 37.15625 21.921875 38.8125 
z
M 18.3125 54.390625 
Q 18.3125 48.734375 21.84375 45.5625 
Q 25.390625 42.390625 31.78125 42.390625 
Q 38.140625 42.390625 41.71875 45.5625 
Q 45.3125 48.734375 45.3125 54.390625 
Q 45.3125 60.0625 41.71875 63.234375 
Q 38.140625 66.40625 31.78125 66.40625 
Q 25.390625 66.40625 21.84375 63.234375 
Q 18.3125 60.0625 18.3125 54.390625 
z
" id="DejaVuSans-56"/>
      </defs>
      <g transform="translate(289.240341 239.238437)scale(0.1 -0.1)">
       <use xlink:href="#DejaVuSans-48"/>
       <use x="63.623047" xlink:href="#DejaVuSans-46"/>
       <use x="95.410156" xlink:href="#DejaVuSans-56"/>
      </g>
     </g>
    </g>
    <g id="xtick_6">
     <g id="line2d_132">
      <g>
       <use style="stroke:#000000;stroke-width:0.8;" x="358.064631" xlink:href="#m26d0df2e76" y="224.64"/>
      </g>
     </g>
     <g id="text_6">
      <!-- 1.0 -->
      <defs>
       <path d="M 12.40625 8.296875 
L 28.515625 8.296875 
L 28.515625 63.921875 
L 10.984375 60.40625 
L 10.984375 69.390625 
L 28.421875 72.90625 
L 38.28125 72.90625 
L 38.28125 8.296875 
L 54.390625 8.296875 
L 54.390625 0 
L 12.40625 0 
z
" id="DejaVuSans-49"/>
      </defs>
      <g transform="translate(350.113068 239.238437)scale(0.1 -0.1)">
       <use xlink:href="#DejaVuSans-49"/>
       <use x="63.623047" xlink:href="#DejaVuSans-46"/>
       <use x="95.410156" xlink:href="#DejaVuSans-48"/>
      </g>
     </g>
    </g>
   </g>
   <g id="matplotlib.axis_2">
    <g id="ytick_1">
     <g id="line2d_133">
      <defs>
       <path d="M 0 0 
L -3.5 0 
" id="mf2f8ce2a85" style="stroke:#000000;stroke-width:0.8;"/>
      </defs>
      <g>
       <use style="stroke:#000000;stroke-width:0.8;" x="38.482813" xlink:href="#mf2f8ce2a85" y="201.942191"/>
      </g>
     </g>
     <g id="text_7">
      <!-- 0.6 -->
      <defs>
       <path d="M 10.59375 35.5 
L 73.1875 35.5 
L 73.1875 27.203125 
L 10.59375 27.203125 
z
" id="DejaVuSans-8722"/>
      </defs>
      <g transform="translate(7.2 205.74141)scale(0.1 -0.1)">
       <use xlink:href="#DejaVuSans-8722"/>
       <use x="83.789062" xlink:href="#DejaVuSans-48"/>
       <use x="147.412109" xlink:href="#DejaVuSans-46"/>
       <use x="179.199219" xlink:href="#DejaVuSans-54"/>
      </g>
     </g>
    </g>
    <g id="ytick_2">
     <g id="line2d_134">
      <g>
       <use style="stroke:#000000;stroke-width:0.8;" x="38.482813" xlink:href="#mf2f8ce2a85" y="173.268128"/>
      </g>
     </g>
     <g id="text_8">
      <!-- 0.4 -->
      <g transform="translate(7.2 177.067346)scale(0.1 -0.1)">
       <use xlink:href="#DejaVuSans-8722"/>
       <use x="83.789062" xlink:href="#DejaVuSans-48"/>
       <use x="147.412109" xlink:href="#DejaVuSans-46"/>
       <use x="179.199219" xlink:href="#DejaVuSans-52"/>
      </g>
     </g>
    </g>
    <g id="ytick_3">
     <g id="line2d_135">
      <g>
       <use style="stroke:#000000;stroke-width:0.8;" x="38.482813" xlink:href="#mf2f8ce2a85" y="144.594064"/>
      </g>
     </g>
     <g id="text_9">
      <!-- 0.2 -->
      <g transform="translate(7.2 148.393283)scale(0.1 -0.1)">
       <use xlink:href="#DejaVuSans-8722"/>
       <use x="83.789062" xlink:href="#DejaVuSans-48"/>
       <use x="147.412109" xlink:href="#DejaVuSans-46"/>
       <use x="179.199219" xlink:href="#DejaVuSans-50"/>
      </g>
     </g>
    </g>
    <g id="ytick_4">
     <g id="line2d_136">
      <g>
       <use style="stroke:#000000;stroke-width:0.8;" x="38.482813" xlink:href="#mf2f8ce2a85" y="115.92"/>
      </g>
     </g>
     <g id="text_10">
      <!-- 0.0 -->
      <g transform="translate(15.579688 119.719219)scale(0.1 -0.1)">
       <use xlink:href="#DejaVuSans-48"/>
       <use x="63.623047" xlink:href="#DejaVuSans-46"/>
       <use x="95.410156" xlink:href="#DejaVuSans-48"/>
      </g>
     </g>
    </g>
    <g id="ytick_5">
     <g id="line2d_137">
      <g>
       <use style="stroke:#000000;stroke-width:0.8;" x="38.482813" xlink:href="#mf2f8ce2a85" y="87.245936"/>
      </g>
     </g>
     <g id="text_11">
      <!-- 0.2 -->
      <g transform="translate(15.579688 91.045155)scale(0.1 -0.1)">
       <use xlink:href="#DejaVuSans-48"/>
       <use x="63.623047" xlink:href="#DejaVuSans-46"/>
       <use x="95.410156" xlink:href="#DejaVuSans-50"/>
      </g>
     </g>
    </g>
    <g id="ytick_6">
     <g id="line2d_138">
      <g>
       <use style="stroke:#000000;stroke-width:0.8;" x="38.482813" xlink:href="#mf2f8ce2a85" y="58.571872"/>
      </g>
     </g>
     <g id="text_12">
      <!-- 0.4 -->
      <g transform="translate(15.579688 62.371091)scale(0.1 -0.1)">
       <use xlink:href="#DejaVuSans-48"/>
       <use x="63.623047" xlink:href="#DejaVuSans-46"/>
       <use x="95.410156" xlink:href="#DejaVuSans-52"/>
      </g>
     </g>
    </g>
    <g id="ytick_7">
     <g id="line2d_139">
      <g>
       <use style="stroke:#000000;stroke-width:0.8;" x="38.482813" xlink:href="#mf2f8ce2a85" y="29.897809"/>
      </g>
     </g>
     <g id="text_13">
      <!-- 0.6 -->
      <g transform="translate(15.579688 33.697027)scale(0.1 -0.1)">
       <use xlink:href="#DejaVuSans-48"/>
       <use x="63.623047" xlink:href="#DejaVuSans-46"/>
       <use x="95.410156" xlink:href="#DejaVuSans-54"/>
      </g>
     </g>
    </g>
   </g>
   <g id="line2d_140">
    <path clip-path="url(#p982ed2b47e)" d="M 53.700994 115.92 
" style="fill:none;stroke:#000000;stroke-linecap:square;stroke-width:1.5;"/>
    <defs>
     <path d="M -2.5 2.5 
L 2.5 2.5 
L 2.5 -2.5 
L -2.5 -2.5 
z
" id="m2dbf891ce6" style="stroke:#000000;stroke-linejoin:miter;"/>
    </defs>
    <g clip-path="url(#p982ed2b47e)">
     <use style="stroke:#000000;stroke-linejoin:miter;" x="53.700994" xlink:href="#m2dbf891ce6" y="115.92"/>
    </g>
   </g>
   <g id="line2d_141">
    <path clip-path="url(#p982ed2b47e)" d="M 97.181514 115.92 
" style="fill:none;stroke:#000000;stroke-linecap:square;stroke-width:1.5;"/>
    <g clip-path="url(#p982ed2b47e)">
     <use style="stroke:#000000;stroke-linejoin:miter;" x="97.181514" xlink:href="#m2dbf891ce6" y="115.92"/>
    </g>
   </g>
   <g id="line2d_142">
    <path clip-path="url(#p982ed2b47e)" d="M 140.662033 115.92 
" style="fill:none;stroke:#000000;stroke-linecap:square;stroke-width:1.5;"/>
    <g clip-path="url(#p982ed2b47e)">
     <use style="stroke:#000000;stroke-linejoin:miter;" x="140.662033" xlink:href="#m2dbf891ce6" y="115.92"/>
    </g>
   </g>
   <g id="line2d_143">
    <path clip-path="url(#p982ed2b47e)" d="M 184.142553 115.92 
" style="fill:none;stroke:#000000;stroke-linecap:square;stroke-width:1.5;"/>
    <g clip-path="url(#p982ed2b47e)">
     <use style="stroke:#000000;stroke-linejoin:miter;" x="184.142553" xlink:href="#m2dbf891ce6" y="115.92"/>
    </g>
   </g>
   <g id="line2d_144">
    <path clip-path="url(#p982ed2b47e)" d="M 227.623072 115.92 
" style="fill:none;stroke:#000000;stroke-linecap:square;stroke-width:1.5;"/>
    <g clip-path="url(#p982ed2b47e)">
     <use style="stroke:#000000;stroke-linejoin:miter;" x="227.623072" xlink:href="#m2dbf891ce6" y="115.92"/>
    </g>
   </g>
   <g id="line2d_145">
    <path clip-path="url(#p982ed2b47e)" d="M 271.103592 115.92 
" style="fill:none;stroke:#000000;stroke-linecap:square;stroke-width:1.5;"/>
    <g clip-path="url(#p982ed2b47e)">
     <use style="stroke:#000000;stroke-linejoin:miter;" x="271.103592" xlink:href="#m2dbf891ce6" y="115.92"/>
    </g>
   </g>
   <g id="line2d_146">
    <path clip-path="url(#p982ed2b47e)" d="M 314.584111 115.92 
" style="fill:none;stroke:#000000;stroke-linecap:square;stroke-width:1.5;"/>
    <g clip-path="url(#p982ed2b47e)">
     <use style="stroke:#000000;stroke-linejoin:miter;" x="314.584111" xlink:href="#m2dbf891ce6" y="115.92"/>
    </g>
   </g>
   <g id="line2d_147">
    <path clip-path="url(#p982ed2b47e)" d="M 358.064631 115.92 
" style="fill:none;stroke:#000000;stroke-linecap:square;stroke-width:1.5;"/>
    <g clip-path="url(#p982ed2b47e)">
     <use style="stroke:#000000;stroke-linejoin:miter;" x="358.064631" xlink:href="#m2dbf891ce6" y="115.92"/>
    </g>
   </g>
   <g id="line2d_148">
    <path clip-path="url(#p982ed2b47e)" d="M 53.700994 115.92 
" style="fill:none;stroke:#000000;stroke-linecap:square;stroke-width:1.5;"/>
    <g clip-path="url(#p982ed2b47e)">
     <use style="stroke:#000000;stroke-linejoin:miter;" x="53.700994" xlink:href="#m2dbf891ce6" y="115.92"/>
    </g>
   </g>
   <g id="line2d_149">
    <path clip-path="url(#p982ed2b47e)" d="M 97.181514 115.92 
" style="fill:none;stroke:#000000;stroke-linecap:square;stroke-width:1.5;"/>
    <g clip-path="url(#p982ed2b47e)">
     <use style="stroke:#000000;stroke-linejoin:miter;" x="97.181514" xlink:href="#m2dbf891ce6" y="115.92"/>
    </g>
   </g>
   <g id="line2d_150">
    <path clip-path="url(#p982ed2b47e)" d="M 140.662033 115.92 
" style="fill:none;stroke:#000000;stroke-linecap:square;stroke-width:1.5;"/>
    <g clip-path="url(#p982ed2b47e)">
     <use style="stroke:#000000;stroke-linejoin:miter;" x="140.662033" xlink:href="#m2dbf891ce6" y="115.92"/>
    </g>
   </g>
   <g id="line2d_151">
    <path clip-path="url(#p982ed2b47e)" d="M 184.142553 115.92 
" style="fill:none;stroke:#000000;stroke-linecap:square;stroke-width:1.5;"/>
    <g clip-path="url(#p982ed2b47e)">
     <use style="stroke:#000000;stroke-linejoin:miter;" x="184.142553" xlink:href="#m2dbf891ce6" y="115.92"/>
    </g>
   </g>
   <g id="line2d_152">
    <path clip-path="url(#p982ed2b47e)" d="M 227.623072 115.92 
" style="fill:none;stroke:#000000;stroke-linecap:square;stroke-width:1.5;"/>
    <g clip-path="url(#p982ed2b47e)">
     <use style="stroke:#000000;stroke-linejoin:miter;" x="227.623072" xlink:href="#m2dbf891ce6" y="115.92"/>
    </g>
   </g>
   <g id="line2d_153">
    <path clip-path="url(#p982ed2b47e)" d="M 271.103592 115.92 
" style="fill:none;stroke:#000000;stroke-linecap:square;stroke-width:1.5;"/>
    <g clip-path="url(#p982ed2b47e)">
     <use style="stroke:#000000;stroke-linejoin:miter;" x="271.103592" xlink:href="#m2dbf891ce6" y="115.92"/>
    </g>
   </g>
   <g id="line2d_154">
    <path clip-path="url(#p982ed2b47e)" d="M 314.584111 115.92 
" style="fill:none;stroke:#000000;stroke-linecap:square;stroke-width:1.5;"/>
    <g clip-path="url(#p982ed2b47e)">
     <use style="stroke:#000000;stroke-linejoin:miter;" x="314.584111" xlink:href="#m2dbf891ce6" y="115.92"/>
    </g>
   </g>
   <g id="line2d_155">
    <path clip-path="url(#p982ed2b47e)" d="M 358.064631 115.92 
" style="fill:none;stroke:#000000;stroke-linecap:square;stroke-width:1.5;"/>
    <g clip-path="url(#p982ed2b47e)">
     <use style="stroke:#000000;stroke-linejoin:miter;" x="358.064631" xlink:href="#m2dbf891ce6" y="115.92"/>
    </g>
   </g>
   <g id="line2d_156">
    <path clip-path="url(#p982ed2b47e)" d="M 53.700994 115.92 
" style="fill:none;stroke:#000000;stroke-linecap:square;stroke-width:1.5;"/>
    <g clip-path="url(#p982ed2b47e)">
     <use style="stroke:#000000;stroke-linejoin:miter;" x="53.700994" xlink:href="#m2dbf891ce6" y="115.92"/>
    </g>
   </g>
   <g id="line2d_157">
    <path clip-path="url(#p982ed2b47e)" d="M 97.181514 115.92 
" style="fill:none;stroke:#000000;stroke-linecap:square;stroke-width:1.5;"/>
    <g clip-path="url(#p982ed2b47e)">
     <use style="stroke:#000000;stroke-linejoin:miter;" x="97.181514" xlink:href="#m2dbf891ce6" y="115.92"/>
    </g>
   </g>
   <g id="line2d_158">
    <path clip-path="url(#p982ed2b47e)" d="M 140.662033 115.92 
" style="fill:none;stroke:#000000;stroke-linecap:square;stroke-width:1.5;"/>
    <g clip-path="url(#p982ed2b47e)">
     <use style="stroke:#000000;stroke-linejoin:miter;" x="140.662033" xlink:href="#m2dbf891ce6" y="115.92"/>
    </g>
   </g>
   <g id="line2d_159">
    <path clip-path="url(#p982ed2b47e)" d="M 184.142553 115.92 
" style="fill:none;stroke:#000000;stroke-linecap:square;stroke-width:1.5;"/>
    <g clip-path="url(#p982ed2b47e)">
     <use style="stroke:#000000;stroke-linejoin:miter;" x="184.142553" xlink:href="#m2dbf891ce6" y="115.92"/>
    </g>
   </g>
   <g id="line2d_160">
    <path clip-path="url(#p982ed2b47e)" d="M 227.623072 115.92 
" style="fill:none;stroke:#000000;stroke-linecap:square;stroke-width:1.5;"/>
    <g clip-path="url(#p982ed2b47e)">
     <use style="stroke:#000000;stroke-linejoin:miter;" x="227.623072" xlink:href="#m2dbf891ce6" y="115.92"/>
    </g>
   </g>
   <g id="line2d_161">
    <path clip-path="url(#p982ed2b47e)" d="M 271.103592 115.92 
" style="fill:none;stroke:#000000;stroke-linecap:square;stroke-width:1.5;"/>
    <g clip-path="url(#p982ed2b47e)">
     <use style="stroke:#000000;stroke-linejoin:miter;" x="271.103592" xlink:href="#m2dbf891ce6" y="115.92"/>
    </g>
   </g>
   <g id="line2d_162">
    <path clip-path="url(#p982ed2b47e)" d="M 314.584111 115.92 
" style="fill:none;stroke:#000000;stroke-linecap:square;stroke-width:1.5;"/>
    <g clip-path="url(#p982ed2b47e)">
     <use style="stroke:#000000;stroke-linejoin:miter;" x="314.584111" xlink:href="#m2dbf891ce6" y="115.92"/>
    </g>
   </g>
   <g id="line2d_163">
    <path clip-path="url(#p982ed2b47e)" d="M 358.064631 115.92 
" style="fill:none;stroke:#000000;stroke-linecap:square;stroke-width:1.5;"/>
    <g clip-path="url(#p982ed2b47e)">
     <use style="stroke:#000000;stroke-linejoin:miter;" x="358.064631" xlink:href="#m2dbf891ce6" y="115.92"/>
    </g>
   </g>
   <g id="line2d_164">
    <path clip-path="url(#p982ed2b47e)" d="M 53.700994 115.92 
" style="fill:none;stroke:#000000;stroke-linecap:square;stroke-width:1.5;"/>
    <g clip-path="url(#p982ed2b47e)">
     <use style="stroke:#000000;stroke-linejoin:miter;" x="53.700994" xlink:href="#m2dbf891ce6" y="115.92"/>
    </g>
   </g>
   <g id="line2d_165">
    <path clip-path="url(#p982ed2b47e)" d="M 97.181514 115.92 
" style="fill:none;stroke:#000000;stroke-linecap:square;stroke-width:1.5;"/>
    <g clip-path="url(#p982ed2b47e)">
     <use style="stroke:#000000;stroke-linejoin:miter;" x="97.181514" xlink:href="#m2dbf891ce6" y="115.92"/>
    </g>
   </g>
   <g id="line2d_166">
    <path clip-path="url(#p982ed2b47e)" d="M 140.662033 115.92 
" style="fill:none;stroke:#000000;stroke-linecap:square;stroke-width:1.5;"/>
    <g clip-path="url(#p982ed2b47e)">
     <use style="stroke:#000000;stroke-linejoin:miter;" x="140.662033" xlink:href="#m2dbf891ce6" y="115.92"/>
    </g>
   </g>
   <g id="line2d_167">
    <path clip-path="url(#p982ed2b47e)" d="M 184.142553 115.92 
" style="fill:none;stroke:#000000;stroke-linecap:square;stroke-width:1.5;"/>
    <g clip-path="url(#p982ed2b47e)">
     <use style="stroke:#000000;stroke-linejoin:miter;" x="184.142553" xlink:href="#m2dbf891ce6" y="115.92"/>
    </g>
   </g>
   <g id="line2d_168">
    <path clip-path="url(#p982ed2b47e)" d="M 227.623072 115.92 
" style="fill:none;stroke:#000000;stroke-linecap:square;stroke-width:1.5;"/>
    <g clip-path="url(#p982ed2b47e)">
     <use style="stroke:#000000;stroke-linejoin:miter;" x="227.623072" xlink:href="#m2dbf891ce6" y="115.92"/>
    </g>
   </g>
   <g id="line2d_169">
    <path clip-path="url(#p982ed2b47e)" d="M 271.103592 115.92 
" style="fill:none;stroke:#000000;stroke-linecap:square;stroke-width:1.5;"/>
    <g clip-path="url(#p982ed2b47e)">
     <use style="stroke:#000000;stroke-linejoin:miter;" x="271.103592" xlink:href="#m2dbf891ce6" y="115.92"/>
    </g>
   </g>
   <g id="line2d_170">
    <path clip-path="url(#p982ed2b47e)" d="M 314.584111 115.92 
" style="fill:none;stroke:#000000;stroke-linecap:square;stroke-width:1.5;"/>
    <g clip-path="url(#p982ed2b47e)">
     <use style="stroke:#000000;stroke-linejoin:miter;" x="314.584111" xlink:href="#m2dbf891ce6" y="115.92"/>
    </g>
   </g>
   <g id="line2d_171">
    <path clip-path="url(#p982ed2b47e)" d="M 358.064631 115.92 
" style="fill:none;stroke:#000000;stroke-linecap:square;stroke-width:1.5;"/>
    <g clip-path="url(#p982ed2b47e)">
     <use style="stroke:#000000;stroke-linejoin:miter;" x="358.064631" xlink:href="#m2dbf891ce6" y="115.92"/>
    </g>
   </g>
   <g id="line2d_172">
    <path clip-path="url(#p982ed2b47e)" d="M 53.700994 115.92 
" style="fill:none;stroke:#000000;stroke-linecap:square;stroke-width:1.5;"/>
    <g clip-path="url(#p982ed2b47e)">
     <use style="stroke:#000000;stroke-linejoin:miter;" x="53.700994" xlink:href="#m2dbf891ce6" y="115.92"/>
    </g>
   </g>
   <g id="line2d_173">
    <path clip-path="url(#p982ed2b47e)" d="M 97.181514 115.92 
" style="fill:none;stroke:#000000;stroke-linecap:square;stroke-width:1.5;"/>
    <g clip-path="url(#p982ed2b47e)">
     <use style="stroke:#000000;stroke-linejoin:miter;" x="97.181514" xlink:href="#m2dbf891ce6" y="115.92"/>
    </g>
   </g>
   <g id="line2d_174">
    <path clip-path="url(#p982ed2b47e)" d="M 140.662033 115.92 
" style="fill:none;stroke:#000000;stroke-linecap:square;stroke-width:1.5;"/>
    <g clip-path="url(#p982ed2b47e)">
     <use style="stroke:#000000;stroke-linejoin:miter;" x="140.662033" xlink:href="#m2dbf891ce6" y="115.92"/>
    </g>
   </g>
   <g id="line2d_175">
    <path clip-path="url(#p982ed2b47e)" d="M 184.142553 115.92 
" style="fill:none;stroke:#000000;stroke-linecap:square;stroke-width:1.5;"/>
    <g clip-path="url(#p982ed2b47e)">
     <use style="stroke:#000000;stroke-linejoin:miter;" x="184.142553" xlink:href="#m2dbf891ce6" y="115.92"/>
    </g>
   </g>
   <g id="line2d_176">
    <path clip-path="url(#p982ed2b47e)" d="M 227.623072 115.92 
" style="fill:none;stroke:#000000;stroke-linecap:square;stroke-width:1.5;"/>
    <g clip-path="url(#p982ed2b47e)">
     <use style="stroke:#000000;stroke-linejoin:miter;" x="227.623072" xlink:href="#m2dbf891ce6" y="115.92"/>
    </g>
   </g>
   <g id="line2d_177">
    <path clip-path="url(#p982ed2b47e)" d="M 271.103592 115.92 
" style="fill:none;stroke:#000000;stroke-linecap:square;stroke-width:1.5;"/>
    <g clip-path="url(#p982ed2b47e)">
     <use style="stroke:#000000;stroke-linejoin:miter;" x="271.103592" xlink:href="#m2dbf891ce6" y="115.92"/>
    </g>
   </g>
   <g id="line2d_178">
    <path clip-path="url(#p982ed2b47e)" d="M 314.584111 115.92 
" style="fill:none;stroke:#000000;stroke-linecap:square;stroke-width:1.5;"/>
    <g clip-path="url(#p982ed2b47e)">
     <use style="stroke:#000000;stroke-linejoin:miter;" x="314.584111" xlink:href="#m2dbf891ce6" y="115.92"/>
    </g>
   </g>
   <g id="line2d_179">
    <path clip-path="url(#p982ed2b47e)" d="M 358.064631 115.92 
" style="fill:none;stroke:#000000;stroke-linecap:square;stroke-width:1.5;"/>
    <g clip-path="url(#p982ed2b47e)">
     <use style="stroke:#000000;stroke-linejoin:miter;" x="358.064631" xlink:href="#m2dbf891ce6" y="115.92"/>
    </g>
   </g>
   <g id="line2d_180">
    <path clip-path="url(#p982ed2b47e)" d="M 53.700994 115.92 
" style="fill:none;stroke:#000000;stroke-linecap:square;stroke-width:1.5;"/>
    <g clip-path="url(#p982ed2b47e)">
     <use style="stroke:#000000;stroke-linejoin:miter;" x="53.700994" xlink:href="#m2dbf891ce6" y="115.92"/>
    </g>
   </g>
   <g id="line2d_181">
    <path clip-path="url(#p982ed2b47e)" d="M 97.181514 115.92 
" style="fill:none;stroke:#000000;stroke-linecap:square;stroke-width:1.5;"/>
    <g clip-path="url(#p982ed2b47e)">
     <use style="stroke:#000000;stroke-linejoin:miter;" x="97.181514" xlink:href="#m2dbf891ce6" y="115.92"/>
    </g>
   </g>
   <g id="line2d_182">
    <path clip-path="url(#p982ed2b47e)" d="M 140.662033 115.92 
" style="fill:none;stroke:#000000;stroke-linecap:square;stroke-width:1.5;"/>
    <g clip-path="url(#p982ed2b47e)">
     <use style="stroke:#000000;stroke-linejoin:miter;" x="140.662033" xlink:href="#m2dbf891ce6" y="115.92"/>
    </g>
   </g>
   <g id="line2d_183">
    <path clip-path="url(#p982ed2b47e)" d="M 184.142553 115.92 
" style="fill:none;stroke:#000000;stroke-linecap:square;stroke-width:1.5;"/>
    <g clip-path="url(#p982ed2b47e)">
     <use style="stroke:#000000;stroke-linejoin:miter;" x="184.142553" xlink:href="#m2dbf891ce6" y="115.92"/>
    </g>
   </g>
   <g id="line2d_184">
    <path clip-path="url(#p982ed2b47e)" d="M 227.623072 115.92 
" style="fill:none;stroke:#000000;stroke-linecap:square;stroke-width:1.5;"/>
    <g clip-path="url(#p982ed2b47e)">
     <use style="stroke:#000000;stroke-linejoin:miter;" x="227.623072" xlink:href="#m2dbf891ce6" y="115.92"/>
    </g>
   </g>
   <g id="line2d_185">
    <path clip-path="url(#p982ed2b47e)" d="M 271.103592 115.92 
" style="fill:none;stroke:#000000;stroke-linecap:square;stroke-width:1.5;"/>
    <g clip-path="url(#p982ed2b47e)">
     <use style="stroke:#000000;stroke-linejoin:miter;" x="271.103592" xlink:href="#m2dbf891ce6" y="115.92"/>
    </g>
   </g>
   <g id="line2d_186">
    <path clip-path="url(#p982ed2b47e)" d="M 314.584111 115.92 
" style="fill:none;stroke:#000000;stroke-linecap:square;stroke-width:1.5;"/>
    <g clip-path="url(#p982ed2b47e)">
     <use style="stroke:#000000;stroke-linejoin:miter;" x="314.584111" xlink:href="#m2dbf891ce6" y="115.92"/>
    </g>
   </g>
   <g id="line2d_187">
    <path clip-path="url(#p982ed2b47e)" d="M 358.064631 115.92 
" style="fill:none;stroke:#000000;stroke-linecap:square;stroke-width:1.5;"/>
    <g clip-path="url(#p982ed2b47e)">
     <use style="stroke:#000000;stroke-linejoin:miter;" x="358.064631" xlink:href="#m2dbf891ce6" y="115.92"/>
    </g>
   </g>
   <g id="patch_3">
    <path d="M 38.482813 224.64 
L 38.482813 7.2 
" style="fill:none;stroke:#000000;stroke-linecap:square;stroke-linejoin:miter;stroke-width:0.8;"/>
   </g>
   <g id="patch_4">
    <path d="M 373.282813 224.64 
L 373.282813 7.2 
" style="fill:none;stroke:#000000;stroke-linecap:square;stroke-linejoin:miter;stroke-width:0.8;"/>
   </g>
   <g id="patch_5">
    <path d="M 38.482813 224.64 
L 373.282813 224.64 
" style="fill:none;stroke:#000000;stroke-linecap:square;stroke-linejoin:miter;stroke-width:0.8;"/>
   </g>
   <g id="patch_6">
    <path d="M 38.482813 7.2 
L 373.282813 7.2 
" style="fill:none;stroke:#000000;stroke-linecap:square;stroke-linejoin:miter;stroke-width:0.8;"/>
   </g>
   <g id="legend_1">
    <g id="patch_7">
     <path d="M 362.282813 20.2 
L 366.282813 20.2 
Q 368.282813 20.2 368.282813 18.2 
L 368.282813 14.2 
Q 368.282813 12.2 366.282813 12.2 
L 362.282813 12.2 
Q 360.282813 12.2 360.282813 14.2 
L 360.282813 18.2 
Q 360.282813 20.2 362.282813 20.2 
z
" style="fill:#ffffff;opacity:0.8;stroke:#cccccc;stroke-linejoin:miter;"/>
    </g>
   </g>
  </g>
 </g>
 <defs>
  <clipPath id="p982ed2b47e">
   <rect height="217.44" width="334.8" x="38.482813" y="7.2"/>
  </clipPath>
 </defs>
</svg>
