<?xml version="1.0" encoding="utf-8" standalone="no"?>
<!DOCTYPE svg PUBLIC "-//W3C//DTD SVG 1.1//EN"
  "http://www.w3.org/Graphics/SVG/1.1/DTD/svg11.dtd">
<!-- Created with matplotlib (https://matplotlib.org/) -->
<svg height="164.619474pt" version="1.1" viewBox="0 0 349.2 164.619474" width="349.2pt" xmlns="http://www.w3.org/2000/svg" xmlns:xlink="http://www.w3.org/1999/xlink">
 <metadata>
  <rdf:RDF xmlns:cc="http://creativecommons.org/ns#" xmlns:dc="http://purl.org/dc/elements/1.1/" xmlns:rdf="http://www.w3.org/1999/02/22-rdf-syntax-ns#">
   <cc:Work>
    <dc:type rdf:resource="http://purl.org/dc/dcmitype/StillImage"/>
    <dc:date>2021-05-18T08:12:27.956132</dc:date>
    <dc:format>image/svg+xml</dc:format>
    <dc:creator>
     <cc:Agent>
      <dc:title>Matplotlib v3.3.4, https://matplotlib.org/</dc:title>
     </cc:Agent>
    </dc:creator>
   </cc:Work>
  </rdf:RDF>
 </metadata>
 <defs>
  <style type="text/css">*{stroke-linecap:butt;stroke-linejoin:round;}</style>
 </defs>
 <g id="figure_1">
  <g id="patch_1">
   <path d="M 0 164.619474 
L 349.2 164.619474 
L 349.2 0 
L 0 0 
z
" style="fill:none;"/>
  </g>
  <g id="axes_1">
   <g id="PatchCollection_1">
    <path clip-path="url(#p8ce9ce4b85)" d="M 132.75 153.528158 
L 216.45 153.528158 
L 216.45 69.828158 
L 132.75 69.828158 
z
" style="fill:#808080;fill-opacity:0.3;stroke:#808080;stroke-opacity:0.3;"/>
    <path clip-path="url(#p8ce9ce4b85)" d="M 35.1 69.828158 
L 314.1 69.828158 
L 314.1 41.928158 
L 35.1 41.928158 
z
" style="fill:#808080;fill-opacity:0.3;stroke:#808080;stroke-opacity:0.3;"/>
   </g>
   <g id="line2d_1">
    <path clip-path="url(#p8ce9ce4b85)" d="M 35.1 33.851842 
L 160.65 33.851842 
" style="fill:none;stroke:#000000;stroke-linecap:square;stroke-width:0.5;"/>
    <defs>
     <path d="M 0 3 
L 0 -3 
" id="m16de47af3e" style="stroke:#000000;"/>
    </defs>
    <g clip-path="url(#p8ce9ce4b85)">
     <use style="stroke:#000000;" x="35.1" xlink:href="#m16de47af3e" y="33.851842"/>
    </g>
   </g>
   <g id="line2d_2">
    <path clip-path="url(#p8ce9ce4b85)" d="M 314.1 33.851842 
L 188.55 33.851842 
" style="fill:none;stroke:#000000;stroke-linecap:square;stroke-width:0.5;"/>
    <g clip-path="url(#p8ce9ce4b85)">
     <use style="stroke:#000000;" x="314.1" xlink:href="#m16de47af3e" y="33.851842"/>
    </g>
   </g>
   <g id="line2d_3">
    <path clip-path="url(#p8ce9ce4b85)" d="M 265.275 41.928158 
L 265.275 74.233421 
" style="fill:none;stroke:#000000;stroke-linecap:square;stroke-width:0.5;"/>
    <defs>
     <path d="M 3 0 
L -3 -0 
" id="m5a3c488d3f" style="stroke:#000000;"/>
    </defs>
    <g clip-path="url(#p8ce9ce4b85)">
     <use style="stroke:#000000;" x="265.275" xlink:href="#m5a3c488d3f" y="41.928158"/>
    </g>
   </g>
   <g id="line2d_4">
    <path clip-path="url(#p8ce9ce4b85)" d="M 265.275 96.553421 
L 265.275 153.528158 
" style="fill:none;stroke:#000000;stroke-linecap:square;stroke-width:0.5;"/>
    <g clip-path="url(#p8ce9ce4b85)">
     <use style="stroke:#000000;" x="265.275" xlink:href="#m5a3c488d3f" y="153.528158"/>
    </g>
   </g>
   <g id="line2d_5">
    <path clip-path="url(#p8ce9ce4b85)" d="M 132.75 134.291842 
L 166.23 134.291842 
" style="fill:none;stroke:#000000;stroke-linecap:square;stroke-width:0.5;"/>
    <g clip-path="url(#p8ce9ce4b85)">
     <use style="stroke:#000000;" x="132.75" xlink:href="#m16de47af3e" y="134.291842"/>
    </g>
   </g>
   <g id="line2d_6">
    <path clip-path="url(#p8ce9ce4b85)" d="M 216.45 134.291842 
L 182.97 134.291842 
" style="fill:none;stroke:#000000;stroke-linecap:square;stroke-width:0.5;"/>
    <g clip-path="url(#p8ce9ce4b85)">
     <use style="stroke:#000000;" x="216.45" xlink:href="#m16de47af3e" y="134.291842"/>
    </g>
   </g>
   <g id="text_1">
    <!-- $b_f$ -->
    <g transform="translate(174.6 33.851842)scale(0.1 -0.1)">
     <defs>
      <path d="M 23.5 72 
L 22.296875 73.09375 
C 17.09375 70.5 13.5 69.59375 6.296875 68.890625 
L 5.90625 66.796875 
L 10.703125 66.796875 
C 13.09375 66.796875 14.09375 66.09375 14.09375 64.390625 
C 14.09375 63.6875 14 62.59375 13.90625 62 
L 3.796875 7.171875 
C 3.703125 6.875 3.703125 6.46875 3.703125 6.171875 
C 3.703125 2.296875 8.5 -1 14 -1 
C 17.703125 -1 22.796875 0.890625 27.09375 3.984375 
C 36.703125 10.734375 43.296875 24.34375 43.296875 37.453125 
C 43.296875 41.21875 42.40625 45.09375 41.203125 46.59375 
C 40.5 47.484375 39.203125 48 37.703125 48 
C 35.296875 48 32.296875 47.1875 29.5 45.796875 
C 24.40625 43.109375 21.09375 40.125 14.90625 32.28125 
z
M 32.203125 42.21875 
C 34.796875 42.21875 36.09375 39.9375 36.09375 35.0625 
C 36.09375 28.71875 34 20.171875 31 13.71875 
C 27.703125 6.875 23.703125 3.6875 18.296875 3.6875 
C 13.703125 3.6875 11.203125 5.96875 11.203125 10.140625 
C 11.203125 12.625 11.59375 15.40625 12.5 19.078125 
C 14.40625 27.03125 16.796875 31.796875 20.796875 35.96875 
C 24.09375 39.34375 29.296875 42.21875 32.203125 42.21875 
z
" id="URW_Palladio_L_Italic-98"/>
      <path d="M 28.59375 38.59375 
C 29 40.484375 29.703125 42.796875 30.296875 44.1875 
L 29.90625 44.890625 
L 29.203125 44.6875 
C 26.796875 44.09375 25.703125 44 20.796875 44 
L 19.203125 44 
L 21.296875 55.1875 
C 22.90625 63.796875 25.703125 67.59375 30.296875 67.59375 
C 33.296875 67.59375 36 66.09375 37.5 63.6875 
L 38.5 64.09375 
C 39 65.6875 40 68.796875 40.796875 70.796875 
L 41.296875 72.296875 
C 39.703125 73 36.59375 73.59375 34.296875 73.59375 
C 33.203125 73.59375 31.59375 73.296875 30.796875 72.890625 
C 28.40625 71.796875 20.203125 65.6875 17.90625 63.296875 
C 15.703125 61.09375 14.5 58.09375 13.40625 52.390625 
L 11.90625 44.5 
C 7.796875 42.484375 5.796875 41.6875 3.296875 40.796875 
L 2.796875 38.59375 
L 10.90625 38.59375 
L 10 33 
C 7 13.5 3.296875 -5.109375 1.09375 -12 
C -0.703125 -17.90625 -3.703125 -21 -7.296875 -21 
C -9.609375 -21 -10.703125 -20.3125 -12.5 -18.109375 
L -13.90625 -18.5 
C -14.296875 -20.8125 -15.703125 -25.609375 -16.203125 -26.515625 
C -15.296875 -27.015625 -13.796875 -27.3125 -12.703125 -27.3125 
C -8.609375 -27.3125 -3.203125 -24.203125 0.703125 -19.5 
C 6.796875 -12.3125 9 -5.3125 16.296875 29.796875 
C 16.59375 31 17.40625 34.796875 18.203125 38.59375 
z
" id="URW_Palladio_L_Italic-102"/>
     </defs>
     <use transform="scale(0.996264)" xlink:href="#URW_Palladio_L_Italic-98"/>
     <use transform="translate(56.666438 -20.849366)scale(0.757155)" xlink:href="#URW_Palladio_L_Italic-102"/>
    </g>
   </g>
   <g id="text_2">
    <!-- $d$ -->
    <g transform="translate(265.275 83.778158)scale(0.1 -0.1)">
     <defs>
      <path d="M 48.296875 72 
L 47.09375 73.09375 
C 41.90625 70.5 38.296875 69.59375 31.09375 68.890625 
L 30.703125 66.796875 
L 35.5 66.796875 
C 37.90625 66.796875 38.90625 66.09375 38.90625 64.390625 
C 38.90625 63.59375 38.796875 62.6875 38.703125 62 
L 35.90625 46.59375 
C 32.90625 47.484375 30.203125 48 27.703125 48 
C 20.796875 48 11.40625 40.8125 6.796875 32.171875 
C 3.703125 26.40625 1.703125 16.984375 1.703125 8.640625 
C 1.703125 2.1875 3.203125 -1 6.09375 -1 
C 8.796875 -1 12.5 0.6875 15.90625 3.375 
C 21.296875 7.75 24.59375 11.609375 31.296875 21.640625 
L 29 12.609375 
C 27.90625 8.234375 27.40625 5.0625 27.40625 2.484375 
C 27.40625 0.1875 28.296875 -1 30 -1 
C 31.703125 -1 34.09375 0.1875 37.5 2.6875 
L 45.59375 8.671875 
L 44.59375 10.5625 
L 40.203125 7.484375 
C 38.796875 6.484375 37.203125 5.78125 36.296875 5.78125 
C 35.5 5.78125 34.90625 6.671875 34.90625 8.078125 
C 34.90625 8.875 35 9.765625 35.703125 12.671875 
z
M 33.703125 34.90625 
C 31.90625 26.125 27 17.359375 20.796875 11.46875 
C 17.296875 8.171875 13.296875 5.78125 11.40625 5.78125 
C 9.796875 5.78125 8.90625 7.171875 8.90625 9.671875 
C 8.90625 22.234375 13.5 37.796875 18.40625 41.59375 
C 19.703125 42.59375 21.59375 43.09375 24.296875 43.09375 
C 28.703125 43.09375 31.59375 42.5 34.90625 40.796875 
z
" id="URW_Palladio_L_Italic-100"/>
     </defs>
     <use transform="scale(0.996264)" xlink:href="#URW_Palladio_L_Italic-100"/>
    </g>
   </g>
   <g id="text_3">
    <!-- $t_f$ -->
    <g transform="translate(328.05 55.878158)scale(0.1 -0.1)">
     <defs>
      <path d="M 12.5 38.890625 
L 6.90625 10.59375 
C 6.796875 9.890625 6.703125 9.6875 6.40625 8.5 
C 5.796875 5.6875 5.59375 4.1875 5.59375 3 
C 5.59375 0.5 6.703125 -1 8.59375 -1 
C 12.09375 -1 15.59375 1 23.40625 7.296875 
L 24.90625 8.5 
L 26.5 9.796875 
L 25.5 11.59375 
L 21 8.5 
C 18.09375 6.5 16.09375 5.5 15 5.5 
C 14.09375 5.5 13.59375 6.296875 13.59375 7.5 
C 13.59375 10.09375 15 18.1875 17.90625 32.6875 
L 19.203125 38.890625 
L 29.90625 38.890625 
L 31 43.890625 
C 27.203125 43.5 23.796875 43.296875 20 43.296875 
C 21.59375 52.703125 22.703125 57.59375 24.5 63 
L 23.40625 64.5 
C 21.40625 63.296875 18.703125 62.09375 15.59375 60.890625 
L 13.09375 43.890625 
C 8.703125 41.796875 6.09375 40.6875 4.296875 40.1875 
L 4.09375 38.890625 
z
" id="URW_Palladio_L_Italic-116"/>
     </defs>
     <use transform="scale(0.996264)" xlink:href="#URW_Palladio_L_Italic-116"/>
     <use transform="translate(45.209432 -20.849366)scale(0.757155)" xlink:href="#URW_Palladio_L_Italic-102"/>
    </g>
   </g>
   <g id="text_4">
    <!-- $b_w$ -->
    <g transform="translate(170.415 134.291842)scale(0.1 -0.1)">
     <defs>
      <path d="M 55.40625 42.125 
L 56.5 40.234375 
C 57.40625 40.828125 58.296875 41.125 59.203125 41.125 
C 61.90625 41.125 63.5 38.84375 63.5 34.875 
C 63.5 20.46875 53.796875 4 45.296875 4 
C 42.40625 4 40.296875 7.96875 40.296875 13.421875 
C 40.296875 18.09375 41.203125 24.640625 42.40625 28.90625 
L 47.59375 47.1875 
L 46.90625 48 
L 39.5 45.796875 
L 36.59375 31 
C 35.40625 24.84375 34 20.875 31.09375 15.515625 
C 27.09375 8.0625 23.296875 4 20.296875 4 
C 16.796875 4 14.5 7.859375 14.5 13.625 
C 14.5 25.4375 18.59375 35.0625 28.5 46.1875 
L 27.5 48 
C 25.5 47.09375 24.203125 46.796875 21.40625 46.796875 
C 18.59375 46.796875 14.40625 46.984375 11.5 47.296875 
L 10.296875 47.390625 
C 9.703125 48 9.203125 48 9.09375 48 
C 7.90625 48 7 47.796875 5.90625 47.296875 
C 4.5 44.59375 3.40625 40.96875 2.09375 35.4375 
L 4.296875 35.4375 
L 6 39.65625 
C 6.703125 41.375 8.703125 42.46875 11.09375 42.46875 
C 11.59375 42.46875 12.5 42.46875 13.796875 42.375 
C 14.59375 42.28125 15.40625 42.28125 16.703125 42.28125 
C 18.796875 42.28125 20.09375 42.375 22.59375 42.671875 
L 22.296875 42.28125 
C 21.703125 41.46875 21.296875 40.96875 19.59375 39.0625 
C 10.59375 28.515625 7.203125 21.28125 7.203125 12.734375 
C 7.203125 4.5 10.703125 -1 16 -1 
C 22.40625 -1 27.59375 4.5 35 18.859375 
C 34.09375 14.4375 33.796875 11.9375 33.796875 9.625 
C 33.796875 3.296875 36.703125 -1 41.203125 -1 
C 49.296875 -1 59.796875 9.109375 66 22.875 
C 68.203125 27.90625 69.90625 34.640625 69.90625 38.65625 
C 69.90625 43.890625 67.296875 48 63.703125 48 
C 62.40625 48 61.203125 47.59375 60.40625 46.796875 
z
" id="URW_Palladio_L_Italic-119"/>
     </defs>
     <use transform="scale(0.996264)" xlink:href="#URW_Palladio_L_Italic-98"/>
     <use transform="translate(46.823405 -14.943915)scale(0.757155)" xlink:href="#URW_Palladio_L_Italic-119"/>
    </g>
   </g>
  </g>
 </g>
 <defs>
  <clipPath id="p8ce9ce4b85">
   <rect height="150.219474" width="334.8" x="7.2" y="7.2"/>
  </clipPath>
 </defs>
</svg>
