<?xml version="1.0" encoding="utf-8" standalone="no"?>
<!DOCTYPE svg PUBLIC "-//W3C//DTD SVG 1.1//EN"
  "http://www.w3.org/Graphics/SVG/1.1/DTD/svg11.dtd">
<!-- Created with matplotlib (https://matplotlib.org/) -->
<svg height="296.39952pt" version="1.1" viewBox="0 0 440.39952 296.39952" width="440.39952pt" xmlns="http://www.w3.org/2000/svg" xmlns:xlink="http://www.w3.org/1999/xlink">
 <metadata>
  <rdf:RDF xmlns:cc="http://creativecommons.org/ns#" xmlns:dc="http://purl.org/dc/elements/1.1/" xmlns:rdf="http://www.w3.org/1999/02/22-rdf-syntax-ns#">
   <cc:Work>
    <dc:type rdf:resource="http://purl.org/dc/dcmitype/StillImage"/>
    <dc:date>2021-05-17T21:31:03.889701</dc:date>
    <dc:format>image/svg+xml</dc:format>
    <dc:creator>
     <cc:Agent>
      <dc:title>Matplotlib v3.3.4, https://matplotlib.org/</dc:title>
     </cc:Agent>
    </dc:creator>
   </cc:Work>
  </rdf:RDF>
 </metadata>
 <defs>
  <style type="text/css">*{stroke-linecap:butt;stroke-linejoin:round;}</style>
 </defs>
 <g id="figure_1">
  <g id="patch_1">
   <path d="M 0 296.39952 
L 440.39952 296.39952 
L 440.39952 0 
L 0 0 
z
" style="fill:none;"/>
  </g>
  <g id="axes_1">
   <g id="patch_2">
    <path d="M 39.421719 257.754977 
L 210.357819 257.754977 
L 210.357819 21.753876 
L 39.421719 21.753876 
z
" style="fill:#ffffff;"/>
   </g>
   <g id="matplotlib.axis_1">
    <g id="xtick_1">
     <g id="line2d_1">
      <path clip-path="url(#pc7e8870e09)" d="M 39.421719 257.754977 
L 39.421719 21.753876 
" style="fill:none;stroke:#eeeeee;stroke-dasharray:0.8,1.32;stroke-dashoffset:0;stroke-width:0.8;"/>
     </g>
     <g id="line2d_2">
      <defs>
       <path d="M 0 0 
L 0 3.5 
" id="m010d60d941" style="stroke:#000000;stroke-width:0.8;"/>
      </defs>
      <g>
       <use style="stroke:#000000;stroke-width:0.8;" x="39.421719" xlink:href="#m010d60d941" y="257.754977"/>
      </g>
     </g>
     <g id="text_1">
      <!-- $\mathdefault{5.0}$ -->
      <g transform="translate(33.195069 271.883215)scale(0.1 -0.1)">
       <defs>
        <path d="M 12.703125 60.796875 
C 25.59375 60.390625 31.203125 60.296875 43.203125 60.296875 
L 43.703125 60.796875 
C 43.5 62.59375 43.5 63.390625 43.5 64.6875 
C 43.5 66.09375 43.5 66.890625 43.703125 68.6875 
L 43.203125 69.1875 
C 35.703125 68.796875 31.203125 68.6875 25.796875 68.6875 
C 20.296875 68.6875 15.90625 68.796875 8.40625 69.1875 
L 7.90625 68.6875 
C 8 62.59375 8.09375 58.1875 8.09375 55 
C 8.09375 46.5 7.796875 36.875 7.5 32.4375 
L 9.5 31.84375 
C 14.203125 36.578125 16.90625 38 21.796875 38 
C 31.40625 38 37.40625 31.125 37.40625 20.234375 
C 37.40625 9.046875 31 2.5 20.09375 2.5 
C 14.703125 2.5 9.703125 4.3125 8.296875 6.921875 
L 3.703125 15.203125 
L 1.296875 13.78125 
C 3.59375 8.03125 4.796875 4.8125 6.203125 0.390625 
C 9 -1.109375 13 -2 17.296875 -2 
C 24 -2 31.09375 0.890625 36.59375 5.71875 
C 42.703125 11.171875 45.90625 18.015625 45.90625 25.484375 
C 45.90625 36.875 37.796875 44.890625 26.40625 44.890625 
C 21.59375 44.890625 18 43.59375 11.796875 39.890625 
z
" id="URW_Palladio_L_Roman-53"/>
        <path d="M 12.40625 10.59375 
C 9.40625 10.59375 6.703125 7.796875 6.703125 4.796875 
C 6.703125 1.796875 9.40625 -1 12.296875 -1 
C 15.5 -1 18.296875 1.6875 18.296875 4.796875 
C 18.296875 7.796875 15.5 10.59375 12.40625 10.59375 
z
" id="URW_Palladio_L_Roman-46"/>
        <path d="M 26.296875 69 
C 10.796875 69 2.90625 56.6875 2.90625 32.4375 
C 2.90625 20.71875 5 10.609375 8.5 5.703125 
C 12 0.796875 17.59375 -2 23.796875 -2 
C 38.90625 -2 46.5 11 46.5 36.640625 
C 46.5 58.578125 40 69 26.296875 69 
z
M 24.5 65.484375 
C 34.203125 65.484375 38.09375 55.671875 38.09375 31.640625 
C 38.09375 10.3125 34.296875 1.5 25.09375 1.5 
C 15.40625 1.5 11.296875 11.609375 11.296875 36.046875 
C 11.296875 57.1875 15 65.484375 24.5 65.484375 
z
" id="URW_Palladio_L_Roman-48"/>
       </defs>
       <use transform="scale(0.996264)" xlink:href="#URW_Palladio_L_Roman-53"/>
       <use transform="translate(49.8132 0)scale(0.996264)" xlink:href="#URW_Palladio_L_Roman-46"/>
       <use transform="translate(74.719801 0)scale(0.996264)" xlink:href="#URW_Palladio_L_Roman-48"/>
      </g>
     </g>
    </g>
    <g id="xtick_2">
     <g id="line2d_3">
      <path clip-path="url(#pc7e8870e09)" d="M 78.270832 257.754977 
L 78.270832 21.753876 
" style="fill:none;stroke:#eeeeee;stroke-dasharray:0.8,1.32;stroke-dashoffset:0;stroke-width:0.8;"/>
     </g>
     <g id="line2d_4">
      <g>
       <use style="stroke:#000000;stroke-width:0.8;" x="78.270832" xlink:href="#m010d60d941" y="257.754977"/>
      </g>
     </g>
     <g id="text_2">
      <!-- $\mathdefault{5.5}$ -->
      <g transform="translate(72.044182 271.883215)scale(0.1 -0.1)">
       <use transform="scale(0.996264)" xlink:href="#URW_Palladio_L_Roman-53"/>
       <use transform="translate(49.8132 0)scale(0.996264)" xlink:href="#URW_Palladio_L_Roman-46"/>
       <use transform="translate(74.719801 0)scale(0.996264)" xlink:href="#URW_Palladio_L_Roman-53"/>
      </g>
     </g>
    </g>
    <g id="xtick_3">
     <g id="line2d_5">
      <path clip-path="url(#pc7e8870e09)" d="M 117.119946 257.754977 
L 117.119946 21.753876 
" style="fill:none;stroke:#eeeeee;stroke-dasharray:0.8,1.32;stroke-dashoffset:0;stroke-width:0.8;"/>
     </g>
     <g id="line2d_6">
      <g>
       <use style="stroke:#000000;stroke-width:0.8;" x="117.119946" xlink:href="#m010d60d941" y="257.754977"/>
      </g>
     </g>
     <g id="text_3">
      <!-- $\mathdefault{6.0}$ -->
      <g transform="translate(110.893296 271.883215)scale(0.1 -0.1)">
       <defs>
        <path d="M 41.59375 66.984375 
L 37.90625 68.6875 
C 28.296875 65.515625 24.203125 63.53125 19.09375 59.1875 
C 8.796875 50.578125 3.203125 38.484375 3.203125 24.765625 
C 3.203125 8.21875 11.203125 -2 24.09375 -2 
C 37.09375 -2 46.796875 8.3125 46.796875 21.953125 
C 46.796875 33.484375 39.90625 41 29.296875 41 
C 24.296875 41 21.296875 39.6875 15.40625 34.984375 
C 14.296875 34.09375 14.203125 33.984375 13.09375 33.1875 
C 15.203125 51.171875 23.59375 60.859375 41.59375 66.203125 
z
M 25.5 34.984375 
C 33.09375 34.984375 38.203125 28.375 38.203125 18.4375 
C 38.203125 8.015625 33.09375 1.296875 25.40625 1.296875 
C 16.90625 1.296875 12.296875 8.609375 12.296875 22.046875 
C 12.296875 25.5625 12.703125 27.46875 13.796875 29.171875 
C 16 32.578125 20.703125 34.984375 25.5 34.984375 
z
" id="URW_Palladio_L_Roman-54"/>
       </defs>
       <use transform="scale(0.996264)" xlink:href="#URW_Palladio_L_Roman-54"/>
       <use transform="translate(49.8132 0)scale(0.996264)" xlink:href="#URW_Palladio_L_Roman-46"/>
       <use transform="translate(74.719801 0)scale(0.996264)" xlink:href="#URW_Palladio_L_Roman-48"/>
      </g>
     </g>
    </g>
    <g id="xtick_4">
     <g id="line2d_7">
      <path clip-path="url(#pc7e8870e09)" d="M 155.96906 257.754977 
L 155.96906 21.753876 
" style="fill:none;stroke:#eeeeee;stroke-dasharray:0.8,1.32;stroke-dashoffset:0;stroke-width:0.8;"/>
     </g>
     <g id="line2d_8">
      <g>
       <use style="stroke:#000000;stroke-width:0.8;" x="155.96906" xlink:href="#m010d60d941" y="257.754977"/>
      </g>
     </g>
     <g id="text_4">
      <!-- $\mathdefault{6.5}$ -->
      <g transform="translate(149.74241 271.883215)scale(0.1 -0.1)">
       <use transform="scale(0.996264)" xlink:href="#URW_Palladio_L_Roman-54"/>
       <use transform="translate(49.8132 0)scale(0.996264)" xlink:href="#URW_Palladio_L_Roman-46"/>
       <use transform="translate(74.719801 0)scale(0.996264)" xlink:href="#URW_Palladio_L_Roman-53"/>
      </g>
     </g>
    </g>
    <g id="xtick_5">
     <g id="line2d_9">
      <path clip-path="url(#pc7e8870e09)" d="M 194.818174 257.754977 
L 194.818174 21.753876 
" style="fill:none;stroke:#eeeeee;stroke-dasharray:0.8,1.32;stroke-dashoffset:0;stroke-width:0.8;"/>
     </g>
     <g id="line2d_10">
      <g>
       <use style="stroke:#000000;stroke-width:0.8;" x="194.818174" xlink:href="#m010d60d941" y="257.754977"/>
      </g>
     </g>
     <g id="text_5">
      <!-- $\mathdefault{7.0}$ -->
      <g transform="translate(188.591524 271.883215)scale(0.1 -0.1)">
       <defs>
        <path d="M 5.59375 1.296875 
L 6.5 0 
C 10.40625 0 10.40625 0 11.09375 0 
C 11.796875 0.296875 11.796875 0.296875 15.703125 0 
C 19.90625 10.9375 24.796875 21.390625 31.40625 33.453125 
L 49.703125 66.484375 
L 49.703125 69.5 
C 38.90625 69.09375 35.40625 69 27.296875 69 
C 20 69 15.09375 69.09375 5.40625 69.5 
L 4.40625 69 
C 4.703125 59.484375 4.703125 59.484375 4.703125 58.484375 
C 4.703125 57.375 4.703125 57.375 4.40625 48.234375 
L 7.40625 48.234375 
L 8.09375 53.859375 
C 8.90625 60.09375 9.59375 60.890625 14.203125 60.890625 
L 40.90625 60.890625 
C 36.90625 52.65625 33.796875 46.8125 30 40.6875 
z
" id="URW_Palladio_L_Roman-55"/>
       </defs>
       <use transform="scale(0.996264)" xlink:href="#URW_Palladio_L_Roman-55"/>
       <use transform="translate(49.8132 0)scale(0.996264)" xlink:href="#URW_Palladio_L_Roman-46"/>
       <use transform="translate(74.719801 0)scale(0.996264)" xlink:href="#URW_Palladio_L_Roman-48"/>
      </g>
     </g>
    </g>
    <g id="text_6">
     <!-- $t_f$ -->
     <g transform="translate(121.576883 285.138425)scale(0.1 -0.1)">
      <defs>
       <path d="M 12.5 38.890625 
L 6.90625 10.59375 
C 6.796875 9.890625 6.703125 9.6875 6.40625 8.5 
C 5.796875 5.6875 5.59375 4.1875 5.59375 3 
C 5.59375 0.5 6.703125 -1 8.59375 -1 
C 12.09375 -1 15.59375 1 23.40625 7.296875 
L 24.90625 8.5 
L 26.5 9.796875 
L 25.5 11.59375 
L 21 8.5 
C 18.09375 6.5 16.09375 5.5 15 5.5 
C 14.09375 5.5 13.59375 6.296875 13.59375 7.5 
C 13.59375 10.09375 15 18.1875 17.90625 32.6875 
L 19.203125 38.890625 
L 29.90625 38.890625 
L 31 43.890625 
C 27.203125 43.5 23.796875 43.296875 20 43.296875 
C 21.59375 52.703125 22.703125 57.59375 24.5 63 
L 23.40625 64.5 
C 21.40625 63.296875 18.703125 62.09375 15.59375 60.890625 
L 13.09375 43.890625 
C 8.703125 41.796875 6.09375 40.6875 4.296875 40.1875 
L 4.09375 38.890625 
z
" id="URW_Palladio_L_Italic-116"/>
       <path d="M 28.59375 38.59375 
C 29 40.484375 29.703125 42.796875 30.296875 44.1875 
L 29.90625 44.890625 
L 29.203125 44.6875 
C 26.796875 44.09375 25.703125 44 20.796875 44 
L 19.203125 44 
L 21.296875 55.1875 
C 22.90625 63.796875 25.703125 67.59375 30.296875 67.59375 
C 33.296875 67.59375 36 66.09375 37.5 63.6875 
L 38.5 64.09375 
C 39 65.6875 40 68.796875 40.796875 70.796875 
L 41.296875 72.296875 
C 39.703125 73 36.59375 73.59375 34.296875 73.59375 
C 33.203125 73.59375 31.59375 73.296875 30.796875 72.890625 
C 28.40625 71.796875 20.203125 65.6875 17.90625 63.296875 
C 15.703125 61.09375 14.5 58.09375 13.40625 52.390625 
L 11.90625 44.5 
C 7.796875 42.484375 5.796875 41.6875 3.296875 40.796875 
L 2.796875 38.59375 
L 10.90625 38.59375 
L 10 33 
C 7 13.5 3.296875 -5.109375 1.09375 -12 
C -0.703125 -17.90625 -3.703125 -21 -7.296875 -21 
C -9.609375 -21 -10.703125 -20.3125 -12.5 -18.109375 
L -13.90625 -18.5 
C -14.296875 -20.8125 -15.703125 -25.609375 -16.203125 -26.515625 
C -15.296875 -27.015625 -13.796875 -27.3125 -12.703125 -27.3125 
C -8.609375 -27.3125 -3.203125 -24.203125 0.703125 -19.5 
C 6.796875 -12.3125 9 -5.3125 16.296875 29.796875 
C 16.59375 31 17.40625 34.796875 18.203125 38.59375 
z
" id="URW_Palladio_L_Italic-102"/>
      </defs>
      <use transform="scale(0.996264)" xlink:href="#URW_Palladio_L_Italic-116"/>
      <use transform="translate(45.209432 -20.849366)scale(0.757155)" xlink:href="#URW_Palladio_L_Italic-102"/>
     </g>
    </g>
   </g>
   <g id="matplotlib.axis_2">
    <g id="ytick_1">
     <g id="line2d_11">
      <path clip-path="url(#pc7e8870e09)" d="M 39.421719 240.142955 
L 210.357819 240.142955 
" style="fill:none;stroke:#eeeeee;stroke-dasharray:0.8,1.32;stroke-dashoffset:0;stroke-width:0.8;"/>
     </g>
     <g id="line2d_12">
      <defs>
       <path d="M 0 0 
L -3.5 0 
" id="mb16a62f63b" style="stroke:#000000;stroke-width:0.8;"/>
      </defs>
      <g>
       <use style="stroke:#000000;stroke-width:0.8;" x="39.421719" xlink:href="#mb16a62f63b" y="240.142955"/>
      </g>
     </g>
     <g id="text_7">
      <!-- $\mathdefault{10}$ -->
      <g transform="translate(22.459079 243.707073)scale(0.1 -0.1)">
       <defs>
        <path d="M 6.703125 55.796875 
L 7.703125 55.796875 
L 20.59375 61.59375 
C 20.703125 61.703125 20.796875 61.703125 20.90625 61.703125 
C 21.5 61.703125 21.703125 60.796875 21.703125 58.390625 
L 21.703125 9.890625 
C 21.703125 4.6875 20.59375 3.59375 15.203125 3.296875 
L 9.59375 3 
L 9.59375 0 
C 25 0 25 0 26.09375 0 
C 27.40625 0 29.59375 0 33 -0.109375 
C 34.203125 0.09375 37.703125 0.09375 41.796875 0 
L 41.796875 3 
L 36.59375 3.296875 
C 31.09375 3.578125 30.09375 4.671875 30.09375 9.8125 
L 30.09375 68.484375 
L 28.703125 69 
C 22.203125 65.609375 15.09375 62.640625 6 59.484375 
z
" id="URW_Palladio_L_Roman-49"/>
       </defs>
       <use transform="scale(0.996264)" xlink:href="#URW_Palladio_L_Roman-49"/>
       <use transform="translate(49.8132 0)scale(0.996264)" xlink:href="#URW_Palladio_L_Roman-48"/>
      </g>
     </g>
    </g>
    <g id="ytick_2">
     <g id="line2d_13">
      <path clip-path="url(#pc7e8870e09)" d="M 39.421719 204.91891 
L 210.357819 204.91891 
" style="fill:none;stroke:#eeeeee;stroke-dasharray:0.8,1.32;stroke-dashoffset:0;stroke-width:0.8;"/>
     </g>
     <g id="line2d_14">
      <g>
       <use style="stroke:#000000;stroke-width:0.8;" x="39.421719" xlink:href="#mb16a62f63b" y="204.91891"/>
      </g>
     </g>
     <g id="text_8">
      <!-- $\mathdefault{20}$ -->
      <g transform="translate(22.459079 208.483028)scale(0.1 -0.1)">
       <defs>
        <path d="M 1.59375 2.59375 
L 1.59375 0 
C 20.296875 0 20.296875 0 23.90625 0 
C 27.5 0.296875 27.5 0.296875 46.796875 0 
C 46.59375 2.09375 46.59375 3.09375 46.59375 4.484375 
C 46.59375 5.78125 46.59375 6.78125 46.796875 8.96875 
C 35.296875 8.46875 30.703125 8.375 12.203125 7.96875 
L 30.40625 27.203125 
C 40.09375 37.46875 43.09375 42.953125 43.09375 50.4375 
C 43.09375 61.890625 35.296875 69 22.59375 69 
C 15.40625 69 10.5 66.984375 5.59375 61.984375 
L 3.90625 48.4375 
L 6.796875 48.4375 
L 8.09375 53.03125 
C 9.703125 58.796875 13.296875 61.296875 20 61.296875 
C 28.59375 61.296875 34.09375 55.90625 34.09375 47.4375 
C 34.09375 39.96875 29.90625 32.59375 18.59375 20.625 
z
" id="URW_Palladio_L_Roman-50"/>
       </defs>
       <use transform="scale(0.996264)" xlink:href="#URW_Palladio_L_Roman-50"/>
       <use transform="translate(49.8132 0)scale(0.996264)" xlink:href="#URW_Palladio_L_Roman-48"/>
      </g>
     </g>
    </g>
    <g id="ytick_3">
     <g id="line2d_15">
      <path clip-path="url(#pc7e8870e09)" d="M 39.421719 169.694865 
L 210.357819 169.694865 
" style="fill:none;stroke:#eeeeee;stroke-dasharray:0.8,1.32;stroke-dashoffset:0;stroke-width:0.8;"/>
     </g>
     <g id="line2d_16">
      <g>
       <use style="stroke:#000000;stroke-width:0.8;" x="39.421719" xlink:href="#mb16a62f63b" y="169.694865"/>
      </g>
     </g>
     <g id="text_9">
      <!-- $\mathdefault{30}$ -->
      <g transform="translate(22.459079 173.258983)scale(0.1 -0.1)">
       <defs>
        <path d="M 4.296875 49.9375 
L 7.40625 49.9375 
L 9.203125 55.515625 
C 10.296875 58.90625 16.59375 62.296875 21.796875 62.296875 
C 28.296875 62.296875 33.59375 57.015625 33.59375 50.734375 
C 33.59375 43.265625 27.703125 37 20.59375 37 
C 19.796875 37 18.703125 37.09375 17.40625 37.1875 
L 15.90625 37.296875 
L 14.703125 31.984375 
L 15.40625 31.375 
C 19.203125 33.09375 21.09375 33.59375 23.796875 33.59375 
C 32.09375 33.59375 36.90625 28.25 36.90625 19.09375 
C 36.90625 8.828125 30.796875 2.09375 21.5 2.09375 
C 16.90625 2.09375 12.796875 3.609375 9.796875 6.421875 
C 7.40625 8.640625 6.09375 10.953125 4.203125 16.375 
L 1.5 15.375 
C 3.59375 9.234375 4.40625 5.609375 5 0.59375 
C 10.296875 -1.203125 14.703125 -2 18.40625 -2 
C 26.40625 -2 35.59375 2.5 41.09375 9.234375 
C 44.5 13.359375 46.203125 17.796875 46.203125 22.515625 
C 46.203125 27.34375 44.203125 31.578125 40.59375 34.09375 
C 38.09375 35.890625 35.796875 36.6875 30.796875 37.59375 
C 38.796875 43.765625 41.796875 48.34375 41.796875 54.21875 
C 41.796875 63.09375 34.40625 69 23.296875 69 
C 16.5 69 12 67.09375 7.203125 62.296875 
z
" id="URW_Palladio_L_Roman-51"/>
       </defs>
       <use transform="scale(0.996264)" xlink:href="#URW_Palladio_L_Roman-51"/>
       <use transform="translate(49.8132 0)scale(0.996264)" xlink:href="#URW_Palladio_L_Roman-48"/>
      </g>
     </g>
    </g>
    <g id="ytick_4">
     <g id="line2d_17">
      <path clip-path="url(#pc7e8870e09)" d="M 39.421719 134.47082 
L 210.357819 134.47082 
" style="fill:none;stroke:#eeeeee;stroke-dasharray:0.8,1.32;stroke-dashoffset:0;stroke-width:0.8;"/>
     </g>
     <g id="line2d_18">
      <g>
       <use style="stroke:#000000;stroke-width:0.8;" x="39.421719" xlink:href="#mb16a62f63b" y="134.47082"/>
      </g>
     </g>
     <g id="text_10">
      <!-- $\mathdefault{40}$ -->
      <g transform="translate(22.459079 138.034938)scale(0.1 -0.1)">
       <defs>
        <path d="M 28 18 
L 28 10.6875 
C 28 4.84375 26.90625 3.484375 22 3.28125 
L 15.796875 3 
L 15.796875 0 
C 29.09375 0 29.09375 0 31.5 0 
C 33.90625 0.296875 33.90625 0.296875 47.203125 0 
L 47.203125 3 
L 42.40625 3.28125 
C 37.5 3.578125 36.40625 4.84375 36.40625 10.6875 
L 36.40625 18 
C 42.296875 18 44.40625 17.890625 47.203125 17.609375 
L 47.203125 24.6875 
C 42.5 24.296875 40.59375 24.296875 39.09375 24.390625 
L 38.796875 24.390625 
L 36.40625 24.390625 
L 36.40625 38.203125 
C 36.40625 55.875 36.59375 64.40625 37.09375 68.484375 
L 35.90625 69 
L 28.5 66.296875 
L 0.203125 20.296875 
L 1.296875 18 
z
M 28 24.390625 
L 6.5 24.390625 
L 28 59.34375 
z
" id="URW_Palladio_L_Roman-52"/>
       </defs>
       <use transform="scale(0.996264)" xlink:href="#URW_Palladio_L_Roman-52"/>
       <use transform="translate(49.8132 0)scale(0.996264)" xlink:href="#URW_Palladio_L_Roman-48"/>
      </g>
     </g>
    </g>
    <g id="ytick_5">
     <g id="line2d_19">
      <path clip-path="url(#pc7e8870e09)" d="M 39.421719 99.246775 
L 210.357819 99.246775 
" style="fill:none;stroke:#eeeeee;stroke-dasharray:0.8,1.32;stroke-dashoffset:0;stroke-width:0.8;"/>
     </g>
     <g id="line2d_20">
      <g>
       <use style="stroke:#000000;stroke-width:0.8;" x="39.421719" xlink:href="#mb16a62f63b" y="99.246775"/>
      </g>
     </g>
     <g id="text_11">
      <!-- $\mathdefault{50}$ -->
      <g transform="translate(22.459079 102.810893)scale(0.1 -0.1)">
       <use transform="scale(0.996264)" xlink:href="#URW_Palladio_L_Roman-53"/>
       <use transform="translate(49.8132 0)scale(0.996264)" xlink:href="#URW_Palladio_L_Roman-48"/>
      </g>
     </g>
    </g>
    <g id="ytick_6">
     <g id="line2d_21">
      <path clip-path="url(#pc7e8870e09)" d="M 39.421719 64.02273 
L 210.357819 64.02273 
" style="fill:none;stroke:#eeeeee;stroke-dasharray:0.8,1.32;stroke-dashoffset:0;stroke-width:0.8;"/>
     </g>
     <g id="line2d_22">
      <g>
       <use style="stroke:#000000;stroke-width:0.8;" x="39.421719" xlink:href="#mb16a62f63b" y="64.02273"/>
      </g>
     </g>
     <g id="text_12">
      <!-- $\mathdefault{60}$ -->
      <g transform="translate(22.459079 67.586848)scale(0.1 -0.1)">
       <use transform="scale(0.996264)" xlink:href="#URW_Palladio_L_Roman-54"/>
       <use transform="translate(49.8132 0)scale(0.996264)" xlink:href="#URW_Palladio_L_Roman-48"/>
      </g>
     </g>
    </g>
    <g id="ytick_7">
     <g id="line2d_23">
      <path clip-path="url(#pc7e8870e09)" d="M 39.421719 28.798685 
L 210.357819 28.798685 
" style="fill:none;stroke:#eeeeee;stroke-dasharray:0.8,1.32;stroke-dashoffset:0;stroke-width:0.8;"/>
     </g>
     <g id="line2d_24">
      <g>
       <use style="stroke:#000000;stroke-width:0.8;" x="39.421719" xlink:href="#mb16a62f63b" y="28.798685"/>
      </g>
     </g>
     <g id="text_13">
      <!-- $\mathdefault{70}$ -->
      <g transform="translate(22.459079 32.362803)scale(0.1 -0.1)">
       <use transform="scale(0.996264)" xlink:href="#URW_Palladio_L_Roman-55"/>
       <use transform="translate(49.8132 0)scale(0.996264)" xlink:href="#URW_Palladio_L_Roman-48"/>
      </g>
     </g>
    </g>
    <g id="text_14">
     <!-- $b_f$ -->
     <g transform="translate(14.397983 143.640162)rotate(-90)scale(0.1 -0.1)">
      <defs>
       <path d="M 23.5 72 
L 22.296875 73.09375 
C 17.09375 70.5 13.5 69.59375 6.296875 68.890625 
L 5.90625 66.796875 
L 10.703125 66.796875 
C 13.09375 66.796875 14.09375 66.09375 14.09375 64.390625 
C 14.09375 63.6875 14 62.59375 13.90625 62 
L 3.796875 7.171875 
C 3.703125 6.875 3.703125 6.46875 3.703125 6.171875 
C 3.703125 2.296875 8.5 -1 14 -1 
C 17.703125 -1 22.796875 0.890625 27.09375 3.984375 
C 36.703125 10.734375 43.296875 24.34375 43.296875 37.453125 
C 43.296875 41.21875 42.40625 45.09375 41.203125 46.59375 
C 40.5 47.484375 39.203125 48 37.703125 48 
C 35.296875 48 32.296875 47.1875 29.5 45.796875 
C 24.40625 43.109375 21.09375 40.125 14.90625 32.28125 
z
M 32.203125 42.21875 
C 34.796875 42.21875 36.09375 39.9375 36.09375 35.0625 
C 36.09375 28.71875 34 20.171875 31 13.71875 
C 27.703125 6.875 23.703125 3.6875 18.296875 3.6875 
C 13.703125 3.6875 11.203125 5.96875 11.203125 10.140625 
C 11.203125 12.625 11.59375 15.40625 12.5 19.078125 
C 14.40625 27.03125 16.796875 31.796875 20.796875 35.96875 
C 24.09375 39.34375 29.296875 42.21875 32.203125 42.21875 
z
" id="URW_Palladio_L_Italic-98"/>
      </defs>
      <use transform="scale(0.996264)" xlink:href="#URW_Palladio_L_Italic-98"/>
      <use transform="translate(56.666438 -20.849366)scale(0.757155)" xlink:href="#URW_Palladio_L_Italic-102"/>
     </g>
    </g>
   </g>
   <g id="PathCollection_1">
    <defs>
     <path d="M 0 3 
C 0.795609 3 1.55874 2.683901 2.12132 2.12132 
C 2.683901 1.55874 3 0.795609 3 0 
C 3 -0.795609 2.683901 -1.55874 2.12132 -2.12132 
C 1.55874 -2.683901 0.795609 -3 0 -3 
C -0.795609 -3 -1.55874 -2.683901 -2.12132 -2.12132 
C -2.683901 -1.55874 -3 -0.795609 -3 0 
C -3 0.795609 -2.683901 1.55874 -2.12132 2.12132 
C -1.55874 2.683901 -0.795609 3 0 3 
z
" id="mdf84572efa" style="stroke:#ff0000;"/>
    </defs>
    <g clip-path="url(#pc7e8870e09)">
     <use style="fill:#ff0000;stroke:#ff0000;" x="39.546025" xlink:href="#mdf84572efa" y="88.012822"/>
    </g>
   </g>
   <g id="LineCollection_1">
    <path clip-path="url(#pc7e8870e09)" d="M 177.551901 257.754977 
L 179.278528 257.754977 
L 181.005156 257.754977 
L 181.218066 257.754977 
" style="fill:none;stroke:#440154;stroke-width:0.8;"/>
    <path clip-path="url(#pc7e8870e09)" d="M 208.418282 257.754977 
L 208.631192 257.754977 
L 210.357819 257.754977 
" style="fill:none;stroke:#440154;stroke-width:0.8;"/>
   </g>
   <g id="LineCollection_2">
    <path clip-path="url(#pc7e8870e09)" d="M 39.421719 101.042575 
L 41.148346 101.643978 
L 42.874973 102.159104 
L 44.6016 102.599247 
L 45.524415 102.804759 
L 46.328228 102.985359 
L 48.054855 103.327601 
L 49.781482 103.619927 
L 51.50811 103.867745 
L 53.234737 104.075717 
L 54.961364 104.247858 
L 56.687991 104.387631 
L 58.414619 104.498016 
L 60.141246 104.581575 
L 61.867873 104.640504 
L 63.594501 104.676681 
L 65.321128 104.691697 
L 67.047755 104.686896 
L 68.774382 104.663394 
L 70.50101 104.622107 
L 72.227637 104.563769 
L 73.954264 104.488943 
L 75.680892 104.398041 
L 77.407519 104.291328 
L 79.134146 104.168934 
L 80.860773 104.030858 
L 82.587401 103.876974 
L 84.314028 103.707031 
L 86.040655 103.520656 
L 87.767282 103.317355 
L 89.49391 103.096508 
L 91.220537 102.857367 
L 91.577792 102.804759 
L 92.947164 102.638086 
L 94.673792 102.414221 
L 96.400419 102.175233 
L 98.127046 101.920259 
L 99.853673 101.648317 
L 101.580301 101.358299 
L 103.306928 101.048964 
L 105.033555 100.718926 
L 106.501243 100.42091 
L 106.760183 100.376988 
L 108.48681 100.073993 
L 110.213437 99.75287 
L 111.940064 99.41216 
L 113.666692 99.050253 
L 115.393319 98.665371 
L 117.119946 98.255553 
L 118.000831 98.03706 
L 118.846574 97.859609 
L 120.573201 97.483032 
L 122.299828 97.083717 
L 123.232129 96.854715 
" style="fill:none;stroke:#46327e;stroke-width:0.8;"/>
    <path clip-path="url(#pc7e8870e09)" d="M 149.227419 89.158778 
L 157.39253 86.117813 
L 162.012256 84.280137 
L 170.645392 80.43739 
L 175.825274 77.851032 
L 181.005156 74.996766 
L 186.185038 71.794597 
L 189.638292 69.416945 
L 193.091547 66.758213 
L 196.544801 63.695286 
L 198.271429 61.965447 
L 200.113937 59.895468 
L 201.904187 57.511618 
L 203.45131 54.902867 
L 204.457201 52.743919 
L 205.182753 50.36007 
L 205.54301 47.97622 
L 205.489721 45.592371 
L 204.995261 43.208521 
L 204.019903 40.824672 
L 202.489934 38.440822 
L 200.312049 36.056973 
L 198.271429 34.363732 
L 196.544801 33.143559 
L 193.091547 31.157634 
L 189.638292 29.588071 
L 186.185038 28.309734 
L 182.731783 27.260794 
L 177.551901 26.029793 
L 172.372019 25.119113 
L 167.192137 24.502176 
L 162.012256 24.125847 
L 156.832374 23.933122 
L 151.652492 23.941627 
L 144.745983 24.231741 
L 137.839474 24.778389 
L 132.659592 25.381046 
L 127.47971 26.167798 
L 117.119946 28.117758 
L 108.48681 30.199728 
L 99.853673 32.702163 
L 91.220537 35.653308 
L 80.860773 39.756886 
L 72.227637 43.770292 
L 67.047755 46.441274 
L 61.867873 49.35751 
L 54.961364 53.684669 
L 49.564912 57.511618 
L 46.328228 60.015092 
L 42.874973 62.912529 
L 39.421719 66.135033 
L 39.421719 66.135033 
" style="fill:none;stroke:#46327e;stroke-width:0.8;"/>
   </g>
   <g id="LineCollection_3">
    <path clip-path="url(#pc7e8870e09)" d="M 46.014394 74.240653 
L 44.6016 76.691341 
L 43.593191 78.966264 
L 42.937966 81.350114 
L 42.722344 83.733963 
L 43.044373 86.117813 
L 44.042719 88.501662 
L 44.6016 89.257644 
L 46.328228 91.191732 
L 48.054855 92.485728 
L 49.781482 93.522456 
L 51.50811 94.315716 
L 54.961364 95.547908 
L 56.687991 96.00941 
L 60.141246 96.722143 
L 63.594501 97.213809 
L 67.047755 97.529788 
L 72.227637 97.744515 
L 77.407519 97.713191 
L 82.587401 97.481766 
L 87.767282 97.074897 
L 94.673792 96.272672 
L 103.306928 94.928195 
L 108.48681 93.947473 
L 117.119946 92.040123 
L 124.026455 90.249329 
L 129.98823 88.501662 
L 134.386219 87.140684 
L 141.292728 84.737203 
L 148.199237 82.02779 
L 155.105746 78.945941 
L 160.285628 76.34596 
L 164.143456 74.198565 
L 168.000783 71.814715 
L 171.431572 69.430866 
L 174.448731 67.047016 
L 177.551901 64.136599 
L 179.278528 62.273424 
L 181.083112 59.895468 
L 182.731783 56.854846 
L 183.435141 55.127769 
L 183.928465 52.743919 
L 183.921548 50.36007 
L 183.356359 47.97622 
L 182.146047 45.592371 
L 180.156878 43.208521 
L 179.278528 42.448553 
L 177.159346 40.824672 
L 174.098647 39.101358 
L 172.372019 38.297072 
L 168.918765 37.00939 
L 165.46551 36.008245 
L 162.012256 35.232437 
L 158.559001 34.644437 
L 153.379119 34.057074 
L 148.199237 33.764085 
L 143.019355 33.718154 
L 137.839474 33.888854 
L 132.659592 34.259823 
L 127.47971 34.827297 
L 122.299828 35.599849 
L 115.393319 36.884826 
L 110.213437 38.074987 
L 101.580301 40.433138 
L 92.947164 43.319063 
L 89.49391 44.594818 
L 82.587401 47.492873 
L 75.680892 50.802701 
L 70.50101 53.596808 
L 65.774731 56.445847 
L 65.774731 56.445847 
" style="fill:none;stroke:#365c8d;stroke-width:0.8;"/>
   </g>
   <g id="LineCollection_4">
    <path clip-path="url(#pc7e8870e09)" d="M 92.706724 91.833913 
L 96.400419 91.390256 
L 103.306928 90.321756 
L 108.48681 89.333787 
L 115.393319 87.757685 
L 121.496511 86.117813 
L 125.753083 84.857798 
L 130.932965 83.139324 
L 136.112846 81.225272 
L 141.573807 78.966264 
L 146.668227 76.582414 
L 151.652492 73.909815 
L 155.10865 71.814715 
L 158.559001 69.420537 
L 162.012256 66.545742 
L 163.960968 64.663167 
L 165.94427 62.279317 
L 167.427786 59.895468 
L 168.390268 57.511618 
L 168.782827 55.127769 
L 168.540379 52.743919 
L 167.547613 50.36007 
L 167.192137 49.881127 
L 165.46551 47.850706 
L 163.738883 46.51209 
L 162.012256 45.402288 
L 158.559001 43.820518 
L 156.832374 43.190576 
L 153.379119 42.242915 
L 149.925865 41.550718 
L 146.47261 41.071032 
L 143.019355 40.769973 
L 137.839474 40.596119 
L 132.659592 40.715036 
L 127.47971 41.085397 
L 122.299828 41.682532 
L 117.119946 42.509722 
L 111.940064 43.558355 
L 106.760183 44.802929 
L 99.853673 46.806976 
L 94.673792 48.578201 
L 89.49391 50.590785 
L 84.573623 52.743919 
L 80.860773 54.532381 
L 75.680892 57.339903 
L 71.511134 59.895468 
L 68.045318 62.279317 
L 64.961508 64.663167 
L 61.867873 67.422884 
L 59.885213 69.430866 
L 57.894298 71.814715 
L 56.291517 74.198565 
L 54.961364 77.093373 
L 54.395186 78.966264 
L 54.239578 81.350114 
L 54.961364 84.065126 
L 56.255424 86.117813 
L 56.687991 86.530226 
L 59.186872 88.501662 
L 60.141246 89.002774 
L 61.867873 89.78083 
L 65.088398 90.885512 
L 65.655092 91.024316 
L 65.655092 91.024316 
" style="fill:none;stroke:#277f8e;stroke-width:0.8;"/>
   </g>
   <g id="LineCollection_5">
    <path clip-path="url(#pc7e8870e09)" d="M 144.069441 47.864604 
L 143.019355 47.625023 
L 141.292728 47.299965 
L 139.566101 47.038931 
L 137.839474 46.836145 
L 136.112846 46.686614 
L 134.386219 46.58603 
L 132.659592 46.530691 
L 130.932965 46.517431 
L 129.206337 46.543568 
L 127.47971 46.606852 
L 125.753083 46.705427 
L 124.026455 46.837796 
L 122.299828 47.002798 
L 120.573201 47.199585 
L 118.846574 47.427601 
L 117.119946 47.686577 
L 115.395105 47.97622 
L 115.393319 47.976517 
L 113.666692 48.294008 
L 111.940064 48.63947 
L 110.213437 49.013336 
L 108.48681 49.41631 
L 106.760183 49.849364 
L 105.033555 50.313754 
L 104.87187 50.36007 
L 103.306928 50.804776 
L 101.580301 51.324265 
L 99.853673 51.874379 
L 98.127046 52.457191 
L 97.321306 52.743919 
L 96.400419 53.073248 
L 94.673792 53.719817 
L 92.947164 54.399581 
L 91.220537 55.115624 
L 91.192369 55.127769 
L 89.49391 55.873806 
L 87.767282 56.666565 
L 86.040655 57.497746 
L 86.012771 57.511618 
L 84.314028 58.388339 
L 82.587401 59.315961 
L 81.548265 59.895468 
L 80.860773 60.30298 
L 79.134146 61.354792 
L 77.668744 62.279317 
L 77.407519 62.459463 
L 75.680892 63.672851 
L 74.30955 64.663167 
L 73.954264 64.953066 
L 72.227637 66.379483 
L 71.432333 67.047016 
L 70.50101 67.966898 
L 69.023824 69.430866 
L 68.774382 69.741787 
L 67.09302 71.814715 
L 67.047755 71.89269 
L 65.674111 74.198565 
L 65.321128 75.218666 
L 64.829307 76.582414 
L 64.6749 78.966264 
L 65.321128 81.073844 
L 65.41806 81.350114 
L 67.047755 83.272081 
L 67.522753 83.733963 
L 68.774382 84.511329 
L 70.50101 85.391848 
L 72.227637 86.094188 
L 72.296618 86.117813 
L 73.954264 86.566282 
L 75.680892 86.941285 
L 77.407519 87.235495 
L 79.134146 87.459187 
L 80.860773 87.620932 
L 82.587401 87.727888 
L 84.314028 87.786037 
L 86.040655 87.800376 
L 87.767282 87.775068 
L 89.49391 87.713568 
L 91.220537 87.618728 
L 92.947164 87.492875 
L 94.673792 87.337884 
L 96.400419 87.155233 
L 98.127046 86.946045 
L 99.853673 86.711131 
L 101.580301 86.451014 
L 103.306928 86.165957 
L 103.575088 86.117813 
L 105.033555 85.853469 
L 106.760183 85.518933 
L 108.48681 85.162983 
L 110.213437 84.785266 
L 111.940064 84.385227 
L 113.666692 83.962118 
L 114.551128 83.733963 
L 115.393319 83.512037 
L 117.119946 83.037695 
L 118.846574 82.542524 
L 120.573201 82.02523 
L 122.299828 81.484348 
L 122.713295 81.350114 
L 124.026455 80.907816 
L 125.753083 80.306829 
L 127.47971 79.683613 
L 129.206337 79.036116 
L 129.387796 78.966264 
L 130.932965 78.336896 
L 132.659592 77.613394 
L 134.386219 76.866425 
L 135.026796 76.582414 
L 136.112846 76.060076 
L 137.839474 75.212959 
L 139.566101 74.343216 
L 139.84857 74.198565 
L 141.292728 73.374743 
L 143.019355 72.373823 
L 143.96891 71.814715 
L 144.745983 71.286579 
L 146.47261 70.107077 
L 147.454547 69.430866 
L 148.199237 68.813456 
L 149.925865 67.388086 
L 150.33992 67.047016 
L 150.898302 66.463184 
" style="fill:none;stroke:#1fa187;stroke-width:0.8;"/>
   </g>
   <g id="LineCollection_6">
    <path clip-path="url(#pc7e8870e09)" d="M 119.103779 52.604191 
L 118.846574 52.625936 
L 117.76636 52.743919 
L 117.119946 52.818467 
L 115.393319 53.060223 
L 113.666692 53.33911 
L 111.940064 53.653653 
L 110.213437 54.002863 
L 108.48681 54.386193 
L 106.760183 54.803511 
L 105.523302 55.127769 
L 105.033555 55.263587 
L 103.306928 55.777554 
L 101.580301 56.321692 
L 99.853673 56.897069 
L 98.127046 57.505123 
L 98.109625 57.511618 
L 96.400419 58.194244 
L 94.673792 58.911818 
L 92.947164 59.659831 
L 92.426841 59.895468 
L 91.220537 60.495425 
L 89.49391 61.380818 
L 87.795377 62.279317 
L 87.767282 62.296248 
L 86.040655 63.365313 
L 84.314028 64.452755 
L 83.988545 64.663167 
L 82.587401 65.732171 
L 80.870795 67.047016 
L 80.860773 67.056762 
L 79.134146 68.739322 
L 78.419013 69.430866 
L 77.407519 70.791531 
L 76.629263 71.814715 
L 75.680892 73.967241 
L 75.574959 74.198565 
L 75.442804 76.582414 
L 75.680892 77.14373 
L 76.624846 78.966264 
L 77.407519 79.611853 
L 79.134146 80.746636 
L 80.333554 81.350114 
L 80.860773 81.528135 
L 82.587401 81.999072 
L 84.314028 82.353207 
L 86.040655 82.608466 
L 87.767282 82.779282 
L 89.49391 82.877327 
L 91.220537 82.91208 
L 92.947164 82.891249 
L 94.673792 82.821105 
L 96.400419 82.706742 
L 98.127046 82.552281 
L 99.853673 82.36103 
L 101.580301 82.135609 
L 103.306928 81.878056 
L 105.033555 81.589906 
L 106.333351 81.350114 
L 106.760183 81.264268 
L 108.48681 80.886305 
L 110.213437 80.483738 
L 111.940064 80.056932 
L 113.666692 79.605927 
L 115.393319 79.130468 
L 115.958609 78.966264 
L 117.119946 78.594358 
L 118.846574 78.020408 
L 120.573201 77.42657 
L 122.299828 76.811557 
L 122.919891 76.582414 
L 124.026455 76.120696 
L 125.753083 75.383531 
L 127.47971 74.630006 
L 128.443419 74.198565 
L 129.206337 73.799912 
L 130.932965 72.885615 
L 132.659592 71.9617 
L 132.929503 71.814715 
L 134.386219 70.852804 
L 136.112846 69.717114 
L 136.545138 69.430866 
L 137.839474 68.328329 
L 139.372993 67.047016 
L 139.566101 66.816058 
L 141.292728 64.812666 
L 141.424939 64.663167 
L 142.658349 62.279317 
L 142.946508 60.067966 
" style="fill:none;stroke:#4ac16d;stroke-width:0.8;"/>
   </g>
   <g id="LineCollection_7">
    <path clip-path="url(#pc7e8870e09)" d="M 107.11494 60.626485 
L 106.760183 60.717741 
L 105.033555 61.204697 
L 103.306928 61.731502 
L 101.633908 62.279317 
L 101.580301 62.301283 
L 99.853673 63.064199 
L 98.127046 63.845497 
L 96.400419 64.647327 
L 96.368332 64.663167 
L 94.673792 65.758215 
L 92.947164 66.855294 
L 92.654468 67.047016 
L 91.220537 68.432092 
L 90.147616 69.430866 
L 89.49391 70.685988 
L 88.87291 71.814715 
L 89.274062 74.198565 
L 89.49391 74.392686 
L 91.220537 75.524923 
L 92.947164 76.24314 
L 94.281203 76.582414 
L 94.673792 76.640959 
L 96.400419 76.791596 
L 98.127046 76.842683 
L 99.853673 76.810212 
L 101.580301 76.706563 
L 102.864667 76.582414 
L 103.306928 76.527705 
L 105.033555 76.242397 
L 106.760183 75.905498 
L 108.48681 75.524283 
L 110.213437 75.104087 
L 111.940064 74.648779 
L 113.530068 74.198565 
L 113.666692 74.148489 
L 115.393319 73.470605 
L 117.119946 72.779234 
L 118.846574 72.073418 
L 119.452843 71.814715 
L 120.573201 71.164357 
L 122.299828 70.166828 
L 123.580432 69.430866 
L 124.026455 69.034985 
L 125.753083 67.542074 
L 126.018445 67.318865 
" style="fill:none;stroke:#a0da39;stroke-width:0.8;"/>
   </g>
   <g id="LineCollection_8"/>
   <g id="line2d_25">
    <path clip-path="url(#pc7e8870e09)" d="M 39.421719 87.746128 
L 41.148346 91.408493 
L 42.874973 94.982221 
L 44.6016 98.469805 
L 46.328228 101.873662 
L 48.054855 105.196134 
L 49.781482 108.439492 
L 51.50811 111.605935 
L 53.234737 114.697597 
L 54.961364 117.716543 
L 56.687991 120.664779 
L 58.414619 123.544246 
L 60.141246 126.356827 
L 61.867873 129.10435 
L 63.594501 131.788583 
L 65.321128 134.411244 
L 67.047755 136.973997 
L 68.774382 139.478456 
L 70.50101 141.926187 
L 72.227637 144.318708 
L 73.954264 146.657493 
L 75.680892 148.943968 
L 77.407519 151.179522 
L 79.134146 153.365497 
L 80.860773 155.503199 
L 82.587401 157.593893 
L 84.314028 159.638807 
L 86.040655 161.639135 
L 87.767282 163.596031 
L 89.49391 165.51062 
L 91.220537 167.38399 
L 92.947164 169.217201 
L 94.673792 171.011278 
L 96.400419 172.767219 
L 98.127046 174.485993 
L 99.853673 176.16854 
L 101.580301 177.815772 
L 103.306928 179.428577 
L 105.033555 181.007815 
L 106.760183 182.554324 
L 108.48681 184.068916 
L 110.213437 185.552382 
L 111.940064 187.005487 
L 113.666692 188.428979 
L 115.393319 189.82358 
L 117.119946 191.189997 
L 118.846574 192.528912 
L 120.573201 193.840991 
L 122.299828 195.126882 
L 124.026455 196.387212 
L 125.753083 197.622593 
L 127.47971 198.83362 
L 129.206337 200.020871 
L 130.932965 201.184908 
L 132.659592 202.326277 
L 134.386219 203.445512 
L 136.112846 204.543129 
L 137.839474 205.619633 
L 139.566101 206.675512 
L 141.292728 207.711244 
L 143.019355 208.727293 
L 144.745983 209.72411 
L 146.47261 210.702135 
L 148.199237 211.661796 
L 149.925865 212.603509 
L 151.652492 213.52768 
L 153.379119 214.434704 
L 155.105746 215.324965 
L 156.832374 216.198838 
L 158.559001 217.056687 
L 160.285628 217.898869 
L 162.012256 218.725728 
L 163.738883 219.537603 
L 165.46551 220.334822 
L 167.192137 221.117705 
L 168.918765 221.886564 
L 170.645392 222.641702 
L 172.372019 223.383418 
L 174.098647 224.111998 
L 175.825274 224.827725 
L 177.551901 225.530874 
L 179.278528 226.221712 
L 181.005156 226.9005 
L 182.731783 227.567493 
L 184.45841 228.222939 
L 186.185038 228.867079 
L 187.911665 229.500152 
L 189.638292 230.122385 
L 191.364919 230.734006 
L 193.091547 231.335232 
L 194.818174 231.926278 
L 196.544801 232.507353 
L 198.271429 233.07866 
L 199.998056 233.640399 
L 201.724683 234.192764 
L 203.45131 234.735943 
L 205.177938 235.270123 
L 206.904565 235.795484 
L 208.631192 236.312203 
L 210.357819 236.820451 
" style="fill:none;stroke:#ff0000;stroke-dasharray:0.8,1.32;stroke-dashoffset:0;stroke-width:0.8;"/>
   </g>
   <g id="patch_3">
    <path d="M 39.421719 257.754977 
L 39.421719 21.753876 
" style="fill:none;stroke:#bcbcbc;stroke-linecap:square;stroke-linejoin:miter;stroke-width:0.8;"/>
   </g>
   <g id="patch_4">
    <path d="M 210.357819 257.754977 
L 210.357819 21.753876 
" style="fill:none;stroke:#bcbcbc;stroke-linecap:square;stroke-linejoin:miter;stroke-width:0.8;"/>
   </g>
   <g id="patch_5">
    <path d="M 39.421719 257.754977 
L 210.357819 257.754977 
" style="fill:none;stroke:#bcbcbc;stroke-linecap:square;stroke-linejoin:miter;stroke-width:0.8;"/>
   </g>
   <g id="patch_6">
    <path d="M 39.421719 21.753876 
L 210.357819 21.753876 
" style="fill:none;stroke:#bcbcbc;stroke-linecap:square;stroke-linejoin:miter;stroke-width:0.8;"/>
   </g>
   <g id="text_15">
    <!-- X-Space -->
    <g transform="translate(103.675545 15.753876)scale(0.12 -0.12)">
     <defs>
      <path d="M 64.796875 2.984375 
L 61.796875 3.28125 
C 59.90625 3.578125 58.703125 4.875 55.203125 10.25 
L 37.59375 38.125 
L 53 58.828125 
C 57.09375 64.203125 58.296875 65.40625 59.796875 65.609375 
L 63.90625 65.90625 
L 63.90625 68.890625 
L 53.796875 68.890625 
L 35.296875 42.015625 
L 22.5 63.515625 
C 20.203125 67.296875 18.703125 68.984375 16.796875 70 
L 2.703125 67.296875 
L 2.90625 64.703125 
L 7.40625 64.40625 
C 9.796875 64.203125 13.296875 60.921875 16.59375 55.453125 
L 29.40625 34.25 
L 10.5 8.859375 
C 10.203125 8.359375 10.09375 8.359375 9.90625 8.0625 
C 7.40625 4.6875 6.203125 3.578125 4 3.28125 
L 1.40625 2.984375 
L 1.40625 0 
C 5.796875 0 5.796875 0 6.59375 0 
C 7.40625 0.296875 7.40625 0.296875 11.703125 0 
L 27.40625 24.1875 
C 28.40625 25.6875 29.40625 27.09375 31.90625 30.59375 
L 50.296875 0 
C 56.5 0 56.5 0 57.703125 0 
C 58.203125 0.296875 60.5 0.1875 64.796875 0 
z
" id="URW_Palladio_L_Roman-88"/>
      <path d="M 28.203125 21.796875 
L 31.203125 28.484375 
L 30.703125 29 
L 4.40625 29 
L 1.703125 22.296875 
L 2.203125 21.796875 
z
" id="URW_Palladio_L_Roman-45"/>
      <path d="M 44.703125 52.671875 
C 44.703125 57.984375 45.09375 61.390625 46.09375 66.796875 
C 38.09375 69.984375 33.59375 71 28.09375 71 
C 13.203125 71 2.40625 61.59375 2.40625 48.46875 
C 2.40625 43.5625 3.703125 39.953125 6.59375 37.25 
C 10 34.140625 14.59375 32.546875 24.296875 31.234375 
C 32 30.140625 35.5 29.03125 38.09375 26.734375 
C 40.703125 24.625 41.90625 21.71875 41.90625 17.921875 
C 41.90625 8.90625 34.40625 2.390625 24 2.390625 
C 16 2.390625 8.203125 6.296875 7.703125 10.40625 
L 6.90625 17.109375 
L 3.703125 17.109375 
C 3.796875 15.3125 3.796875 13.703125 3.796875 13.109375 
C 3.796875 8.5 3.59375 6.296875 3 1.796875 
C 8.703125 -0.703125 14.5 -2 20.296875 -2 
C 37.703125 -2 50.296875 8.5 50.296875 23.03125 
C 50.296875 27.734375 49 31.03125 46.203125 33.640625 
C 42.703125 36.953125 38.5 38.25 27.296875 39.75 
C 15.09375 41.359375 10.796875 44.65625 10.796875 52.375 
C 10.796875 60.78125 17.09375 66.796875 25.90625 66.796875 
C 29.796875 66.796875 33.5 66 36.203125 64.484375 
C 39.5 62.78125 40.59375 61.28125 40.90625 58.375 
L 41.5 52.671875 
z
" id="URW_Palladio_L_Roman-83"/>
      <path d="M 1 40.09375 
L 4.703125 40.09375 
C 8.703125 40.09375 9.09375 39.390625 9.09375 32.8125 
L 9.09375 -17.46875 
C 9.09375 -23.796875 8.796875 -24.5 5.40625 -24.703125 
L 0.796875 -25 
L 0.796875 -28 
C 10.796875 -27.703125 10.796875 -27.703125 13.296875 -27.703125 
C 15.796875 -27.703125 15.796875 -27.703125 25.796875 -28 
L 25.796875 -25 
L 21.203125 -24.703125 
C 17.796875 -24.5 17.5 -23.796875 17.5 -17.46875 
L 17.5 1.5 
C 20.5 -0.3125 23.703125 -1 28.203125 -1 
C 31.09375 -1 33.703125 -0.40625 35.296875 0.59375 
L 46.703125 7.984375 
C 50.703125 10.578125 55.40625 20.84375 55.40625 27.234375 
C 55.40625 38.296875 46.203125 47 34.59375 47 
C 30.90625 47 27.296875 45.984375 25.703125 44.484375 
L 17.5 37 
L 17.5 46.59375 
L 16.59375 47 
C 11.5 44.890625 6.296875 43.484375 1 42.890625 
z
M 17.5 30.71875 
C 17.5 32.109375 18 33.21875 19.296875 34.90625 
C 22.203125 38.59375 26.296875 40.484375 31.296875 40.484375 
C 40.703125 40.484375 46.703125 33.90625 46.703125 23.546875 
C 46.703125 12.375 40 4.09375 31 4.09375 
C 25.5 4.09375 21.40625 5.890625 17.5 9.984375 
z
" id="URW_Palladio_L_Roman-112"/>
      <path d="M 32.40625 8.5 
L 31.90625 0 
C 38.40625 0 38.40625 0 39.703125 0 
C 40.203125 0.296875 42.703125 0.1875 47.09375 0 
L 47.09375 3 
L 43.203125 3.1875 
C 40.796875 3.296875 40.40625 4.09375 40.40625 9 
L 40.40625 27.359375 
C 40.40625 42 36.203125 47.296875 24.59375 47.296875 
C 20.296875 47.296875 16.296875 46.1875 12.5 43.890625 
L 7.203125 40.6875 
L 7.203125 34.171875 
L 9.796875 33.46875 
L 11.09375 36.578125 
C 13.203125 41.28125 14.203125 42 18.796875 42 
C 28.203125 42 32.09375 38.28125 32.40625 29.15625 
L 22.5 27.359375 
C 8.90625 24.84375 3.203125 20.140625 3.203125 11.40625 
C 3.203125 3.5 7.90625 -1 15.796875 -1 
C 17.59375 -1 19.296875 -0.703125 20 -0.203125 
z
M 32.40625 12.59375 
C 29.5 8.5 23.203125 4.6875 19.296875 4.6875 
C 15.296875 4.6875 11.796875 8.390625 11.796875 12.6875 
C 11.796875 16.390625 13.796875 19.890625 16.796875 21.796875 
C 19.296875 23.296875 24.796875 24.6875 32.40625 25.796875 
z
" id="URW_Palladio_L_Roman-97"/>
      <path d="M 39.90625 31.171875 
C 39.90625 35.78125 40.40625 39.890625 41.296875 43.484375 
C 37.296875 45.890625 33.796875 47 29.703125 47 
C 24.90625 47 19.296875 45.09375 13.296875 41.296875 
C 6.296875 36.875 2.59375 29.859375 2.59375 21.046875 
C 2.59375 7.5 12.09375 -2 25.5 -2 
C 30.703125 -2 38.203125 -0.109375 39.203125 1.390625 
L 41.296875 4.59375 
L 40.296875 6.09375 
C 36.59375 4.09375 33.40625 3.1875 29.796875 3.1875 
C 18.703125 3.1875 11.40625 11.8125 11.40625 25.046875 
C 11.40625 35.78125 16.40625 41.796875 25.40625 41.796875 
C 29.796875 41.796875 34.59375 39.796875 36.40625 37.28125 
L 37.09375 31.171875 
z
" id="URW_Palladio_L_Roman-99"/>
      <path d="M 43.703125 6.984375 
L 42.40625 7.984375 
C 36 4.1875 33.703125 3.296875 29.40625 3.296875 
C 22.90625 3.296875 17.5 6.1875 14.703125 11.09375 
C 12.796875 14.390625 12.09375 17.1875 11.90625 23 
L 26.5 23 
C 33.40625 23 37.703125 23.296875 44.59375 24.390625 
C 44.703125 25.796875 44.796875 26.6875 44.796875 27.90625 
C 44.796875 39.46875 37.40625 47 26.203125 47 
C 22.5 47 18.203125 45.6875 14.09375 43.296875 
C 5.90625 38.5625 2.59375 32.328125 2.59375 21.890625 
C 2.59375 15.59375 4.09375 10.1875 6.796875 6.390625 
C 10.796875 1.09375 17.5 -2 25 -2 
C 28.703125 -2 32.40625 -1.203125 36.5 0.59375 
C 39.203125 1.6875 41.296875 3 41.703125 3.59375 
z
M 35.90625 26.6875 
C 30.703125 26.5 28.296875 26.390625 24.703125 26.390625 
C 20.09375 26.390625 17.5 26.5 12.09375 27 
C 12.09375 31.71875 12.5 33.9375 13.796875 36.546875 
C 15.90625 40.984375 20.203125 43.6875 25 43.6875 
C 28.296875 43.6875 30.90625 42.390625 32.703125 39.671875 
C 34.90625 36.34375 35.59375 33.4375 35.90625 26.6875 
z
" id="URW_Palladio_L_Roman-101"/>
     </defs>
     <use transform="scale(0.996264)" xlink:href="#URW_Palladio_L_Roman-88"/>
     <use transform="translate(66.450031 0)scale(0.996264)" xlink:href="#URW_Palladio_L_Roman-45"/>
     <use transform="translate(99.625261 0)scale(0.996264)" xlink:href="#URW_Palladio_L_Roman-83"/>
     <use transform="translate(151.929076 0)scale(0.996264)" xlink:href="#URW_Palladio_L_Roman-112"/>
     <use transform="translate(211.80347 0)scale(0.996264)" xlink:href="#URW_Palladio_L_Roman-97"/>
     <use transform="translate(261.61667 0)scale(0.996264)" xlink:href="#URW_Palladio_L_Roman-99"/>
     <use transform="translate(305.850239 0)scale(0.996264)" xlink:href="#URW_Palladio_L_Roman-101"/>
    </g>
   </g>
   <g id="text_16">
    <!-- 0.000 -->
    <g style="fill:#440154;" transform="translate(183.610204 259.914391)scale(0.1 -0.1)">
     <use transform="scale(0.996264)" xlink:href="#URW_Palladio_L_Roman-48"/>
     <use transform="translate(49.8132 0)scale(0.996264)" xlink:href="#URW_Palladio_L_Roman-46"/>
     <use transform="translate(74.719801 0)scale(0.996264)" xlink:href="#URW_Palladio_L_Roman-48"/>
     <use transform="translate(124.533001 0)scale(0.996264)" xlink:href="#URW_Palladio_L_Roman-48"/>
     <use transform="translate(174.346202 0)scale(0.996264)" xlink:href="#URW_Palladio_L_Roman-48"/>
    </g>
   </g>
   <g id="text_17">
    <!-- 0.008 -->
    <g style="fill:#46327e;" transform="translate(126.226658 98.611701)rotate(-17.002213)scale(0.1 -0.1)">
     <defs>
      <path d="M 16.796875 34.546875 
C 12.703125 32.640625 11 31.546875 8.796875 29.4375 
C 5 25.625 3 21.125 3 15.921875 
C 3 5.59375 11.296875 -2 22.59375 -2 
C 35.59375 -2 46.40625 8.203125 46.40625 20.625 
C 46.40625 28.640625 42.703125 32.9375 31.296875 38.15625 
C 40.40625 44.359375 43.59375 48.5625 43.59375 54.578125 
C 43.59375 63.1875 36.5 69 25.90625 69 
C 14 69 5.296875 61.390625 5.296875 50.875 
C 5.296875 44.0625 8 40.25 16.796875 34.546875 
z
M 28.40625 29.53125 
C 34.703125 26.734375 38.5 21.828125 38.5 16.421875 
C 38.5 8 32.203125 1.390625 24.09375 1.390625 
C 15.59375 1.390625 10.09375 7.40625 10.09375 16.71875 
C 10.09375 24.03125 13 28.640625 20.40625 33.140625 
z
M 22.296875 42.359375 
C 16 45.46875 12.796875 49.46875 12.796875 54.46875 
C 12.796875 61.09375 17.59375 65.59375 24.703125 65.59375 
C 32 65.59375 36.796875 60.78125 36.796875 53.46875 
C 36.796875 47.765625 34.296875 43.859375 27.796875 39.65625 
z
" id="URW_Palladio_L_Roman-56"/>
     </defs>
     <use transform="scale(0.996264)" xlink:href="#URW_Palladio_L_Roman-48"/>
     <use transform="translate(49.8132 0)scale(0.996264)" xlink:href="#URW_Palladio_L_Roman-46"/>
     <use transform="translate(74.719801 0)scale(0.996264)" xlink:href="#URW_Palladio_L_Roman-48"/>
     <use transform="translate(124.533001 0)scale(0.996264)" xlink:href="#URW_Palladio_L_Roman-48"/>
     <use transform="translate(174.346202 0)scale(0.996264)" xlink:href="#URW_Palladio_L_Roman-56"/>
    </g>
   </g>
   <g id="text_18">
    <!-- 0.016 -->
    <g style="fill:#365c8d;" transform="translate(48.215074 73.603175)rotate(-42.863115)scale(0.1 -0.1)">
     <use transform="scale(0.996264)" xlink:href="#URW_Palladio_L_Roman-48"/>
     <use transform="translate(49.8132 0)scale(0.996264)" xlink:href="#URW_Palladio_L_Roman-46"/>
     <use transform="translate(74.719801 0)scale(0.996264)" xlink:href="#URW_Palladio_L_Roman-48"/>
     <use transform="translate(124.533001 0)scale(0.996264)" xlink:href="#URW_Palladio_L_Roman-49"/>
     <use transform="translate(174.346202 0)scale(0.996264)" xlink:href="#URW_Palladio_L_Roman-54"/>
    </g>
   </g>
   <g id="text_19">
    <!-- 0.024 -->
    <g style="fill:#277f8e;" transform="translate(67.86956 94.373795)rotate(-358.378525)scale(0.1 -0.1)">
     <use transform="scale(0.996264)" xlink:href="#URW_Palladio_L_Roman-48"/>
     <use transform="translate(49.8132 0)scale(0.996264)" xlink:href="#URW_Palladio_L_Roman-46"/>
     <use transform="translate(74.719801 0)scale(0.996264)" xlink:href="#URW_Palladio_L_Roman-48"/>
     <use transform="translate(124.533001 0)scale(0.996264)" xlink:href="#URW_Palladio_L_Roman-50"/>
     <use transform="translate(174.346202 0)scale(0.996264)" xlink:href="#URW_Palladio_L_Roman-52"/>
    </g>
   </g>
   <g id="text_20">
    <!-- 0.032 -->
    <g style="fill:#1fa187;" transform="translate(149.291008 44.992941)rotate(-289.72077)scale(0.1 -0.1)">
     <use transform="scale(0.996264)" xlink:href="#URW_Palladio_L_Roman-48"/>
     <use transform="translate(49.8132 0)scale(0.996264)" xlink:href="#URW_Palladio_L_Roman-46"/>
     <use transform="translate(74.719801 0)scale(0.996264)" xlink:href="#URW_Palladio_L_Roman-48"/>
     <use transform="translate(124.533001 0)scale(0.996264)" xlink:href="#URW_Palladio_L_Roman-51"/>
     <use transform="translate(174.346202 0)scale(0.996264)" xlink:href="#URW_Palladio_L_Roman-50"/>
    </g>
   </g>
   <g id="text_21">
    <!-- 0.040 -->
    <g style="fill:#4ac16d;" transform="translate(121.307511 51.708998)rotate(-343.119092)scale(0.1 -0.1)">
     <use transform="scale(0.996264)" xlink:href="#URW_Palladio_L_Roman-48"/>
     <use transform="translate(49.8132 0)scale(0.996264)" xlink:href="#URW_Palladio_L_Roman-46"/>
     <use transform="translate(74.719801 0)scale(0.996264)" xlink:href="#URW_Palladio_L_Roman-48"/>
     <use transform="translate(124.533001 0)scale(0.996264)" xlink:href="#URW_Palladio_L_Roman-52"/>
     <use transform="translate(174.346202 0)scale(0.996264)" xlink:href="#URW_Palladio_L_Roman-48"/>
    </g>
   </g>
   <g id="text_22">
    <!-- 0.048 -->
    <g style="fill:#a0da39;" transform="translate(109.274057 57.700163)rotate(-340.956046)scale(0.1 -0.1)">
     <use transform="scale(0.996264)" xlink:href="#URW_Palladio_L_Roman-48"/>
     <use transform="translate(49.8132 0)scale(0.996264)" xlink:href="#URW_Palladio_L_Roman-46"/>
     <use transform="translate(74.719801 0)scale(0.996264)" xlink:href="#URW_Palladio_L_Roman-48"/>
     <use transform="translate(124.533001 0)scale(0.996264)" xlink:href="#URW_Palladio_L_Roman-52"/>
     <use transform="translate(174.346202 0)scale(0.996264)" xlink:href="#URW_Palladio_L_Roman-56"/>
    </g>
   </g>
  </g>
  <g id="axes_2">
   <g id="patch_7">
    <path d="M 259.772759 257.754977 
L 430.70886 257.754977 
L 430.70886 21.753876 
L 259.772759 21.753876 
z
" style="fill:#ffffff;"/>
   </g>
   <g id="matplotlib.axis_3">
    <g id="xtick_6">
     <g id="line2d_26">
      <path clip-path="url(#p389e8f40e8)" d="M 259.772759 257.754977 
L 259.772759 21.753876 
" style="fill:none;stroke:#eeeeee;stroke-dasharray:0.8,1.32;stroke-dashoffset:0;stroke-width:0.8;"/>
     </g>
     <g id="line2d_27">
      <g>
       <use style="stroke:#000000;stroke-width:0.8;" x="259.772759" xlink:href="#m010d60d941" y="257.754977"/>
      </g>
     </g>
     <g id="text_23">
      <!-- $\mathdefault{2}$ -->
      <g transform="translate(253.185013 271.883215)scale(0.1 -0.1)">
       <defs>
        <path d="M 65.90625 23 
C 67.59375 23 69.40625 23 69.40625 25 
C 69.40625 27 67.59375 27 65.90625 27 
L 11.796875 27 
C 10.09375 27 8.296875 27 8.296875 25 
C 8.296875 23 10.09375 23 11.796875 23 
z
" id="CMSY10-0"/>
       </defs>
       <use transform="scale(1.038107)" xlink:href="#CMSY10-0"/>
       <use transform="translate(81.941696 0)scale(0.996264)" xlink:href="#URW_Palladio_L_Roman-50"/>
      </g>
     </g>
    </g>
    <g id="xtick_7">
     <g id="line2d_28">
      <path clip-path="url(#p389e8f40e8)" d="M 302.506784 257.754977 
L 302.506784 21.753876 
" style="fill:none;stroke:#eeeeee;stroke-dasharray:0.8,1.32;stroke-dashoffset:0;stroke-width:0.8;"/>
     </g>
     <g id="line2d_29">
      <g>
       <use style="stroke:#000000;stroke-width:0.8;" x="302.506784" xlink:href="#m010d60d941" y="257.754977"/>
      </g>
     </g>
     <g id="text_24">
      <!-- $\mathdefault{1}$ -->
      <g transform="translate(295.919039 271.883215)scale(0.1 -0.1)">
       <use transform="scale(1.038107)" xlink:href="#CMSY10-0"/>
       <use transform="translate(81.941696 0)scale(0.996264)" xlink:href="#URW_Palladio_L_Roman-49"/>
      </g>
     </g>
    </g>
    <g id="xtick_8">
     <g id="line2d_30">
      <path clip-path="url(#p389e8f40e8)" d="M 345.24081 257.754977 
L 345.24081 21.753876 
" style="fill:none;stroke:#eeeeee;stroke-dasharray:0.8,1.32;stroke-dashoffset:0;stroke-width:0.8;"/>
     </g>
     <g id="line2d_31">
      <g>
       <use style="stroke:#000000;stroke-width:0.8;" x="345.24081" xlink:href="#m010d60d941" y="257.754977"/>
      </g>
     </g>
     <g id="text_25">
      <!-- $\mathdefault{0}$ -->
      <g transform="translate(342.75015 271.883215)scale(0.1 -0.1)">
       <use transform="scale(0.996264)" xlink:href="#URW_Palladio_L_Roman-48"/>
      </g>
     </g>
    </g>
    <g id="xtick_9">
     <g id="line2d_32">
      <path clip-path="url(#p389e8f40e8)" d="M 387.974835 257.754977 
L 387.974835 21.753876 
" style="fill:none;stroke:#eeeeee;stroke-dasharray:0.8,1.32;stroke-dashoffset:0;stroke-width:0.8;"/>
     </g>
     <g id="line2d_33">
      <g>
       <use style="stroke:#000000;stroke-width:0.8;" x="387.974835" xlink:href="#m010d60d941" y="257.754977"/>
      </g>
     </g>
     <g id="text_26">
      <!-- $\mathdefault{1}$ -->
      <g transform="translate(385.484175 271.883215)scale(0.1 -0.1)">
       <use transform="scale(0.996264)" xlink:href="#URW_Palladio_L_Roman-49"/>
      </g>
     </g>
    </g>
    <g id="xtick_10">
     <g id="line2d_34">
      <path clip-path="url(#p389e8f40e8)" d="M 430.70886 257.754977 
L 430.70886 21.753876 
" style="fill:none;stroke:#eeeeee;stroke-dasharray:0.8,1.32;stroke-dashoffset:0;stroke-width:0.8;"/>
     </g>
     <g id="line2d_35">
      <g>
       <use style="stroke:#000000;stroke-width:0.8;" x="430.70886" xlink:href="#m010d60d941" y="257.754977"/>
      </g>
     </g>
     <g id="text_27">
      <!-- $\mathdefault{2}$ -->
      <g transform="translate(428.2182 271.883215)scale(0.1 -0.1)">
       <use transform="scale(0.996264)" xlink:href="#URW_Palladio_L_Roman-50"/>
      </g>
     </g>
    </g>
    <g id="text_28">
     <!-- $u_1$ -->
     <g transform="translate(340.51602 285.820863)scale(0.1 -0.1)">
      <defs>
       <path d="M 33.296875 9.578125 
C 32.59375 7.171875 32.203125 4.484375 32.203125 2.984375 
C 32.203125 0.5 33.296875 -1 35.203125 -1 
C 37.796875 -1 41.40625 1.09375 51.203125 8.375 
L 50.203125 10.171875 
L 47.59375 8.46875 
C 45.203125 6.875 42.59375 5.78125 41.5 5.78125 
C 40.703125 5.78125 40.203125 6.484375 40.203125 7.484375 
C 40.203125 8.28125 40.40625 9.375 40.703125 10.875 
L 40.796875 11.46875 
C 43.09375 22.34375 46.203125 35.609375 49.203125 47.09375 
L 48.5 48 
L 41.703125 46.296875 
L 40.703125 41.203125 
C 39.203125 33.421875 36.703125 26.640625 33.59375 21.953125 
C 27.703125 12.859375 19.90625 5.78125 15.90625 5.78125 
C 15.09375 5.78125 14.59375 6.671875 14.59375 8.375 
C 14.59375 9.765625 14.796875 11.0625 15.296875 13.5625 
L 21 40.609375 
C 21.296875 42.203125 21.5 43.59375 21.5 44.890625 
C 21.5 46.796875 20.59375 48 19.203125 48 
C 17.203125 48 13.40625 45.890625 6 40.609375 
L 3.203125 38.609375 
L 3.90625 36.609375 
L 7.09375 38.703125 
C 9.90625 40.5 11 41 11.90625 41 
C 12.796875 41 13.59375 40.109375 13.59375 39 
C 13.59375 38.609375 13.5 37.609375 13.40625 37.21875 
L 7.09375 7.578125 
C 6.90625 6.671875 6.703125 4.28125 6.703125 2.890625 
C 6.703125 0.796875 8.203125 -1 10.203125 -1 
C 16.5 -1 28.59375 10.1875 37 24 
z
" id="URW_Palladio_L_Italic-117"/>
      </defs>
      <use transform="scale(0.996264)" xlink:href="#URW_Palladio_L_Italic-117"/>
      <use transform="translate(56.637661 -18.577338)scale(0.757155)" xlink:href="#URW_Palladio_L_Roman-49"/>
     </g>
    </g>
   </g>
   <g id="matplotlib.axis_4">
    <g id="ytick_8">
     <g id="line2d_36">
      <path clip-path="url(#p389e8f40e8)" d="M 259.772759 232.946045 
L 430.70886 232.946045 
" style="fill:none;stroke:#eeeeee;stroke-dasharray:0.8,1.32;stroke-dashoffset:0;stroke-width:0.8;"/>
     </g>
     <g id="line2d_37">
      <g>
       <use style="stroke:#000000;stroke-width:0.8;" x="259.772759" xlink:href="#mb16a62f63b" y="232.946045"/>
      </g>
     </g>
     <g id="text_29">
      <!-- $\mathdefault{20}$ -->
      <g transform="translate(234.615948 236.510164)scale(0.1 -0.1)">
       <use transform="scale(1.038107)" xlink:href="#CMSY10-0"/>
       <use transform="translate(81.941696 0)scale(0.996264)" xlink:href="#URW_Palladio_L_Roman-50"/>
       <use transform="translate(131.754897 0)scale(0.996264)" xlink:href="#URW_Palladio_L_Roman-48"/>
      </g>
     </g>
    </g>
    <g id="ytick_9">
     <g id="line2d_38">
      <path clip-path="url(#p389e8f40e8)" d="M 259.772759 184.947825 
L 430.70886 184.947825 
" style="fill:none;stroke:#eeeeee;stroke-dasharray:0.8,1.32;stroke-dashoffset:0;stroke-width:0.8;"/>
     </g>
     <g id="line2d_39">
      <g>
       <use style="stroke:#000000;stroke-width:0.8;" x="259.772759" xlink:href="#mb16a62f63b" y="184.947825"/>
      </g>
     </g>
     <g id="text_30">
      <!-- $\mathdefault{15}$ -->
      <g transform="translate(234.615948 188.511944)scale(0.1 -0.1)">
       <use transform="scale(1.038107)" xlink:href="#CMSY10-0"/>
       <use transform="translate(81.941696 0)scale(0.996264)" xlink:href="#URW_Palladio_L_Roman-49"/>
       <use transform="translate(131.754897 0)scale(0.996264)" xlink:href="#URW_Palladio_L_Roman-53"/>
      </g>
     </g>
    </g>
    <g id="ytick_10">
     <g id="line2d_40">
      <path clip-path="url(#p389e8f40e8)" d="M 259.772759 136.949605 
L 430.70886 136.949605 
" style="fill:none;stroke:#eeeeee;stroke-dasharray:0.8,1.32;stroke-dashoffset:0;stroke-width:0.8;"/>
     </g>
     <g id="line2d_41">
      <g>
       <use style="stroke:#000000;stroke-width:0.8;" x="259.772759" xlink:href="#mb16a62f63b" y="136.949605"/>
      </g>
     </g>
     <g id="text_31">
      <!-- $\mathdefault{10}$ -->
      <g transform="translate(234.615948 140.513723)scale(0.1 -0.1)">
       <use transform="scale(1.038107)" xlink:href="#CMSY10-0"/>
       <use transform="translate(81.941696 0)scale(0.996264)" xlink:href="#URW_Palladio_L_Roman-49"/>
       <use transform="translate(131.754897 0)scale(0.996264)" xlink:href="#URW_Palladio_L_Roman-48"/>
      </g>
     </g>
    </g>
    <g id="ytick_11">
     <g id="line2d_42">
      <path clip-path="url(#p389e8f40e8)" d="M 259.772759 88.951384 
L 430.70886 88.951384 
" style="fill:none;stroke:#eeeeee;stroke-dasharray:0.8,1.32;stroke-dashoffset:0;stroke-width:0.8;"/>
     </g>
     <g id="line2d_43">
      <g>
       <use style="stroke:#000000;stroke-width:0.8;" x="259.772759" xlink:href="#mb16a62f63b" y="88.951384"/>
      </g>
     </g>
     <g id="text_32">
      <!-- $\mathdefault{5}$ -->
      <g transform="translate(239.597268 92.515503)scale(0.1 -0.1)">
       <use transform="scale(1.038107)" xlink:href="#CMSY10-0"/>
       <use transform="translate(81.941696 0)scale(0.996264)" xlink:href="#URW_Palladio_L_Roman-53"/>
      </g>
     </g>
    </g>
    <g id="ytick_12">
     <g id="line2d_44">
      <path clip-path="url(#p389e8f40e8)" d="M 259.772759 40.953164 
L 430.70886 40.953164 
" style="fill:none;stroke:#eeeeee;stroke-dasharray:0.8,1.32;stroke-dashoffset:0;stroke-width:0.8;"/>
     </g>
     <g id="line2d_45">
      <g>
       <use style="stroke:#000000;stroke-width:0.8;" x="259.772759" xlink:href="#mb16a62f63b" y="40.953164"/>
      </g>
     </g>
     <g id="text_33">
      <!-- $\mathdefault{0}$ -->
      <g transform="translate(247.791439 44.517283)scale(0.1 -0.1)">
       <use transform="scale(0.996264)" xlink:href="#URW_Palladio_L_Roman-48"/>
      </g>
     </g>
    </g>
    <g id="text_34">
     <!-- $u_2$ -->
     <g transform="translate(227.806537 144.479216)rotate(-90)scale(0.1 -0.1)">
      <use transform="scale(0.996264)" xlink:href="#URW_Palladio_L_Italic-117"/>
      <use transform="translate(56.637661 -17.441431)scale(0.757155)" xlink:href="#URW_Palladio_L_Roman-50"/>
     </g>
    </g>
   </g>
   <g id="PathCollection_2">
    <g clip-path="url(#p389e8f40e8)">
     <use style="fill:#ff0000;stroke:#ff0000;" x="269.401696" xlink:href="#mdf84572efa" y="43.931413"/>
    </g>
   </g>
   <g id="LineCollection_9"/>
   <g id="LineCollection_10">
    <path clip-path="url(#p389e8f40e8)" d="M 361.694939 60.152452 
L 363.370396 60.078067 
L 365.097023 59.992329 
L 366.823651 59.897023 
L 368.550278 59.791646 
L 368.960089 59.764588 
L 370.276905 59.680692 
L 372.003532 59.560653 
L 373.73016 59.42933 
L 374.375013 59.376723 
L 375.456787 59.290972 
L 377.183414 59.143376 
L 378.846839 58.988859 
L 378.910042 58.983123 
L 380.636669 58.817869 
L 382.363296 58.638446 
L 382.705192 58.600994 
L 384.089923 58.451774 
L 385.816551 58.251383 
L 386.130464 58.21313 
L 387.543178 58.04286 
L 389.222007 57.825266 
L 389.269805 57.819115 
L 390.996432 57.587587 
L 392.047513 57.437401 
L 392.72306 57.341044 
L 394.449687 57.080927 
L 394.64995 57.049537 
L 396.176314 56.8094 
L 397.067114 56.661672 
L 397.902942 56.52201 
L 399.318286 56.273808 
L 399.629569 56.218591 
L 401.356196 55.899213 
L 401.425669 55.885944 
L 403.082823 55.563996 
L 403.409724 55.498079 
L 404.809451 55.209857 
L 405.277608 55.110215 
L 406.536078 54.835595 
L 407.040201 54.72235 
L 408.262705 54.439651 
L 408.706273 54.334486 
L 409.989333 54.020055 
L 410.28277 53.946621 
L 411.71596 53.574363 
L 411.77503 53.558757 
L 413.196783 53.170893 
L 413.442587 53.100967 
L 414.547488 52.783028 
L 415.169214 52.59527 
L 415.826841 52.395164 
L 416.895842 52.052286 
L 417.035579 52.007299 
L 418.193523 51.619435 
L 418.622469 51.467682 
L 419.291042 51.231571 
L 420.321716 50.843706 
L 420.349096 50.832969 
L 421.317744 50.455842 
L 422.075724 50.138494 
L 422.246011 50.067977 
L 423.138076 49.680113 
L 423.802351 49.369051 
L 423.969071 49.292249 
L 424.767796 48.904384 
L 425.503447 48.51652 
L 425.528978 48.502322 
L 426.216831 48.128655 
L 426.873872 47.740791 
L 427.255605 47.497785 
L 427.489791 47.352927 
L 428.074393 46.965062 
L 428.608761 46.577198 
L 428.982233 46.281392 
L 429.102685 46.189333 
L 429.571784 45.801469 
L 429.996051 45.413605 
L 430.377728 45.02574 
L 430.70886 44.64937 
" style="fill:none;stroke:#472d7b;stroke-width:0.8;"/>
    <path clip-path="url(#p389e8f40e8)" d="M 259.772759 44.64937 
L 260.103891 45.02574 
L 260.485568 45.413605 
L 260.909835 45.801469 
L 261.378934 46.189333 
L 261.499386 46.281392 
L 261.872858 46.577198 
L 262.407226 46.965062 
L 262.991828 47.352927 
L 263.226014 47.497785 
L 263.607747 47.740791 
L 264.264788 48.128655 
L 264.952641 48.502322 
L 264.978172 48.51652 
L 265.713823 48.904384 
L 266.512548 49.292249 
L 266.679268 49.369051 
L 267.343543 49.680113 
L 268.235608 50.067977 
L 268.405896 50.138494 
L 269.163875 50.455842 
L 270.132523 50.832969 
L 270.159903 50.843706 
L 271.190577 51.231571 
L 271.85915 51.467682 
L 272.288096 51.619435 
L 273.44604 52.007299 
L 273.585777 52.052286 
L 274.654778 52.395164 
L 275.312405 52.59527 
L 275.934131 52.783028 
L 277.039032 53.100967 
L 277.284836 53.170893 
L 278.706589 53.558757 
L 278.765659 53.574363 
L 280.198849 53.946621 
L 280.492286 54.020055 
L 281.775346 54.334486 
L 282.218914 54.439651 
L 283.441418 54.72235 
L 283.945541 54.835595 
L 285.204011 55.110215 
L 285.672168 55.209857 
L 287.071895 55.498079 
L 287.398796 55.563996 
L 289.05595 55.885944 
L 289.125423 55.899213 
L 290.85205 56.218591 
L 291.163333 56.273808 
L 292.578677 56.52201 
L 293.414505 56.661672 
L 294.305305 56.8094 
L 295.83167 57.049537 
L 296.031932 57.080927 
L 297.758559 57.341044 
L 298.434106 57.437401 
L 299.485187 57.587587 
L 301.211814 57.819115 
L 301.259612 57.825266 
L 302.938441 58.04286 
L 304.351155 58.21313 
L 304.665068 58.251383 
L 306.391696 58.451774 
L 307.776427 58.600994 
L 308.118323 58.638446 
L 309.84495 58.817869 
L 311.571578 58.983123 
L 311.63478 58.988859 
L 313.298205 59.143376 
L 315.024832 59.290972 
L 316.106606 59.376723 
L 316.751459 59.42933 
L 318.478087 59.560653 
L 320.204714 59.680692 
L 321.521531 59.764588 
L 321.931341 59.791646 
L 323.657969 59.897023 
L 325.384596 59.992329 
L 327.111223 60.078067 
L 328.786681 60.152452 
" style="fill:none;stroke:#472d7b;stroke-width:0.8;"/>
    <path clip-path="url(#p389e8f40e8)" d="M 430.70886 37.256957 
L 430.377728 36.880588 
L 429.996051 36.492723 
L 429.571784 36.104859 
L 429.102685 35.716994 
L 428.982233 35.624936 
L 428.608761 35.32913 
L 428.074393 34.941266 
L 427.489791 34.553401 
L 427.255605 34.408543 
L 426.873872 34.165537 
L 426.216831 33.777672 
L 425.528978 33.404006 
L 425.503447 33.389808 
L 424.767796 33.001944 
L 423.969071 32.614079 
L 423.802351 32.537277 
L 423.138076 32.226215 
L 422.246011 31.83835 
L 422.075724 31.767834 
L 421.317744 31.450486 
L 420.349096 31.073359 
L 420.321716 31.062621 
L 419.291042 30.674757 
L 418.622469 30.438646 
L 418.193523 30.286893 
L 417.035579 29.899028 
L 416.895842 29.854042 
L 415.826841 29.511164 
L 415.169214 29.311057 
L 414.547488 29.123299 
L 413.442587 28.805361 
L 413.196783 28.735435 
L 411.77503 28.347571 
L 411.71596 28.331965 
L 410.28277 27.959706 
L 409.989333 27.886272 
L 408.706273 27.571842 
L 408.262705 27.466676 
L 407.040201 27.183977 
L 406.536078 27.070733 
L 405.277608 26.796113 
L 404.809451 26.696471 
L 403.409724 26.408249 
L 403.082823 26.342332 
L 401.425669 26.020384 
L 401.356196 26.007115 
L 399.629569 25.687737 
L 399.318286 25.63252 
L 397.902942 25.384318 
L 397.067114 25.244655 
L 396.176314 25.096928 
L 394.64995 24.856791 
L 394.449687 24.825401 
L 392.72306 24.565284 
L 392.047513 24.468927 
L 390.996432 24.31874 
L 389.269805 24.087213 
L 389.222007 24.081062 
L 387.543178 23.863468 
L 386.130464 23.693198 
L 385.816551 23.654945 
L 384.089923 23.454554 
L 382.705192 23.305333 
L 382.363296 23.267882 
L 380.636669 23.088459 
L 378.910042 22.923204 
L 378.846839 22.917469 
L 377.183414 22.762952 
L 375.456787 22.615356 
L 374.375013 22.529605 
L 373.73016 22.476998 
L 372.003532 22.345675 
L 370.276905 22.225636 
L 368.960089 22.14174 
L 368.550278 22.114682 
L 366.823651 22.009305 
L 365.097023 21.913999 
L 363.370396 21.82826 
L 361.694939 21.753876 
" style="fill:none;stroke:#472d7b;stroke-width:0.8;"/>
    <path clip-path="url(#p389e8f40e8)" d="M 328.786681 21.753876 
L 327.111223 21.82826 
L 325.384596 21.913999 
L 323.657969 22.009305 
L 321.931341 22.114682 
L 321.521531 22.14174 
L 320.204714 22.225636 
L 318.478087 22.345675 
L 316.751459 22.476998 
L 316.106606 22.529605 
L 315.024832 22.615356 
L 313.298205 22.762952 
L 311.63478 22.917469 
L 311.571578 22.923204 
L 309.84495 23.088459 
L 308.118323 23.267882 
L 307.776427 23.305333 
L 306.391696 23.454554 
L 304.665068 23.654945 
L 304.351155 23.693198 
L 302.938441 23.863468 
L 301.259612 24.081062 
L 301.211814 24.087213 
L 299.485187 24.31874 
L 298.434106 24.468927 
L 297.758559 24.565284 
L 296.031932 24.825401 
L 295.83167 24.856791 
L 294.305305 25.096928 
L 293.414505 25.244655 
L 292.578677 25.384318 
L 291.163333 25.63252 
L 290.85205 25.687737 
L 289.125423 26.007115 
L 289.05595 26.020384 
L 287.398796 26.342332 
L 287.071895 26.408249 
L 285.672168 26.696471 
L 285.204011 26.796113 
L 283.945541 27.070733 
L 283.441418 27.183977 
L 282.218914 27.466676 
L 281.775346 27.571842 
L 280.492286 27.886272 
L 280.198849 27.959706 
L 278.765659 28.331965 
L 278.706589 28.347571 
L 277.284836 28.735435 
L 277.039032 28.805361 
L 275.934131 29.123299 
L 275.312405 29.311057 
L 274.654778 29.511164 
L 273.585777 29.854042 
L 273.44604 29.899028 
L 272.288096 30.286893 
L 271.85915 30.438646 
L 271.190577 30.674757 
L 270.159903 31.062621 
L 270.132523 31.073359 
L 269.163875 31.450486 
L 268.405896 31.767834 
L 268.235608 31.83835 
L 267.343543 32.226215 
L 266.679268 32.537277 
L 266.512548 32.614079 
L 265.713823 33.001944 
L 264.978172 33.389808 
L 264.952641 33.404006 
L 264.264788 33.777672 
L 263.607747 34.165537 
L 263.226014 34.408543 
L 262.991828 34.553401 
L 262.407226 34.941266 
L 261.872858 35.32913 
L 261.499386 35.624936 
L 261.378934 35.716994 
L 260.909835 36.104859 
L 260.485568 36.492723 
L 260.103891 36.880588 
L 259.772759 37.256957 
" style="fill:none;stroke:#472d7b;stroke-width:0.8;"/>
   </g>
   <g id="LineCollection_11">
    <path clip-path="url(#p389e8f40e8)" d="M 334.017732 56.707445 
L 342.650869 56.89842 
L 351.284005 56.851259 
L 359.917141 56.564187 
L 368.550278 56.024996 
L 377.183414 55.203512 
L 384.089923 54.3089 
L 390.996432 53.154995 
L 396.452323 52.007299 
L 401.356196 50.732051 
L 404.809451 49.640179 
L 408.262705 48.30771 
L 410.301503 47.352927 
L 412.33497 46.189333 
L 413.915476 45.02574 
L 415.072877 43.862147 
L 415.843992 42.698554 
L 416.139356 41.922825 
L 416.264911 41.147096 
L 416.223127 40.371367 
L 416.013184 39.595638 
L 415.630942 38.81991 
L 414.735246 37.656316 
L 413.429637 36.492723 
L 411.702658 35.32913 
L 409.519015 34.165537 
L 406.536078 32.895384 
L 403.082823 31.696022 
L 399.558798 30.674757 
L 394.449687 29.449162 
L 388.77276 28.347571 
L 382.363296 27.350828 
L 375.456787 26.513899 
L 368.550278 25.881332 
L 359.917141 25.342141 
L 351.284005 25.055068 
L 342.650869 25.007908 
L 334.017732 25.198883 
L 325.384596 25.635429 
L 318.478087 26.173683 
L 311.571578 26.904788 
L 304.031477 27.959706 
L 297.758559 29.088757 
L 292.424907 30.286893 
L 287.398796 31.696022 
L 283.945541 32.895384 
L 281.803588 33.777672 
L 279.448088 34.941266 
L 277.571848 36.104859 
L 276.131517 37.268452 
L 275.108644 38.432045 
L 274.637627 39.207774 
L 274.342263 39.983503 
L 274.216709 40.759232 
L 274.258492 41.53496 
L 274.468435 42.310689 
L 274.850677 43.086418 
L 275.746373 44.250011 
L 277.051982 45.413605 
L 278.778961 46.577198 
L 280.962604 47.740791 
L 283.945541 49.010944 
L 287.398796 50.210306 
L 290.922821 51.231571 
L 296.031932 52.457166 
L 301.708859 53.558757 
L 308.118323 54.5555 
L 315.024832 55.392428 
L 321.931341 56.024996 
L 330.564478 56.564187 
L 334.017732 56.707445 
L 334.017732 56.707445 
" style="fill:none;stroke:#3b528b;stroke-width:0.8;"/>
   </g>
   <g id="LineCollection_12">
    <path clip-path="url(#p389e8f40e8)" d="M 342.650869 54.34958 
L 349.557378 54.326997 
L 356.463887 54.124117 
L 363.370396 53.729699 
L 370.276905 53.125935 
L 377.183414 52.281062 
L 383.572612 51.231571 
L 387.543178 50.413365 
L 391.985804 49.292249 
L 395.668376 48.128655 
L 398.599915 46.965062 
L 400.897012 45.801469 
L 402.63792 44.637876 
L 403.872965 43.474283 
L 404.428039 42.698554 
L 404.809451 41.792126 
L 404.927249 41.147096 
L 404.876645 40.371367 
L 404.627425 39.595638 
L 404.176968 38.81991 
L 403.514512 38.044181 
L 402.117165 36.880588 
L 400.19658 35.716994 
L 397.695965 34.553401 
L 394.449687 33.363712 
L 390.560144 32.226215 
L 385.545023 31.062621 
L 380.636669 30.155741 
L 375.456787 29.388558 
L 368.550278 28.608063 
L 361.643769 28.059648 
L 354.73726 27.713921 
L 347.83075 27.556747 
L 340.924241 27.579331 
L 334.017732 27.782211 
L 327.111223 28.176629 
L 320.204714 28.780393 
L 313.298205 29.625266 
L 306.909007 30.674757 
L 302.938441 31.492963 
L 298.495815 32.614079 
L 294.813244 33.777672 
L 291.881704 34.941266 
L 289.584607 36.104859 
L 287.843699 37.268452 
L 286.608654 38.432045 
L 286.05358 39.207774 
L 285.672168 40.114201 
L 285.55437 40.759232 
L 285.604974 41.53496 
L 285.854194 42.310689 
L 286.304651 43.086418 
L 286.967107 43.862147 
L 288.364454 45.02574 
L 290.285039 46.189333 
L 292.785654 47.352927 
L 296.031932 48.542616 
L 299.921475 49.680113 
L 304.936596 50.843706 
L 309.84495 51.750586 
L 315.024832 52.51777 
L 321.931341 53.298264 
L 328.83785 53.84668 
L 335.744359 54.192407 
L 342.650869 54.34958 
L 342.650869 54.34958 
" style="fill:none;stroke:#2c728e;stroke-width:0.8;"/>
   </g>
   <g id="LineCollection_13">
    <path clip-path="url(#p389e8f40e8)" d="M 335.744359 52.008697 
L 342.650869 52.198204 
L 349.557378 52.171396 
L 356.463887 51.927067 
L 363.370396 51.450622 
L 370.276905 50.70747 
L 375.456787 49.936428 
L 380.728762 48.904384 
L 385.230942 47.740791 
L 388.663331 46.577198 
L 391.263685 45.413605 
L 393.16851 44.250011 
L 394.092523 43.474283 
L 394.759415 42.698554 
L 395.180182 41.922825 
L 395.359044 41.147096 
L 395.299521 40.371367 
L 395.000442 39.595638 
L 394.449687 38.813279 
L 393.664132 38.044181 
L 392.604161 37.268452 
L 390.996432 36.35928 
L 388.663331 35.32913 
L 385.230942 34.165537 
L 382.363296 33.387796 
L 377.183414 32.276512 
L 372.003532 31.433052 
L 365.691063 30.674757 
L 359.917141 30.186828 
L 353.010632 29.829452 
L 346.104123 29.694753 
L 339.197614 29.775308 
L 332.291105 30.075493 
L 325.384596 30.614722 
L 320.204714 31.198858 
L 315.024832 31.9699 
L 309.752857 33.001944 
L 305.250677 34.165537 
L 301.818288 35.32913 
L 299.217934 36.492723 
L 297.313109 37.656316 
L 296.389096 38.432045 
L 295.722204 39.207774 
L 295.301437 39.983503 
L 295.122575 40.759232 
L 295.182098 41.53496 
L 295.481177 42.310689 
L 296.031932 43.093049 
L 296.817487 43.862147 
L 297.877458 44.637876 
L 299.485187 45.547048 
L 301.818288 46.577198 
L 305.250677 47.740791 
L 308.118323 48.518532 
L 313.298205 49.629815 
L 318.478087 50.473276 
L 324.790556 51.231571 
L 330.564478 51.7195 
L 335.744359 52.008697 
L 335.744359 52.008697 
" style="fill:none;stroke:#21918c;stroke-width:0.8;"/>
   </g>
   <g id="LineCollection_14">
    <path clip-path="url(#p389e8f40e8)" d="M 339.197614 50.10766 
L 346.104123 50.205669 
L 353.010632 50.041675 
L 359.917141 49.600384 
L 366.311031 48.904384 
L 370.276905 48.301877 
L 374.995583 47.352927 
L 377.954531 46.577198 
L 380.636669 45.686316 
L 383.030884 44.637876 
L 384.350232 43.862147 
L 385.328645 43.086418 
L 385.993202 42.310689 
L 386.35708 41.53496 
L 386.4295 40.759232 
L 386.211885 39.983503 
L 385.699463 39.207774 
L 384.879649 38.432045 
L 383.734998 37.656316 
L 382.234847 36.880588 
L 380.331108 36.104859 
L 377.183414 35.110428 
L 373.73016 34.26914 
L 370.276905 33.604451 
L 365.097023 32.844965 
L 358.929833 32.226215 
L 353.010632 31.864653 
L 346.104123 31.700659 
L 339.197614 31.798668 
L 332.291105 32.16774 
L 327.111223 32.642934 
L 321.506806 33.389808 
L 316.751459 34.26914 
L 312.527088 35.32913 
L 309.84495 36.220012 
L 307.450735 37.268452 
L 306.131387 38.044181 
L 305.152974 38.81991 
L 304.488417 39.595638 
L 304.124539 40.371367 
L 304.052119 41.147096 
L 304.269734 41.922825 
L 304.782156 42.698554 
L 305.60197 43.474283 
L 306.746621 44.250011 
L 308.246773 45.02574 
L 310.150511 45.801469 
L 313.298205 46.7959 
L 316.751459 47.637188 
L 320.204714 48.301877 
L 325.384596 49.061363 
L 331.551786 49.680113 
L 337.470987 50.041675 
L 339.197614 50.10766 
L 339.197614 50.10766 
" style="fill:none;stroke:#28ae80;stroke-width:0.8;"/>
   </g>
   <g id="LineCollection_15">
    <path clip-path="url(#p389e8f40e8)" d="M 342.650869 48.143768 
L 348.461072 48.128655 
L 353.010632 47.951854 
L 358.190514 47.553436 
L 363.370396 46.906957 
L 367.322729 46.189333 
L 370.478132 45.413605 
L 372.843272 44.637876 
L 374.622753 43.862147 
L 375.91537 43.086418 
L 376.778338 42.310689 
L 377.250688 41.53496 
L 377.342795 40.759232 
L 377.063187 39.983503 
L 376.396362 39.207774 
L 375.329383 38.432045 
L 373.73016 37.624671 
L 371.744871 36.880588 
L 368.550278 35.992747 
L 365.097023 35.283927 
L 359.917141 34.536538 
L 354.73726 34.062522 
L 348.461072 33.777672 
L 344.377496 33.74187 
L 339.197614 33.868668 
L 334.017732 34.194156 
L 328.83785 34.752629 
L 325.133675 35.32913 
L 321.467534 36.104859 
L 318.478087 36.968103 
L 316.676393 37.656316 
L 315.024832 38.513868 
L 314.085258 39.207774 
L 313.418432 39.983503 
L 313.138824 40.759232 
L 313.230931 41.53496 
L 313.703281 42.310689 
L 314.566249 43.086418 
L 315.858866 43.862147 
L 317.638347 44.637876 
L 320.204714 45.469971 
L 323.657969 46.293522 
L 327.500808 46.965062 
L 332.291105 47.553436 
L 337.470987 47.951854 
L 342.650869 48.143768 
L 342.650869 48.143768 
" style="fill:none;stroke:#5ec962;stroke-width:0.8;"/>
   </g>
   <g id="LineCollection_16">
    <path clip-path="url(#p389e8f40e8)" d="M 344.377496 45.810586 
L 346.104123 45.810586 
L 346.626615 45.801469 
L 347.83075 45.77913 
L 349.557378 45.714939 
L 351.284005 45.618259 
L 353.010632 45.488614 
L 353.807473 45.413605 
L 354.73726 45.319131 
L 356.463887 45.107502 
L 357.033987 45.02574 
L 358.190514 44.844327 
L 359.337449 44.637876 
L 359.917141 44.522219 
L 361.128908 44.250011 
L 361.643769 44.119791 
L 362.562812 43.862147 
L 363.370396 43.602348 
L 363.734371 43.474283 
L 364.676462 43.086418 
L 365.097023 42.877554 
L 365.430938 42.698554 
L 366.00807 42.310689 
L 366.438452 41.922825 
L 366.724204 41.53496 
L 366.823651 41.264467 
L 366.864237 41.147096 
L 366.864237 40.759232 
L 366.823651 40.641861 
L 366.724204 40.371367 
L 366.438452 39.983503 
L 366.00807 39.595638 
L 365.430938 39.207774 
L 365.097023 39.028774 
L 364.676462 38.81991 
L 363.734371 38.432045 
L 363.370396 38.30398 
L 362.562812 38.044181 
L 361.643769 37.786537 
L 361.128908 37.656316 
L 359.917141 37.384109 
L 359.337449 37.268452 
L 358.190514 37.062001 
L 357.033987 36.880588 
L 356.463887 36.798825 
L 354.73726 36.587197 
L 353.807473 36.492723 
L 353.010632 36.417714 
L 351.284005 36.288068 
L 349.557378 36.191389 
L 347.83075 36.127198 
L 346.626615 36.104859 
L 346.104123 36.095742 
L 344.377496 36.095742 
L 343.855004 36.104859 
L 342.650869 36.127198 
L 340.924241 36.191389 
L 339.197614 36.288068 
L 337.470987 36.417714 
L 336.674146 36.492723 
L 335.744359 36.587197 
L 334.017732 36.798825 
L 333.447632 36.880588 
L 332.291105 37.062001 
L 331.144171 37.268452 
L 330.564478 37.384109 
L 329.352712 37.656316 
L 328.83785 37.786537 
L 327.918807 38.044181 
L 327.111223 38.30398 
L 326.747248 38.432045 
L 325.805157 38.81991 
L 325.384596 39.028774 
L 325.050681 39.207774 
L 324.473549 39.595638 
L 324.043167 39.983503 
L 323.757415 40.371367 
L 323.657969 40.641861 
L 323.617382 40.759232 
L 323.617382 41.147096 
L 323.657969 41.264467 
L 323.757415 41.53496 
L 324.043167 41.922825 
L 324.473549 42.310689 
L 325.050681 42.698554 
L 325.384596 42.877554 
L 325.805157 43.086418 
L 326.747248 43.474283 
L 327.111223 43.602348 
L 327.918807 43.862147 
L 328.83785 44.119791 
L 329.352712 44.250011 
L 330.564478 44.522219 
L 331.144171 44.637876 
L 332.291105 44.844327 
L 333.447632 45.02574 
L 334.017732 45.107502 
L 335.744359 45.319131 
L 336.674146 45.413605 
L 337.470987 45.488614 
L 339.197614 45.618259 
L 340.924241 45.714939 
L 342.650869 45.77913 
L 343.855004 45.801469 
L 344.377496 45.810586 
" style="fill:none;stroke:#addc30;stroke-width:0.8;"/>
   </g>
   <g id="LineCollection_17"/>
   <g id="line2d_46">
    <path clip-path="url(#p389e8f40e8)" d="M 259.772759 31.554313 
L 261.499386 33.775139 
L 263.226014 35.995386 
L 264.952641 38.215023 
L 266.679268 40.434019 
L 268.405896 42.652345 
L 270.132523 44.869972 
L 271.85915 47.086871 
L 273.585777 49.303016 
L 275.312405 51.518382 
L 277.039032 53.732942 
L 278.765659 55.946672 
L 280.492286 58.159548 
L 282.218914 60.371549 
L 283.945541 62.582651 
L 285.672168 64.792835 
L 287.398796 67.00208 
L 289.125423 69.210366 
L 290.85205 71.417676 
L 292.578677 73.623991 
L 294.305305 75.829295 
L 296.031932 78.033571 
L 297.758559 80.236805 
L 299.485187 82.438982 
L 301.211814 84.640089 
L 302.938441 86.840112 
L 304.665068 89.039039 
L 306.391696 91.23686 
L 308.118323 93.433563 
L 309.84495 95.629138 
L 311.571578 97.823577 
L 313.298205 100.01687 
L 315.024832 102.209011 
L 316.751459 104.399991 
L 318.478087 106.589804 
L 320.204714 108.778446 
L 321.931341 110.965909 
L 323.657969 113.152191 
L 325.384596 115.337286 
L 327.111223 117.521193 
L 328.83785 119.703907 
L 330.564478 121.885426 
L 332.291105 124.06575 
L 334.017732 126.244877 
L 335.744359 128.422807 
L 337.470987 130.599539 
L 339.197614 132.775074 
L 340.924241 134.949414 
L 342.650869 137.122559 
L 344.377496 139.294512 
L 346.104123 141.465274 
L 347.83075 143.63485 
L 349.557378 145.803242 
L 351.284005 147.970454 
L 353.010632 150.13649 
L 354.73726 152.301354 
L 356.463887 154.465052 
L 358.190514 156.627589 
L 359.917141 158.788971 
L 361.643769 160.949203 
L 363.370396 163.108292 
L 365.097023 165.266245 
L 366.823651 167.423068 
L 368.550278 169.578768 
L 370.276905 171.733355 
L 372.003532 173.886834 
L 373.73016 176.039215 
L 375.456787 178.190506 
L 377.183414 180.340715 
L 378.910042 182.489851 
L 380.636669 184.637924 
L 382.363296 186.784943 
L 384.089923 188.930918 
L 385.816551 191.075857 
L 387.543178 193.219772 
L 389.269805 195.362672 
L 390.996432 197.504568 
L 392.72306 199.64547 
L 394.449687 201.785388 
L 396.176314 203.924335 
L 397.902942 206.06232 
L 399.629569 208.199355 
L 401.356196 210.335451 
L 403.082823 212.470619 
L 404.809451 214.604872 
L 406.536078 216.73822 
L 408.262705 218.870675 
L 409.989333 221.002249 
L 411.71596 223.132954 
L 413.442587 225.262802 
L 415.169214 227.391805 
L 416.895842 229.519975 
L 418.622469 231.647325 
L 420.349096 233.773866 
L 422.075724 235.899611 
L 423.802351 238.024572 
L 425.528978 240.148762 
L 427.255605 242.272193 
L 428.982233 244.394878 
L 430.70886 246.51683 
" style="fill:none;stroke:#ff0000;stroke-dasharray:0.8,1.32;stroke-dashoffset:0;stroke-width:0.8;"/>
   </g>
   <g id="patch_8">
    <path d="M 259.772759 257.754977 
L 259.772759 21.753876 
" style="fill:none;stroke:#bcbcbc;stroke-linecap:square;stroke-linejoin:miter;stroke-width:0.8;"/>
   </g>
   <g id="patch_9">
    <path d="M 430.70886 257.754977 
L 430.70886 21.753876 
" style="fill:none;stroke:#bcbcbc;stroke-linecap:square;stroke-linejoin:miter;stroke-width:0.8;"/>
   </g>
   <g id="patch_10">
    <path d="M 259.772759 257.754977 
L 430.70886 257.754977 
" style="fill:none;stroke:#bcbcbc;stroke-linecap:square;stroke-linejoin:miter;stroke-width:0.8;"/>
   </g>
   <g id="patch_11">
    <path d="M 259.772759 21.753876 
L 430.70886 21.753876 
" style="fill:none;stroke:#bcbcbc;stroke-linecap:square;stroke-linejoin:miter;stroke-width:0.8;"/>
   </g>
   <g id="text_35">
    <!-- U-Space -->
    <g transform="translate(323.363088 15.753876)scale(0.12 -0.12)">
     <defs>
      <path d="M 66.40625 56.71875 
C 66.40625 64.5 66.90625 65.390625 71.5 65.6875 
L 75.90625 65.984375 
L 75.90625 69 
C 65.40625 68.6875 65.40625 68.6875 63.90625 68.6875 
C 62.203125 68.6875 62.203125 68.6875 52.296875 69 
L 52.296875 65.984375 
L 56.703125 65.6875 
C 61.296875 65.390625 61.796875 64.5 61.796875 56.71875 
L 61.796875 24.828125 
C 61.796875 10.765625 55 4.1875 40.5 4.1875 
C 26.59375 4.1875 20.59375 9.671875 20.59375 22.4375 
L 20.59375 56.71875 
C 20.59375 64.59375 21.09375 65.390625 25.703125 65.6875 
L 30.5 65.984375 
L 30.5 69 
C 23.203125 68.6875 21 68.6875 15.796875 68.6875 
C 10.796875 68.6875 8.40625 68.796875 1.203125 69 
L 1.203125 65.984375 
L 6 65.6875 
C 10.59375 65.390625 11.09375 64.59375 11.09375 56.71875 
L 11.09375 21.328125 
C 11.09375 13.5625 12.90625 8.078125 16.703125 4.1875 
C 20.703125 0.09375 27.796875 -2 37.796875 -2 
C 48.09375 -2 55 0.09375 59.5 4.6875 
C 64.203125 9.375 66.40625 16.84375 66.40625 27.921875 
z
" id="URW_Palladio_L_Roman-85"/>
     </defs>
     <use transform="scale(0.996264)" xlink:href="#URW_Palladio_L_Roman-85"/>
     <use transform="translate(77.50837 0)scale(0.996264)" xlink:href="#URW_Palladio_L_Roman-45"/>
     <use transform="translate(110.6836 0)scale(0.996264)" xlink:href="#URW_Palladio_L_Roman-83"/>
     <use transform="translate(162.987415 0)scale(0.996264)" xlink:href="#URW_Palladio_L_Roman-112"/>
     <use transform="translate(222.861809 0)scale(0.996264)" xlink:href="#URW_Palladio_L_Roman-97"/>
     <use transform="translate(272.675009 0)scale(0.996264)" xlink:href="#URW_Palladio_L_Roman-99"/>
     <use transform="translate(316.908578 0)scale(0.996264)" xlink:href="#URW_Palladio_L_Roman-101"/>
    </g>
   </g>
  </g>
 </g>
 <defs>
  <clipPath id="pc7e8870e09">
   <rect height="236.001102" width="170.936101" x="39.421719" y="21.753876"/>
  </clipPath>
  <clipPath id="p389e8f40e8">
   <rect height="236.001102" width="170.936101" x="259.772759" y="21.753876"/>
  </clipPath>
 </defs>
</svg>
