<?xml version="1.0" encoding="utf-8" standalone="no"?>
<!DOCTYPE svg PUBLIC "-//W3C//DTD SVG 1.1//EN"
  "http://www.w3.org/Graphics/SVG/1.1/DTD/svg11.dtd">
<!-- Created with matplotlib (https://matplotlib.org/) -->
<svg height="248.518125pt" version="1.1" viewBox="0 0 368.925 248.518125" width="368.925pt" xmlns="http://www.w3.org/2000/svg" xmlns:xlink="http://www.w3.org/1999/xlink">
 <defs>
  <style type="text/css">
*{stroke-linecap:butt;stroke-linejoin:round;}
  </style>
 </defs>
 <g id="figure_1">
  <g id="patch_1">
   <path d="M -0 248.518125 
L 368.925 248.518125 
L 368.925 0 
L -0 0 
z
" style="fill:none;"/>
  </g>
  <g id="axes_1">
   <g id="patch_2">
    <path d="M 26.925 224.64 
L 361.725 224.64 
L 361.725 7.2 
L 26.925 7.2 
z
" style="fill:#ffffff;"/>
   </g>
   <g id="line2d_1">
    <path clip-path="url(#pcc60471bbc)" d="M 44.362966 214.756364 
L 61.148746 165.338182 
L 77.934527 115.92 
" style="fill:none;stroke:#ff0000;stroke-dasharray:1.5,2.475;stroke-dashoffset:0;stroke-width:1.5;"/>
   </g>
   <g id="line2d_2">
    <path clip-path="url(#pcc60471bbc)" d="M 77.934527 115.92 
L 145.0776 123.8269 
L 212.220673 131.733799 
" style="fill:none;stroke:#ff0000;stroke-dasharray:1.5,2.475;stroke-dashoffset:0;stroke-width:1.5;"/>
   </g>
   <g id="line2d_3">
    <path clip-path="url(#pcc60471bbc)" d="M 212.220673 131.733799 
L 279.363745 123.8269 
L 346.506818 115.92 
" style="fill:none;stroke:#ff0000;stroke-dasharray:1.5,2.475;stroke-dashoffset:0;stroke-width:1.5;"/>
   </g>
   <g id="line2d_4">
    <path clip-path="url(#pcc60471bbc)" d="M 346.506818 115.92 
L 329.721038 165.338182 
L 312.935257 214.756364 
" style="fill:none;stroke:#ff0000;stroke-dasharray:1.5,2.475;stroke-dashoffset:0;stroke-width:1.5;"/>
   </g>
   <g id="line2d_5">
    <path clip-path="url(#pcc60471bbc)" d="M 346.506818 115.92 
L 329.721038 66.501818 
L 312.935257 17.083636 
" style="fill:none;stroke:#ff0000;stroke-dasharray:1.5,2.475;stroke-dashoffset:0;stroke-width:1.5;"/>
   </g>
   <g id="line2d_6">
    <path clip-path="url(#pcc60471bbc)" d="M 44.362966 214.756364 
L 46.12989 209.55445 
L 47.896815 204.352536 
L 49.66374 199.150622 
L 51.430665 193.948708 
L 53.197591 188.746794 
L 54.964516 183.54488 
L 56.731441 178.342967 
L 58.498367 173.141053 
L 60.265292 167.939139 
L 62.032217 162.737225 
L 63.799142 157.535311 
L 65.566067 152.333397 
L 67.332991 147.131483 
L 69.099915 141.929569 
L 70.866838 136.727656 
L 72.633761 131.525742 
L 74.400684 126.323828 
L 76.167606 121.121914 
L 77.934527 115.92 
" style="fill:none;stroke:#ff0000;stroke-linecap:square;stroke-width:1.5;"/>
   </g>
   <g id="line2d_7">
    <path clip-path="url(#pcc60471bbc)" d="M 77.934527 115.92 
L 85.002219 116.752305 
L 92.069911 117.58461 
L 99.137602 118.416916 
L 106.205294 119.249221 
L 113.272986 120.081526 
L 120.340678 120.913831 
L 127.40837 121.746137 
L 134.476062 122.578442 
L 141.543754 123.410747 
L 148.611446 124.243052 
L 155.679138 125.075357 
L 162.746829 125.907663 
L 169.814521 126.739968 
L 176.882213 127.572273 
L 183.949905 128.404578 
L 191.017597 129.236883 
L 198.085289 130.069189 
L 205.152981 130.901494 
L 212.220673 131.733799 
" style="fill:none;stroke:#ff0000;stroke-linecap:square;stroke-width:1.5;"/>
   </g>
   <g id="line2d_8">
    <path clip-path="url(#pcc60471bbc)" d="M 212.220673 131.733799 
L 219.288364 130.901494 
L 226.356056 130.069189 
L 233.423748 129.236883 
L 240.49144 128.404578 
L 247.559132 127.572273 
L 254.626824 126.739968 
L 261.694516 125.907663 
L 268.762208 125.075357 
L 275.829899 124.243052 
L 282.897591 123.410747 
L 289.965283 122.578442 
L 297.032975 121.746137 
L 304.100667 120.913831 
L 311.168359 120.081526 
L 318.236051 119.249221 
L 325.303743 118.416916 
L 332.371434 117.58461 
L 339.439126 116.752305 
L 346.506818 115.92 
" style="fill:none;stroke:#ff0000;stroke-linecap:square;stroke-width:1.5;"/>
   </g>
   <g id="line2d_9">
    <path clip-path="url(#pcc60471bbc)" d="M 346.506818 115.92 
L 344.739897 110.718086 
L 342.972975 105.516172 
L 341.206053 100.314258 
L 339.43913 95.112344 
L 337.672206 89.910431 
L 335.905282 84.708517 
L 334.138358 79.506603 
L 332.371433 74.304689 
L 330.604508 69.102775 
L 328.837583 63.900861 
L 327.070658 58.698947 
L 325.303733 53.497033 
L 323.536807 48.29512 
L 321.769882 43.093206 
L 320.002957 37.891292 
L 318.236031 32.689378 
L 316.469106 27.487464 
L 314.702182 22.28555 
L 312.935257 17.083636 
" style="fill:none;stroke:#ff0000;stroke-linecap:square;stroke-width:1.5;"/>
   </g>
   <g id="line2d_10">
    <path clip-path="url(#pcc60471bbc)" d="M 44.362966 214.756364 
L 44.362966 165.338182 
L 44.362966 115.92 
" style="fill:none;stroke:#808080;stroke-linecap:square;"/>
   </g>
   <g id="line2d_11">
    <path clip-path="url(#pcc60471bbc)" d="M 44.362966 115.92 
L 111.506039 115.92 
L 178.649112 115.92 
" style="fill:none;stroke:#808080;stroke-linecap:square;"/>
   </g>
   <g id="line2d_12">
    <path clip-path="url(#pcc60471bbc)" d="M 178.649112 115.92 
L 245.792184 115.92 
L 312.935257 115.92 
" style="fill:none;stroke:#808080;stroke-linecap:square;"/>
   </g>
   <g id="line2d_13">
    <path clip-path="url(#pcc60471bbc)" d="M 312.935257 115.92 
L 312.935257 165.338182 
L 312.935257 214.756364 
" style="fill:none;stroke:#808080;stroke-linecap:square;"/>
   </g>
   <g id="line2d_14">
    <path clip-path="url(#pcc60471bbc)" d="M 312.935257 115.92 
L 312.935257 66.501818 
L 312.935257 17.083636 
" style="fill:none;stroke:#808080;stroke-linecap:square;"/>
   </g>
   <g id="matplotlib.axis_1">
    <g id="xtick_1">
     <g id="line2d_15">
      <defs>
       <path d="M 0 0 
L 0 3.5 
" id="m88829466ca" style="stroke:#000000;stroke-width:0.8;"/>
      </defs>
      <g>
       <use style="stroke:#000000;stroke-width:0.8;" x="44.362966" xlink:href="#m88829466ca" y="224.64"/>
      </g>
     </g>
     <g id="text_1">
      <!-- 0 -->
      <defs>
       <path d="M 31.78125 66.40625 
Q 24.171875 66.40625 20.328125 58.90625 
Q 16.5 51.421875 16.5 36.375 
Q 16.5 21.390625 20.328125 13.890625 
Q 24.171875 6.390625 31.78125 6.390625 
Q 39.453125 6.390625 43.28125 13.890625 
Q 47.125 21.390625 47.125 36.375 
Q 47.125 51.421875 43.28125 58.90625 
Q 39.453125 66.40625 31.78125 66.40625 
z
M 31.78125 74.21875 
Q 44.046875 74.21875 50.515625 64.515625 
Q 56.984375 54.828125 56.984375 36.375 
Q 56.984375 17.96875 50.515625 8.265625 
Q 44.046875 -1.421875 31.78125 -1.421875 
Q 19.53125 -1.421875 13.0625 8.265625 
Q 6.59375 17.96875 6.59375 36.375 
Q 6.59375 54.828125 13.0625 64.515625 
Q 19.53125 74.21875 31.78125 74.21875 
z
" id="DejaVuSans-48"/>
      </defs>
      <g transform="translate(41.181716 239.238438)scale(0.1 -0.1)">
       <use xlink:href="#DejaVuSans-48"/>
      </g>
     </g>
    </g>
    <g id="xtick_2">
     <g id="line2d_16">
      <g>
       <use style="stroke:#000000;stroke-width:0.8;" x="111.506039" xlink:href="#m88829466ca" y="224.64"/>
      </g>
     </g>
     <g id="text_2">
      <!-- 2 -->
      <defs>
       <path d="M 19.1875 8.296875 
L 53.609375 8.296875 
L 53.609375 0 
L 7.328125 0 
L 7.328125 8.296875 
Q 12.9375 14.109375 22.625 23.890625 
Q 32.328125 33.6875 34.8125 36.53125 
Q 39.546875 41.84375 41.421875 45.53125 
Q 43.3125 49.21875 43.3125 52.78125 
Q 43.3125 58.59375 39.234375 62.25 
Q 35.15625 65.921875 28.609375 65.921875 
Q 23.96875 65.921875 18.8125 64.3125 
Q 13.671875 62.703125 7.8125 59.421875 
L 7.8125 69.390625 
Q 13.765625 71.78125 18.9375 73 
Q 24.125 74.21875 28.421875 74.21875 
Q 39.75 74.21875 46.484375 68.546875 
Q 53.21875 62.890625 53.21875 53.421875 
Q 53.21875 48.921875 51.53125 44.890625 
Q 49.859375 40.875 45.40625 35.40625 
Q 44.1875 33.984375 37.640625 27.21875 
Q 31.109375 20.453125 19.1875 8.296875 
z
" id="DejaVuSans-50"/>
      </defs>
      <g transform="translate(108.324789 239.238438)scale(0.1 -0.1)">
       <use xlink:href="#DejaVuSans-50"/>
      </g>
     </g>
    </g>
    <g id="xtick_3">
     <g id="line2d_17">
      <g>
       <use style="stroke:#000000;stroke-width:0.8;" x="178.649112" xlink:href="#m88829466ca" y="224.64"/>
      </g>
     </g>
     <g id="text_3">
      <!-- 4 -->
      <defs>
       <path d="M 37.796875 64.3125 
L 12.890625 25.390625 
L 37.796875 25.390625 
z
M 35.203125 72.90625 
L 47.609375 72.90625 
L 47.609375 25.390625 
L 58.015625 25.390625 
L 58.015625 17.1875 
L 47.609375 17.1875 
L 47.609375 0 
L 37.796875 0 
L 37.796875 17.1875 
L 4.890625 17.1875 
L 4.890625 26.703125 
z
" id="DejaVuSans-52"/>
      </defs>
      <g transform="translate(175.467862 239.238438)scale(0.1 -0.1)">
       <use xlink:href="#DejaVuSans-52"/>
      </g>
     </g>
    </g>
    <g id="xtick_4">
     <g id="line2d_18">
      <g>
       <use style="stroke:#000000;stroke-width:0.8;" x="245.792184" xlink:href="#m88829466ca" y="224.64"/>
      </g>
     </g>
     <g id="text_4">
      <!-- 6 -->
      <defs>
       <path d="M 33.015625 40.375 
Q 26.375 40.375 22.484375 35.828125 
Q 18.609375 31.296875 18.609375 23.390625 
Q 18.609375 15.53125 22.484375 10.953125 
Q 26.375 6.390625 33.015625 6.390625 
Q 39.65625 6.390625 43.53125 10.953125 
Q 47.40625 15.53125 47.40625 23.390625 
Q 47.40625 31.296875 43.53125 35.828125 
Q 39.65625 40.375 33.015625 40.375 
z
M 52.59375 71.296875 
L 52.59375 62.3125 
Q 48.875 64.0625 45.09375 64.984375 
Q 41.3125 65.921875 37.59375 65.921875 
Q 27.828125 65.921875 22.671875 59.328125 
Q 17.53125 52.734375 16.796875 39.40625 
Q 19.671875 43.65625 24.015625 45.921875 
Q 28.375 48.1875 33.59375 48.1875 
Q 44.578125 48.1875 50.953125 41.515625 
Q 57.328125 34.859375 57.328125 23.390625 
Q 57.328125 12.15625 50.6875 5.359375 
Q 44.046875 -1.421875 33.015625 -1.421875 
Q 20.359375 -1.421875 13.671875 8.265625 
Q 6.984375 17.96875 6.984375 36.375 
Q 6.984375 53.65625 15.1875 63.9375 
Q 23.390625 74.21875 37.203125 74.21875 
Q 40.921875 74.21875 44.703125 73.484375 
Q 48.484375 72.75 52.59375 71.296875 
z
" id="DejaVuSans-54"/>
      </defs>
      <g transform="translate(242.610934 239.238438)scale(0.1 -0.1)">
       <use xlink:href="#DejaVuSans-54"/>
      </g>
     </g>
    </g>
    <g id="xtick_5">
     <g id="line2d_19">
      <g>
       <use style="stroke:#000000;stroke-width:0.8;" x="312.935257" xlink:href="#m88829466ca" y="224.64"/>
      </g>
     </g>
     <g id="text_5">
      <!-- 8 -->
      <defs>
       <path d="M 31.78125 34.625 
Q 24.75 34.625 20.71875 30.859375 
Q 16.703125 27.09375 16.703125 20.515625 
Q 16.703125 13.921875 20.71875 10.15625 
Q 24.75 6.390625 31.78125 6.390625 
Q 38.8125 6.390625 42.859375 10.171875 
Q 46.921875 13.96875 46.921875 20.515625 
Q 46.921875 27.09375 42.890625 30.859375 
Q 38.875 34.625 31.78125 34.625 
z
M 21.921875 38.8125 
Q 15.578125 40.375 12.03125 44.71875 
Q 8.5 49.078125 8.5 55.328125 
Q 8.5 64.0625 14.71875 69.140625 
Q 20.953125 74.21875 31.78125 74.21875 
Q 42.671875 74.21875 48.875 69.140625 
Q 55.078125 64.0625 55.078125 55.328125 
Q 55.078125 49.078125 51.53125 44.71875 
Q 48 40.375 41.703125 38.8125 
Q 48.828125 37.15625 52.796875 32.3125 
Q 56.78125 27.484375 56.78125 20.515625 
Q 56.78125 9.90625 50.3125 4.234375 
Q 43.84375 -1.421875 31.78125 -1.421875 
Q 19.734375 -1.421875 13.25 4.234375 
Q 6.78125 9.90625 6.78125 20.515625 
Q 6.78125 27.484375 10.78125 32.3125 
Q 14.796875 37.15625 21.921875 38.8125 
z
M 18.3125 54.390625 
Q 18.3125 48.734375 21.84375 45.5625 
Q 25.390625 42.390625 31.78125 42.390625 
Q 38.140625 42.390625 41.71875 45.5625 
Q 45.3125 48.734375 45.3125 54.390625 
Q 45.3125 60.0625 41.71875 63.234375 
Q 38.140625 66.40625 31.78125 66.40625 
Q 25.390625 66.40625 21.84375 63.234375 
Q 18.3125 60.0625 18.3125 54.390625 
z
" id="DejaVuSans-56"/>
      </defs>
      <g transform="translate(309.754007 239.238438)scale(0.1 -0.1)">
       <use xlink:href="#DejaVuSans-56"/>
      </g>
     </g>
    </g>
   </g>
   <g id="matplotlib.axis_2">
    <g id="ytick_1">
     <g id="line2d_20">
      <defs>
       <path d="M 0 0 
L -3.5 0 
" id="me9457accff" style="stroke:#000000;stroke-width:0.8;"/>
      </defs>
      <g>
       <use style="stroke:#000000;stroke-width:0.8;" x="26.925" xlink:href="#me9457accff" y="214.756364"/>
      </g>
     </g>
     <g id="text_6">
      <!-- 0 -->
      <g transform="translate(13.5625 218.555582)scale(0.1 -0.1)">
       <use xlink:href="#DejaVuSans-48"/>
      </g>
     </g>
    </g>
    <g id="ytick_2">
     <g id="line2d_21">
      <g>
       <use style="stroke:#000000;stroke-width:0.8;" x="26.925" xlink:href="#me9457accff" y="175.221818"/>
      </g>
     </g>
     <g id="text_7">
      <!-- 2 -->
      <g transform="translate(13.5625 179.021037)scale(0.1 -0.1)">
       <use xlink:href="#DejaVuSans-50"/>
      </g>
     </g>
    </g>
    <g id="ytick_3">
     <g id="line2d_22">
      <g>
       <use style="stroke:#000000;stroke-width:0.8;" x="26.925" xlink:href="#me9457accff" y="135.687273"/>
      </g>
     </g>
     <g id="text_8">
      <!-- 4 -->
      <g transform="translate(13.5625 139.486491)scale(0.1 -0.1)">
       <use xlink:href="#DejaVuSans-52"/>
      </g>
     </g>
    </g>
    <g id="ytick_4">
     <g id="line2d_23">
      <g>
       <use style="stroke:#000000;stroke-width:0.8;" x="26.925" xlink:href="#me9457accff" y="96.152727"/>
      </g>
     </g>
     <g id="text_9">
      <!-- 6 -->
      <g transform="translate(13.5625 99.951946)scale(0.1 -0.1)">
       <use xlink:href="#DejaVuSans-54"/>
      </g>
     </g>
    </g>
    <g id="ytick_5">
     <g id="line2d_24">
      <g>
       <use style="stroke:#000000;stroke-width:0.8;" x="26.925" xlink:href="#me9457accff" y="56.618182"/>
      </g>
     </g>
     <g id="text_10">
      <!-- 8 -->
      <g transform="translate(13.5625 60.417401)scale(0.1 -0.1)">
       <use xlink:href="#DejaVuSans-56"/>
      </g>
     </g>
    </g>
    <g id="ytick_6">
     <g id="line2d_25">
      <g>
       <use style="stroke:#000000;stroke-width:0.8;" x="26.925" xlink:href="#me9457accff" y="17.083636"/>
      </g>
     </g>
     <g id="text_11">
      <!-- 10 -->
      <defs>
       <path d="M 12.40625 8.296875 
L 28.515625 8.296875 
L 28.515625 63.921875 
L 10.984375 60.40625 
L 10.984375 69.390625 
L 28.421875 72.90625 
L 38.28125 72.90625 
L 38.28125 8.296875 
L 54.390625 8.296875 
L 54.390625 0 
L 12.40625 0 
z
" id="DejaVuSans-49"/>
      </defs>
      <g transform="translate(7.2 20.882855)scale(0.1 -0.1)">
       <use xlink:href="#DejaVuSans-49"/>
       <use x="63.623047" xlink:href="#DejaVuSans-48"/>
      </g>
     </g>
    </g>
   </g>
   <g id="PathCollection_1">
    <defs>
     <path d="M 0 2.236068 
C 0.593012 2.236068 1.161816 2.000462 1.581139 1.581139 
C 2.000462 1.161816 2.236068 0.593012 2.236068 0 
C 2.236068 -0.593012 2.000462 -1.161816 1.581139 -1.581139 
C 1.161816 -2.000462 0.593012 -2.236068 0 -2.236068 
C -0.593012 -2.236068 -1.161816 -2.000462 -1.581139 -1.581139 
C -2.000462 -1.161816 -2.236068 -0.593012 -2.236068 0 
C -2.236068 0.593012 -2.000462 1.161816 -1.581139 1.581139 
C -1.161816 2.000462 -0.593012 2.236068 0 2.236068 
z
" id="m3ce62b56a5" style="stroke:#000000;"/>
    </defs>
    <g clip-path="url(#pcc60471bbc)">
     <use style="fill:#ffffff;stroke:#000000;" x="312.935257" xlink:href="#m3ce62b56a5" y="123.826909"/>
    </g>
   </g>
   <g id="PathCollection_2">
    <g clip-path="url(#pcc60471bbc)">
     <use style="fill:#ffffff;stroke:#000000;" x="312.935257" xlink:href="#m3ce62b56a5" y="206.849455"/>
    </g>
   </g>
   <g id="line2d_26">
    <path clip-path="url(#pcc60471bbc)" d="M 44.362966 214.756364 
" style="fill:none;stroke:#000000;stroke-linecap:square;stroke-width:1.5;"/>
    <defs>
     <path d="M -3 3 
L 3 3 
L 3 -3 
L -3 -3 
z
" id="mce709d8e96" style="stroke:#000000;stroke-linejoin:miter;"/>
    </defs>
    <g clip-path="url(#pcc60471bbc)">
     <use style="stroke:#000000;stroke-linejoin:miter;" x="44.362966" xlink:href="#mce709d8e96" y="214.756364"/>
    </g>
   </g>
   <g id="line2d_27">
    <path clip-path="url(#pcc60471bbc)" d="M 44.362966 115.92 
" style="fill:none;stroke:#000000;stroke-linecap:square;stroke-width:1.5;"/>
    <g clip-path="url(#pcc60471bbc)">
     <use style="stroke:#000000;stroke-linejoin:miter;" x="44.362966" xlink:href="#mce709d8e96" y="115.92"/>
    </g>
   </g>
   <g id="line2d_28">
    <path clip-path="url(#pcc60471bbc)" d="M 178.649112 115.92 
" style="fill:none;stroke:#000000;stroke-linecap:square;stroke-width:1.5;"/>
    <g clip-path="url(#pcc60471bbc)">
     <use style="stroke:#000000;stroke-linejoin:miter;" x="178.649112" xlink:href="#mce709d8e96" y="115.92"/>
    </g>
   </g>
   <g id="line2d_29">
    <path clip-path="url(#pcc60471bbc)" d="M 312.935257 115.92 
" style="fill:none;stroke:#000000;stroke-linecap:square;stroke-width:1.5;"/>
    <g clip-path="url(#pcc60471bbc)">
     <use style="stroke:#000000;stroke-linejoin:miter;" x="312.935257" xlink:href="#mce709d8e96" y="115.92"/>
    </g>
   </g>
   <g id="line2d_30">
    <path clip-path="url(#pcc60471bbc)" d="M 312.935257 214.756364 
" style="fill:none;stroke:#000000;stroke-linecap:square;stroke-width:1.5;"/>
    <g clip-path="url(#pcc60471bbc)">
     <use style="stroke:#000000;stroke-linejoin:miter;" x="312.935257" xlink:href="#mce709d8e96" y="214.756364"/>
    </g>
   </g>
   <g id="line2d_31">
    <path clip-path="url(#pcc60471bbc)" d="M 312.935257 17.083636 
" style="fill:none;stroke:#000000;stroke-linecap:square;stroke-width:1.5;"/>
    <g clip-path="url(#pcc60471bbc)">
     <use style="stroke:#000000;stroke-linejoin:miter;" x="312.935257" xlink:href="#mce709d8e96" y="17.083636"/>
    </g>
   </g>
   <g id="line2d_32">
    <path clip-path="url(#pcc60471bbc)" d="M 44.362966 214.756364 
" style="fill:none;stroke:#000000;stroke-linecap:square;stroke-width:1.5;"/>
    <defs>
     <path d="M -2.5 2.5 
L 2.5 2.5 
L 2.5 -2.5 
L -2.5 -2.5 
z
" id="mf6d13baf47" style="stroke:#000000;stroke-linejoin:miter;"/>
    </defs>
    <g clip-path="url(#pcc60471bbc)">
     <use style="stroke:#000000;stroke-linejoin:miter;" x="44.362966" xlink:href="#mf6d13baf47" y="214.756364"/>
    </g>
   </g>
   <g id="line2d_33">
    <path clip-path="url(#pcc60471bbc)" d="M 44.362966 214.756364 
" style="fill:none;stroke:#ff0000;stroke-linecap:square;stroke-width:1.5;"/>
    <defs>
     <path d="M -2.5 2.5 
L 2.5 2.5 
L 2.5 -2.5 
L -2.5 -2.5 
z
" id="mce21d512b2" style="stroke:#ff0000;stroke-linejoin:miter;"/>
    </defs>
    <g clip-path="url(#pcc60471bbc)">
     <use style="fill:#ff0000;stroke:#ff0000;stroke-linejoin:miter;" x="44.362966" xlink:href="#mce21d512b2" y="214.756364"/>
    </g>
   </g>
   <g id="line2d_34">
    <path clip-path="url(#pcc60471bbc)" d="M 44.362966 115.92 
" style="fill:none;stroke:#000000;stroke-linecap:square;stroke-width:1.5;"/>
    <g clip-path="url(#pcc60471bbc)">
     <use style="stroke:#000000;stroke-linejoin:miter;" x="44.362966" xlink:href="#mf6d13baf47" y="115.92"/>
    </g>
   </g>
   <g id="line2d_35">
    <path clip-path="url(#pcc60471bbc)" d="M 77.934527 115.92 
" style="fill:none;stroke:#ff0000;stroke-linecap:square;stroke-width:1.5;"/>
    <g clip-path="url(#pcc60471bbc)">
     <use style="fill:#ff0000;stroke:#ff0000;stroke-linejoin:miter;" x="77.934527" xlink:href="#mce21d512b2" y="115.92"/>
    </g>
   </g>
   <g id="line2d_36">
    <path clip-path="url(#pcc60471bbc)" d="M 178.649112 115.92 
" style="fill:none;stroke:#000000;stroke-linecap:square;stroke-width:1.5;"/>
    <g clip-path="url(#pcc60471bbc)">
     <use style="stroke:#000000;stroke-linejoin:miter;" x="178.649112" xlink:href="#mf6d13baf47" y="115.92"/>
    </g>
   </g>
   <g id="line2d_37">
    <path clip-path="url(#pcc60471bbc)" d="M 212.220673 131.733799 
" style="fill:none;stroke:#ff0000;stroke-linecap:square;stroke-width:1.5;"/>
    <g clip-path="url(#pcc60471bbc)">
     <use style="fill:#ff0000;stroke:#ff0000;stroke-linejoin:miter;" x="212.220673" xlink:href="#mce21d512b2" y="131.733799"/>
    </g>
   </g>
   <g id="line2d_38">
    <path clip-path="url(#pcc60471bbc)" d="M 312.935257 115.92 
" style="fill:none;stroke:#000000;stroke-linecap:square;stroke-width:1.5;"/>
    <g clip-path="url(#pcc60471bbc)">
     <use style="stroke:#000000;stroke-linejoin:miter;" x="312.935257" xlink:href="#mf6d13baf47" y="115.92"/>
    </g>
   </g>
   <g id="line2d_39">
    <path clip-path="url(#pcc60471bbc)" d="M 346.506818 115.92 
" style="fill:none;stroke:#ff0000;stroke-linecap:square;stroke-width:1.5;"/>
    <g clip-path="url(#pcc60471bbc)">
     <use style="fill:#ff0000;stroke:#ff0000;stroke-linejoin:miter;" x="346.506818" xlink:href="#mce21d512b2" y="115.92"/>
    </g>
   </g>
   <g id="line2d_40">
    <path clip-path="url(#pcc60471bbc)" d="M 312.935257 214.756364 
" style="fill:none;stroke:#000000;stroke-linecap:square;stroke-width:1.5;"/>
    <g clip-path="url(#pcc60471bbc)">
     <use style="stroke:#000000;stroke-linejoin:miter;" x="312.935257" xlink:href="#mf6d13baf47" y="214.756364"/>
    </g>
   </g>
   <g id="line2d_41">
    <path clip-path="url(#pcc60471bbc)" d="M 312.935257 214.756364 
" style="fill:none;stroke:#ff0000;stroke-linecap:square;stroke-width:1.5;"/>
    <g clip-path="url(#pcc60471bbc)">
     <use style="fill:#ff0000;stroke:#ff0000;stroke-linejoin:miter;" x="312.935257" xlink:href="#mce21d512b2" y="214.756364"/>
    </g>
   </g>
   <g id="line2d_42">
    <path clip-path="url(#pcc60471bbc)" d="M 312.935257 17.083636 
" style="fill:none;stroke:#000000;stroke-linecap:square;stroke-width:1.5;"/>
    <g clip-path="url(#pcc60471bbc)">
     <use style="stroke:#000000;stroke-linejoin:miter;" x="312.935257" xlink:href="#mf6d13baf47" y="17.083636"/>
    </g>
   </g>
   <g id="line2d_43">
    <path clip-path="url(#pcc60471bbc)" d="M 312.935257 17.083636 
" style="fill:none;stroke:#ff0000;stroke-linecap:square;stroke-width:1.5;"/>
    <g clip-path="url(#pcc60471bbc)">
     <use style="fill:#ff0000;stroke:#ff0000;stroke-linejoin:miter;" x="312.935257" xlink:href="#mce21d512b2" y="17.083636"/>
    </g>
   </g>
   <g id="patch_3">
    <path d="M 26.925 224.64 
L 26.925 7.2 
" style="fill:none;stroke:#000000;stroke-linecap:square;stroke-linejoin:miter;stroke-width:0.8;"/>
   </g>
   <g id="patch_4">
    <path d="M 361.725 224.64 
L 361.725 7.2 
" style="fill:none;stroke:#000000;stroke-linecap:square;stroke-linejoin:miter;stroke-width:0.8;"/>
   </g>
   <g id="patch_5">
    <path d="M 26.925 224.64 
L 361.725 224.64 
" style="fill:none;stroke:#000000;stroke-linecap:square;stroke-linejoin:miter;stroke-width:0.8;"/>
   </g>
   <g id="patch_6">
    <path d="M 26.925 7.2 
L 361.725 7.2 
" style="fill:none;stroke:#000000;stroke-linecap:square;stroke-linejoin:miter;stroke-width:0.8;"/>
   </g>
   <g id="PathCollection_3">
    <g clip-path="url(#pcc60471bbc)">
     <use style="fill:#ffffff;stroke:#000000;" x="44.362966" xlink:href="#m3ce62b56a5" y="204.872727"/>
    </g>
   </g>
   <g id="PathCollection_4">
    <g clip-path="url(#pcc60471bbc)">
     <use style="fill:#ffffff;stroke:#000000;" x="195.43488" xlink:href="#m3ce62b56a5" y="115.92"/>
    </g>
   </g>
   <g id="PathCollection_5">
    <g clip-path="url(#pcc60471bbc)">
     <use style="fill:#ffffff;stroke:#000000;" x="312.935257" xlink:href="#m3ce62b56a5" y="26.967273"/>
    </g>
   </g>
   <g id="PathCollection_6">
    <g clip-path="url(#pcc60471bbc)">
     <use style="fill:#ffffff;stroke:#000000;" x="44.362966" xlink:href="#m3ce62b56a5" y="204.872727"/>
    </g>
   </g>
   <g id="PathCollection_7">
    <g clip-path="url(#pcc60471bbc)">
     <use style="fill:#ffffff;stroke:#000000;" x="195.43488" xlink:href="#m3ce62b56a5" y="115.92"/>
    </g>
   </g>
   <g id="PathCollection_8">
    <g clip-path="url(#pcc60471bbc)">
     <use style="fill:#ffffff;stroke:#000000;" x="312.935257" xlink:href="#m3ce62b56a5" y="26.967273"/>
    </g>
   </g>
  </g>
 </g>
 <defs>
  <clipPath id="pcc60471bbc">
   <rect height="217.44" width="334.8" x="26.925" y="7.2"/>
  </clipPath>
 </defs>
</svg>
