<?xml version="1.0" encoding="utf-8" standalone="no"?>
<!DOCTYPE svg PUBLIC "-//W3C//DTD SVG 1.1//EN"
  "http://www.w3.org/Graphics/SVG/1.1/DTD/svg11.dtd">
<!-- Created with matplotlib (https://matplotlib.org/) -->
<svg height="252.317344pt" version="1.1" viewBox="0 0 372.103125 252.317344" width="372.103125pt" xmlns="http://www.w3.org/2000/svg" xmlns:xlink="http://www.w3.org/1999/xlink">
 <defs>
  <style type="text/css">
*{stroke-linecap:butt;stroke-linejoin:round;}
  </style>
 </defs>
 <g id="figure_1">
  <g id="patch_1">
   <path d="M 0 252.317344 
L 372.103125 252.317344 
L 372.103125 0 
L 0 0 
z
" style="fill:none;"/>
  </g>
  <g id="axes_1">
   <g id="patch_2">
    <path d="M 30.103125 228.439219 
L 128.573713 228.439219 
L 128.573713 10.999219 
L 30.103125 10.999219 
z
" style="fill:#ffffff;"/>
   </g>
   <g id="matplotlib.axis_1">
    <g id="xtick_1">
     <g id="line2d_1">
      <defs>
       <path d="M 0 0 
L 0 3.5 
" id="m32e2b030f9" style="stroke:#000000;stroke-width:0.8;"/>
      </defs>
      <g>
       <use style="stroke:#000000;stroke-width:0.8;" x="30.103125" xlink:href="#m32e2b030f9" y="228.439219"/>
      </g>
     </g>
     <g id="text_1">
      <!-- 0.0 -->
      <defs>
       <path d="M 31.78125 66.40625 
Q 24.171875 66.40625 20.328125 58.90625 
Q 16.5 51.421875 16.5 36.375 
Q 16.5 21.390625 20.328125 13.890625 
Q 24.171875 6.390625 31.78125 6.390625 
Q 39.453125 6.390625 43.28125 13.890625 
Q 47.125 21.390625 47.125 36.375 
Q 47.125 51.421875 43.28125 58.90625 
Q 39.453125 66.40625 31.78125 66.40625 
z
M 31.78125 74.21875 
Q 44.046875 74.21875 50.515625 64.515625 
Q 56.984375 54.828125 56.984375 36.375 
Q 56.984375 17.96875 50.515625 8.265625 
Q 44.046875 -1.421875 31.78125 -1.421875 
Q 19.53125 -1.421875 13.0625 8.265625 
Q 6.59375 17.96875 6.59375 36.375 
Q 6.59375 54.828125 13.0625 64.515625 
Q 19.53125 74.21875 31.78125 74.21875 
z
" id="DejaVuSans-48"/>
       <path d="M 10.6875 12.40625 
L 21 12.40625 
L 21 0 
L 10.6875 0 
z
" id="DejaVuSans-46"/>
      </defs>
      <g transform="translate(22.151563 243.037656)scale(0.1 -0.1)">
       <use xlink:href="#DejaVuSans-48"/>
       <use x="63.623047" xlink:href="#DejaVuSans-46"/>
       <use x="95.410156" xlink:href="#DejaVuSans-48"/>
      </g>
     </g>
    </g>
    <g id="xtick_2">
     <g id="line2d_2">
      <g>
       <use style="stroke:#000000;stroke-width:0.8;" x="79.338419" xlink:href="#m32e2b030f9" y="228.439219"/>
      </g>
     </g>
     <g id="text_2">
      <!-- 0.5 -->
      <defs>
       <path d="M 10.796875 72.90625 
L 49.515625 72.90625 
L 49.515625 64.59375 
L 19.828125 64.59375 
L 19.828125 46.734375 
Q 21.96875 47.46875 24.109375 47.828125 
Q 26.265625 48.1875 28.421875 48.1875 
Q 40.625 48.1875 47.75 41.5 
Q 54.890625 34.8125 54.890625 23.390625 
Q 54.890625 11.625 47.5625 5.09375 
Q 40.234375 -1.421875 26.90625 -1.421875 
Q 22.3125 -1.421875 17.546875 -0.640625 
Q 12.796875 0.140625 7.71875 1.703125 
L 7.71875 11.625 
Q 12.109375 9.234375 16.796875 8.0625 
Q 21.484375 6.890625 26.703125 6.890625 
Q 35.15625 6.890625 40.078125 11.328125 
Q 45.015625 15.765625 45.015625 23.390625 
Q 45.015625 31 40.078125 35.4375 
Q 35.15625 39.890625 26.703125 39.890625 
Q 22.75 39.890625 18.8125 39.015625 
Q 14.890625 38.140625 10.796875 36.28125 
z
" id="DejaVuSans-53"/>
      </defs>
      <g transform="translate(71.386857 243.037656)scale(0.1 -0.1)">
       <use xlink:href="#DejaVuSans-48"/>
       <use x="63.623047" xlink:href="#DejaVuSans-46"/>
       <use x="95.410156" xlink:href="#DejaVuSans-53"/>
      </g>
     </g>
    </g>
    <g id="xtick_3">
     <g id="line2d_3">
      <g>
       <use style="stroke:#000000;stroke-width:0.8;" x="128.573713" xlink:href="#m32e2b030f9" y="228.439219"/>
      </g>
     </g>
     <g id="text_3">
      <!-- 1.0 -->
      <defs>
       <path d="M 12.40625 8.296875 
L 28.515625 8.296875 
L 28.515625 63.921875 
L 10.984375 60.40625 
L 10.984375 69.390625 
L 28.421875 72.90625 
L 38.28125 72.90625 
L 38.28125 8.296875 
L 54.390625 8.296875 
L 54.390625 0 
L 12.40625 0 
z
" id="DejaVuSans-49"/>
      </defs>
      <g transform="translate(120.622151 243.037656)scale(0.1 -0.1)">
       <use xlink:href="#DejaVuSans-49"/>
       <use x="63.623047" xlink:href="#DejaVuSans-46"/>
       <use x="95.410156" xlink:href="#DejaVuSans-48"/>
      </g>
     </g>
    </g>
   </g>
   <g id="matplotlib.axis_2">
    <g id="ytick_1">
     <g id="line2d_4">
      <defs>
       <path d="M 0 0 
L -3.5 0 
" id="mf46eb9eb62" style="stroke:#000000;stroke-width:0.8;"/>
      </defs>
      <g>
       <use style="stroke:#000000;stroke-width:0.8;" x="30.103125" xlink:href="#mf46eb9eb62" y="228.439219"/>
      </g>
     </g>
     <g id="text_4">
      <!-- 0.0 -->
      <g transform="translate(7.2 232.238437)scale(0.1 -0.1)">
       <use xlink:href="#DejaVuSans-48"/>
       <use x="63.623047" xlink:href="#DejaVuSans-46"/>
       <use x="95.410156" xlink:href="#DejaVuSans-48"/>
      </g>
     </g>
    </g>
    <g id="ytick_2">
     <g id="line2d_5">
      <g>
       <use style="stroke:#000000;stroke-width:0.8;" x="30.103125" xlink:href="#mf46eb9eb62" y="184.951219"/>
      </g>
     </g>
     <g id="text_5">
      <!-- 0.2 -->
      <defs>
       <path d="M 19.1875 8.296875 
L 53.609375 8.296875 
L 53.609375 0 
L 7.328125 0 
L 7.328125 8.296875 
Q 12.9375 14.109375 22.625 23.890625 
Q 32.328125 33.6875 34.8125 36.53125 
Q 39.546875 41.84375 41.421875 45.53125 
Q 43.3125 49.21875 43.3125 52.78125 
Q 43.3125 58.59375 39.234375 62.25 
Q 35.15625 65.921875 28.609375 65.921875 
Q 23.96875 65.921875 18.8125 64.3125 
Q 13.671875 62.703125 7.8125 59.421875 
L 7.8125 69.390625 
Q 13.765625 71.78125 18.9375 73 
Q 24.125 74.21875 28.421875 74.21875 
Q 39.75 74.21875 46.484375 68.546875 
Q 53.21875 62.890625 53.21875 53.421875 
Q 53.21875 48.921875 51.53125 44.890625 
Q 49.859375 40.875 45.40625 35.40625 
Q 44.1875 33.984375 37.640625 27.21875 
Q 31.109375 20.453125 19.1875 8.296875 
z
" id="DejaVuSans-50"/>
      </defs>
      <g transform="translate(7.2 188.750437)scale(0.1 -0.1)">
       <use xlink:href="#DejaVuSans-48"/>
       <use x="63.623047" xlink:href="#DejaVuSans-46"/>
       <use x="95.410156" xlink:href="#DejaVuSans-50"/>
      </g>
     </g>
    </g>
    <g id="ytick_3">
     <g id="line2d_6">
      <g>
       <use style="stroke:#000000;stroke-width:0.8;" x="30.103125" xlink:href="#mf46eb9eb62" y="141.463219"/>
      </g>
     </g>
     <g id="text_6">
      <!-- 0.4 -->
      <defs>
       <path d="M 37.796875 64.3125 
L 12.890625 25.390625 
L 37.796875 25.390625 
z
M 35.203125 72.90625 
L 47.609375 72.90625 
L 47.609375 25.390625 
L 58.015625 25.390625 
L 58.015625 17.1875 
L 47.609375 17.1875 
L 47.609375 0 
L 37.796875 0 
L 37.796875 17.1875 
L 4.890625 17.1875 
L 4.890625 26.703125 
z
" id="DejaVuSans-52"/>
      </defs>
      <g transform="translate(7.2 145.262437)scale(0.1 -0.1)">
       <use xlink:href="#DejaVuSans-48"/>
       <use x="63.623047" xlink:href="#DejaVuSans-46"/>
       <use x="95.410156" xlink:href="#DejaVuSans-52"/>
      </g>
     </g>
    </g>
    <g id="ytick_4">
     <g id="line2d_7">
      <g>
       <use style="stroke:#000000;stroke-width:0.8;" x="30.103125" xlink:href="#mf46eb9eb62" y="97.975219"/>
      </g>
     </g>
     <g id="text_7">
      <!-- 0.6 -->
      <defs>
       <path d="M 33.015625 40.375 
Q 26.375 40.375 22.484375 35.828125 
Q 18.609375 31.296875 18.609375 23.390625 
Q 18.609375 15.53125 22.484375 10.953125 
Q 26.375 6.390625 33.015625 6.390625 
Q 39.65625 6.390625 43.53125 10.953125 
Q 47.40625 15.53125 47.40625 23.390625 
Q 47.40625 31.296875 43.53125 35.828125 
Q 39.65625 40.375 33.015625 40.375 
z
M 52.59375 71.296875 
L 52.59375 62.3125 
Q 48.875 64.0625 45.09375 64.984375 
Q 41.3125 65.921875 37.59375 65.921875 
Q 27.828125 65.921875 22.671875 59.328125 
Q 17.53125 52.734375 16.796875 39.40625 
Q 19.671875 43.65625 24.015625 45.921875 
Q 28.375 48.1875 33.59375 48.1875 
Q 44.578125 48.1875 50.953125 41.515625 
Q 57.328125 34.859375 57.328125 23.390625 
Q 57.328125 12.15625 50.6875 5.359375 
Q 44.046875 -1.421875 33.015625 -1.421875 
Q 20.359375 -1.421875 13.671875 8.265625 
Q 6.984375 17.96875 6.984375 36.375 
Q 6.984375 53.65625 15.1875 63.9375 
Q 23.390625 74.21875 37.203125 74.21875 
Q 40.921875 74.21875 44.703125 73.484375 
Q 48.484375 72.75 52.59375 71.296875 
z
" id="DejaVuSans-54"/>
      </defs>
      <g transform="translate(7.2 101.774437)scale(0.1 -0.1)">
       <use xlink:href="#DejaVuSans-48"/>
       <use x="63.623047" xlink:href="#DejaVuSans-46"/>
       <use x="95.410156" xlink:href="#DejaVuSans-54"/>
      </g>
     </g>
    </g>
    <g id="ytick_5">
     <g id="line2d_8">
      <g>
       <use style="stroke:#000000;stroke-width:0.8;" x="30.103125" xlink:href="#mf46eb9eb62" y="54.487219"/>
      </g>
     </g>
     <g id="text_8">
      <!-- 0.8 -->
      <defs>
       <path d="M 31.78125 34.625 
Q 24.75 34.625 20.71875 30.859375 
Q 16.703125 27.09375 16.703125 20.515625 
Q 16.703125 13.921875 20.71875 10.15625 
Q 24.75 6.390625 31.78125 6.390625 
Q 38.8125 6.390625 42.859375 10.171875 
Q 46.921875 13.96875 46.921875 20.515625 
Q 46.921875 27.09375 42.890625 30.859375 
Q 38.875 34.625 31.78125 34.625 
z
M 21.921875 38.8125 
Q 15.578125 40.375 12.03125 44.71875 
Q 8.5 49.078125 8.5 55.328125 
Q 8.5 64.0625 14.71875 69.140625 
Q 20.953125 74.21875 31.78125 74.21875 
Q 42.671875 74.21875 48.875 69.140625 
Q 55.078125 64.0625 55.078125 55.328125 
Q 55.078125 49.078125 51.53125 44.71875 
Q 48 40.375 41.703125 38.8125 
Q 48.828125 37.15625 52.796875 32.3125 
Q 56.78125 27.484375 56.78125 20.515625 
Q 56.78125 9.90625 50.3125 4.234375 
Q 43.84375 -1.421875 31.78125 -1.421875 
Q 19.734375 -1.421875 13.25 4.234375 
Q 6.78125 9.90625 6.78125 20.515625 
Q 6.78125 27.484375 10.78125 32.3125 
Q 14.796875 37.15625 21.921875 38.8125 
z
M 18.3125 54.390625 
Q 18.3125 48.734375 21.84375 45.5625 
Q 25.390625 42.390625 31.78125 42.390625 
Q 38.140625 42.390625 41.71875 45.5625 
Q 45.3125 48.734375 45.3125 54.390625 
Q 45.3125 60.0625 41.71875 63.234375 
Q 38.140625 66.40625 31.78125 66.40625 
Q 25.390625 66.40625 21.84375 63.234375 
Q 18.3125 60.0625 18.3125 54.390625 
z
" id="DejaVuSans-56"/>
      </defs>
      <g transform="translate(7.2 58.286437)scale(0.1 -0.1)">
       <use xlink:href="#DejaVuSans-48"/>
       <use x="63.623047" xlink:href="#DejaVuSans-46"/>
       <use x="95.410156" xlink:href="#DejaVuSans-56"/>
      </g>
     </g>
    </g>
    <g id="ytick_6">
     <g id="line2d_9">
      <g>
       <use style="stroke:#000000;stroke-width:0.8;" x="30.103125" xlink:href="#mf46eb9eb62" y="10.999219"/>
      </g>
     </g>
     <g id="text_9">
      <!-- 1.0 -->
      <g transform="translate(7.2 14.798437)scale(0.1 -0.1)">
       <use xlink:href="#DejaVuSans-49"/>
       <use x="63.623047" xlink:href="#DejaVuSans-46"/>
       <use x="95.410156" xlink:href="#DejaVuSans-48"/>
      </g>
     </g>
    </g>
   </g>
   <g id="patch_3">
    <path d="M 30.103125 228.439219 
L 30.103125 10.999219 
" style="fill:none;stroke:#000000;stroke-linecap:square;stroke-linejoin:miter;stroke-width:0.8;"/>
   </g>
   <g id="patch_4">
    <path d="M 128.573713 228.439219 
L 128.573713 10.999219 
" style="fill:none;stroke:#000000;stroke-linecap:square;stroke-linejoin:miter;stroke-width:0.8;"/>
   </g>
   <g id="patch_5">
    <path d="M 30.103125 228.439219 
L 128.573713 228.439219 
" style="fill:none;stroke:#000000;stroke-linecap:square;stroke-linejoin:miter;stroke-width:0.8;"/>
   </g>
   <g id="patch_6">
    <path d="M 30.103125 10.999219 
L 128.573713 10.999219 
" style="fill:none;stroke:#000000;stroke-linecap:square;stroke-linejoin:miter;stroke-width:0.8;"/>
   </g>
  </g>
  <g id="axes_2">
   <g id="patch_7">
    <path d="M 148.267831 228.439219 
L 246.738419 228.439219 
L 246.738419 10.999219 
L 148.267831 10.999219 
z
" style="fill:#ffffff;"/>
   </g>
   <g id="matplotlib.axis_3">
    <g id="xtick_4">
     <g id="line2d_10">
      <g>
       <use style="stroke:#000000;stroke-width:0.8;" x="148.267831" xlink:href="#m32e2b030f9" y="228.439219"/>
      </g>
     </g>
     <g id="text_10">
      <!-- 0.0 -->
      <g transform="translate(140.316268 243.037656)scale(0.1 -0.1)">
       <use xlink:href="#DejaVuSans-48"/>
       <use x="63.623047" xlink:href="#DejaVuSans-46"/>
       <use x="95.410156" xlink:href="#DejaVuSans-48"/>
      </g>
     </g>
    </g>
    <g id="xtick_5">
     <g id="line2d_11">
      <g>
       <use style="stroke:#000000;stroke-width:0.8;" x="197.503125" xlink:href="#m32e2b030f9" y="228.439219"/>
      </g>
     </g>
     <g id="text_11">
      <!-- 0.5 -->
      <g transform="translate(189.551563 243.037656)scale(0.1 -0.1)">
       <use xlink:href="#DejaVuSans-48"/>
       <use x="63.623047" xlink:href="#DejaVuSans-46"/>
       <use x="95.410156" xlink:href="#DejaVuSans-53"/>
      </g>
     </g>
    </g>
    <g id="xtick_6">
     <g id="line2d_12">
      <g>
       <use style="stroke:#000000;stroke-width:0.8;" x="246.738419" xlink:href="#m32e2b030f9" y="228.439219"/>
      </g>
     </g>
     <g id="text_12">
      <!-- 1.0 -->
      <g transform="translate(238.786857 243.037656)scale(0.1 -0.1)">
       <use xlink:href="#DejaVuSans-49"/>
       <use x="63.623047" xlink:href="#DejaVuSans-46"/>
       <use x="95.410156" xlink:href="#DejaVuSans-48"/>
      </g>
     </g>
    </g>
   </g>
   <g id="matplotlib.axis_4">
    <g id="ytick_7">
     <g id="line2d_13">
      <g>
       <use style="stroke:#000000;stroke-width:0.8;" x="148.267831" xlink:href="#mf46eb9eb62" y="228.439219"/>
      </g>
     </g>
     <g id="text_13">
      <!-- 0.0 -->
      <g transform="translate(125.364706 232.238437)scale(0.1 -0.1)">
       <use xlink:href="#DejaVuSans-48"/>
       <use x="63.623047" xlink:href="#DejaVuSans-46"/>
       <use x="95.410156" xlink:href="#DejaVuSans-48"/>
      </g>
     </g>
    </g>
    <g id="ytick_8">
     <g id="line2d_14">
      <g>
       <use style="stroke:#000000;stroke-width:0.8;" x="148.267831" xlink:href="#mf46eb9eb62" y="184.951219"/>
      </g>
     </g>
     <g id="text_14">
      <!-- 0.2 -->
      <g transform="translate(125.364706 188.750437)scale(0.1 -0.1)">
       <use xlink:href="#DejaVuSans-48"/>
       <use x="63.623047" xlink:href="#DejaVuSans-46"/>
       <use x="95.410156" xlink:href="#DejaVuSans-50"/>
      </g>
     </g>
    </g>
    <g id="ytick_9">
     <g id="line2d_15">
      <g>
       <use style="stroke:#000000;stroke-width:0.8;" x="148.267831" xlink:href="#mf46eb9eb62" y="141.463219"/>
      </g>
     </g>
     <g id="text_15">
      <!-- 0.4 -->
      <g transform="translate(125.364706 145.262437)scale(0.1 -0.1)">
       <use xlink:href="#DejaVuSans-48"/>
       <use x="63.623047" xlink:href="#DejaVuSans-46"/>
       <use x="95.410156" xlink:href="#DejaVuSans-52"/>
      </g>
     </g>
    </g>
    <g id="ytick_10">
     <g id="line2d_16">
      <g>
       <use style="stroke:#000000;stroke-width:0.8;" x="148.267831" xlink:href="#mf46eb9eb62" y="97.975219"/>
      </g>
     </g>
     <g id="text_16">
      <!-- 0.6 -->
      <g transform="translate(125.364706 101.774437)scale(0.1 -0.1)">
       <use xlink:href="#DejaVuSans-48"/>
       <use x="63.623047" xlink:href="#DejaVuSans-46"/>
       <use x="95.410156" xlink:href="#DejaVuSans-54"/>
      </g>
     </g>
    </g>
    <g id="ytick_11">
     <g id="line2d_17">
      <g>
       <use style="stroke:#000000;stroke-width:0.8;" x="148.267831" xlink:href="#mf46eb9eb62" y="54.487219"/>
      </g>
     </g>
     <g id="text_17">
      <!-- 0.8 -->
      <g transform="translate(125.364706 58.286437)scale(0.1 -0.1)">
       <use xlink:href="#DejaVuSans-48"/>
       <use x="63.623047" xlink:href="#DejaVuSans-46"/>
       <use x="95.410156" xlink:href="#DejaVuSans-56"/>
      </g>
     </g>
    </g>
    <g id="ytick_12">
     <g id="line2d_18">
      <g>
       <use style="stroke:#000000;stroke-width:0.8;" x="148.267831" xlink:href="#mf46eb9eb62" y="10.999219"/>
      </g>
     </g>
     <g id="text_18">
      <!-- 1.0 -->
      <g transform="translate(125.364706 14.798437)scale(0.1 -0.1)">
       <use xlink:href="#DejaVuSans-49"/>
       <use x="63.623047" xlink:href="#DejaVuSans-46"/>
       <use x="95.410156" xlink:href="#DejaVuSans-48"/>
      </g>
     </g>
    </g>
   </g>
   <g id="patch_8">
    <path d="M 148.267831 228.439219 
L 148.267831 10.999219 
" style="fill:none;stroke:#000000;stroke-linecap:square;stroke-linejoin:miter;stroke-width:0.8;"/>
   </g>
   <g id="patch_9">
    <path d="M 246.738419 228.439219 
L 246.738419 10.999219 
" style="fill:none;stroke:#000000;stroke-linecap:square;stroke-linejoin:miter;stroke-width:0.8;"/>
   </g>
   <g id="patch_10">
    <path d="M 148.267831 228.439219 
L 246.738419 228.439219 
" style="fill:none;stroke:#000000;stroke-linecap:square;stroke-linejoin:miter;stroke-width:0.8;"/>
   </g>
   <g id="patch_11">
    <path d="M 148.267831 10.999219 
L 246.738419 10.999219 
" style="fill:none;stroke:#000000;stroke-linecap:square;stroke-linejoin:miter;stroke-width:0.8;"/>
   </g>
  </g>
  <g id="axes_3">
   <g id="patch_12">
    <path d="M 266.432537 228.439219 
L 364.903125 228.439219 
L 364.903125 10.999219 
L 266.432537 10.999219 
z
" style="fill:#ffffff;"/>
   </g>
   <g id="line2d_19">
    <path clip-path="url(#p4c4789be4a)" d="M 282.270482 218.555582 
L 282.270482 152.664673 
" style="fill:none;stroke:#808080;stroke-linecap:square;"/>
   </g>
   <g id="line2d_20">
    <path clip-path="url(#p4c4789be4a)" d="M 282.270482 218.555582 
L 285.110984 185.610128 
L 287.951486 152.664673 
" style="fill:none;stroke:#0000ff;stroke-dasharray:1.5,2.475;stroke-dashoffset:0;stroke-width:1.5;"/>
   </g>
   <g id="line2d_21">
    <path clip-path="url(#p4c4789be4a)" d="M 349.06518 218.555582 
L 349.06518 152.664673 
" style="fill:none;stroke:#808080;stroke-linecap:square;"/>
   </g>
   <g id="line2d_22">
    <path clip-path="url(#p4c4789be4a)" d="M 349.06518 218.555582 
L 351.905682 185.610128 
L 354.746185 152.664673 
" style="fill:none;stroke:#0000ff;stroke-dasharray:1.5,2.475;stroke-dashoffset:0;stroke-width:1.5;"/>
   </g>
   <g id="line2d_23">
    <path clip-path="url(#p4c4789be4a)" d="M 282.270482 152.664673 
L 349.06518 152.664673 
" style="fill:none;stroke:#808080;stroke-linecap:square;"/>
   </g>
   <g id="line2d_24">
    <path clip-path="url(#p4c4789be4a)" d="M 287.951486 152.664673 
L 321.348835 152.664673 
L 354.746185 152.664673 
" style="fill:none;stroke:#0000ff;stroke-dasharray:1.5,2.475;stroke-dashoffset:0;stroke-width:1.5;"/>
   </g>
   <g id="line2d_25">
    <path clip-path="url(#p4c4789be4a)" d="M 282.270482 152.664673 
L 282.270482 86.773764 
" style="fill:none;stroke:#808080;stroke-linecap:square;"/>
   </g>
   <g id="line2d_26">
    <path clip-path="url(#p4c4789be4a)" d="M 287.951486 152.664673 
L 280.19109 119.719219 
L 272.430693 86.773764 
" style="fill:none;stroke:#0000ff;stroke-dasharray:1.5,2.475;stroke-dashoffset:0;stroke-width:1.5;"/>
   </g>
   <g id="line2d_27">
    <path clip-path="url(#p4c4789be4a)" d="M 349.06518 152.664673 
L 349.06518 86.773764 
" style="fill:none;stroke:#808080;stroke-linecap:square;"/>
   </g>
   <g id="line2d_28">
    <path clip-path="url(#p4c4789be4a)" d="M 354.746185 152.664673 
L 346.985788 119.719219 
L 339.225392 86.773764 
" style="fill:none;stroke:#0000ff;stroke-dasharray:1.5,2.475;stroke-dashoffset:0;stroke-width:1.5;"/>
   </g>
   <g id="line2d_29">
    <path clip-path="url(#p4c4789be4a)" d="M 282.270482 86.773764 
L 349.06518 86.773764 
" style="fill:none;stroke:#808080;stroke-linecap:square;"/>
   </g>
   <g id="line2d_30">
    <path clip-path="url(#p4c4789be4a)" d="M 272.430693 86.773764 
L 305.828042 86.773764 
L 339.225392 86.773764 
" style="fill:none;stroke:#0000ff;stroke-dasharray:1.5,2.475;stroke-dashoffset:0;stroke-width:1.5;"/>
   </g>
   <g id="line2d_31">
    <path clip-path="url(#p4c4789be4a)" d="M 282.270482 86.773764 
L 282.270482 20.882855 
" style="fill:none;stroke:#808080;stroke-linecap:square;"/>
   </g>
   <g id="line2d_32">
    <path clip-path="url(#p4c4789be4a)" d="M 272.430693 86.773764 
L 283.031592 53.82831 
L 293.632491 20.882855 
" style="fill:none;stroke:#0000ff;stroke-dasharray:1.5,2.475;stroke-dashoffset:0;stroke-width:1.5;"/>
   </g>
   <g id="line2d_33">
    <path clip-path="url(#p4c4789be4a)" d="M 349.06518 86.773764 
L 349.06518 20.882855 
" style="fill:none;stroke:#808080;stroke-linecap:square;"/>
   </g>
   <g id="line2d_34">
    <path clip-path="url(#p4c4789be4a)" d="M 339.225392 86.773764 
L 349.82629 53.82831 
L 360.427189 20.882855 
" style="fill:none;stroke:#0000ff;stroke-dasharray:1.5,2.475;stroke-dashoffset:0;stroke-width:1.5;"/>
   </g>
   <g id="line2d_35">
    <path clip-path="url(#p4c4789be4a)" d="M 282.270482 20.882855 
L 349.06518 20.882855 
" style="fill:none;stroke:#808080;stroke-linecap:square;"/>
   </g>
   <g id="line2d_36">
    <path clip-path="url(#p4c4789be4a)" d="M 293.632491 20.882855 
L 327.02984 20.882855 
L 360.427189 20.882855 
" style="fill:none;stroke:#0000ff;stroke-dasharray:1.5,2.475;stroke-dashoffset:0;stroke-width:1.5;"/>
   </g>
   <g id="line2d_37">
    <path clip-path="url(#p4c4789be4a)" d="M 282.270482 218.555582 
L 282.316036 215.08764 
L 282.446072 211.619697 
L 282.650651 208.151755 
L 282.919834 204.683812 
L 283.243682 201.215869 
L 283.612255 197.747927 
L 284.015616 194.279984 
L 284.443824 190.812042 
L 284.886941 187.344099 
L 285.335027 183.876157 
L 285.778144 180.408214 
L 286.206352 176.940271 
L 286.609712 173.472329 
L 286.978286 170.004386 
L 287.302134 166.536444 
L 287.571317 163.068501 
L 287.775896 159.600558 
L 287.905932 156.132616 
L 287.951486 152.664673 
" style="fill:none;stroke:#0000ff;stroke-linecap:square;stroke-width:1.5;"/>
   </g>
   <g id="line2d_38">
    <path clip-path="url(#p4c4789be4a)" d="M 349.06518 218.555582 
L 349.110734 215.08764 
L 349.24077 211.619697 
L 349.445349 208.151755 
L 349.714533 204.683812 
L 350.03838 201.215869 
L 350.406954 197.747927 
L 350.810315 194.279984 
L 351.238523 190.812042 
L 351.681639 187.344099 
L 352.129726 183.876157 
L 352.572842 180.408214 
L 353.00105 176.940271 
L 353.404411 173.472329 
L 353.772984 170.004386 
L 354.096832 166.536444 
L 354.366015 163.068501 
L 354.570595 159.600558 
L 354.700631 156.132616 
L 354.746185 152.664673 
" style="fill:none;stroke:#0000ff;stroke-linecap:square;stroke-width:1.5;"/>
   </g>
   <g id="line2d_39">
    <path clip-path="url(#p4c4789be4a)" d="M 287.951486 152.664673 
L 291.466997 152.664673 
L 294.982507 152.664673 
L 298.498017 152.664673 
L 302.013528 152.664673 
L 305.529038 152.664673 
L 309.044549 152.664673 
L 312.560059 152.664673 
L 316.07557 152.664673 
L 319.59108 152.664673 
L 323.106591 152.664673 
L 326.622101 152.664673 
L 330.137612 152.664673 
L 333.653122 152.664673 
L 337.168632 152.664673 
L 340.684143 152.664673 
L 344.199653 152.664673 
L 347.715164 152.664673 
L 351.230674 152.664673 
L 354.746185 152.664673 
" style="fill:none;stroke:#0000ff;stroke-linecap:square;stroke-width:1.5;"/>
   </g>
   <g id="line2d_40">
    <path clip-path="url(#p4c4789be4a)" d="M 287.951486 152.664673 
L 287.82703 149.196731 
L 287.471765 145.728788 
L 286.912844 142.260846 
L 286.177423 138.792903 
L 285.292654 135.32496 
L 284.285692 131.857018 
L 283.18369 128.389075 
L 282.013804 124.921133 
L 280.803187 121.45319 
L 279.578992 117.985247 
L 278.368375 114.517305 
L 277.198489 111.049362 
L 276.096488 107.58142 
L 275.089526 104.113477 
L 274.204757 100.645535 
L 273.469335 97.177592 
L 272.910414 93.709649 
L 272.555149 90.241707 
L 272.430693 86.773764 
" style="fill:none;stroke:#0000ff;stroke-linecap:square;stroke-width:1.5;"/>
   </g>
   <g id="line2d_41">
    <path clip-path="url(#p4c4789be4a)" d="M 354.746185 152.664673 
L 354.621729 149.196731 
L 354.266463 145.728788 
L 353.707543 142.260846 
L 352.972121 138.792903 
L 352.087352 135.32496 
L 351.08039 131.857018 
L 349.978389 128.389075 
L 348.808503 124.921133 
L 347.597885 121.45319 
L 346.373691 117.985247 
L 345.163074 114.517305 
L 343.993187 111.049362 
L 342.891186 107.58142 
L 341.884224 104.113477 
L 340.999455 100.645535 
L 340.264034 97.177592 
L 339.705113 93.709649 
L 339.349848 90.241707 
L 339.225392 86.773764 
" style="fill:none;stroke:#0000ff;stroke-linecap:square;stroke-width:1.5;"/>
   </g>
   <g id="line2d_42">
    <path clip-path="url(#p4c4789be4a)" d="M 272.430693 86.773764 
L 275.946204 86.773764 
L 279.461714 86.773764 
L 282.977225 86.773764 
L 286.492735 86.773764 
L 290.008245 86.773764 
L 293.523756 86.773764 
L 297.039266 86.773764 
L 300.554777 86.773764 
L 304.070287 86.773764 
L 307.585798 86.773764 
L 311.101308 86.773764 
L 314.616819 86.773764 
L 318.132329 86.773764 
L 321.64784 86.773764 
L 325.16335 86.773764 
L 328.67886 86.773764 
L 332.194371 86.773764 
L 335.709881 86.773764 
L 339.225392 86.773764 
" style="fill:none;stroke:#0000ff;stroke-linecap:square;stroke-width:1.5;"/>
   </g>
   <g id="line2d_43">
    <path clip-path="url(#p4c4789be4a)" d="M 272.430693 86.773764 
L 272.600703 83.305822 
L 273.086005 79.837879 
L 273.849504 76.369936 
L 274.854109 72.901994 
L 276.062726 69.434051 
L 277.438262 65.966109 
L 278.943623 62.498166 
L 280.541718 59.030224 
L 282.195452 55.562281 
L 283.867732 52.094338 
L 285.521466 48.626396 
L 287.119561 45.158453 
L 288.624922 41.690511 
L 290.000458 38.222568 
L 291.209075 34.754625 
L 292.213679 31.286683 
L 292.977179 27.81874 
L 293.46248 24.350798 
L 293.632491 20.882855 
" style="fill:none;stroke:#0000ff;stroke-linecap:square;stroke-width:1.5;"/>
   </g>
   <g id="line2d_44">
    <path clip-path="url(#p4c4789be4a)" d="M 339.225392 86.773764 
L 339.395402 83.305822 
L 339.880703 79.837879 
L 340.644203 76.369936 
L 341.648808 72.901994 
L 342.857424 69.434051 
L 344.23296 65.966109 
L 345.738322 62.498166 
L 347.336416 59.030224 
L 348.99015 55.562281 
L 350.662431 52.094338 
L 352.316165 48.626396 
L 353.914259 45.158453 
L 355.419621 41.690511 
L 356.795157 38.222568 
L 358.003773 34.754625 
L 359.008378 31.286683 
L 359.771878 27.81874 
L 360.257179 24.350798 
L 360.427189 20.882855 
" style="fill:none;stroke:#0000ff;stroke-linecap:square;stroke-width:1.5;"/>
   </g>
   <g id="line2d_45">
    <path clip-path="url(#p4c4789be4a)" d="M 293.632491 20.882855 
L 297.148001 20.882855 
L 300.663511 20.882855 
L 304.179022 20.882855 
L 307.694532 20.882855 
L 311.210043 20.882855 
L 314.725553 20.882855 
L 318.241064 20.882855 
L 321.756574 20.882855 
L 325.272085 20.882855 
L 328.787595 20.882855 
L 332.303106 20.882855 
L 335.818616 20.882855 
L 339.334126 20.882855 
L 342.849637 20.882855 
L 346.365147 20.882855 
L 349.880658 20.882855 
L 353.396168 20.882855 
L 356.911679 20.882855 
L 360.427189 20.882855 
" style="fill:none;stroke:#0000ff;stroke-linecap:square;stroke-width:1.5;"/>
   </g>
   <g id="line2d_46">
    <path clip-path="url(#p4c4789be4a)" d="M 282.270482 218.555582 
L 282.270482 152.664673 
" style="fill:none;stroke:#808080;stroke-linecap:square;"/>
   </g>
   <g id="line2d_47">
    <path clip-path="url(#p4c4789be4a)" d="M 282.270482 218.555582 
L 276.589477 185.610128 
L 270.908473 152.664673 
" style="fill:none;stroke:#bfbf00;stroke-dasharray:1.5,2.475;stroke-dashoffset:0;stroke-width:1.5;"/>
   </g>
   <g id="line2d_48">
    <path clip-path="url(#p4c4789be4a)" d="M 349.06518 218.555582 
L 349.06518 152.664673 
" style="fill:none;stroke:#808080;stroke-linecap:square;"/>
   </g>
   <g id="line2d_49">
    <path clip-path="url(#p4c4789be4a)" d="M 349.06518 218.555582 
L 343.384176 185.610128 
L 337.703171 152.664673 
" style="fill:none;stroke:#bfbf00;stroke-dasharray:1.5,2.475;stroke-dashoffset:0;stroke-width:1.5;"/>
   </g>
   <g id="line2d_50">
    <path clip-path="url(#p4c4789be4a)" d="M 282.270482 152.664673 
L 349.06518 152.664673 
" style="fill:none;stroke:#808080;stroke-linecap:square;"/>
   </g>
   <g id="line2d_51">
    <path clip-path="url(#p4c4789be4a)" d="M 270.908473 152.664673 
L 304.305822 152.664673 
L 337.703171 152.664673 
" style="fill:none;stroke:#bfbf00;stroke-dasharray:1.5,2.475;stroke-dashoffset:0;stroke-width:1.5;"/>
   </g>
   <g id="line2d_52">
    <path clip-path="url(#p4c4789be4a)" d="M 282.270482 152.664673 
L 282.270482 86.773764 
" style="fill:none;stroke:#808080;stroke-linecap:square;"/>
   </g>
   <g id="line2d_53">
    <path clip-path="url(#p4c4789be4a)" d="M 270.908473 152.664673 
L 276.589477 119.719219 
L 282.270482 86.773764 
" style="fill:none;stroke:#bfbf00;stroke-dasharray:1.5,2.475;stroke-dashoffset:0;stroke-width:1.5;"/>
   </g>
   <g id="line2d_54">
    <path clip-path="url(#p4c4789be4a)" d="M 349.06518 152.664673 
L 349.06518 86.773764 
" style="fill:none;stroke:#808080;stroke-linecap:square;"/>
   </g>
   <g id="line2d_55">
    <path clip-path="url(#p4c4789be4a)" d="M 337.703171 152.664673 
L 343.384176 119.719219 
L 349.06518 86.773764 
" style="fill:none;stroke:#bfbf00;stroke-dasharray:1.5,2.475;stroke-dashoffset:0;stroke-width:1.5;"/>
   </g>
   <g id="line2d_56">
    <path clip-path="url(#p4c4789be4a)" d="M 282.270482 86.773764 
L 349.06518 86.773764 
" style="fill:none;stroke:#808080;stroke-linecap:square;"/>
   </g>
   <g id="line2d_57">
    <path clip-path="url(#p4c4789be4a)" d="M 282.270482 86.773764 
L 315.667831 86.773764 
L 349.06518 86.773764 
" style="fill:none;stroke:#bfbf00;stroke-dasharray:1.5,2.475;stroke-dashoffset:0;stroke-width:1.5;"/>
   </g>
   <g id="line2d_58">
    <path clip-path="url(#p4c4789be4a)" d="M 282.270482 86.773764 
L 282.270482 20.882855 
" style="fill:none;stroke:#808080;stroke-linecap:square;"/>
   </g>
   <g id="line2d_59">
    <path clip-path="url(#p4c4789be4a)" d="M 282.270482 86.773764 
L 287.951486 53.82831 
L 293.632491 20.882855 
" style="fill:none;stroke:#bfbf00;stroke-dasharray:1.5,2.475;stroke-dashoffset:0;stroke-width:1.5;"/>
   </g>
   <g id="line2d_60">
    <path clip-path="url(#p4c4789be4a)" d="M 349.06518 86.773764 
L 349.06518 20.882855 
" style="fill:none;stroke:#808080;stroke-linecap:square;"/>
   </g>
   <g id="line2d_61">
    <path clip-path="url(#p4c4789be4a)" d="M 349.06518 86.773764 
L 354.746185 53.82831 
L 360.427189 20.882855 
" style="fill:none;stroke:#bfbf00;stroke-dasharray:1.5,2.475;stroke-dashoffset:0;stroke-width:1.5;"/>
   </g>
   <g id="line2d_62">
    <path clip-path="url(#p4c4789be4a)" d="M 282.270482 20.882855 
L 349.06518 20.882855 
" style="fill:none;stroke:#808080;stroke-linecap:square;"/>
   </g>
   <g id="line2d_63">
    <path clip-path="url(#p4c4789be4a)" d="M 293.632491 20.882855 
L 327.02984 20.882855 
L 360.427189 20.882855 
" style="fill:none;stroke:#bfbf00;stroke-dasharray:1.5,2.475;stroke-dashoffset:0;stroke-width:1.5;"/>
   </g>
   <g id="line2d_64">
    <path clip-path="url(#p4c4789be4a)" d="M 282.270482 218.555582 
L 282.179373 215.08764 
L 281.919301 211.619697 
L 281.510143 208.151755 
L 280.971777 204.683812 
L 280.324081 201.215869 
L 279.586934 197.747927 
L 278.780213 194.279984 
L 277.923797 190.812042 
L 277.037563 187.344099 
L 276.141391 183.876157 
L 275.255157 180.408214 
L 274.398741 176.940271 
L 273.59202 173.472329 
L 272.854873 170.004386 
L 272.207177 166.536444 
L 271.668811 163.068501 
L 271.259653 159.600558 
L 270.999581 156.132616 
L 270.908473 152.664673 
" style="fill:none;stroke:#bfbf00;stroke-linecap:square;stroke-width:1.5;"/>
   </g>
   <g id="line2d_65">
    <path clip-path="url(#p4c4789be4a)" d="M 349.06518 218.555582 
L 348.974072 215.08764 
L 348.714 211.619697 
L 348.304842 208.151755 
L 347.766476 204.683812 
L 347.11878 201.215869 
L 346.381632 197.747927 
L 345.574912 194.279984 
L 344.718495 190.812042 
L 343.832262 187.344099 
L 342.936089 183.876157 
L 342.049856 180.408214 
L 341.19344 176.940271 
L 340.386719 173.472329 
L 339.649572 170.004386 
L 339.001876 166.536444 
L 338.46351 163.068501 
L 338.054352 159.600558 
L 337.794279 156.132616 
L 337.703171 152.664673 
" style="fill:none;stroke:#bfbf00;stroke-linecap:square;stroke-width:1.5;"/>
   </g>
   <g id="line2d_66">
    <path clip-path="url(#p4c4789be4a)" d="M 270.908473 152.664673 
L 274.423983 152.664673 
L 277.939494 152.664673 
L 281.455004 152.664673 
L 284.970514 152.664673 
L 288.486025 152.664673 
L 292.001535 152.664673 
L 295.517046 152.664673 
L 299.032556 152.664673 
L 302.548067 152.664673 
L 306.063577 152.664673 
L 309.579088 152.664673 
L 313.094598 152.664673 
L 316.610109 152.664673 
L 320.125619 152.664673 
L 323.641129 152.664673 
L 327.15664 152.664673 
L 330.67215 152.664673 
L 334.187661 152.664673 
L 337.703171 152.664673 
" style="fill:none;stroke:#bfbf00;stroke-linecap:square;stroke-width:1.5;"/>
   </g>
   <g id="line2d_67">
    <path clip-path="url(#p4c4789be4a)" d="M 270.908473 152.664673 
L 270.999581 149.196731 
L 271.259653 145.728788 
L 271.668811 142.260846 
L 272.207177 138.792903 
L 272.854873 135.32496 
L 273.59202 131.857018 
L 274.398741 128.389075 
L 275.255157 124.921133 
L 276.141391 121.45319 
L 277.037563 117.985247 
L 277.923797 114.517305 
L 278.780213 111.049362 
L 279.586934 107.58142 
L 280.324081 104.113477 
L 280.971777 100.645535 
L 281.510143 97.177592 
L 281.919301 93.709649 
L 282.179373 90.241707 
L 282.270482 86.773764 
" style="fill:none;stroke:#bfbf00;stroke-linecap:square;stroke-width:1.5;"/>
   </g>
   <g id="line2d_68">
    <path clip-path="url(#p4c4789be4a)" d="M 337.703171 152.664673 
L 337.794279 149.196731 
L 338.054352 145.728788 
L 338.46351 142.260846 
L 339.001876 138.792903 
L 339.649572 135.32496 
L 340.386719 131.857018 
L 341.19344 128.389075 
L 342.049856 124.921133 
L 342.936089 121.45319 
L 343.832262 117.985247 
L 344.718495 114.517305 
L 345.574912 111.049362 
L 346.381632 107.58142 
L 347.11878 104.113477 
L 347.766476 100.645535 
L 348.304842 97.177592 
L 348.714 93.709649 
L 348.974072 90.241707 
L 349.06518 86.773764 
" style="fill:none;stroke:#bfbf00;stroke-linecap:square;stroke-width:1.5;"/>
   </g>
   <g id="line2d_69">
    <path clip-path="url(#p4c4789be4a)" d="M 282.270482 86.773764 
L 285.785992 86.773764 
L 289.301502 86.773764 
L 292.817013 86.773764 
L 296.332523 86.773764 
L 299.848034 86.773764 
L 303.363544 86.773764 
L 306.879055 86.773764 
L 310.394565 86.773764 
L 313.910076 86.773764 
L 317.425586 86.773764 
L 320.941097 86.773764 
L 324.456607 86.773764 
L 327.972117 86.773764 
L 331.487628 86.773764 
L 335.003138 86.773764 
L 338.518649 86.773764 
L 342.034159 86.773764 
L 345.54967 86.773764 
L 349.06518 86.773764 
" style="fill:none;stroke:#bfbf00;stroke-linecap:square;stroke-width:1.5;"/>
   </g>
   <g id="line2d_70">
    <path clip-path="url(#p4c4789be4a)" d="M 282.270482 86.773764 
L 282.36159 83.305822 
L 282.621662 79.837879 
L 283.03082 76.369936 
L 283.569186 72.901994 
L 284.216882 69.434051 
L 284.954029 65.966109 
L 285.76075 62.498166 
L 286.617166 59.030224 
L 287.5034 55.562281 
L 288.399572 52.094338 
L 289.285806 48.626396 
L 290.142222 45.158453 
L 290.948943 41.690511 
L 291.68609 38.222568 
L 292.333786 34.754625 
L 292.872152 31.286683 
L 293.28131 27.81874 
L 293.541382 24.350798 
L 293.632491 20.882855 
" style="fill:none;stroke:#bfbf00;stroke-linecap:square;stroke-width:1.5;"/>
   </g>
   <g id="line2d_71">
    <path clip-path="url(#p4c4789be4a)" d="M 349.06518 86.773764 
L 349.156288 83.305822 
L 349.416361 79.837879 
L 349.825519 76.369936 
L 350.363885 72.901994 
L 351.011581 69.434051 
L 351.748728 65.966109 
L 352.555449 62.498166 
L 353.411865 59.030224 
L 354.298098 55.562281 
L 355.194271 52.094338 
L 356.080504 48.626396 
L 356.93692 45.158453 
L 357.743641 41.690511 
L 358.480789 38.222568 
L 359.128485 34.754625 
L 359.666851 31.286683 
L 360.076009 27.81874 
L 360.336081 24.350798 
L 360.427189 20.882855 
" style="fill:none;stroke:#bfbf00;stroke-linecap:square;stroke-width:1.5;"/>
   </g>
   <g id="line2d_72">
    <path clip-path="url(#p4c4789be4a)" d="M 293.632491 20.882855 
L 297.148001 20.882855 
L 300.663511 20.882855 
L 304.179022 20.882855 
L 307.694532 20.882855 
L 311.210043 20.882855 
L 314.725553 20.882855 
L 318.241064 20.882855 
L 321.756574 20.882855 
L 325.272085 20.882855 
L 328.787595 20.882855 
L 332.303106 20.882855 
L 335.818616 20.882855 
L 339.334126 20.882855 
L 342.849637 20.882855 
L 346.365147 20.882855 
L 349.880658 20.882855 
L 353.396168 20.882855 
L 356.911679 20.882855 
L 360.427189 20.882855 
" style="fill:none;stroke:#bfbf00;stroke-linecap:square;stroke-width:1.5;"/>
   </g>
   <g id="line2d_73">
    <path clip-path="url(#p4c4789be4a)" d="M 282.270482 218.555582 
L 282.270482 152.664673 
" style="fill:none;stroke:#808080;stroke-linecap:square;"/>
   </g>
   <g id="line2d_74">
    <path clip-path="url(#p4c4789be4a)" d="M 282.270482 218.555582 
L 279.429979 185.610128 
L 276.589477 152.664673 
" style="fill:none;stroke:#ffc0cb;stroke-dasharray:1.5,2.475;stroke-dashoffset:0;stroke-width:1.5;"/>
   </g>
   <g id="line2d_75">
    <path clip-path="url(#p4c4789be4a)" d="M 349.06518 218.555582 
L 349.06518 152.664673 
" style="fill:none;stroke:#808080;stroke-linecap:square;"/>
   </g>
   <g id="line2d_76">
    <path clip-path="url(#p4c4789be4a)" d="M 349.06518 218.555582 
L 346.224678 185.610128 
L 343.384176 152.664673 
" style="fill:none;stroke:#ffc0cb;stroke-dasharray:1.5,2.475;stroke-dashoffset:0;stroke-width:1.5;"/>
   </g>
   <g id="line2d_77">
    <path clip-path="url(#p4c4789be4a)" d="M 282.270482 152.664673 
L 349.06518 152.664673 
" style="fill:none;stroke:#808080;stroke-linecap:square;"/>
   </g>
   <g id="line2d_78">
    <path clip-path="url(#p4c4789be4a)" d="M 276.589477 152.664673 
L 309.986826 152.664673 
L 343.384176 152.664673 
" style="fill:none;stroke:#ffc0cb;stroke-dasharray:1.5,2.475;stroke-dashoffset:0;stroke-width:1.5;"/>
   </g>
   <g id="line2d_79">
    <path clip-path="url(#p4c4789be4a)" d="M 282.270482 152.664673 
L 282.270482 86.773764 
" style="fill:none;stroke:#808080;stroke-linecap:square;"/>
   </g>
   <g id="line2d_80">
    <path clip-path="url(#p4c4789be4a)" d="M 276.589477 152.664673 
L 274.510085 119.719219 
L 272.430693 86.773764 
" style="fill:none;stroke:#ffc0cb;stroke-dasharray:1.5,2.475;stroke-dashoffset:0;stroke-width:1.5;"/>
   </g>
   <g id="line2d_81">
    <path clip-path="url(#p4c4789be4a)" d="M 349.06518 152.664673 
L 349.06518 86.773764 
" style="fill:none;stroke:#808080;stroke-linecap:square;"/>
   </g>
   <g id="line2d_82">
    <path clip-path="url(#p4c4789be4a)" d="M 343.384176 152.664673 
L 341.304784 119.719219 
L 339.225392 86.773764 
" style="fill:none;stroke:#ffc0cb;stroke-dasharray:1.5,2.475;stroke-dashoffset:0;stroke-width:1.5;"/>
   </g>
   <g id="line2d_83">
    <path clip-path="url(#p4c4789be4a)" d="M 282.270482 86.773764 
L 349.06518 86.773764 
" style="fill:none;stroke:#808080;stroke-linecap:square;"/>
   </g>
   <g id="line2d_84">
    <path clip-path="url(#p4c4789be4a)" d="M 272.430693 86.773764 
L 305.828042 86.773764 
L 339.225392 86.773764 
" style="fill:none;stroke:#ffc0cb;stroke-dasharray:1.5,2.475;stroke-dashoffset:0;stroke-width:1.5;"/>
   </g>
   <g id="line2d_85">
    <path clip-path="url(#p4c4789be4a)" d="M 282.270482 86.773764 
L 282.270482 20.882855 
" style="fill:none;stroke:#808080;stroke-linecap:square;"/>
   </g>
   <g id="line2d_86">
    <path clip-path="url(#p4c4789be4a)" d="M 272.430693 86.773764 
L 271.669583 53.82831 
L 270.908473 20.882855 
" style="fill:none;stroke:#ffc0cb;stroke-dasharray:1.5,2.475;stroke-dashoffset:0;stroke-width:1.5;"/>
   </g>
   <g id="line2d_87">
    <path clip-path="url(#p4c4789be4a)" d="M 349.06518 86.773764 
L 349.06518 20.882855 
" style="fill:none;stroke:#808080;stroke-linecap:square;"/>
   </g>
   <g id="line2d_88">
    <path clip-path="url(#p4c4789be4a)" d="M 339.225392 86.773764 
L 338.464282 53.82831 
L 337.703171 20.882855 
" style="fill:none;stroke:#ffc0cb;stroke-dasharray:1.5,2.475;stroke-dashoffset:0;stroke-width:1.5;"/>
   </g>
   <g id="line2d_89">
    <path clip-path="url(#p4c4789be4a)" d="M 282.270482 20.882855 
L 349.06518 20.882855 
" style="fill:none;stroke:#808080;stroke-linecap:square;"/>
   </g>
   <g id="line2d_90">
    <path clip-path="url(#p4c4789be4a)" d="M 270.908473 20.882855 
L 304.305822 20.882855 
L 337.703171 20.882855 
" style="fill:none;stroke:#ffc0cb;stroke-dasharray:1.5,2.475;stroke-dashoffset:0;stroke-width:1.5;"/>
   </g>
   <g id="line2d_91">
    <path clip-path="url(#p4c4789be4a)" d="M 282.270482 218.555582 
L 282.224928 215.08764 
L 282.094891 211.619697 
L 281.890312 208.151755 
L 281.621129 204.683812 
L 281.297281 201.215869 
L 280.928708 197.747927 
L 280.525347 194.279984 
L 280.097139 190.812042 
L 279.654022 187.344099 
L 279.205936 183.876157 
L 278.76282 180.408214 
L 278.334611 176.940271 
L 277.931251 173.472329 
L 277.562677 170.004386 
L 277.238829 166.536444 
L 276.969646 163.068501 
L 276.765067 159.600558 
L 276.635031 156.132616 
L 276.589477 152.664673 
" style="fill:none;stroke:#ffc0cb;stroke-linecap:square;stroke-width:1.5;"/>
   </g>
   <g id="line2d_92">
    <path clip-path="url(#p4c4789be4a)" d="M 349.06518 218.555582 
L 349.019626 215.08764 
L 348.88959 211.619697 
L 348.685011 208.151755 
L 348.415828 204.683812 
L 348.09198 201.215869 
L 347.723406 197.747927 
L 347.320046 194.279984 
L 346.891838 190.812042 
L 346.448721 187.344099 
L 346.000635 183.876157 
L 345.557518 180.408214 
L 345.12931 176.940271 
L 344.72595 173.472329 
L 344.357376 170.004386 
L 344.033528 166.536444 
L 343.764345 163.068501 
L 343.559766 159.600558 
L 343.42973 156.132616 
L 343.384176 152.664673 
" style="fill:none;stroke:#ffc0cb;stroke-linecap:square;stroke-width:1.5;"/>
   </g>
   <g id="line2d_93">
    <path clip-path="url(#p4c4789be4a)" d="M 276.589477 152.664673 
L 280.104988 152.664673 
L 283.620498 152.664673 
L 287.136008 152.664673 
L 290.651519 152.664673 
L 294.167029 152.664673 
L 297.68254 152.664673 
L 301.19805 152.664673 
L 304.713561 152.664673 
L 308.229071 152.664673 
L 311.744582 152.664673 
L 315.260092 152.664673 
L 318.775603 152.664673 
L 322.291113 152.664673 
L 325.806623 152.664673 
L 329.322134 152.664673 
L 332.837644 152.664673 
L 336.353155 152.664673 
L 339.868665 152.664673 
L 343.384176 152.664673 
" style="fill:none;stroke:#ffc0cb;stroke-linecap:square;stroke-width:1.5;"/>
   </g>
   <g id="line2d_94">
    <path clip-path="url(#p4c4789be4a)" d="M 276.589477 152.664673 
L 276.556129 149.196731 
L 276.460936 145.728788 
L 276.311174 142.260846 
L 276.114118 138.792903 
L 275.877045 135.32496 
L 275.60723 131.857018 
L 275.31195 128.389075 
L 274.99848 124.921133 
L 274.674096 121.45319 
L 274.346074 117.985247 
L 274.02169 114.517305 
L 273.70822 111.049362 
L 273.41294 107.58142 
L 273.143125 104.113477 
L 272.906052 100.645535 
L 272.708996 97.177592 
L 272.559234 93.709649 
L 272.464041 90.241707 
L 272.430693 86.773764 
" style="fill:none;stroke:#ffc0cb;stroke-linecap:square;stroke-width:1.5;"/>
   </g>
   <g id="line2d_95">
    <path clip-path="url(#p4c4789be4a)" d="M 343.384176 152.664673 
L 343.350828 149.196731 
L 343.255635 145.728788 
L 343.105872 142.260846 
L 342.908817 138.792903 
L 342.671744 135.32496 
L 342.401929 131.857018 
L 342.106649 128.389075 
L 341.793179 124.921133 
L 341.468795 121.45319 
L 341.140773 117.985247 
L 340.816389 114.517305 
L 340.502919 111.049362 
L 340.207638 107.58142 
L 339.937824 104.113477 
L 339.700751 100.645535 
L 339.503695 97.177592 
L 339.353933 93.709649 
L 339.25874 90.241707 
L 339.225392 86.773764 
" style="fill:none;stroke:#ffc0cb;stroke-linecap:square;stroke-width:1.5;"/>
   </g>
   <g id="line2d_96">
    <path clip-path="url(#p4c4789be4a)" d="M 272.430693 86.773764 
L 275.946204 86.773764 
L 279.461714 86.773764 
L 282.977225 86.773764 
L 286.492735 86.773764 
L 290.008245 86.773764 
L 293.523756 86.773764 
L 297.039266 86.773764 
L 300.554777 86.773764 
L 304.070287 86.773764 
L 307.585798 86.773764 
L 311.101308 86.773764 
L 314.616819 86.773764 
L 318.132329 86.773764 
L 321.64784 86.773764 
L 325.16335 86.773764 
L 328.67886 86.773764 
L 332.194371 86.773764 
L 335.709881 86.773764 
L 339.225392 86.773764 
" style="fill:none;stroke:#ffc0cb;stroke-linecap:square;stroke-width:1.5;"/>
   </g>
   <g id="line2d_97">
    <path clip-path="url(#p4c4789be4a)" d="M 272.430693 86.773764 
L 272.418487 83.305822 
L 272.383644 79.837879 
L 272.328827 76.369936 
L 272.2567 72.901994 
L 272.169925 69.434051 
L 272.071166 65.966109 
L 271.963086 62.498166 
L 271.848348 59.030224 
L 271.729615 55.562281 
L 271.609551 52.094338 
L 271.490818 48.626396 
L 271.37608 45.158453 
L 271.268 41.690511 
L 271.169241 38.222568 
L 271.082466 34.754625 
L 271.010339 31.286683 
L 270.955522 27.81874 
L 270.920679 24.350798 
L 270.908473 20.882855 
" style="fill:none;stroke:#ffc0cb;stroke-linecap:square;stroke-width:1.5;"/>
   </g>
   <g id="line2d_98">
    <path clip-path="url(#p4c4789be4a)" d="M 339.225392 86.773764 
L 339.213186 83.305822 
L 339.178343 79.837879 
L 339.123526 76.369936 
L 339.051398 72.901994 
L 338.964624 69.434051 
L 338.865865 65.966109 
L 338.757784 62.498166 
L 338.643046 59.030224 
L 338.524314 55.562281 
L 338.404249 52.094338 
L 338.285517 48.626396 
L 338.170779 45.158453 
L 338.062698 41.690511 
L 337.963939 38.222568 
L 337.877165 34.754625 
L 337.805037 31.286683 
L 337.75022 27.81874 
L 337.715377 24.350798 
L 337.703171 20.882855 
" style="fill:none;stroke:#ffc0cb;stroke-linecap:square;stroke-width:1.5;"/>
   </g>
   <g id="line2d_99">
    <path clip-path="url(#p4c4789be4a)" d="M 270.908473 20.882855 
L 274.423983 20.882855 
L 277.939494 20.882855 
L 281.455004 20.882855 
L 284.970514 20.882855 
L 288.486025 20.882855 
L 292.001535 20.882855 
L 295.517046 20.882855 
L 299.032556 20.882855 
L 302.548067 20.882855 
L 306.063577 20.882855 
L 309.579088 20.882855 
L 313.094598 20.882855 
L 316.610109 20.882855 
L 320.125619 20.882855 
L 323.641129 20.882855 
L 327.15664 20.882855 
L 330.67215 20.882855 
L 334.187661 20.882855 
L 337.703171 20.882855 
" style="fill:none;stroke:#ffc0cb;stroke-linecap:square;stroke-width:1.5;"/>
   </g>
   <g id="matplotlib.axis_5">
    <g id="xtick_7">
     <g id="line2d_100">
      <g>
       <use style="stroke:#000000;stroke-width:0.8;" x="282.270482" xlink:href="#m32e2b030f9" y="228.439219"/>
      </g>
     </g>
     <g id="text_19">
      <!-- 0 -->
      <g transform="translate(279.089232 243.037656)scale(0.1 -0.1)">
       <use xlink:href="#DejaVuSans-48"/>
      </g>
     </g>
    </g>
    <g id="xtick_8">
     <g id="line2d_101">
      <g>
       <use style="stroke:#000000;stroke-width:0.8;" x="337.93273" xlink:href="#m32e2b030f9" y="228.439219"/>
      </g>
     </g>
     <g id="text_20">
      <!-- 20 -->
      <g transform="translate(331.57023 243.037656)scale(0.1 -0.1)">
       <use xlink:href="#DejaVuSans-50"/>
       <use x="63.623047" xlink:href="#DejaVuSans-48"/>
      </g>
     </g>
    </g>
   </g>
   <g id="matplotlib.axis_6">
    <g id="ytick_13">
     <g id="line2d_102">
      <g>
       <use style="stroke:#000000;stroke-width:0.8;" x="266.432537" xlink:href="#mf46eb9eb62" y="218.555582"/>
      </g>
     </g>
     <g id="text_21">
      <!-- 0 -->
      <g transform="translate(253.070037 222.354801)scale(0.1 -0.1)">
       <use xlink:href="#DejaVuSans-48"/>
      </g>
     </g>
    </g>
    <g id="ytick_14">
     <g id="line2d_103">
      <g>
       <use style="stroke:#000000;stroke-width:0.8;" x="266.432537" xlink:href="#mf46eb9eb62" y="191.101037"/>
      </g>
     </g>
     <g id="text_22">
      <!-- 5 -->
      <g transform="translate(253.070037 194.900256)scale(0.1 -0.1)">
       <use xlink:href="#DejaVuSans-53"/>
      </g>
     </g>
    </g>
    <g id="ytick_15">
     <g id="line2d_104">
      <g>
       <use style="stroke:#000000;stroke-width:0.8;" x="266.432537" xlink:href="#mf46eb9eb62" y="163.646491"/>
      </g>
     </g>
     <g id="text_23">
      <!-- 10 -->
      <g transform="translate(246.707537 167.44571)scale(0.1 -0.1)">
       <use xlink:href="#DejaVuSans-49"/>
       <use x="63.623047" xlink:href="#DejaVuSans-48"/>
      </g>
     </g>
    </g>
    <g id="ytick_16">
     <g id="line2d_105">
      <g>
       <use style="stroke:#000000;stroke-width:0.8;" x="266.432537" xlink:href="#mf46eb9eb62" y="136.191946"/>
      </g>
     </g>
     <g id="text_24">
      <!-- 15 -->
      <g transform="translate(246.707537 139.991165)scale(0.1 -0.1)">
       <use xlink:href="#DejaVuSans-49"/>
       <use x="63.623047" xlink:href="#DejaVuSans-53"/>
      </g>
     </g>
    </g>
    <g id="ytick_17">
     <g id="line2d_106">
      <g>
       <use style="stroke:#000000;stroke-width:0.8;" x="266.432537" xlink:href="#mf46eb9eb62" y="108.737401"/>
      </g>
     </g>
     <g id="text_25">
      <!-- 20 -->
      <g transform="translate(246.707537 112.536619)scale(0.1 -0.1)">
       <use xlink:href="#DejaVuSans-50"/>
       <use x="63.623047" xlink:href="#DejaVuSans-48"/>
      </g>
     </g>
    </g>
    <g id="ytick_18">
     <g id="line2d_107">
      <g>
       <use style="stroke:#000000;stroke-width:0.8;" x="266.432537" xlink:href="#mf46eb9eb62" y="81.282855"/>
      </g>
     </g>
     <g id="text_26">
      <!-- 25 -->
      <g transform="translate(246.707537 85.082074)scale(0.1 -0.1)">
       <use xlink:href="#DejaVuSans-50"/>
       <use x="63.623047" xlink:href="#DejaVuSans-53"/>
      </g>
     </g>
    </g>
    <g id="ytick_19">
     <g id="line2d_108">
      <g>
       <use style="stroke:#000000;stroke-width:0.8;" x="266.432537" xlink:href="#mf46eb9eb62" y="53.82831"/>
      </g>
     </g>
     <g id="text_27">
      <!-- 30 -->
      <defs>
       <path d="M 40.578125 39.3125 
Q 47.65625 37.796875 51.625 33 
Q 55.609375 28.21875 55.609375 21.1875 
Q 55.609375 10.40625 48.1875 4.484375 
Q 40.765625 -1.421875 27.09375 -1.421875 
Q 22.515625 -1.421875 17.65625 -0.515625 
Q 12.796875 0.390625 7.625 2.203125 
L 7.625 11.71875 
Q 11.71875 9.328125 16.59375 8.109375 
Q 21.484375 6.890625 26.8125 6.890625 
Q 36.078125 6.890625 40.9375 10.546875 
Q 45.796875 14.203125 45.796875 21.1875 
Q 45.796875 27.640625 41.28125 31.265625 
Q 36.765625 34.90625 28.71875 34.90625 
L 20.21875 34.90625 
L 20.21875 43.015625 
L 29.109375 43.015625 
Q 36.375 43.015625 40.234375 45.921875 
Q 44.09375 48.828125 44.09375 54.296875 
Q 44.09375 59.90625 40.109375 62.90625 
Q 36.140625 65.921875 28.71875 65.921875 
Q 24.65625 65.921875 20.015625 65.03125 
Q 15.375 64.15625 9.8125 62.3125 
L 9.8125 71.09375 
Q 15.4375 72.65625 20.34375 73.4375 
Q 25.25 74.21875 29.59375 74.21875 
Q 40.828125 74.21875 47.359375 69.109375 
Q 53.90625 64.015625 53.90625 55.328125 
Q 53.90625 49.265625 50.4375 45.09375 
Q 46.96875 40.921875 40.578125 39.3125 
z
" id="DejaVuSans-51"/>
      </defs>
      <g transform="translate(246.707537 57.627528)scale(0.1 -0.1)">
       <use xlink:href="#DejaVuSans-51"/>
       <use x="63.623047" xlink:href="#DejaVuSans-48"/>
      </g>
     </g>
    </g>
    <g id="ytick_20">
     <g id="line2d_109">
      <g>
       <use style="stroke:#000000;stroke-width:0.8;" x="266.432537" xlink:href="#mf46eb9eb62" y="26.373764"/>
      </g>
     </g>
     <g id="text_28">
      <!-- 35 -->
      <g transform="translate(246.707537 30.172983)scale(0.1 -0.1)">
       <use xlink:href="#DejaVuSans-51"/>
       <use x="63.623047" xlink:href="#DejaVuSans-53"/>
      </g>
     </g>
    </g>
   </g>
   <g id="line2d_110">
    <path clip-path="url(#p4c4789be4a)" d="M 282.270482 218.555582 
" style="fill:none;stroke:#000000;stroke-linecap:square;stroke-width:1.5;"/>
    <defs>
     <path d="M -2.5 2.5 
L 2.5 2.5 
L 2.5 -2.5 
L -2.5 -2.5 
z
" id="mecc6a27405" style="stroke:#000000;stroke-linejoin:miter;"/>
    </defs>
    <g clip-path="url(#p4c4789be4a)">
     <use style="stroke:#000000;stroke-linejoin:miter;" x="282.270482" xlink:href="#mecc6a27405" y="218.555582"/>
    </g>
   </g>
   <g id="line2d_111">
    <path clip-path="url(#p4c4789be4a)" d="M 349.06518 218.555582 
" style="fill:none;stroke:#000000;stroke-linecap:square;stroke-width:1.5;"/>
    <g clip-path="url(#p4c4789be4a)">
     <use style="stroke:#000000;stroke-linejoin:miter;" x="349.06518" xlink:href="#mecc6a27405" y="218.555582"/>
    </g>
   </g>
   <g id="line2d_112">
    <path clip-path="url(#p4c4789be4a)" d="M 282.270482 152.664673 
" style="fill:none;stroke:#000000;stroke-linecap:square;stroke-width:1.5;"/>
    <g clip-path="url(#p4c4789be4a)">
     <use style="stroke:#000000;stroke-linejoin:miter;" x="282.270482" xlink:href="#mecc6a27405" y="152.664673"/>
    </g>
   </g>
   <g id="line2d_113">
    <path clip-path="url(#p4c4789be4a)" d="M 349.06518 152.664673 
" style="fill:none;stroke:#000000;stroke-linecap:square;stroke-width:1.5;"/>
    <g clip-path="url(#p4c4789be4a)">
     <use style="stroke:#000000;stroke-linejoin:miter;" x="349.06518" xlink:href="#mecc6a27405" y="152.664673"/>
    </g>
   </g>
   <g id="line2d_114">
    <path clip-path="url(#p4c4789be4a)" d="M 282.270482 86.773764 
" style="fill:none;stroke:#000000;stroke-linecap:square;stroke-width:1.5;"/>
    <g clip-path="url(#p4c4789be4a)">
     <use style="stroke:#000000;stroke-linejoin:miter;" x="282.270482" xlink:href="#mecc6a27405" y="86.773764"/>
    </g>
   </g>
   <g id="line2d_115">
    <path clip-path="url(#p4c4789be4a)" d="M 349.06518 86.773764 
" style="fill:none;stroke:#000000;stroke-linecap:square;stroke-width:1.5;"/>
    <g clip-path="url(#p4c4789be4a)">
     <use style="stroke:#000000;stroke-linejoin:miter;" x="349.06518" xlink:href="#mecc6a27405" y="86.773764"/>
    </g>
   </g>
   <g id="line2d_116">
    <path clip-path="url(#p4c4789be4a)" d="M 282.270482 20.882855 
" style="fill:none;stroke:#000000;stroke-linecap:square;stroke-width:1.5;"/>
    <g clip-path="url(#p4c4789be4a)">
     <use style="stroke:#000000;stroke-linejoin:miter;" x="282.270482" xlink:href="#mecc6a27405" y="20.882855"/>
    </g>
   </g>
   <g id="line2d_117">
    <path clip-path="url(#p4c4789be4a)" d="M 349.06518 20.882855 
" style="fill:none;stroke:#000000;stroke-linecap:square;stroke-width:1.5;"/>
    <g clip-path="url(#p4c4789be4a)">
     <use style="stroke:#000000;stroke-linejoin:miter;" x="349.06518" xlink:href="#mecc6a27405" y="20.882855"/>
    </g>
   </g>
   <g id="line2d_118">
    <path clip-path="url(#p4c4789be4a)" d="M 282.270482 218.555582 
" style="fill:none;stroke:#000000;stroke-linecap:square;stroke-width:1.5;"/>
    <g clip-path="url(#p4c4789be4a)">
     <use style="stroke:#000000;stroke-linejoin:miter;" x="282.270482" xlink:href="#mecc6a27405" y="218.555582"/>
    </g>
   </g>
   <g id="line2d_119">
    <path clip-path="url(#p4c4789be4a)" d="M 349.06518 218.555582 
" style="fill:none;stroke:#000000;stroke-linecap:square;stroke-width:1.5;"/>
    <g clip-path="url(#p4c4789be4a)">
     <use style="stroke:#000000;stroke-linejoin:miter;" x="349.06518" xlink:href="#mecc6a27405" y="218.555582"/>
    </g>
   </g>
   <g id="line2d_120">
    <path clip-path="url(#p4c4789be4a)" d="M 282.270482 152.664673 
" style="fill:none;stroke:#000000;stroke-linecap:square;stroke-width:1.5;"/>
    <g clip-path="url(#p4c4789be4a)">
     <use style="stroke:#000000;stroke-linejoin:miter;" x="282.270482" xlink:href="#mecc6a27405" y="152.664673"/>
    </g>
   </g>
   <g id="line2d_121">
    <path clip-path="url(#p4c4789be4a)" d="M 349.06518 152.664673 
" style="fill:none;stroke:#000000;stroke-linecap:square;stroke-width:1.5;"/>
    <g clip-path="url(#p4c4789be4a)">
     <use style="stroke:#000000;stroke-linejoin:miter;" x="349.06518" xlink:href="#mecc6a27405" y="152.664673"/>
    </g>
   </g>
   <g id="line2d_122">
    <path clip-path="url(#p4c4789be4a)" d="M 282.270482 86.773764 
" style="fill:none;stroke:#000000;stroke-linecap:square;stroke-width:1.5;"/>
    <g clip-path="url(#p4c4789be4a)">
     <use style="stroke:#000000;stroke-linejoin:miter;" x="282.270482" xlink:href="#mecc6a27405" y="86.773764"/>
    </g>
   </g>
   <g id="line2d_123">
    <path clip-path="url(#p4c4789be4a)" d="M 349.06518 86.773764 
" style="fill:none;stroke:#000000;stroke-linecap:square;stroke-width:1.5;"/>
    <g clip-path="url(#p4c4789be4a)">
     <use style="stroke:#000000;stroke-linejoin:miter;" x="349.06518" xlink:href="#mecc6a27405" y="86.773764"/>
    </g>
   </g>
   <g id="line2d_124">
    <path clip-path="url(#p4c4789be4a)" d="M 282.270482 20.882855 
" style="fill:none;stroke:#000000;stroke-linecap:square;stroke-width:1.5;"/>
    <g clip-path="url(#p4c4789be4a)">
     <use style="stroke:#000000;stroke-linejoin:miter;" x="282.270482" xlink:href="#mecc6a27405" y="20.882855"/>
    </g>
   </g>
   <g id="line2d_125">
    <path clip-path="url(#p4c4789be4a)" d="M 349.06518 20.882855 
" style="fill:none;stroke:#000000;stroke-linecap:square;stroke-width:1.5;"/>
    <g clip-path="url(#p4c4789be4a)">
     <use style="stroke:#000000;stroke-linejoin:miter;" x="349.06518" xlink:href="#mecc6a27405" y="20.882855"/>
    </g>
   </g>
   <g id="line2d_126">
    <path clip-path="url(#p4c4789be4a)" d="M 282.270482 218.555582 
" style="fill:none;stroke:#000000;stroke-linecap:square;stroke-width:1.5;"/>
    <g clip-path="url(#p4c4789be4a)">
     <use style="stroke:#000000;stroke-linejoin:miter;" x="282.270482" xlink:href="#mecc6a27405" y="218.555582"/>
    </g>
   </g>
   <g id="line2d_127">
    <path clip-path="url(#p4c4789be4a)" d="M 349.06518 218.555582 
" style="fill:none;stroke:#000000;stroke-linecap:square;stroke-width:1.5;"/>
    <g clip-path="url(#p4c4789be4a)">
     <use style="stroke:#000000;stroke-linejoin:miter;" x="349.06518" xlink:href="#mecc6a27405" y="218.555582"/>
    </g>
   </g>
   <g id="line2d_128">
    <path clip-path="url(#p4c4789be4a)" d="M 282.270482 152.664673 
" style="fill:none;stroke:#000000;stroke-linecap:square;stroke-width:1.5;"/>
    <g clip-path="url(#p4c4789be4a)">
     <use style="stroke:#000000;stroke-linejoin:miter;" x="282.270482" xlink:href="#mecc6a27405" y="152.664673"/>
    </g>
   </g>
   <g id="line2d_129">
    <path clip-path="url(#p4c4789be4a)" d="M 349.06518 152.664673 
" style="fill:none;stroke:#000000;stroke-linecap:square;stroke-width:1.5;"/>
    <g clip-path="url(#p4c4789be4a)">
     <use style="stroke:#000000;stroke-linejoin:miter;" x="349.06518" xlink:href="#mecc6a27405" y="152.664673"/>
    </g>
   </g>
   <g id="line2d_130">
    <path clip-path="url(#p4c4789be4a)" d="M 282.270482 86.773764 
" style="fill:none;stroke:#000000;stroke-linecap:square;stroke-width:1.5;"/>
    <g clip-path="url(#p4c4789be4a)">
     <use style="stroke:#000000;stroke-linejoin:miter;" x="282.270482" xlink:href="#mecc6a27405" y="86.773764"/>
    </g>
   </g>
   <g id="line2d_131">
    <path clip-path="url(#p4c4789be4a)" d="M 349.06518 86.773764 
" style="fill:none;stroke:#000000;stroke-linecap:square;stroke-width:1.5;"/>
    <g clip-path="url(#p4c4789be4a)">
     <use style="stroke:#000000;stroke-linejoin:miter;" x="349.06518" xlink:href="#mecc6a27405" y="86.773764"/>
    </g>
   </g>
   <g id="line2d_132">
    <path clip-path="url(#p4c4789be4a)" d="M 282.270482 20.882855 
" style="fill:none;stroke:#000000;stroke-linecap:square;stroke-width:1.5;"/>
    <g clip-path="url(#p4c4789be4a)">
     <use style="stroke:#000000;stroke-linejoin:miter;" x="282.270482" xlink:href="#mecc6a27405" y="20.882855"/>
    </g>
   </g>
   <g id="line2d_133">
    <path clip-path="url(#p4c4789be4a)" d="M 349.06518 20.882855 
" style="fill:none;stroke:#000000;stroke-linecap:square;stroke-width:1.5;"/>
    <g clip-path="url(#p4c4789be4a)">
     <use style="stroke:#000000;stroke-linejoin:miter;" x="349.06518" xlink:href="#mecc6a27405" y="20.882855"/>
    </g>
   </g>
   <g id="patch_13">
    <path d="M 266.432537 228.439219 
L 266.432537 10.999219 
" style="fill:none;stroke:#000000;stroke-linecap:square;stroke-linejoin:miter;stroke-width:0.8;"/>
   </g>
   <g id="patch_14">
    <path d="M 364.903125 228.439219 
L 364.903125 10.999219 
" style="fill:none;stroke:#000000;stroke-linecap:square;stroke-linejoin:miter;stroke-width:0.8;"/>
   </g>
   <g id="patch_15">
    <path d="M 266.432537 228.439219 
L 364.903125 228.439219 
" style="fill:none;stroke:#000000;stroke-linecap:square;stroke-linejoin:miter;stroke-width:0.8;"/>
   </g>
   <g id="patch_16">
    <path d="M 266.432537 10.999219 
L 364.903125 10.999219 
" style="fill:none;stroke:#000000;stroke-linecap:square;stroke-linejoin:miter;stroke-width:0.8;"/>
   </g>
   <g id="legend_1">
    <g id="patch_17">
     <path d="M 273.432537 223.439219 
L 277.432537 223.439219 
Q 279.432537 223.439219 279.432537 221.439219 
L 279.432537 217.439219 
Q 279.432537 215.439219 277.432537 215.439219 
L 273.432537 215.439219 
Q 271.432537 215.439219 271.432537 217.439219 
L 271.432537 221.439219 
Q 271.432537 223.439219 273.432537 223.439219 
z
" style="fill:#ffffff;opacity:0.8;stroke:#cccccc;stroke-linejoin:miter;"/>
    </g>
   </g>
  </g>
 </g>
 <defs>
  <clipPath id="p4c4789be4a">
   <rect height="217.44" width="98.470588" x="266.432537" y="10.999219"/>
  </clipPath>
 </defs>
</svg>
