<?xml version="1.0" encoding="utf-8" standalone="no"?>
<!DOCTYPE svg PUBLIC "-//W3C//DTD SVG 1.1//EN"
  "http://www.w3.org/Graphics/SVG/1.1/DTD/svg11.dtd">
<!-- Created with matplotlib (https://matplotlib.org/) -->
<svg height="296.39952pt" version="1.1" viewBox="0 0 350.562528 296.39952" width="350.562528pt" xmlns="http://www.w3.org/2000/svg" xmlns:xlink="http://www.w3.org/1999/xlink">
 <metadata>
  <rdf:RDF xmlns:cc="http://creativecommons.org/ns#" xmlns:dc="http://purl.org/dc/elements/1.1/" xmlns:rdf="http://www.w3.org/1999/02/22-rdf-syntax-ns#">
   <cc:Work>
    <dc:type rdf:resource="http://purl.org/dc/dcmitype/StillImage"/>
    <dc:date>2021-05-18T08:12:40.299147</dc:date>
    <dc:format>image/svg+xml</dc:format>
    <dc:creator>
     <cc:Agent>
      <dc:title>Matplotlib v3.3.4, https://matplotlib.org/</dc:title>
     </cc:Agent>
    </dc:creator>
   </cc:Work>
  </rdf:RDF>
 </metadata>
 <defs>
  <style type="text/css">*{stroke-linecap:butt;stroke-linejoin:round;}</style>
 </defs>
 <g id="figure_1">
  <g id="patch_1">
   <path d="M 0 296.39952 
L 350.562528 296.39952 
L 350.562528 0 
L 0 0 
z
" style="fill:none;"/>
  </g>
  <g id="axes_1">
   <g id="text_1">
    <!-- $A$:		684.0 -->
    <g transform="translate(269.464867 132.983682)scale(0.1 -0.1)">
     <defs>
      <path d="M 46.203125 71 
L 8.90625 11.515625 
C 5.296875 5.90625 3.5 4.296875 0.09375 3.5 
L -1.90625 3 
L -1.90625 0 
C 7.296875 0 7.296875 0 9.296875 0 
C 11.203125 0.296875 11.40625 0.296875 20 0 
L 20 2.796875 
L 14.796875 3.09375 
C 13.203125 3.1875 11.703125 4.09375 11.703125 5 
C 11.703125 5.796875 12.40625 7.1875 14.296875 10.5 
L 24.5 28 
L 49.09375 28 
L 51.59375 9.1875 
L 51.59375 8.890625 
C 51.59375 8.796875 51.703125 8.5 51.796875 8 
C 51.90625 7.1875 52 6.1875 52 5.796875 
C 52 4.1875 50.5 3.296875 47.703125 3.09375 
L 43.296875 2.796875 
L 43.296875 0 
C 53.5 0 53.5 0 55.5 0 
C 57.5 0.296875 57.5 0.296875 67.703125 0 
L 67.703125 2.796875 
L 65.09375 3.09375 
C 60.40625 3.796875 60.296875 3.796875 59.5 8.296875 
L 50.796875 71 
z
M 44.90625 60.546875 
L 48.59375 31.59375 
L 27 31.59375 
z
" id="URW_Palladio_L_Italic-65"/>
      <path d="M 12.296875 10.59375 
C 9.296875 10.59375 6.59375 7.796875 6.59375 4.796875 
C 6.59375 1.796875 9.296875 -1 12.203125 -1 
C 15.40625 -1 18.203125 1.6875 18.203125 4.796875 
C 18.203125 7.796875 15.40625 10.59375 12.296875 10.59375 
z
M 12.296875 45 
C 9.296875 45 6.59375 42.1875 6.59375 39.1875 
C 6.59375 36.1875 9.296875 33.390625 12.203125 33.390625 
C 15.40625 33.390625 18.203125 36.09375 18.203125 39.09375 
C 18.203125 42.1875 15.40625 45 12.296875 45 
z
" id="URW_Palladio_L_Roman-58"/>
      <path d="M 41.59375 66.984375 
L 37.90625 68.6875 
C 28.296875 65.515625 24.203125 63.53125 19.09375 59.1875 
C 8.796875 50.578125 3.203125 38.484375 3.203125 24.765625 
C 3.203125 8.21875 11.203125 -2 24.09375 -2 
C 37.09375 -2 46.796875 8.3125 46.796875 21.953125 
C 46.796875 33.484375 39.90625 41 29.296875 41 
C 24.296875 41 21.296875 39.6875 15.40625 34.984375 
C 14.296875 34.09375 14.203125 33.984375 13.09375 33.1875 
C 15.203125 51.171875 23.59375 60.859375 41.59375 66.203125 
z
M 25.5 34.984375 
C 33.09375 34.984375 38.203125 28.375 38.203125 18.4375 
C 38.203125 8.015625 33.09375 1.296875 25.40625 1.296875 
C 16.90625 1.296875 12.296875 8.609375 12.296875 22.046875 
C 12.296875 25.5625 12.703125 27.46875 13.796875 29.171875 
C 16 32.578125 20.703125 34.984375 25.5 34.984375 
z
" id="URW_Palladio_L_Roman-54"/>
      <path d="M 16.796875 34.546875 
C 12.703125 32.640625 11 31.546875 8.796875 29.4375 
C 5 25.625 3 21.125 3 15.921875 
C 3 5.59375 11.296875 -2 22.59375 -2 
C 35.59375 -2 46.40625 8.203125 46.40625 20.625 
C 46.40625 28.640625 42.703125 32.9375 31.296875 38.15625 
C 40.40625 44.359375 43.59375 48.5625 43.59375 54.578125 
C 43.59375 63.1875 36.5 69 25.90625 69 
C 14 69 5.296875 61.390625 5.296875 50.875 
C 5.296875 44.0625 8 40.25 16.796875 34.546875 
z
M 28.40625 29.53125 
C 34.703125 26.734375 38.5 21.828125 38.5 16.421875 
C 38.5 8 32.203125 1.390625 24.09375 1.390625 
C 15.59375 1.390625 10.09375 7.40625 10.09375 16.71875 
C 10.09375 24.03125 13 28.640625 20.40625 33.140625 
z
M 22.296875 42.359375 
C 16 45.46875 12.796875 49.46875 12.796875 54.46875 
C 12.796875 61.09375 17.59375 65.59375 24.703125 65.59375 
C 32 65.59375 36.796875 60.78125 36.796875 53.46875 
C 36.796875 47.765625 34.296875 43.859375 27.796875 39.65625 
z
" id="URW_Palladio_L_Roman-56"/>
      <path d="M 28 18 
L 28 10.6875 
C 28 4.84375 26.90625 3.484375 22 3.28125 
L 15.796875 3 
L 15.796875 0 
C 29.09375 0 29.09375 0 31.5 0 
C 33.90625 0.296875 33.90625 0.296875 47.203125 0 
L 47.203125 3 
L 42.40625 3.28125 
C 37.5 3.578125 36.40625 4.84375 36.40625 10.6875 
L 36.40625 18 
C 42.296875 18 44.40625 17.890625 47.203125 17.609375 
L 47.203125 24.6875 
C 42.5 24.296875 40.59375 24.296875 39.09375 24.390625 
L 38.796875 24.390625 
L 36.40625 24.390625 
L 36.40625 38.203125 
C 36.40625 55.875 36.59375 64.40625 37.09375 68.484375 
L 35.90625 69 
L 28.5 66.296875 
L 0.203125 20.296875 
L 1.296875 18 
z
M 28 24.390625 
L 6.5 24.390625 
L 28 59.34375 
z
" id="URW_Palladio_L_Roman-52"/>
      <path d="M 12.40625 10.59375 
C 9.40625 10.59375 6.703125 7.796875 6.703125 4.796875 
C 6.703125 1.796875 9.40625 -1 12.296875 -1 
C 15.5 -1 18.296875 1.6875 18.296875 4.796875 
C 18.296875 7.796875 15.5 10.59375 12.40625 10.59375 
z
" id="URW_Palladio_L_Roman-46"/>
      <path d="M 26.296875 69 
C 10.796875 69 2.90625 56.6875 2.90625 32.4375 
C 2.90625 20.71875 5 10.609375 8.5 5.703125 
C 12 0.796875 17.59375 -2 23.796875 -2 
C 38.90625 -2 46.5 11 46.5 36.640625 
C 46.5 58.578125 40 69 26.296875 69 
z
M 24.5 65.484375 
C 34.203125 65.484375 38.09375 55.671875 38.09375 31.640625 
C 38.09375 10.3125 34.296875 1.5 25.09375 1.5 
C 15.40625 1.5 11.296875 11.609375 11.296875 36.046875 
C 11.296875 57.1875 15 65.484375 24.5 65.484375 
z
" id="URW_Palladio_L_Roman-48"/>
     </defs>
     <use transform="scale(0.996264)" xlink:href="#URW_Palladio_L_Italic-65"/>
     <use transform="translate(73.175573 0)scale(0.996264)" xlink:href="#URW_Palladio_L_Roman-58"/>
     <use transform="translate(128.966206 0)scale(0.996264)" xlink:href="#URW_Palladio_L_Roman-54"/>
     <use transform="translate(178.779406 0)scale(0.996264)" xlink:href="#URW_Palladio_L_Roman-56"/>
     <use transform="translate(228.592607 0)scale(0.996264)" xlink:href="#URW_Palladio_L_Roman-52"/>
     <use transform="translate(278.405807 0)scale(0.996264)" xlink:href="#URW_Palladio_L_Roman-46"/>
     <use transform="translate(303.312408 0)scale(0.996264)" xlink:href="#URW_Palladio_L_Roman-48"/>
    </g>
    <!-- $I_{xx}$:		2.671e+05 -->
    <g transform="translate(269.464867 144.346978)scale(0.1 -0.1)">
     <defs>
      <path d="M 10.296875 66.703125 
L 15 66.5 
C 17.40625 66.390625 18.5 65.59375 18.5 63.890625 
C 18.5 63.203125 17.90625 57.890625 17.59375 56.203125 
L 10.40625 12.796875 
C 8.90625 3.890625 8.59375 3.390625 4.59375 3.09375 
L 1 2.796875 
L 0.703125 0 
L 3.90625 0 
L 13.296875 0 
L 22.703125 0 
L 25.90625 0 
L 26.203125 2.78125 
L 21 3.078125 
C 18.40625 3.28125 17.40625 3.984375 17.40625 5.96875 
C 17.40625 6.5625 17.5 7.65625 17.59375 8.046875 
L 26.5 61.140625 
C 27.203125 65.015625 27.703125 65.515625 31.59375 65.90625 
L 35.09375 66.203125 
L 35.40625 69 
L 34.5 69 
L 24.796875 68.6875 
C 23.09375 68.6875 21.296875 68.6875 17 68.796875 
L 10.59375 69 
z
" id="URW_Palladio_L_Italic-73"/>
      <path d="M 2.09375 8.859375 
C 2.09375 6.875 1.90625 5.59375 1.296875 2.390625 
C 1.09375 1.1875 1 0.890625 0.90625 0.1875 
C 2.40625 -0.609375 4 -1 5.203125 -1 
C 8.5 -1 12.40625 1.890625 15.5 6.578125 
L 23.09375 18.1875 
L 24.203125 11.34375 
C 25.5 2.890625 27.796875 -1 31.40625 -1 
C 33.59375 -1 36.796875 0.6875 40 3.59375 
L 44.90625 7.96875 
L 44 9.859375 
C 40.40625 6.875 37.90625 5.390625 36.296875 5.390625 
C 34.796875 5.390625 33.5 6.390625 32.5 8.375 
C 31.59375 10.25 30.5 13.921875 30 16.796875 
L 28.203125 26.8125 
L 31.703125 31.671875 
C 36.40625 38.109375 39.09375 40.390625 42.203125 40.390625 
C 43.796875 40.390625 45 39.59375 45.5 38.109375 
L 46.90625 38.515625 
L 48.40625 46.984375 
C 47.203125 47.6875 46.296875 48 45.40625 48 
C 41.40625 48 37.40625 44.390625 31.203125 35.234375 
L 27.5 29.78125 
L 26.90625 34.546875 
C 25.703125 44.390625 23 48 17.09375 48 
C 14.5 48 12.296875 47.1875 11.40625 45.890625 
L 5.59375 37.625 
L 7.296875 36.625 
C 10.296875 40 12.296875 41.390625 14.203125 41.390625 
C 17.5 41.390625 19.703125 37.328125 21.40625 27.609375 
L 22.5 21.453125 
L 18.5 15.3125 
C 14.203125 8.671875 10.796875 5.5 8 5.5 
C 6.5 5.5 5.40625 5.890625 5.203125 6.390625 
L 4.09375 9.15625 
z
" id="URW_Palladio_L_Italic-120"/>
      <path d="M 1.59375 2.59375 
L 1.59375 0 
C 20.296875 0 20.296875 0 23.90625 0 
C 27.5 0.296875 27.5 0.296875 46.796875 0 
C 46.59375 2.09375 46.59375 3.09375 46.59375 4.484375 
C 46.59375 5.78125 46.59375 6.78125 46.796875 8.96875 
C 35.296875 8.46875 30.703125 8.375 12.203125 7.96875 
L 30.40625 27.203125 
C 40.09375 37.46875 43.09375 42.953125 43.09375 50.4375 
C 43.09375 61.890625 35.296875 69 22.59375 69 
C 15.40625 69 10.5 66.984375 5.59375 61.984375 
L 3.90625 48.4375 
L 6.796875 48.4375 
L 8.09375 53.03125 
C 9.703125 58.796875 13.296875 61.296875 20 61.296875 
C 28.59375 61.296875 34.09375 55.90625 34.09375 47.4375 
C 34.09375 39.96875 29.90625 32.59375 18.59375 20.625 
z
" id="URW_Palladio_L_Roman-50"/>
      <path d="M 5.59375 1.296875 
L 6.5 0 
C 10.40625 0 10.40625 0 11.09375 0 
C 11.796875 0.296875 11.796875 0.296875 15.703125 0 
C 19.90625 10.9375 24.796875 21.390625 31.40625 33.453125 
L 49.703125 66.484375 
L 49.703125 69.5 
C 38.90625 69.09375 35.40625 69 27.296875 69 
C 20 69 15.09375 69.09375 5.40625 69.5 
L 4.40625 69 
C 4.703125 59.484375 4.703125 59.484375 4.703125 58.484375 
C 4.703125 57.375 4.703125 57.375 4.40625 48.234375 
L 7.40625 48.234375 
L 8.09375 53.859375 
C 8.90625 60.09375 9.59375 60.890625 14.203125 60.890625 
L 40.90625 60.890625 
C 36.90625 52.65625 33.796875 46.8125 30 40.6875 
z
" id="URW_Palladio_L_Roman-55"/>
      <path d="M 6.703125 55.796875 
L 7.703125 55.796875 
L 20.59375 61.59375 
C 20.703125 61.703125 20.796875 61.703125 20.90625 61.703125 
C 21.5 61.703125 21.703125 60.796875 21.703125 58.390625 
L 21.703125 9.890625 
C 21.703125 4.6875 20.59375 3.59375 15.203125 3.296875 
L 9.59375 3 
L 9.59375 0 
C 25 0 25 0 26.09375 0 
C 27.40625 0 29.59375 0 33 -0.109375 
C 34.203125 0.09375 37.703125 0.09375 41.796875 0 
L 41.796875 3 
L 36.59375 3.296875 
C 31.09375 3.578125 30.09375 4.671875 30.09375 9.8125 
L 30.09375 68.484375 
L 28.703125 69 
C 22.203125 65.609375 15.09375 62.640625 6 59.484375 
z
" id="URW_Palladio_L_Roman-49"/>
      <path d="M 43.703125 6.984375 
L 42.40625 7.984375 
C 36 4.1875 33.703125 3.296875 29.40625 3.296875 
C 22.90625 3.296875 17.5 6.1875 14.703125 11.09375 
C 12.796875 14.390625 12.09375 17.1875 11.90625 23 
L 26.5 23 
C 33.40625 23 37.703125 23.296875 44.59375 24.390625 
C 44.703125 25.796875 44.796875 26.6875 44.796875 27.90625 
C 44.796875 39.46875 37.40625 47 26.203125 47 
C 22.5 47 18.203125 45.6875 14.09375 43.296875 
C 5.90625 38.5625 2.59375 32.328125 2.59375 21.890625 
C 2.59375 15.59375 4.09375 10.1875 6.796875 6.390625 
C 10.796875 1.09375 17.5 -2 25 -2 
C 28.703125 -2 32.40625 -1.203125 36.5 0.59375 
C 39.203125 1.6875 41.296875 3 41.703125 3.59375 
z
M 35.90625 26.6875 
C 30.703125 26.5 28.296875 26.390625 24.703125 26.390625 
C 20.09375 26.390625 17.5 26.5 12.09375 27 
C 12.09375 31.71875 12.5 33.9375 13.796875 36.546875 
C 15.90625 40.984375 20.203125 43.6875 25 43.6875 
C 28.296875 43.6875 30.90625 42.390625 32.703125 39.671875 
C 34.90625 36.34375 35.59375 33.4375 35.90625 26.6875 
z
" id="URW_Palladio_L_Roman-101"/>
      <path d="M 27.5 29 
L 5.09375 29 
L 5.09375 23.390625 
L 27.5 23.390625 
L 27.5 0.796875 
L 33.09375 0.796875 
L 33.09375 23.390625 
L 55.5 23.390625 
L 55.5 29 
L 33.09375 29 
L 33.09375 51.296875 
L 27.5 51.296875 
z
" id="URW_Palladio_L_Roman-43"/>
      <path d="M 12.703125 60.796875 
C 25.59375 60.390625 31.203125 60.296875 43.203125 60.296875 
L 43.703125 60.796875 
C 43.5 62.59375 43.5 63.390625 43.5 64.6875 
C 43.5 66.09375 43.5 66.890625 43.703125 68.6875 
L 43.203125 69.1875 
C 35.703125 68.796875 31.203125 68.6875 25.796875 68.6875 
C 20.296875 68.6875 15.90625 68.796875 8.40625 69.1875 
L 7.90625 68.6875 
C 8 62.59375 8.09375 58.1875 8.09375 55 
C 8.09375 46.5 7.796875 36.875 7.5 32.4375 
L 9.5 31.84375 
C 14.203125 36.578125 16.90625 38 21.796875 38 
C 31.40625 38 37.40625 31.125 37.40625 20.234375 
C 37.40625 9.046875 31 2.5 20.09375 2.5 
C 14.703125 2.5 9.703125 4.3125 8.296875 6.921875 
L 3.703125 15.203125 
L 1.296875 13.78125 
C 3.59375 8.03125 4.796875 4.8125 6.203125 0.390625 
C 9 -1.109375 13 -2 17.296875 -2 
C 24 -2 31.09375 0.890625 36.59375 5.71875 
C 42.703125 11.171875 45.90625 18.015625 45.90625 25.484375 
C 45.90625 36.875 37.796875 44.890625 26.40625 44.890625 
C 21.59375 44.890625 18 43.59375 11.796875 39.890625 
z
" id="URW_Palladio_L_Roman-53"/>
     </defs>
     <use transform="scale(0.996264)" xlink:href="#URW_Palladio_L_Italic-73"/>
     <use transform="translate(34.163893 -14.943915)scale(0.757155)" xlink:href="#URW_Palladio_L_Italic-120"/>
     <use transform="translate(75.958123 -14.943915)scale(0.757155)" xlink:href="#URW_Palladio_L_Italic-120"/>
     <use transform="translate(116.016887 0)scale(0.996264)" xlink:href="#URW_Palladio_L_Roman-58"/>
     <use transform="translate(171.807519 0)scale(0.996264)" xlink:href="#URW_Palladio_L_Roman-50"/>
     <use transform="translate(221.62072 0)scale(0.996264)" xlink:href="#URW_Palladio_L_Roman-46"/>
     <use transform="translate(246.52732 0)scale(0.996264)" xlink:href="#URW_Palladio_L_Roman-54"/>
     <use transform="translate(296.340521 0)scale(0.996264)" xlink:href="#URW_Palladio_L_Roman-55"/>
     <use transform="translate(346.153721 0)scale(0.996264)" xlink:href="#URW_Palladio_L_Roman-49"/>
     <use transform="translate(395.966922 0)scale(0.996264)" xlink:href="#URW_Palladio_L_Roman-101"/>
     <use transform="translate(443.687217 0)scale(0.996264)" xlink:href="#URW_Palladio_L_Roman-43"/>
     <use transform="translate(504.060229 0)scale(0.996264)" xlink:href="#URW_Palladio_L_Roman-48"/>
     <use transform="translate(553.873429 0)scale(0.996264)" xlink:href="#URW_Palladio_L_Roman-53"/>
    </g>
    <!-- $y_c$:		8.684 -->
    <g transform="translate(269.464867 155.710274)scale(0.1 -0.1)">
     <defs>
      <path d="M -0.703125 -17.6875 
C -0.796875 -18.375 -0.796875 -18.96875 -0.796875 -19.453125 
C -0.796875 -23.703125 2.90625 -27.203125 7.40625 -27.203125 
C 18 -27.203125 29 -14.921875 34.90625 3.375 
L 49 47.09375 
L 47.90625 48 
C 45 46.890625 42.703125 46.296875 40.5 46.09375 
L 37 32.984375 
C 35.796875 28.3125 32.296875 21.0625 29 16.1875 
C 25.5 11.125 20.59375 6.75 18.40625 6.75 
C 17.203125 6.75 16.296875 9.03125 16.40625 11.515625 
L 16.5 12.8125 
L 18 32.078125 
C 18.203125 35.15625 18.40625 38.9375 18.40625 41.71875 
C 18.40625 46.1875 17.703125 48 16 48 
C 14.703125 48 13.296875 47.296875 8.5 44 
L 0.296875 38.4375 
L 1.40625 36.65625 
L 6.40625 39.640625 
L 6.796875 39.9375 
C 7.796875 40.53125 8.5 40.828125 8.90625 40.828125 
C 10.296875 40.828125 11.09375 38.9375 11.09375 35.65625 
C 11.09375 35.5625 11.09375 34.96875 11 34.171875 
L 9.296875 10.03125 
L 9.203125 6.0625 
C 9.203125 1.890625 11 -1 13.5 -1 
C 17.203125 -1 25.59375 7.453125 33.09375 18.671875 
L 28.203125 1.6875 
C 23.09375 -15.8125 18.09375 -23 11.09375 -23 
C 7.59375 -23 4.90625 -20.34375 4.90625 -16.890625 
C 4.90625 -16.390625 5 -15.609375 5.09375 -14.71875 
L 4.09375 -14.328125 
z
" id="URW_Palladio_L_Italic-121"/>
      <path d="M 34.203125 32.875 
L 36.5 32.875 
C 37.296875 39.3125 38 42.984375 38.90625 45.59375 
C 36.5 47.09375 33 48 29.296875 48 
C 24.796875 48 17.40625 44.390625 11.796875 39.3125 
C 6.296875 34.453125 2.5 24.03125 2.5 13.625 
C 2.5 4.09375 6.703125 -1 14.703125 -1 
C 20.09375 -1 24.90625 1 30.40625 5.484375 
L 35.40625 9.546875 
L 34.59375 11.53125 
L 33.09375 10.546875 
C 25.90625 5.78125 22.09375 4.09375 18.59375 4.09375 
C 13 4.09375 10.09375 8.0625 10.09375 15.90625 
C 10.09375 26.625 13.59375 36.9375 18.5 40.703125 
C 20.59375 42.296875 23 43.09375 26.09375 43.09375 
C 30.59375 43.09375 34.203125 41.203125 34.203125 38.828125 
z
" id="URW_Palladio_L_Italic-99"/>
     </defs>
     <use transform="scale(0.996264)" xlink:href="#URW_Palladio_L_Italic-121"/>
     <use transform="translate(52.004933 -14.943915)scale(0.757155)" xlink:href="#URW_Palladio_L_Italic-99"/>
     <use transform="translate(84.264954 0)scale(0.996264)" xlink:href="#URW_Palladio_L_Roman-58"/>
     <use transform="translate(140.055587 0)scale(0.996264)" xlink:href="#URW_Palladio_L_Roman-56"/>
     <use transform="translate(189.868787 0)scale(0.996264)" xlink:href="#URW_Palladio_L_Roman-46"/>
     <use transform="translate(214.775388 0)scale(0.996264)" xlink:href="#URW_Palladio_L_Roman-54"/>
     <use transform="translate(264.588588 0)scale(0.996264)" xlink:href="#URW_Palladio_L_Roman-56"/>
     <use transform="translate(314.401789 0)scale(0.996264)" xlink:href="#URW_Palladio_L_Roman-52"/>
    </g>
    <!-- $y_{pna}$:		5.7 -->
    <g transform="translate(269.464867 167.073569)scale(0.1 -0.1)">
     <defs>
      <path d="M 11.5 0.296875 
L 12.40625 0 
C 15 -0.703125 16.5 -1 17.59375 -1 
C 23.203125 -1 34.703125 6.265625 39 12.53125 
C 43.09375 18.578125 46.5 29.484375 46.5 36.9375 
C 46.5 43.59375 44.203125 48 40.59375 48 
C 36.40625 48 31.09375 45.390625 25.90625 40.703125 
C 21.796875 37.234375 19.796875 34.65625 16.203125 28.796875 
L 18.59375 40.609375 
C 18.90625 42.296875 19.09375 43.796875 19.09375 44.984375 
C 19.09375 46.890625 18.296875 48 16.90625 48 
C 14.796875 48 11 45.890625 3.59375 40.609375 
L 0.796875 38.625 
L 1.5 36.640625 
L 4.703125 38.71875 
C 7.5 40.5 8.59375 41 9.5 41 
C 10.5 41 11.203125 40.109375 11.203125 38.71875 
C 11.203125 37.921875 11 35.9375 10.796875 34.953125 
L 5 0.890625 
C 4 -5.1875 2.09375 -14.484375 0.09375 -23.65625 
L -0.703125 -27.40625 
L 0 -28 
C 2.09375 -27.3125 4.09375 -26.8125 7.296875 -26.3125 
z
M 14.296875 16.5 
C 16.5 29.1875 27.203125 42.1875 35.5 42.1875 
C 38.09375 42.1875 39.296875 40.015625 39.296875 35.453125 
C 39.296875 27.40625 35.296875 15.59375 30 8.0625 
C 28 5.1875 24.796875 3.6875 20.703125 3.6875 
C 17.59375 3.6875 15.09375 4.390625 12.5 5.96875 
z
" id="URW_Palladio_L_Italic-112"/>
      <path d="M 2.40625 38.609375 
L 3.09375 36.609375 
L 6.296875 38.703125 
C 10 41 10.296875 41.203125 11 41.203125 
C 12.09375 41.203125 12.796875 40.203125 12.796875 38.703125 
C 12.796875 33.625 8.703125 14.359375 4.59375 0.09375 
L 5.296875 -1 
C 7.796875 -0.3125 10.09375 0.296875 12.296875 0.6875 
C 14.203125 13.265625 16.296875 19.75 20.90625 26.640625 
C 26.296875 35.015625 33.796875 41.203125 38.296875 41.203125 
C 39.40625 41.203125 40 40.296875 40 38.8125 
C 40 37.015625 39.703125 34.921875 38.90625 31.71875 
L 33.703125 10.578125 
C 32.796875 6.875 32.40625 4.578125 32.40625 2.984375 
C 32.40625 0.5 33.5 -1 35.40625 -1 
C 38 -1 41.59375 1.09375 51.40625 8.375 
L 50.40625 10.171875 
L 47.796875 8.46875 
C 44.90625 6.578125 42.703125 5.484375 41.703125 5.484375 
C 41 5.484375 40.40625 6.375 40.40625 7.484375 
C 40.40625 7.984375 40.5 9.078125 40.59375 9.46875 
L 47.203125 37.015625 
C 47.90625 39.90625 48.296875 42.703125 48.296875 44.390625 
C 48.296875 46.6875 47.203125 48 45.203125 48 
C 41 48 34.09375 44.203125 28.203125 38.703125 
C 24.40625 35.21875 21.59375 31.828125 16.40625 24.546875 
L 20.203125 40.609375 
C 20.59375 42.40625 20.796875 43.59375 20.796875 44.6875 
C 20.796875 46.796875 20 48 18.5 48 
C 16.40625 48 12.5 45.796875 5.203125 40.609375 
z
" id="URW_Palladio_L_Italic-110"/>
      <path d="M 40.203125 47.09375 
L 39.203125 48 
L 35.90625 46.1875 
C 31.796875 47.59375 30.09375 48 27.40625 48 
C 24.59375 48 22.59375 47.484375 19.90625 46.1875 
C 13.703125 43.09375 10.40625 40.109375 7.90625 35.25 
C 3.5 26.40625 0.40625 14.5 0.40625 6.75 
C 0.40625 2.375 1.90625 -1 3.796875 -1 
C 6 -1 9.796875 1.1875 13.59375 4.5625 
C 17.796875 8.34375 21.703125 12.8125 27.09375 20.359375 
L 24.203125 7.75 
C 23.796875 6.0625 23.59375 4.265625 23.59375 2.6875 
C 23.59375 0.296875 24.5 -1 26 -1 
C 28.296875 -1 32.40625 1.59375 40.59375 8.375 
L 39.90625 10.46875 
C 39.296875 9.96875 39 9.765625 38.59375 9.375 
C 35.40625 6.671875 33.90625 5.78125 32.40625 5.78125 
C 31.5 5.78125 30.90625 6.671875 30.90625 8.078125 
C 30.90625 8.578125 30.90625 8.875 31 9.171875 
z
M 31.90625 41.203125 
C 29.703125 30.328125 27.796875 25.140625 24.40625 19.953125 
C 18.703125 11.5625 12.59375 5.78125 9.40625 5.78125 
C 8.203125 5.78125 7.59375 7.078125 7.59375 9.765625 
C 7.59375 16.15625 10.40625 27.828125 13.90625 35.8125 
C 16.296875 41.296875 18.59375 43.09375 23.40625 43.09375 
C 25.703125 43.09375 27.5 42.6875 31.90625 41.203125 
z
" id="URW_Palladio_L_Italic-97"/>
     </defs>
     <use transform="scale(0.996264)" xlink:href="#URW_Palladio_L_Italic-121"/>
     <use transform="translate(56.169309 -14.943915)scale(0.757155)" xlink:href="#URW_Palladio_L_Italic-112"/>
     <use transform="translate(95.919203 -14.943915)scale(0.757155)" xlink:href="#URW_Palladio_L_Italic-110"/>
     <use transform="translate(141.045709 -14.943915)scale(0.757155)" xlink:href="#URW_Palladio_L_Italic-97"/>
     <use transform="translate(176.107967 0)scale(0.996264)" xlink:href="#URW_Palladio_L_Roman-58"/>
     <use transform="translate(231.898599 0)scale(0.996264)" xlink:href="#URW_Palladio_L_Roman-53"/>
     <use transform="translate(281.7118 0)scale(0.996264)" xlink:href="#URW_Palladio_L_Roman-46"/>
     <use transform="translate(306.6184 0)scale(0.996264)" xlink:href="#URW_Palladio_L_Roman-55"/>
    </g>
   </g>
  </g>
  <g id="axes_2">
   <g id="PatchCollection_1">
    <path clip-path="url(#p2d1666e30e)" d="M 99.572076 200.597955 
L 161.15346 200.597955 
L 161.15346 139.016571 
L 99.572076 139.016571 
z
" style="fill:#808080;fill-opacity:0.3;stroke:#808080;stroke-opacity:0.3;"/>
    <path clip-path="url(#p2d1666e30e)" d="M 27.727128 139.016571 
L 232.998408 139.016571 
L 232.998408 118.489443 
L 27.727128 118.489443 
z
" style="fill:#808080;fill-opacity:0.3;stroke:#808080;stroke-opacity:0.3;"/>
   </g>
   <g id="PathCollection_1">
    <path clip-path="url(#p2d1666e30e)" d="M 130.362768 201.703986 
C 130.980355 201.703986 131.572731 201.458616 132.009432 201.021916 
C 132.446132 200.585216 132.691502 199.99284 132.691502 199.375252 
C 132.691502 198.757665 132.446132 198.165289 132.009432 197.728589 
C 131.572731 197.291888 130.980355 197.046518 130.362768 197.046518 
C 129.745181 197.046518 129.152805 197.291888 128.716104 197.728589 
C 128.279404 198.165289 128.034034 198.757665 128.034034 199.375252 
C 128.034034 199.99284 128.279404 200.585216 128.716104 201.021916 
C 129.152805 201.458616 129.745181 201.703986 130.362768 201.703986 
z
" style="fill:#ff0000;fill-opacity:0.4;stroke:#ff0000;stroke-opacity:0.4;"/>
    <path clip-path="url(#p2d1666e30e)" d="M 130.362768 197.927279 
C 131.314875 197.927279 132.228114 197.549003 132.901355 196.875762 
C 133.574596 196.202521 133.952872 195.289282 133.952872 194.337175 
C 133.952872 193.385069 133.574596 192.47183 132.901355 191.798588 
C 132.228114 191.125347 131.314875 190.747071 130.362768 190.747071 
C 129.410661 190.747071 128.497422 191.125347 127.824181 191.798588 
C 127.15094 192.47183 126.772664 193.385069 126.772664 194.337175 
C 126.772664 195.289282 127.15094 196.202521 127.824181 196.875762 
C 128.497422 197.549003 129.410661 197.927279 130.362768 197.927279 
z
" style="fill:#ff0000;fill-opacity:0.4;stroke:#ff0000;stroke-opacity:0.4;"/>
    <path clip-path="url(#p2d1666e30e)" d="M 130.362768 190.326787 
C 131.513224 190.326787 132.616715 189.869706 133.43021 189.056211 
C 134.243705 188.242716 134.700786 187.139225 134.700786 185.98877 
C 134.700786 184.838314 134.243705 183.734823 133.43021 182.921328 
C 132.616715 182.107833 131.513224 181.650752 130.362768 181.650752 
C 129.212312 181.650752 128.108821 182.107833 127.295326 182.921328 
C 126.481831 183.734823 126.02475 184.838314 126.02475 185.98877 
C 126.02475 187.139225 126.481831 188.242716 127.295326 189.056211 
C 128.108821 189.869706 129.212312 190.326787 130.362768 190.326787 
z
" style="fill:#ff0000;fill-opacity:0.4;stroke:#ff0000;stroke-opacity:0.4;"/>
    <path clip-path="url(#p2d1666e30e)" d="M 130.362768 180.153675 
C 131.60878 180.153675 132.803927 179.658629 133.684991 178.777565 
C 134.566054 177.896502 135.0611 176.701355 135.0611 175.455343 
C 135.0611 174.20933 134.566054 173.014184 133.684991 172.13312 
C 132.803927 171.252056 131.60878 170.75701 130.362768 170.75701 
C 129.116756 170.75701 127.921609 171.252056 127.040545 172.13312 
C 126.159482 173.014184 125.664436 174.20933 125.664436 175.455343 
C 125.664436 176.701355 126.159482 177.896502 127.040545 178.777565 
C 127.921609 179.658629 129.116756 180.153675 130.362768 180.153675 
z
" style="fill:#ff0000;fill-opacity:0.4;stroke:#ff0000;stroke-opacity:0.4;"/>
    <path clip-path="url(#p2d1666e30e)" d="M 130.362768 168.857516 
C 131.60878 168.857516 132.803927 168.36247 133.684991 167.481406 
C 134.566054 166.600342 135.0611 165.405196 135.0611 164.159184 
C 135.0611 162.913171 134.566054 161.718025 133.684991 160.836961 
C 132.803927 159.955897 131.60878 159.460851 130.362768 159.460851 
C 129.116756 159.460851 127.921609 159.955897 127.040545 160.836961 
C 126.159482 161.718025 125.664436 162.913171 125.664436 164.159184 
C 125.664436 165.405196 126.159482 166.600342 127.040545 167.481406 
C 127.921609 168.36247 129.116756 168.857516 130.362768 168.857516 
z
" style="fill:#ff0000;fill-opacity:0.4;stroke:#ff0000;stroke-opacity:0.4;"/>
    <path clip-path="url(#p2d1666e30e)" d="M 130.362768 157.963774 
C 131.513224 157.963774 132.616715 157.506693 133.43021 156.693198 
C 134.243705 155.879703 134.700786 154.776212 134.700786 153.625757 
C 134.700786 152.475301 134.243705 151.37181 133.43021 150.558315 
C 132.616715 149.74482 131.513224 149.287739 130.362768 149.287739 
C 129.212312 149.287739 128.108821 149.74482 127.295326 150.558315 
C 126.481831 151.37181 126.02475 152.475301 126.02475 153.625757 
C 126.02475 154.776212 126.481831 155.879703 127.295326 156.693198 
C 128.108821 157.506693 129.212312 157.963774 130.362768 157.963774 
z
" style="fill:#ff0000;fill-opacity:0.4;stroke:#ff0000;stroke-opacity:0.4;"/>
    <path clip-path="url(#p2d1666e30e)" d="M 130.362768 148.867455 
C 131.314875 148.867455 132.228114 148.489179 132.901355 147.815938 
C 133.574596 147.142697 133.952872 146.229458 133.952872 145.277351 
C 133.952872 144.325244 133.574596 143.412005 132.901355 142.738764 
C 132.228114 142.065523 131.314875 141.687247 130.362768 141.687247 
C 129.410661 141.687247 128.497422 142.065523 127.824181 142.738764 
C 127.15094 143.412005 126.772664 144.325244 126.772664 145.277351 
C 126.772664 146.229458 127.15094 147.142697 127.824181 147.815938 
C 128.497422 148.489179 129.410661 148.867455 130.362768 148.867455 
z
" style="fill:#ff0000;fill-opacity:0.4;stroke:#ff0000;stroke-opacity:0.4;"/>
    <path clip-path="url(#p2d1666e30e)" d="M 130.362768 142.568008 
C 130.980355 142.568008 131.572731 142.322638 132.009432 141.885938 
C 132.446132 141.449237 132.691502 140.856861 132.691502 140.239274 
C 132.691502 139.621686 132.446132 139.029311 132.009432 138.59261 
C 131.572731 138.15591 130.980355 137.91054 130.362768 137.91054 
C 129.745181 137.91054 129.152805 138.15591 128.716104 138.59261 
C 128.279404 139.029311 128.034034 139.621686 128.034034 140.239274 
C 128.034034 140.856861 128.279404 141.449237 128.716104 141.885938 
C 129.152805 142.322638 129.745181 142.568008 130.362768 142.568008 
z
" style="fill:#ff0000;fill-opacity:0.4;stroke:#ff0000;stroke-opacity:0.4;"/>
    <path clip-path="url(#p2d1666e30e)" d="M 130.362768 142.456962 
C 131.653147 142.456962 132.89085 141.944289 133.803286 141.031853 
C 134.715722 140.119417 135.228395 138.881714 135.228395 137.591335 
C 135.228395 136.300955 134.715722 135.063253 133.803286 134.150817 
C 132.89085 133.238381 131.653147 132.725708 130.362768 132.725708 
C 129.072389 132.725708 127.834686 133.238381 126.92225 134.150817 
C 126.009814 135.063253 125.497141 136.300955 125.497141 137.591335 
C 125.497141 138.881714 126.009814 140.119417 126.92225 141.031853 
C 127.834686 141.944289 129.072389 142.456962 130.362768 142.456962 
z
" style="fill:#ff0000;fill-opacity:0.4;stroke:#ff0000;stroke-opacity:0.4;"/>
    <path clip-path="url(#p2d1666e30e)" d="M 130.362768 139.117211 
C 132.185983 139.117211 133.934769 138.39284 135.223976 137.103633 
C 136.513184 135.814425 137.237555 134.065639 137.237555 132.242424 
C 137.237555 130.41921 136.513184 128.670424 135.223976 127.381216 
C 133.934769 126.092009 132.185983 125.367638 130.362768 125.367638 
C 128.539553 125.367638 126.790767 126.092009 125.50156 127.381216 
C 124.212352 128.670424 123.487981 130.41921 123.487981 132.242424 
C 123.487981 134.065639 124.212352 135.814425 125.50156 137.103633 
C 126.790767 138.39284 128.539553 139.117211 130.362768 139.117211 
z
" style="fill:#ff0000;fill-opacity:0.4;stroke:#ff0000;stroke-opacity:0.4;"/>
    <path clip-path="url(#p2d1666e30e)" d="M 130.362768 132.138377 
C 132.185983 132.138377 133.934769 131.414006 135.223976 130.124798 
C 136.513184 128.835591 137.237555 127.086805 137.237555 125.26359 
C 137.237555 123.440375 136.513184 121.691589 135.223976 120.402382 
C 133.934769 119.113174 132.185983 118.388803 130.362768 118.388803 
C 128.539553 118.388803 126.790767 119.113174 125.50156 120.402382 
C 124.212352 121.691589 123.487981 123.440375 123.487981 125.26359 
C 123.487981 127.086805 124.212352 128.835591 125.50156 130.124798 
C 126.790767 131.414006 128.539553 132.138377 130.362768 132.138377 
z
" style="fill:#ff0000;fill-opacity:0.4;stroke:#ff0000;stroke-opacity:0.4;"/>
    <path clip-path="url(#p2d1666e30e)" d="M 130.362768 124.780307 
C 131.653147 124.780307 132.89085 124.267633 133.803286 123.355197 
C 134.715722 122.442761 135.228395 121.205059 135.228395 119.91468 
C 135.228395 118.6243 134.715722 117.386598 133.803286 116.474162 
C 132.89085 115.561726 131.653147 115.049053 130.362768 115.049053 
C 129.072389 115.049053 127.834686 115.561726 126.92225 116.474162 
C 126.009814 117.386598 125.497141 118.6243 125.497141 119.91468 
C 125.497141 121.205059 126.009814 122.442761 126.92225 123.355197 
C 127.834686 124.267633 129.072389 124.780307 130.362768 124.780307 
z
" style="fill:#ff0000;fill-opacity:0.4;stroke:#ff0000;stroke-opacity:0.4;"/>
   </g>
  </g>
 </g>
 <defs>
  <clipPath id="p2d1666e30e">
   <rect height="110.522379" width="246.325536" x="7.2" y="92.938571"/>
  </clipPath>
 </defs>
</svg>
