<?xml version="1.0" encoding="utf-8" standalone="no"?>
<!DOCTYPE svg PUBLIC "-//W3C//DTD SVG 1.1//EN"
  "http://www.w3.org/Graphics/SVG/1.1/DTD/svg11.dtd">
<!-- Created with matplotlib (https://matplotlib.org/) -->
<svg height="164.619474pt" version="1.1" viewBox="0 0 349.2 164.619474" width="349.2pt" xmlns="http://www.w3.org/2000/svg" xmlns:xlink="http://www.w3.org/1999/xlink">
 <metadata>
  <rdf:RDF xmlns:cc="http://creativecommons.org/ns#" xmlns:dc="http://purl.org/dc/elements/1.1/" xmlns:rdf="http://www.w3.org/1999/02/22-rdf-syntax-ns#">
   <cc:Work>
    <dc:type rdf:resource="http://purl.org/dc/dcmitype/StillImage"/>
    <dc:date>2021-05-17T03:38:08.766202</dc:date>
    <dc:format>image/svg+xml</dc:format>
    <dc:creator>
     <cc:Agent>
      <dc:title>Matplotlib v3.3.4, https://matplotlib.org/</dc:title>
     </cc:Agent>
    </dc:creator>
   </cc:Work>
  </rdf:RDF>
 </metadata>
 <defs>
  <style type="text/css">*{stroke-linecap:butt;stroke-linejoin:round;}</style>
 </defs>
 <g id="figure_1">
  <g id="patch_1">
   <path d="M 0 164.619474 
L 349.2 164.619474 
L 349.2 0 
L 0 0 
z
" style="fill:none;"/>
  </g>
  <g id="axes_1">
   <g id="PatchCollection_1">
    <path clip-path="url(#p0f4153afb8)" d="M 132.75 153.528158 
L 216.45 153.528158 
L 216.45 69.828158 
L 132.75 69.828158 
z
" style="fill:#808080;fill-opacity:0.3;stroke:#808080;stroke-opacity:0.3;"/>
    <path clip-path="url(#p0f4153afb8)" d="M 35.1 69.828158 
L 314.1 69.828158 
L 314.1 41.928158 
L 35.1 41.928158 
z
" style="fill:#808080;fill-opacity:0.3;stroke:#808080;stroke-opacity:0.3;"/>
   </g>
   <g id="PathCollection_1">
    <path clip-path="url(#p0f4153afb8)" d="M 174.6 154.195022 
C 175.217587 154.195022 175.809963 153.949652 176.246664 153.512952 
C 176.683364 153.076252 176.928734 152.483876 176.928734 151.866288 
C 176.928734 151.248701 176.683364 150.656325 176.246664 150.219625 
C 175.809963 149.782924 175.217587 149.537554 174.6 149.537554 
C 173.982413 149.537554 173.390037 149.782924 172.953336 150.219625 
C 172.516636 150.656325 172.271266 151.248701 172.271266 151.866288 
C 172.271266 152.483876 172.516636 153.076252 172.953336 153.512952 
C 173.390037 153.949652 173.982413 154.195022 174.6 154.195022 
z
" style="fill:#003262;fill-opacity:0.4;stroke:#003262;stroke-opacity:0.4;"/>
    <path clip-path="url(#p0f4153afb8)" d="M 174.6 148.608754 
C 175.552107 148.608754 176.465346 148.230478 177.138587 147.557237 
C 177.811828 146.883996 178.190104 145.970757 178.190104 145.01865 
C 178.190104 144.066543 177.811828 143.153304 177.138587 142.480063 
C 176.465346 141.806822 175.552107 141.428546 174.6 141.428546 
C 173.647893 141.428546 172.734654 141.806822 172.061413 142.480063 
C 171.388172 143.153304 171.009896 144.066543 171.009896 145.01865 
C 171.009896 145.970757 171.388172 146.883996 172.061413 147.557237 
C 172.734654 148.230478 173.647893 148.608754 174.6 148.608754 
z
" style="fill:#003262;fill-opacity:0.4;stroke:#003262;stroke-opacity:0.4;"/>
    <path clip-path="url(#p0f4153afb8)" d="M 174.6 138.009707 
C 175.750456 138.009707 176.853947 137.552626 177.667442 136.739131 
C 178.480937 135.925636 178.938018 134.822145 178.938018 133.671689 
C 178.938018 132.521234 178.480937 131.417743 177.667442 130.604248 
C 176.853947 129.790753 175.750456 129.333672 174.6 129.333672 
C 173.449544 129.333672 172.346053 129.790753 171.532558 130.604248 
C 170.719063 131.417743 170.261982 132.521234 170.261982 133.671689 
C 170.261982 134.822145 170.719063 135.925636 171.532558 136.739131 
C 172.346053 137.552626 173.449544 138.009707 174.6 138.009707 
z
" style="fill:#003262;fill-opacity:0.4;stroke:#003262;stroke-opacity:0.4;"/>
    <path clip-path="url(#p0f4153afb8)" d="M 174.6 124.05323 
C 175.846012 124.05323 177.041159 123.558184 177.922223 122.67712 
C 178.803286 121.796057 179.298332 120.60091 179.298332 119.354898 
C 179.298332 118.108885 178.803286 116.913739 177.922223 116.032675 
C 177.041159 115.151611 175.846012 114.656565 174.6 114.656565 
C 173.353988 114.656565 172.158841 115.151611 171.277777 116.032675 
C 170.396714 116.913739 169.901668 118.108885 169.901668 119.354898 
C 169.901668 120.60091 170.396714 121.796057 171.277777 122.67712 
C 172.158841 123.558184 173.353988 124.05323 174.6 124.05323 
z
" style="fill:#003262;fill-opacity:0.4;stroke:#003262;stroke-opacity:0.4;"/>
    <path clip-path="url(#p0f4153afb8)" d="M 174.6 108.69975 
C 175.846012 108.69975 177.041159 108.204705 177.922223 107.323641 
C 178.803286 106.442577 179.298332 105.24743 179.298332 104.001418 
C 179.298332 102.755406 178.803286 101.560259 177.922223 100.679195 
C 177.041159 99.798132 175.846012 99.303086 174.6 99.303086 
C 173.353988 99.303086 172.158841 99.798132 171.277777 100.679195 
C 170.396714 101.560259 169.901668 102.755406 169.901668 104.001418 
C 169.901668 105.24743 170.396714 106.442577 171.277777 107.323641 
C 172.158841 108.204705 173.353988 108.69975 174.6 108.69975 
z
" style="fill:#003262;fill-opacity:0.4;stroke:#003262;stroke-opacity:0.4;"/>
    <path clip-path="url(#p0f4153afb8)" d="M 174.6 94.022644 
C 175.750456 94.022644 176.853947 93.565563 177.667442 92.752068 
C 178.480937 91.938573 178.938018 90.835082 178.938018 89.684627 
C 178.938018 88.534171 178.480937 87.43068 177.667442 86.617185 
C 176.853947 85.80369 175.750456 85.346609 174.6 85.346609 
C 173.449544 85.346609 172.346053 85.80369 171.532558 86.617185 
C 170.719063 87.43068 170.261982 88.534171 170.261982 89.684627 
C 170.261982 90.835082 170.719063 91.938573 171.532558 92.752068 
C 172.346053 93.565563 173.449544 94.022644 174.6 94.022644 
z
" style="fill:#003262;fill-opacity:0.4;stroke:#003262;stroke-opacity:0.4;"/>
    <path clip-path="url(#p0f4153afb8)" d="M 174.6 81.92777 
C 175.552107 81.92777 176.465346 81.549494 177.138587 80.876253 
C 177.811828 80.203012 178.190104 79.289773 178.190104 78.337666 
C 178.190104 77.385559 177.811828 76.47232 177.138587 75.799079 
C 176.465346 75.125838 175.552107 74.747562 174.6 74.747562 
C 173.647893 74.747562 172.734654 75.125838 172.061413 75.799079 
C 171.388172 76.47232 171.009896 77.385559 171.009896 78.337666 
C 171.009896 79.289773 171.388172 80.203012 172.061413 80.876253 
C 172.734654 81.549494 173.647893 81.92777 174.6 81.92777 
z
" style="fill:#003262;fill-opacity:0.4;stroke:#003262;stroke-opacity:0.4;"/>
    <path clip-path="url(#p0f4153afb8)" d="M 174.6 73.818761 
C 175.217587 73.818761 175.809963 73.573391 176.246664 73.136691 
C 176.683364 72.699991 176.928734 72.107615 176.928734 71.490027 
C 176.928734 70.87244 176.683364 70.280064 176.246664 69.843364 
C 175.809963 69.406663 175.217587 69.161293 174.6 69.161293 
C 173.982413 69.161293 173.390037 69.406663 172.953336 69.843364 
C 172.516636 70.280064 172.271266 70.87244 172.271266 71.490027 
C 172.271266 72.107615 172.516636 72.699991 172.953336 73.136691 
C 173.390037 73.573391 173.982413 73.818761 174.6 73.818761 
z
" style="fill:#003262;fill-opacity:0.4;stroke:#003262;stroke-opacity:0.4;"/>
    <path clip-path="url(#p0f4153afb8)" d="M 174.6 72.756636 
C 175.890379 72.756636 177.128082 72.243963 178.040518 71.331527 
C 178.952954 70.419091 179.465627 69.181389 179.465627 67.891009 
C 179.465627 66.60063 178.952954 65.362928 178.040518 64.450492 
C 177.128082 63.538056 175.890379 63.025382 174.6 63.025382 
C 173.309621 63.025382 172.071918 63.538056 171.159482 64.450492 
C 170.247046 65.362928 169.734373 66.60063 169.734373 67.891009 
C 169.734373 69.181389 170.247046 70.419091 171.159482 71.331527 
C 172.071918 72.243963 173.309621 72.756636 174.6 72.756636 
z
" style="fill:#003262;fill-opacity:0.4;stroke:#003262;stroke-opacity:0.4;"/>
    <path clip-path="url(#p0f4153afb8)" d="M 174.6 67.49568 
C 176.423215 67.49568 178.172001 66.771309 179.461208 65.482102 
C 180.750416 64.192894 181.474787 62.444108 181.474787 60.620893 
C 181.474787 58.797679 180.750416 57.048893 179.461208 55.759685 
C 178.172001 54.470478 176.423215 53.746107 174.6 53.746107 
C 172.776785 53.746107 171.027999 54.470478 169.738792 55.759685 
C 168.449584 57.048893 167.725213 58.797679 167.725213 60.620893 
C 167.725213 62.444108 168.449584 64.192894 169.738792 65.482102 
C 171.027999 66.771309 172.776785 67.49568 174.6 67.49568 
z
" style="fill:#003262;fill-opacity:0.4;stroke:#003262;stroke-opacity:0.4;"/>
    <path clip-path="url(#p0f4153afb8)" d="M 174.6 58.010209 
C 176.423215 58.010209 178.172001 57.285838 179.461208 55.996631 
C 180.750416 54.707423 181.474787 52.958637 181.474787 51.135422 
C 181.474787 49.312208 180.750416 47.563422 179.461208 46.274214 
C 178.172001 44.985006 176.423215 44.260636 174.6 44.260636 
C 172.776785 44.260636 171.027999 44.985006 169.738792 46.274214 
C 168.449584 47.563422 167.725213 49.312208 167.725213 51.135422 
C 167.725213 52.958637 168.449584 54.707423 169.738792 55.996631 
C 171.027999 57.285838 172.776785 58.010209 174.6 58.010209 
z
" style="fill:#003262;fill-opacity:0.4;stroke:#003262;stroke-opacity:0.4;"/>
    <path clip-path="url(#p0f4153afb8)" d="M 174.6 48.730933 
C 175.890379 48.730933 177.128082 48.21826 178.040518 47.305824 
C 178.952954 46.393388 179.465627 45.155686 179.465627 43.865306 
C 179.465627 42.574927 178.952954 41.337224 178.040518 40.424788 
C 177.128082 39.512352 175.890379 38.999679 174.6 38.999679 
C 173.309621 38.999679 172.071918 39.512352 171.159482 40.424788 
C 170.247046 41.337224 169.734373 42.574927 169.734373 43.865306 
C 169.734373 45.155686 170.247046 46.393388 171.159482 47.305824 
C 172.071918 48.21826 173.309621 48.730933 174.6 48.730933 
z
" style="fill:#003262;fill-opacity:0.4;stroke:#003262;stroke-opacity:0.4;"/>
   </g>
  </g>
 </g>
 <defs>
  <clipPath id="p0f4153afb8">
   <rect height="150.219474" width="334.8" x="7.2" y="7.2"/>
  </clipPath>
 </defs>
</svg>
