<?xml version="1.0" encoding="utf-8" standalone="no"?>
<!DOCTYPE svg PUBLIC "-//W3C//DTD SVG 1.1//EN"
  "http://www.w3.org/Graphics/SVG/1.1/DTD/svg11.dtd">
<!-- Created with matplotlib (https://matplotlib.org/) -->
<svg height="263.63625pt" version="1.1" viewBox="0 0 372.10625 263.63625" width="372.10625pt" xmlns="http://www.w3.org/2000/svg" xmlns:xlink="http://www.w3.org/1999/xlink">
 <defs>
  <style type="text/css">
*{stroke-linecap:butt;stroke-linejoin:round;}
  </style>
 </defs>
 <g id="figure_1">
  <g id="patch_1">
   <path d="M -0 263.63625 
L 372.10625 263.63625 
L 372.10625 0 
L -0 0 
z
" style="fill:none;"/>
  </g>
  <g id="axes_1">
   <g id="patch_2">
    <path d="M 26.925 239.758125 
L 179.106818 239.758125 
L 179.106818 22.318125 
L 26.925 22.318125 
z
" style="fill:#ffffff;"/>
   </g>
   <g id="PathCollection_1">
    <defs>
     <path d="M 0 3 
C 0.795609 3 1.55874 2.683901 2.12132 2.12132 
C 2.683901 1.55874 3 0.795609 3 0 
C 3 -0.795609 2.683901 -1.55874 2.12132 -2.12132 
C 1.55874 -2.683901 0.795609 -3 0 -3 
C -0.795609 -3 -1.55874 -2.683901 -2.12132 -2.12132 
C -2.683901 -1.55874 -3 -0.795609 -3 0 
C -3 0.795609 -2.683901 1.55874 -2.12132 2.12132 
C -1.55874 2.683901 -0.795609 3 0 3 
z
" id="m3a734c09aa" style="stroke:#ff0000;"/>
    </defs>
    <g clip-path="url(#pbecd29c23d)">
     <use style="fill:#ff0000;stroke:#ff0000;" x="105.618429" xlink:href="#m3a734c09aa" y="90.698612"/>
    </g>
   </g>
   <g id="matplotlib.axis_1">
    <g id="xtick_1">
     <g id="line2d_1">
      <defs>
       <path d="M 0 0 
L 0 3.5 
" id="m4d85bbf8aa" style="stroke:#000000;stroke-width:0.8;"/>
      </defs>
      <g>
       <use style="stroke:#000000;stroke-width:0.8;" x="58.378027" xlink:href="#m4d85bbf8aa" y="239.758125"/>
      </g>
     </g>
     <g id="text_1">
      <!-- 500 -->
      <defs>
       <path d="M 10.796875 72.90625 
L 49.515625 72.90625 
L 49.515625 64.59375 
L 19.828125 64.59375 
L 19.828125 46.734375 
Q 21.96875 47.46875 24.109375 47.828125 
Q 26.265625 48.1875 28.421875 48.1875 
Q 40.625 48.1875 47.75 41.5 
Q 54.890625 34.8125 54.890625 23.390625 
Q 54.890625 11.625 47.5625 5.09375 
Q 40.234375 -1.421875 26.90625 -1.421875 
Q 22.3125 -1.421875 17.546875 -0.640625 
Q 12.796875 0.140625 7.71875 1.703125 
L 7.71875 11.625 
Q 12.109375 9.234375 16.796875 8.0625 
Q 21.484375 6.890625 26.703125 6.890625 
Q 35.15625 6.890625 40.078125 11.328125 
Q 45.015625 15.765625 45.015625 23.390625 
Q 45.015625 31 40.078125 35.4375 
Q 35.15625 39.890625 26.703125 39.890625 
Q 22.75 39.890625 18.8125 39.015625 
Q 14.890625 38.140625 10.796875 36.28125 
z
" id="DejaVuSans-53"/>
       <path d="M 31.78125 66.40625 
Q 24.171875 66.40625 20.328125 58.90625 
Q 16.5 51.421875 16.5 36.375 
Q 16.5 21.390625 20.328125 13.890625 
Q 24.171875 6.390625 31.78125 6.390625 
Q 39.453125 6.390625 43.28125 13.890625 
Q 47.125 21.390625 47.125 36.375 
Q 47.125 51.421875 43.28125 58.90625 
Q 39.453125 66.40625 31.78125 66.40625 
z
M 31.78125 74.21875 
Q 44.046875 74.21875 50.515625 64.515625 
Q 56.984375 54.828125 56.984375 36.375 
Q 56.984375 17.96875 50.515625 8.265625 
Q 44.046875 -1.421875 31.78125 -1.421875 
Q 19.53125 -1.421875 13.0625 8.265625 
Q 6.59375 17.96875 6.59375 36.375 
Q 6.59375 54.828125 13.0625 64.515625 
Q 19.53125 74.21875 31.78125 74.21875 
z
" id="DejaVuSans-48"/>
      </defs>
      <g transform="translate(48.834277 254.356563)scale(0.1 -0.1)">
       <use xlink:href="#DejaVuSans-53"/>
       <use x="63.623047" xlink:href="#DejaVuSans-48"/>
       <use x="127.246094" xlink:href="#DejaVuSans-48"/>
      </g>
     </g>
    </g>
    <g id="xtick_2">
     <g id="line2d_2">
      <g>
       <use style="stroke:#000000;stroke-width:0.8;" x="90.148762" xlink:href="#m4d85bbf8aa" y="239.758125"/>
      </g>
     </g>
     <g id="text_2">
      <!-- 1000 -->
      <defs>
       <path d="M 12.40625 8.296875 
L 28.515625 8.296875 
L 28.515625 63.921875 
L 10.984375 60.40625 
L 10.984375 69.390625 
L 28.421875 72.90625 
L 38.28125 72.90625 
L 38.28125 8.296875 
L 54.390625 8.296875 
L 54.390625 0 
L 12.40625 0 
z
" id="DejaVuSans-49"/>
      </defs>
      <g transform="translate(77.423762 254.356563)scale(0.1 -0.1)">
       <use xlink:href="#DejaVuSans-49"/>
       <use x="63.623047" xlink:href="#DejaVuSans-48"/>
       <use x="127.246094" xlink:href="#DejaVuSans-48"/>
       <use x="190.869141" xlink:href="#DejaVuSans-48"/>
      </g>
     </g>
    </g>
    <g id="xtick_3">
     <g id="line2d_3">
      <g>
       <use style="stroke:#000000;stroke-width:0.8;" x="121.919496" xlink:href="#m4d85bbf8aa" y="239.758125"/>
      </g>
     </g>
     <g id="text_3">
      <!-- 1500 -->
      <g transform="translate(109.194496 254.356563)scale(0.1 -0.1)">
       <use xlink:href="#DejaVuSans-49"/>
       <use x="63.623047" xlink:href="#DejaVuSans-53"/>
       <use x="127.246094" xlink:href="#DejaVuSans-48"/>
       <use x="190.869141" xlink:href="#DejaVuSans-48"/>
      </g>
     </g>
    </g>
    <g id="xtick_4">
     <g id="line2d_4">
      <g>
       <use style="stroke:#000000;stroke-width:0.8;" x="153.690231" xlink:href="#m4d85bbf8aa" y="239.758125"/>
      </g>
     </g>
     <g id="text_4">
      <!-- 2000 -->
      <defs>
       <path d="M 19.1875 8.296875 
L 53.609375 8.296875 
L 53.609375 0 
L 7.328125 0 
L 7.328125 8.296875 
Q 12.9375 14.109375 22.625 23.890625 
Q 32.328125 33.6875 34.8125 36.53125 
Q 39.546875 41.84375 41.421875 45.53125 
Q 43.3125 49.21875 43.3125 52.78125 
Q 43.3125 58.59375 39.234375 62.25 
Q 35.15625 65.921875 28.609375 65.921875 
Q 23.96875 65.921875 18.8125 64.3125 
Q 13.671875 62.703125 7.8125 59.421875 
L 7.8125 69.390625 
Q 13.765625 71.78125 18.9375 73 
Q 24.125 74.21875 28.421875 74.21875 
Q 39.75 74.21875 46.484375 68.546875 
Q 53.21875 62.890625 53.21875 53.421875 
Q 53.21875 48.921875 51.53125 44.890625 
Q 49.859375 40.875 45.40625 35.40625 
Q 44.1875 33.984375 37.640625 27.21875 
Q 31.109375 20.453125 19.1875 8.296875 
z
" id="DejaVuSans-50"/>
      </defs>
      <g transform="translate(140.965231 254.356563)scale(0.1 -0.1)">
       <use xlink:href="#DejaVuSans-50"/>
       <use x="63.623047" xlink:href="#DejaVuSans-48"/>
       <use x="127.246094" xlink:href="#DejaVuSans-48"/>
       <use x="190.869141" xlink:href="#DejaVuSans-48"/>
      </g>
     </g>
    </g>
   </g>
   <g id="matplotlib.axis_2">
    <g id="ytick_1">
     <g id="line2d_5">
      <defs>
       <path d="M 0 0 
L -3.5 0 
" id="m3266cf7e78" style="stroke:#000000;stroke-width:0.8;"/>
      </defs>
      <g>
       <use style="stroke:#000000;stroke-width:0.8;" x="26.925" xlink:href="#m3266cf7e78" y="197.487267"/>
      </g>
     </g>
     <g id="text_5">
      <!-- 10 -->
      <g transform="translate(7.2 201.286486)scale(0.1 -0.1)">
       <use xlink:href="#DejaVuSans-49"/>
       <use x="63.623047" xlink:href="#DejaVuSans-48"/>
      </g>
     </g>
    </g>
    <g id="ytick_2">
     <g id="line2d_6">
      <g>
       <use style="stroke:#000000;stroke-width:0.8;" x="26.925" xlink:href="#m3266cf7e78" y="155.215986"/>
      </g>
     </g>
     <g id="text_6">
      <!-- 20 -->
      <g transform="translate(7.2 159.015205)scale(0.1 -0.1)">
       <use xlink:href="#DejaVuSans-50"/>
       <use x="63.623047" xlink:href="#DejaVuSans-48"/>
      </g>
     </g>
    </g>
    <g id="ytick_3">
     <g id="line2d_7">
      <g>
       <use style="stroke:#000000;stroke-width:0.8;" x="26.925" xlink:href="#m3266cf7e78" y="112.944706"/>
      </g>
     </g>
     <g id="text_7">
      <!-- 30 -->
      <defs>
       <path d="M 40.578125 39.3125 
Q 47.65625 37.796875 51.625 33 
Q 55.609375 28.21875 55.609375 21.1875 
Q 55.609375 10.40625 48.1875 4.484375 
Q 40.765625 -1.421875 27.09375 -1.421875 
Q 22.515625 -1.421875 17.65625 -0.515625 
Q 12.796875 0.390625 7.625 2.203125 
L 7.625 11.71875 
Q 11.71875 9.328125 16.59375 8.109375 
Q 21.484375 6.890625 26.8125 6.890625 
Q 36.078125 6.890625 40.9375 10.546875 
Q 45.796875 14.203125 45.796875 21.1875 
Q 45.796875 27.640625 41.28125 31.265625 
Q 36.765625 34.90625 28.71875 34.90625 
L 20.21875 34.90625 
L 20.21875 43.015625 
L 29.109375 43.015625 
Q 36.375 43.015625 40.234375 45.921875 
Q 44.09375 48.828125 44.09375 54.296875 
Q 44.09375 59.90625 40.109375 62.90625 
Q 36.140625 65.921875 28.71875 65.921875 
Q 24.65625 65.921875 20.015625 65.03125 
Q 15.375 64.15625 9.8125 62.3125 
L 9.8125 71.09375 
Q 15.4375 72.65625 20.34375 73.4375 
Q 25.25 74.21875 29.59375 74.21875 
Q 40.828125 74.21875 47.359375 69.109375 
Q 53.90625 64.015625 53.90625 55.328125 
Q 53.90625 49.265625 50.4375 45.09375 
Q 46.96875 40.921875 40.578125 39.3125 
z
" id="DejaVuSans-51"/>
      </defs>
      <g transform="translate(7.2 116.743924)scale(0.1 -0.1)">
       <use xlink:href="#DejaVuSans-51"/>
       <use x="63.623047" xlink:href="#DejaVuSans-48"/>
      </g>
     </g>
    </g>
    <g id="ytick_4">
     <g id="line2d_8">
      <g>
       <use style="stroke:#000000;stroke-width:0.8;" x="26.925" xlink:href="#m3266cf7e78" y="70.673425"/>
      </g>
     </g>
     <g id="text_8">
      <!-- 40 -->
      <defs>
       <path d="M 37.796875 64.3125 
L 12.890625 25.390625 
L 37.796875 25.390625 
z
M 35.203125 72.90625 
L 47.609375 72.90625 
L 47.609375 25.390625 
L 58.015625 25.390625 
L 58.015625 17.1875 
L 47.609375 17.1875 
L 47.609375 0 
L 37.796875 0 
L 37.796875 17.1875 
L 4.890625 17.1875 
L 4.890625 26.703125 
z
" id="DejaVuSans-52"/>
      </defs>
      <g transform="translate(7.2 74.472644)scale(0.1 -0.1)">
       <use xlink:href="#DejaVuSans-52"/>
       <use x="63.623047" xlink:href="#DejaVuSans-48"/>
      </g>
     </g>
    </g>
    <g id="ytick_5">
     <g id="line2d_9">
      <g>
       <use style="stroke:#000000;stroke-width:0.8;" x="26.925" xlink:href="#m3266cf7e78" y="28.402144"/>
      </g>
     </g>
     <g id="text_9">
      <!-- 50 -->
      <g transform="translate(7.2 32.201363)scale(0.1 -0.1)">
       <use xlink:href="#DejaVuSans-53"/>
       <use x="63.623047" xlink:href="#DejaVuSans-48"/>
      </g>
     </g>
    </g>
   </g>
   <g id="LineCollection_1"/>
   <g id="LineCollection_2">
    <path clip-path="url(#pbecd29c23d)" d="M 73.040702 225.131835 
L 74.577893 225.49937 
L 76.115083 225.699302 
L 79.189463 225.766279 
L 82.263843 225.527444 
L 86.875413 224.777457 
L 89.949793 224.073747 
L 96.098554 222.239417 
L 99.176265 221.107583 
L 102.442861 219.775402 
L 105.357326 218.44322 
L 108.396074 216.916999 
L 111.470455 215.199507 
L 114.777761 213.114494 
L 118.525103 210.450131 
L 121.776609 207.785768 
L 124.625348 205.121405 
L 127.10155 202.457042 
L 129.27803 199.792679 
L 131.984742 195.796134 
L 133.45827 193.131771 
L 134.674961 190.467408 
L 135.674742 187.803045 
L 136.434367 185.138682 
L 136.973586 182.474319 
L 137.27703 179.809955 
L 137.355764 177.145592 
L 137.205489 174.481229 
L 136.80786 171.816866 
L 136.065496 168.956379 
L 135.178945 166.48814 
L 133.876683 163.823777 
L 132.159063 161.159414 
L 131.104572 159.827232 
L 129.888365 158.495051 
L 128.379545 157.083358 
L 126.780859 155.830688 
L 124.682178 154.498506 
L 123.767975 153.99806 
L 121.878268 153.166324 
L 120.693595 152.725581 
L 119.156405 152.281562 
L 116.082025 151.747083 
L 113.007645 151.633391 
L 109.933264 151.932874 
L 106.858884 152.617131 
L 103.784504 153.70572 
L 100.710124 155.195536 
L 97.568957 157.162869 
L 94.561364 159.442048 
L 91.247556 162.491595 
L 88.412603 165.537947 
L 86.532683 167.820321 
L 83.597114 171.816866 
L 81.013998 175.813411 
L 78.706695 179.809955 
L 76.637632 183.8065 
L 73.625276 190.467408 
L 70.650471 198.460497 
L 69.061174 203.789223 
L 67.85357 209.117949 
L 67.440593 211.782313 
L 67.215562 214.446676 
L 67.238431 217.111039 
L 67.387475 218.44322 
L 67.675408 219.775402 
L 68.429132 221.592947 
L 68.952114 222.439765 
L 70.278221 223.771946 
L 71.503512 224.533805 
L 73.040702 225.131835 
L 73.040702 225.131835 
" style="fill:none;stroke:#472d7b;stroke-width:1.5;"/>
   </g>
   <g id="LineCollection_3">
    <path clip-path="url(#pbecd29c23d)" d="M 76.115083 221.563868 
L 77.652273 221.979888 
L 79.189463 222.18896 
L 82.263843 222.202777 
L 85.338223 221.854721 
L 88.852994 221.107583 
L 91.486983 220.396814 
L 96.098554 218.772403 
L 100.710124 216.728808 
L 104.950417 214.446676 
L 107.120364 213.114494 
L 109.933264 211.195025 
L 113.007645 208.795496 
L 115.636645 206.453586 
L 118.216387 203.789223 
L 120.693595 200.732339 
L 122.272187 198.460497 
L 123.832846 195.796134 
L 125.107956 193.131771 
L 126.109779 190.467408 
L 126.842355 187.669905 
L 127.281883 185.138682 
L 127.46216 182.474319 
L 127.352547 179.809955 
L 126.927609 177.145592 
L 126.166548 174.481229 
L 124.980682 171.816866 
L 123.767975 169.851804 
L 122.230785 167.940185 
L 120.72034 166.48814 
L 120.693595 166.464934 
L 118.927028 165.155958 
L 117.619215 164.380789 
L 116.082025 163.668774 
L 114.544835 163.129208 
L 113.007645 162.75408 
L 110.90132 162.491595 
L 109.933264 162.431453 
L 108.171729 162.491595 
L 106.858884 162.623889 
L 105.321694 162.899311 
L 103.784504 163.297189 
L 100.710124 164.447607 
L 97.635744 166.072791 
L 94.561364 168.182842 
L 91.486983 170.803673 
L 88.412603 173.97069 
L 85.799636 177.145592 
L 83.801033 179.898624 
L 82.106195 182.474319 
L 79.753331 186.470863 
L 77.652273 190.596294 
L 76.115083 193.990264 
L 74.838499 197.128316 
L 73.040702 202.479408 
L 72.301452 205.121405 
L 71.737645 207.785768 
L 71.344898 210.450131 
L 71.19238 213.114494 
L 71.248437 214.446676 
L 71.503512 216.109193 
L 71.759101 217.111039 
L 72.332621 218.44322 
L 73.295017 219.775402 
L 75.090066 221.107583 
L 76.115083 221.563868 
L 76.115083 221.563868 
" style="fill:none;stroke:#3b528b;stroke-width:1.5;"/>
   </g>
   <g id="LineCollection_4">
    <path clip-path="url(#pbecd29c23d)" d="M 79.189463 218.941145 
L 80.726653 219.268336 
L 82.263843 219.390463 
L 83.801033 219.362906 
L 86.875413 218.979636 
L 89.949793 218.255881 
L 93.419735 217.111039 
L 96.631001 215.778857 
L 99.33952 214.446676 
L 102.247314 212.791511 
L 105.747659 210.450131 
L 109.081114 207.785768 
L 111.869288 205.121405 
L 114.20997 202.457042 
L 116.154278 199.792679 
L 117.753426 197.128316 
L 119.020709 194.463952 
L 119.979466 191.799589 
L 120.609297 189.135226 
L 120.933695 186.470863 
L 120.919375 183.8065 
L 120.534421 181.142137 
L 120.186877 179.809955 
L 119.717126 178.477774 
L 119.109069 177.145592 
L 118.33415 175.813411 
L 117.355541 174.481229 
L 116.082025 173.130018 
L 114.40581 171.816866 
L 113.007645 171.00108 
L 111.470455 170.348547 
L 109.933264 169.905342 
L 108.396074 169.648773 
L 106.858884 169.559792 
L 105.321694 169.625165 
L 103.784504 169.837035 
L 101.356749 170.484685 
L 100.710124 170.685389 
L 98.165166 171.816866 
L 97.635744 172.073039 
L 95.840479 173.149048 
L 93.943694 174.481229 
L 92.291068 175.813411 
L 90.816426 177.145592 
L 89.476927 178.477774 
L 86.875413 181.41979 
L 85.050799 183.8065 
L 83.229435 186.470863 
L 80.858254 190.467408 
L 79.189463 193.726459 
L 78.232271 195.796134 
L 76.641357 199.792679 
L 75.383618 203.789223 
L 74.771345 206.453586 
L 74.373559 209.117949 
L 74.287015 211.782313 
L 74.577893 213.926751 
L 74.697753 214.446676 
L 75.230156 215.778857 
L 76.129834 217.111039 
L 77.929755 218.44322 
L 79.189463 218.941145 
L 79.189463 218.941145 
" style="fill:none;stroke:#2c728e;stroke-width:1.5;"/>
   </g>
   <g id="LineCollection_5">
    <path clip-path="url(#pbecd29c23d)" d="M 80.726653 216.085301 
L 82.263843 216.53565 
L 83.801033 216.711621 
L 85.338223 216.693843 
L 86.875413 216.53078 
L 88.412603 216.251139 
L 89.949793 215.870872 
L 90.249625 215.778857 
L 91.486983 215.397887 
L 93.024174 214.844227 
L 93.993612 214.446676 
L 94.561364 214.209032 
L 96.098554 213.497006 
L 96.853727 213.114494 
L 97.635744 212.704025 
L 99.172934 211.831873 
L 99.255914 211.782313 
L 100.710124 210.870181 
L 101.344439 210.450131 
L 102.247314 209.814985 
L 103.198646 209.117949 
L 103.784504 208.657019 
L 104.861082 207.785768 
L 105.321694 207.381416 
L 106.361116 206.453586 
L 106.858884 205.96694 
L 107.718533 205.121405 
L 108.396074 204.384762 
L 108.945936 203.789223 
L 109.933264 202.596663 
L 110.05037 202.457042 
L 111.053522 201.12486 
L 111.470455 200.497481 
L 111.950573 199.792679 
L 112.745122 198.460497 
L 113.007645 197.953247 
L 113.449797 197.128316 
L 114.059284 195.796134 
L 114.544835 194.533063 
L 114.572601 194.463952 
L 115.006132 193.131771 
L 115.344023 191.799589 
L 115.588135 190.467408 
L 115.737611 189.135226 
L 115.78894 187.803045 
L 115.735901 186.470863 
L 115.569382 185.138682 
L 115.277073 183.8065 
L 114.843012 182.474319 
L 114.544835 181.785166 
L 114.236058 181.142137 
L 113.414198 179.809955 
L 113.007645 179.274728 
L 112.290612 178.477774 
L 111.470455 177.717014 
L 110.688377 177.145592 
L 109.933264 176.663465 
L 108.396074 175.956545 
L 107.918853 175.813411 
L 106.858884 175.519932 
L 105.321694 175.307537 
L 103.784504 175.292341 
L 102.247314 175.45729 
L 100.710124 175.792949 
L 100.648771 175.813411 
L 99.172934 176.283389 
L 97.635744 176.935406 
L 97.243412 177.145592 
L 96.098554 177.738925 
L 94.927282 178.477774 
L 94.561364 178.702784 
L 93.046023 179.809955 
L 93.024174 179.825645 
L 91.486983 181.109011 
L 91.452027 181.142137 
L 90.043623 182.474319 
L 89.949793 182.563066 
L 88.776931 183.8065 
L 88.412603 184.196893 
L 87.614778 185.138682 
L 86.875413 186.030314 
L 86.538111 186.470863 
L 85.543649 187.803045 
L 85.338223 188.084294 
L 84.619678 189.135226 
L 83.801033 190.388816 
L 83.752141 190.467408 
L 82.946316 191.799589 
L 82.263843 192.995491 
L 82.188627 193.131771 
L 81.482092 194.463952 
L 80.823064 195.796134 
L 80.726653 196.001316 
L 80.207506 197.128316 
L 79.640858 198.460497 
L 79.189463 199.61282 
L 79.119165 199.792679 
L 78.643481 201.12486 
L 78.220606 202.457042 
L 77.85091 203.789223 
L 77.652273 204.639046 
L 77.537982 205.121405 
L 77.293332 206.453586 
L 77.127396 207.785768 
L 77.055038 209.117949 
L 77.099731 210.450131 
L 77.297997 211.782313 
L 77.652273 212.951037 
L 77.713257 213.114494 
L 78.528239 214.446676 
L 79.189463 215.136779 
L 80.125649 215.778857 
L 80.726653 216.085301 
" style="fill:none;stroke:#21918c;stroke-width:1.5;"/>
   </g>
   <g id="LineCollection_6">
    <path clip-path="url(#pbecd29c23d)" d="M 83.801033 213.728187 
L 85.338223 213.974253 
L 86.875413 213.965706 
L 88.412603 213.77383 
L 89.949793 213.440235 
L 91.050892 213.114494 
L 91.486983 212.981822 
L 93.024174 212.404372 
L 94.45355 211.782313 
L 94.561364 211.733284 
L 96.098554 210.945959 
L 96.97987 210.450131 
L 97.635744 210.059118 
L 99.099271 209.117949 
L 99.172934 209.067163 
L 100.710124 207.944656 
L 100.917978 207.785768 
L 102.247314 206.683838 
L 102.516024 206.453586 
L 103.784504 205.262798 
L 103.931995 205.121405 
L 105.189493 203.789223 
L 105.321694 203.632832 
L 106.307916 202.457042 
L 106.858884 201.715234 
L 107.29852 201.12486 
L 108.16761 199.792679 
L 108.396074 199.387219 
L 108.925357 198.460497 
L 109.571201 197.128316 
L 109.933264 196.227822 
L 110.110916 195.796134 
L 110.542797 194.463952 
L 110.865475 193.131771 
L 111.07684 191.799589 
L 111.170866 190.467408 
L 111.137334 189.135226 
L 110.961299 187.803045 
L 110.622255 186.470863 
L 110.092935 185.138682 
L 109.933264 184.838019 
L 109.278745 183.8065 
L 108.396074 182.764416 
L 108.076917 182.474319 
L 106.858884 181.573278 
L 105.988582 181.142137 
L 105.321694 180.856926 
L 103.784504 180.481483 
L 102.247314 180.371216 
L 100.710124 180.48972 
L 99.172934 180.813811 
L 98.209696 181.142137 
L 97.635744 181.331078 
L 96.098554 182.032091 
L 95.337874 182.474319 
L 94.561364 182.915992 
L 93.281996 183.8065 
L 93.024174 183.983526 
L 91.611068 185.138682 
L 91.486983 185.23962 
L 90.185294 186.470863 
L 89.949793 186.694612 
L 88.925001 187.803045 
L 88.412603 188.365324 
L 87.784089 189.135226 
L 86.875413 190.276652 
L 86.7368 190.467408 
L 85.796937 191.799589 
L 85.338223 192.474341 
L 84.92425 193.131771 
L 84.124349 194.463952 
L 83.801033 195.030161 
L 83.389615 195.796134 
L 82.719614 197.128316 
L 82.263843 198.101917 
L 82.103343 198.460497 
L 81.559676 199.792679 
L 81.071388 201.12486 
L 80.726653 202.195962 
L 80.64509 202.457042 
L 80.302994 203.789223 
L 80.040186 205.121405 
L 79.87112 206.453586 
L 79.819111 207.785768 
L 79.921043 209.117949 
L 80.235438 210.450131 
L 80.726653 211.529228 
L 80.886304 211.782313 
L 82.263843 213.103425 
L 82.283788 213.114494 
L 83.801033 213.728187 
" style="fill:none;stroke:#28ae80;stroke-width:1.5;"/>
   </g>
   <g id="LineCollection_7">
    <path clip-path="url(#pbecd29c23d)" d="M 85.338223 210.518817 
L 86.875413 210.901588 
L 88.412603 210.927786 
L 89.949793 210.711136 
L 90.945189 210.450131 
L 91.486983 210.300518 
L 93.024174 209.71437 
L 94.322254 209.117949 
L 94.561364 209.000506 
L 96.098554 208.122295 
L 96.62855 207.785768 
L 97.635744 207.09308 
L 98.493716 206.453586 
L 99.172934 205.898786 
L 100.067314 205.121405 
L 100.710124 204.502048 
L 101.41674 203.789223 
L 102.247314 202.849807 
L 102.583832 202.457042 
L 103.58536 201.12486 
L 103.784504 200.816973 
L 104.434159 199.792679 
L 105.151699 198.460497 
L 105.321694 198.069691 
L 105.727554 197.128316 
L 106.168193 195.796134 
L 106.475579 194.463952 
L 106.638055 193.131771 
L 106.636247 191.799589 
L 106.441149 190.467408 
L 106.011118 189.135226 
L 105.321694 187.860524 
L 105.280269 187.803045 
L 103.916138 186.470863 
L 103.784504 186.373678 
L 102.247314 185.657996 
L 100.710124 185.368988 
L 99.172934 185.412487 
L 97.635744 185.728519 
L 96.098554 186.281484 
L 95.733437 186.470863 
L 94.561364 187.070655 
L 93.448631 187.803045 
L 93.024174 188.081057 
L 91.720006 189.135226 
L 91.486983 189.324387 
L 90.308447 190.467408 
L 89.949793 190.82018 
L 89.093479 191.799589 
L 88.412603 192.597679 
L 88.011309 193.131771 
L 87.048698 194.463952 
L 86.875413 194.71609 
L 86.211014 195.796134 
L 85.437539 197.128316 
L 85.338223 197.314749 
L 84.782655 198.460497 
L 84.198092 199.792679 
L 83.801033 200.820418 
L 83.692068 201.12486 
L 83.30739 202.457042 
L 83.020173 203.789223 
L 82.855521 205.121405 
L 82.854505 206.453586 
L 83.084653 207.785768 
L 83.659655 209.117949 
L 83.801033 209.311813 
L 85.208153 210.450131 
L 85.338223 210.518817 
" style="fill:none;stroke:#5ec962;stroke-width:1.5;"/>
   </g>
   <g id="LineCollection_8">
    <path clip-path="url(#pbecd29c23d)" d="M 88.412603 206.717837 
L 89.949793 206.976837 
L 91.486983 206.777721 
L 92.486695 206.453586 
L 93.024174 206.261587 
L 94.561364 205.465527 
L 95.100285 205.121405 
L 96.098554 204.410646 
L 96.85584 203.789223 
L 97.635744 203.064783 
L 98.22268 202.457042 
L 99.172934 201.325501 
L 99.328159 201.12486 
L 100.169083 199.792679 
L 100.710124 198.736073 
L 100.841825 198.460497 
L 101.273836 197.128316 
L 101.505696 195.796134 
L 101.487449 194.463952 
L 101.136476 193.131771 
L 100.710124 192.388854 
L 100.117171 191.799589 
L 99.172934 191.228866 
L 97.635744 190.968507 
L 96.098554 191.198093 
L 94.561364 191.782874 
L 94.534142 191.799589 
L 93.024174 192.741503 
L 92.550737 193.131771 
L 91.486983 194.032407 
L 91.079768 194.463952 
L 89.949793 195.708533 
L 89.883646 195.796134 
L 88.965718 197.128316 
L 88.412603 197.994321 
L 88.159807 198.460497 
L 87.547294 199.792679 
L 87.041636 201.12486 
L 86.875413 201.791538 
L 86.733409 202.457042 
L 86.656761 203.789223 
L 86.872008 205.121405 
L 86.875413 205.129231 
L 87.97363 206.453586 
L 88.412603 206.717837 
" style="fill:none;stroke:#addc30;stroke-width:1.5;"/>
   </g>
   <g id="LineCollection_9"/>
   <g id="line2d_10">
    <path clip-path="url(#pbecd29c23d)" d="M 26.925 230.306402 
L 28.46219 216.919566 
L 29.99938 208.873356 
L 31.53657 202.527229 
L 33.07376 197.115294 
L 34.61095 192.316761 
L 36.14814 187.960873 
L 37.685331 183.943898 
L 39.222521 180.197225 
L 40.759711 176.672676 
L 42.296901 173.334883 
L 43.834091 170.156973 
L 45.371281 167.117959 
L 46.908471 164.201078 
L 48.445661 161.392693 
L 49.982851 158.681527 
L 51.520041 156.058134 
L 53.057231 153.514503 
L 54.594421 151.043773 
L 56.131612 148.640014 
L 57.668802 146.298057 
L 59.205992 144.013369 
L 60.743182 141.781942 
L 62.280372 139.600217 
L 63.817562 137.465013 
L 65.354752 135.373475 
L 66.891942 133.32303 
L 68.429132 131.311347 
L 69.966322 129.336306 
L 71.503512 127.395977 
L 73.040702 125.488589 
L 74.577893 123.612522 
L 76.115083 121.766279 
L 77.652273 119.948484 
L 79.189463 118.157859 
L 80.726653 116.393223 
L 82.263843 114.653474 
L 83.801033 112.937589 
L 85.338223 111.244613 
L 86.875413 109.57365 
L 88.412603 107.923865 
L 89.949793 106.294472 
L 91.486983 104.684733 
L 93.024174 103.093953 
L 94.561364 101.521478 
L 96.098554 99.96669 
L 97.635744 98.429005 
L 99.172934 96.907872 
L 100.710124 95.402766 
L 102.247314 93.913193 
L 103.784504 92.438679 
L 105.321694 90.978779 
L 106.858884 89.533065 
L 108.396074 88.101132 
L 109.933264 86.682594 
L 111.470455 85.277081 
L 113.007645 83.88424 
L 114.544835 82.503736 
L 116.082025 81.135246 
L 117.619215 79.778462 
L 119.156405 78.433089 
L 120.693595 77.098842 
L 122.230785 75.775452 
L 123.767975 74.462656 
L 125.305165 73.160205 
L 126.842355 71.867858 
L 128.379545 70.585383 
L 129.916736 69.312557 
L 131.453926 68.049166 
L 132.991116 66.795003 
L 134.528306 65.549869 
L 136.065496 64.313571 
L 137.602686 63.085924 
L 139.139876 61.86675 
L 140.677066 60.655874 
L 142.214256 59.453129 
L 143.751446 58.258355 
L 145.288636 57.071395 
L 146.825826 55.892096 
L 148.363017 54.720314 
L 149.900207 53.555906 
L 151.437397 52.398734 
L 152.974587 51.248665 
L 154.511777 50.10557 
L 156.048967 48.969324 
L 157.586157 47.839805 
L 159.123347 46.716894 
L 160.660537 45.600478 
L 162.197727 44.490445 
L 163.734917 43.386686 
L 165.272107 42.289097 
L 166.809298 41.197575 
L 168.346488 40.11202 
L 169.883678 39.032336 
L 171.420868 37.958429 
L 172.958058 36.890206 
L 174.495248 35.827579 
L 176.032438 34.77046 
L 177.569628 33.718765 
L 179.106818 32.672411 
" style="fill:none;stroke:#ff0000;stroke-dasharray:1.5,2.475;stroke-dashoffset:0;stroke-width:1.5;"/>
   </g>
   <g id="patch_3">
    <path d="M 26.925 239.758125 
L 26.925 22.318125 
" style="fill:none;stroke:#000000;stroke-linecap:square;stroke-linejoin:miter;stroke-width:0.8;"/>
   </g>
   <g id="patch_4">
    <path d="M 179.106818 239.758125 
L 179.106818 22.318125 
" style="fill:none;stroke:#000000;stroke-linecap:square;stroke-linejoin:miter;stroke-width:0.8;"/>
   </g>
   <g id="patch_5">
    <path d="M 26.925 239.758125 
L 179.106818 239.758125 
" style="fill:none;stroke:#000000;stroke-linecap:square;stroke-linejoin:miter;stroke-width:0.8;"/>
   </g>
   <g id="patch_6">
    <path d="M 26.925 22.318125 
L 179.106818 22.318125 
" style="fill:none;stroke:#000000;stroke-linecap:square;stroke-linejoin:miter;stroke-width:0.8;"/>
   </g>
   <g id="text_10">
    <!-- X-Space -->
    <defs>
     <path d="M 6.296875 72.90625 
L 16.890625 72.90625 
L 35.015625 45.796875 
L 53.21875 72.90625 
L 63.8125 72.90625 
L 40.375 37.890625 
L 65.375 0 
L 54.78125 0 
L 34.28125 31 
L 13.625 0 
L 2.984375 0 
L 29 38.921875 
z
" id="DejaVuSans-88"/>
     <path d="M 4.890625 31.390625 
L 31.203125 31.390625 
L 31.203125 23.390625 
L 4.890625 23.390625 
z
" id="DejaVuSans-45"/>
     <path d="M 53.515625 70.515625 
L 53.515625 60.890625 
Q 47.90625 63.578125 42.921875 64.890625 
Q 37.9375 66.21875 33.296875 66.21875 
Q 25.25 66.21875 20.875 63.09375 
Q 16.5 59.96875 16.5 54.203125 
Q 16.5 49.359375 19.40625 46.890625 
Q 22.3125 44.4375 30.421875 42.921875 
L 36.375 41.703125 
Q 47.40625 39.59375 52.65625 34.296875 
Q 57.90625 29 57.90625 20.125 
Q 57.90625 9.515625 50.796875 4.046875 
Q 43.703125 -1.421875 29.984375 -1.421875 
Q 24.8125 -1.421875 18.96875 -0.25 
Q 13.140625 0.921875 6.890625 3.21875 
L 6.890625 13.375 
Q 12.890625 10.015625 18.65625 8.296875 
Q 24.421875 6.59375 29.984375 6.59375 
Q 38.421875 6.59375 43.015625 9.90625 
Q 47.609375 13.234375 47.609375 19.390625 
Q 47.609375 24.75 44.3125 27.78125 
Q 41.015625 30.8125 33.5 32.328125 
L 27.484375 33.5 
Q 16.453125 35.6875 11.515625 40.375 
Q 6.59375 45.0625 6.59375 53.421875 
Q 6.59375 63.09375 13.40625 68.65625 
Q 20.21875 74.21875 32.171875 74.21875 
Q 37.3125 74.21875 42.625 73.28125 
Q 47.953125 72.359375 53.515625 70.515625 
z
" id="DejaVuSans-83"/>
     <path d="M 18.109375 8.203125 
L 18.109375 -20.796875 
L 9.078125 -20.796875 
L 9.078125 54.6875 
L 18.109375 54.6875 
L 18.109375 46.390625 
Q 20.953125 51.265625 25.265625 53.625 
Q 29.59375 56 35.59375 56 
Q 45.5625 56 51.78125 48.09375 
Q 58.015625 40.1875 58.015625 27.296875 
Q 58.015625 14.40625 51.78125 6.484375 
Q 45.5625 -1.421875 35.59375 -1.421875 
Q 29.59375 -1.421875 25.265625 0.953125 
Q 20.953125 3.328125 18.109375 8.203125 
z
M 48.6875 27.296875 
Q 48.6875 37.203125 44.609375 42.84375 
Q 40.53125 48.484375 33.40625 48.484375 
Q 26.265625 48.484375 22.1875 42.84375 
Q 18.109375 37.203125 18.109375 27.296875 
Q 18.109375 17.390625 22.1875 11.75 
Q 26.265625 6.109375 33.40625 6.109375 
Q 40.53125 6.109375 44.609375 11.75 
Q 48.6875 17.390625 48.6875 27.296875 
z
" id="DejaVuSans-112"/>
     <path d="M 34.28125 27.484375 
Q 23.390625 27.484375 19.1875 25 
Q 14.984375 22.515625 14.984375 16.5 
Q 14.984375 11.71875 18.140625 8.90625 
Q 21.296875 6.109375 26.703125 6.109375 
Q 34.1875 6.109375 38.703125 11.40625 
Q 43.21875 16.703125 43.21875 25.484375 
L 43.21875 27.484375 
z
M 52.203125 31.203125 
L 52.203125 0 
L 43.21875 0 
L 43.21875 8.296875 
Q 40.140625 3.328125 35.546875 0.953125 
Q 30.953125 -1.421875 24.3125 -1.421875 
Q 15.921875 -1.421875 10.953125 3.296875 
Q 6 8.015625 6 15.921875 
Q 6 25.140625 12.171875 29.828125 
Q 18.359375 34.515625 30.609375 34.515625 
L 43.21875 34.515625 
L 43.21875 35.40625 
Q 43.21875 41.609375 39.140625 45 
Q 35.0625 48.390625 27.6875 48.390625 
Q 23 48.390625 18.546875 47.265625 
Q 14.109375 46.140625 10.015625 43.890625 
L 10.015625 52.203125 
Q 14.9375 54.109375 19.578125 55.046875 
Q 24.21875 56 28.609375 56 
Q 40.484375 56 46.34375 49.84375 
Q 52.203125 43.703125 52.203125 31.203125 
z
" id="DejaVuSans-97"/>
     <path d="M 48.78125 52.59375 
L 48.78125 44.1875 
Q 44.96875 46.296875 41.140625 47.34375 
Q 37.3125 48.390625 33.40625 48.390625 
Q 24.65625 48.390625 19.8125 42.84375 
Q 14.984375 37.3125 14.984375 27.296875 
Q 14.984375 17.28125 19.8125 11.734375 
Q 24.65625 6.203125 33.40625 6.203125 
Q 37.3125 6.203125 41.140625 7.25 
Q 44.96875 8.296875 48.78125 10.40625 
L 48.78125 2.09375 
Q 45.015625 0.34375 40.984375 -0.53125 
Q 36.96875 -1.421875 32.421875 -1.421875 
Q 20.0625 -1.421875 12.78125 6.34375 
Q 5.515625 14.109375 5.515625 27.296875 
Q 5.515625 40.671875 12.859375 48.328125 
Q 20.21875 56 33.015625 56 
Q 37.15625 56 41.109375 55.140625 
Q 45.0625 54.296875 48.78125 52.59375 
z
" id="DejaVuSans-99"/>
     <path d="M 56.203125 29.59375 
L 56.203125 25.203125 
L 14.890625 25.203125 
Q 15.484375 15.921875 20.484375 11.0625 
Q 25.484375 6.203125 34.421875 6.203125 
Q 39.59375 6.203125 44.453125 7.46875 
Q 49.3125 8.734375 54.109375 11.28125 
L 54.109375 2.78125 
Q 49.265625 0.734375 44.1875 -0.34375 
Q 39.109375 -1.421875 33.890625 -1.421875 
Q 20.796875 -1.421875 13.15625 6.1875 
Q 5.515625 13.8125 5.515625 26.8125 
Q 5.515625 40.234375 12.765625 48.109375 
Q 20.015625 56 32.328125 56 
Q 43.359375 56 49.78125 48.890625 
Q 56.203125 41.796875 56.203125 29.59375 
z
M 47.21875 32.234375 
Q 47.125 39.59375 43.09375 43.984375 
Q 39.0625 48.390625 32.421875 48.390625 
Q 24.90625 48.390625 20.390625 44.140625 
Q 15.875 39.890625 15.1875 32.171875 
z
" id="DejaVuSans-101"/>
    </defs>
    <g transform="translate(78.459972 16.318125)scale(0.12 -0.12)">
     <use xlink:href="#DejaVuSans-88"/>
     <use x="68.427734" xlink:href="#DejaVuSans-45"/>
     <use x="104.511719" xlink:href="#DejaVuSans-83"/>
     <use x="167.988281" xlink:href="#DejaVuSans-112"/>
     <use x="231.464844" xlink:href="#DejaVuSans-97"/>
     <use x="292.744141" xlink:href="#DejaVuSans-99"/>
     <use x="347.724609" xlink:href="#DejaVuSans-101"/>
    </g>
   </g>
  </g>
  <g id="axes_2">
   <g id="patch_7">
    <path d="M 209.543182 239.758125 
L 361.725 239.758125 
L 361.725 22.318125 
L 209.543182 22.318125 
z
" style="fill:#ffffff;"/>
   </g>
   <g id="PathCollection_2">
    <g clip-path="url(#p147d55bb37)">
     <use style="fill:#ff0000;stroke:#ff0000;" x="257.769315" xlink:href="#m3a734c09aa" y="37.272781"/>
    </g>
   </g>
   <g id="matplotlib.axis_3">
    <g id="xtick_5">
     <g id="line2d_11">
      <g>
       <use style="stroke:#000000;stroke-width:0.8;" x="209.543182" xlink:href="#m4d85bbf8aa" y="239.758125"/>
      </g>
     </g>
     <g id="text_11">
      <!-- −1 -->
      <defs>
       <path d="M 10.59375 35.5 
L 73.1875 35.5 
L 73.1875 27.203125 
L 10.59375 27.203125 
z
" id="DejaVuSans-8722"/>
      </defs>
      <g transform="translate(202.172088 254.356563)scale(0.1 -0.1)">
       <use xlink:href="#DejaVuSans-8722"/>
       <use x="83.789062" xlink:href="#DejaVuSans-49"/>
      </g>
     </g>
    </g>
    <g id="xtick_6">
     <g id="line2d_12">
      <g>
       <use style="stroke:#000000;stroke-width:0.8;" x="247.588636" xlink:href="#m4d85bbf8aa" y="239.758125"/>
      </g>
     </g>
     <g id="text_12">
      <!-- 0 -->
      <g transform="translate(244.407386 254.356563)scale(0.1 -0.1)">
       <use xlink:href="#DejaVuSans-48"/>
      </g>
     </g>
    </g>
    <g id="xtick_7">
     <g id="line2d_13">
      <g>
       <use style="stroke:#000000;stroke-width:0.8;" x="285.634091" xlink:href="#m4d85bbf8aa" y="239.758125"/>
      </g>
     </g>
     <g id="text_13">
      <!-- 1 -->
      <g transform="translate(282.452841 254.356563)scale(0.1 -0.1)">
       <use xlink:href="#DejaVuSans-49"/>
      </g>
     </g>
    </g>
    <g id="xtick_8">
     <g id="line2d_14">
      <g>
       <use style="stroke:#000000;stroke-width:0.8;" x="323.679545" xlink:href="#m4d85bbf8aa" y="239.758125"/>
      </g>
     </g>
     <g id="text_14">
      <!-- 2 -->
      <g transform="translate(320.498295 254.356563)scale(0.1 -0.1)">
       <use xlink:href="#DejaVuSans-50"/>
      </g>
     </g>
    </g>
    <g id="xtick_9">
     <g id="line2d_15">
      <g>
       <use style="stroke:#000000;stroke-width:0.8;" x="361.725" xlink:href="#m4d85bbf8aa" y="239.758125"/>
      </g>
     </g>
     <g id="text_15">
      <!-- 3 -->
      <g transform="translate(358.54375 254.356563)scale(0.1 -0.1)">
       <use xlink:href="#DejaVuSans-51"/>
      </g>
     </g>
    </g>
   </g>
   <g id="matplotlib.axis_4">
    <g id="ytick_6">
     <g id="line2d_16">
      <g>
       <use style="stroke:#000000;stroke-width:0.8;" x="209.543182" xlink:href="#m3266cf7e78" y="239.758125"/>
      </g>
     </g>
     <g id="text_16">
      <!-- −1 -->
      <g transform="translate(187.800994 243.557344)scale(0.1 -0.1)">
       <use xlink:href="#DejaVuSans-8722"/>
       <use x="83.789062" xlink:href="#DejaVuSans-49"/>
      </g>
     </g>
    </g>
    <g id="ytick_7">
     <g id="line2d_17">
      <g>
       <use style="stroke:#000000;stroke-width:0.8;" x="209.543182" xlink:href="#m3266cf7e78" y="197.584616"/>
      </g>
     </g>
     <g id="text_17">
      <!-- 0 -->
      <g transform="translate(196.180682 201.383835)scale(0.1 -0.1)">
       <use xlink:href="#DejaVuSans-48"/>
      </g>
     </g>
    </g>
    <g id="ytick_8">
     <g id="line2d_18">
      <g>
       <use style="stroke:#000000;stroke-width:0.8;" x="209.543182" xlink:href="#m3266cf7e78" y="155.411107"/>
      </g>
     </g>
     <g id="text_18">
      <!-- 1 -->
      <g transform="translate(196.180682 159.210326)scale(0.1 -0.1)">
       <use xlink:href="#DejaVuSans-49"/>
      </g>
     </g>
    </g>
    <g id="ytick_9">
     <g id="line2d_19">
      <g>
       <use style="stroke:#000000;stroke-width:0.8;" x="209.543182" xlink:href="#m3266cf7e78" y="113.237599"/>
      </g>
     </g>
     <g id="text_19">
      <!-- 2 -->
      <g transform="translate(196.180682 117.036817)scale(0.1 -0.1)">
       <use xlink:href="#DejaVuSans-50"/>
      </g>
     </g>
    </g>
    <g id="ytick_10">
     <g id="line2d_20">
      <g>
       <use style="stroke:#000000;stroke-width:0.8;" x="209.543182" xlink:href="#m3266cf7e78" y="71.06409"/>
      </g>
     </g>
     <g id="text_20">
      <!-- 3 -->
      <g transform="translate(196.180682 74.863308)scale(0.1 -0.1)">
       <use xlink:href="#DejaVuSans-51"/>
      </g>
     </g>
    </g>
    <g id="ytick_11">
     <g id="line2d_21">
      <g>
       <use style="stroke:#000000;stroke-width:0.8;" x="209.543182" xlink:href="#m3266cf7e78" y="28.890581"/>
      </g>
     </g>
     <g id="text_21">
      <!-- 4 -->
      <g transform="translate(196.180682 32.6898)scale(0.1 -0.1)">
       <use xlink:href="#DejaVuSans-52"/>
      </g>
     </g>
    </g>
   </g>
   <g id="LineCollection_10"/>
   <g id="LineCollection_11">
    <path clip-path="url(#p147d55bb37)" d="M 315.102622 239.758125 
L 315.609298 238.728428 
L 315.944435 238.054145 
L 316.744612 236.350165 
L 317.146488 235.437439 
L 317.500299 234.646185 
L 318.21652 232.942204 
L 318.683678 231.747427 
L 318.886963 231.238224 
L 319.527873 229.534244 
L 320.117169 227.830264 
L 320.220868 227.511073 
L 320.683439 226.126284 
L 321.207962 224.422304 
L 321.687709 222.718323 
L 321.758058 222.44971 
L 322.147274 221.014343 
L 322.568925 219.310363 
L 322.950721 217.606383 
L 323.294688 215.902403 
L 323.295248 215.899357 
L 323.621662 214.198423 
L 323.912107 212.494443 
L 324.167478 210.790462 
L 324.389074 209.086482 
L 324.57801 207.382502 
L 324.735234 205.678522 
L 324.832438 204.36912 
L 324.863392 203.974542 
L 324.965531 202.270562 
L 325.035926 200.566581 
L 325.074923 198.862601 
L 325.082713 197.158621 
L 325.059334 195.454641 
L 325.004671 193.750661 
L 324.918457 192.046681 
L 324.832438 190.80446 
L 324.802204 190.342701 
L 324.660534 188.63872 
L 324.487561 186.93474 
L 324.282424 185.23076 
L 324.044092 183.52678 
L 323.771358 181.8228 
L 323.462829 180.11882 
L 323.295248 179.285837 
L 323.127316 178.414839 
L 322.764673 176.710859 
L 322.363217 175.006879 
L 321.920806 173.302899 
L 321.758058 172.722819 
L 321.45326 171.598919 
L 320.951474 169.894939 
L 320.40348 168.190959 
L 320.220868 167.659459 
L 319.828751 166.486978 
L 319.214097 164.782998 
L 318.683678 163.421285 
L 318.55321 163.079018 
L 317.865728 161.375038 
L 317.146488 159.730238 
L 317.121026 159.671058 
L 316.352621 157.967078 
L 316.256025 157.768719 
" style="fill:none;stroke:#472d7b;stroke-width:1.5;"/>
    <path clip-path="url(#p147d55bb37)" d="M 296.510736 130.970187 
L 296.215297 130.703395 
L 295.625826 130.178087 
L 294.241083 128.999415 
L 294.088636 128.870861 
L 292.551446 127.621834 
L 292.129948 127.295435 
L 291.014256 126.434784 
L 289.856376 125.591455 
L 289.477066 125.315191 
L 287.939876 124.246879 
L 287.394007 123.887474 
L 286.402686 123.231222 
L 284.865496 122.278318 
L 284.705301 122.183494 
L 283.328306 121.359518 
L 281.791116 120.507738 
L 281.737728 120.479514 
L 280.253926 119.682234 
L 278.716736 118.920158 
L 278.407971 118.775534 
L 277.179545 118.187563 
L 275.642355 117.506216 
L 274.58464 117.071554 
L 274.105165 116.869127 
L 272.567975 116.261675 
L 271.030785 115.705443 
L 270.016896 115.367574 
L 269.493595 115.187166 
L 267.956405 114.696753 
L 266.419215 114.251738 
L 264.882025 113.849747 
L 264.096283 113.663594 
L 263.344835 113.477829 
L 261.807645 113.135825 
L 260.270455 112.833498 
L 258.733264 112.569306 
L 257.196074 112.34191 
L 255.658884 112.15017 
L 254.121694 111.993128 
L 253.705133 111.959613 
L 252.584504 111.864261 
L 251.047314 111.768692 
L 249.510124 111.708099 
L 247.972934 111.682183 
L 246.435744 111.690818 
L 244.898554 111.734046 
L 243.361364 111.812079 
L 241.824174 111.925301 
L 241.468217 111.959613 
L 240.286983 112.067364 
L 238.749793 112.241647 
L 237.212603 112.451084 
L 235.675413 112.696723 
L 234.138223 112.979803 
L 232.601033 113.301762 
L 231.066591 113.663594 
L 231.063843 113.664214 
L 229.526653 114.045503 
L 227.989463 114.468725 
L 226.452273 114.936126 
L 225.157403 115.367574 
L 224.915083 115.445556 
L 223.377893 115.977357 
L 221.840702 116.558792 
L 220.59146 117.071554 
L 220.303512 117.186504 
L 218.766322 117.839741 
L 217.229132 118.550192 
L 216.769771 118.775534 
L 215.691942 119.293379 
L 214.154752 120.087313 
L 213.440947 120.479514 
L 212.617562 120.924994 
L 211.080372 121.811994 
L 210.47209 122.183494 
L 209.543182 122.745146 
" style="fill:none;stroke:#472d7b;stroke-width:1.5;"/>
   </g>
   <g id="LineCollection_12">
    <path clip-path="url(#p147d55bb37)" d="M 298.0945 239.758125 
L 298.700207 238.844989 
L 299.216781 238.054145 
L 299.34212 237.85071 
" style="fill:none;stroke:#3b528b;stroke-width:1.5;"/>
    <path clip-path="url(#p147d55bb37)" d="M 310.101201 208.124695 
L 310.204566 207.382502 
L 310.402045 205.678522 
L 310.560674 203.974542 
L 310.681238 202.270562 
L 310.764331 200.566581 
L 310.810363 198.862601 
L 310.819558 197.158621 
L 310.791961 195.454641 
L 310.727439 193.750661 
L 310.625672 192.046681 
L 310.486162 190.342701 
L 310.308218 188.63872 
L 310.090958 186.93474 
L 309.833298 185.23076 
L 309.533944 183.52678 
L 309.460537 183.157526 
L 309.202154 181.8228 
L 308.830143 180.11882 
L 308.413055 178.414839 
L 307.948718 176.710859 
L 307.923347 176.625078 
L 307.45318 175.006879 
L 306.908148 173.302899 
L 306.386157 171.812049 
L 306.312439 171.598919 
L 305.680672 169.894939 
L 304.990727 168.190959 
L 304.848967 167.862127 
L 304.25908 166.486978 
L 303.467989 164.782998 
L 303.311777 164.465192 
L 302.629976 163.079018 
L 301.774587 161.465096 
L 301.72663 161.375038 
L 300.773003 159.671058 
L 300.237397 158.772935 
L 299.751773 157.967078 
L 298.700207 156.323967 
L 298.660679 156.263097 
L 297.504976 154.559117 
L 297.163017 154.079733 
L 296.271467 152.855137 
L 295.625826 152.009101 
L 294.954751 151.151157 
L 294.088636 150.089854 
L 293.548731 149.447177 
L 292.551446 148.304157 
L 292.045394 147.743197 
L 291.014256 146.637703 
L 290.434486 146.039216 
L 289.477066 145.079126 
L 288.7031 144.335236 
L 287.939876 143.619542 
L 286.835147 142.631256 
L 286.402686 142.252193 
L 284.865496 140.971092 
L 284.810584 140.927276 
L 283.328306 139.761611 
L 282.601328 139.223296 
L 281.791116 138.629574 
L 280.253926 137.572476 
L 280.172682 137.519316 
L 278.716736 136.571113 
L 277.466244 135.815336 
L 277.179545 135.642174 
L 275.642355 134.765247 
L 274.40181 134.111355 
L 274.105165 133.954214 
L 272.567975 133.189408 
L 271.030785 132.489091 
L 270.838517 132.407375 
L 269.493595 131.828746 
L 267.956405 131.224577 
L 266.4966 130.703395 
L 266.419215 130.675272 
L 264.882025 130.160552 
L 263.344835 129.698209 
L 261.807645 129.285834 
L 260.603565 128.999415 
L 260.270455 128.918043 
L 258.733264 128.586208 
L 257.196074 128.300591 
L 255.658884 128.059758 
L 254.121694 127.862507 
L 252.584504 127.707859 
L 251.047314 127.595051 
L 249.510124 127.523527 
L 247.972934 127.492936 
L 246.435744 127.503129 
L 244.898554 127.554155 
L 243.361364 127.646264 
L 241.824174 127.77991 
L 240.286983 127.955751 
L 238.749793 128.174657 
L 237.212603 128.437717 
L 235.675413 128.746249 
L 234.576667 128.999415 
L 234.138223 129.097709 
L 232.601033 129.485915 
L 231.063843 129.922991 
L 229.526653 130.411203 
L 228.690176 130.703395 
L 227.989463 130.943656 
L 226.452273 131.519475 
L 224.915083 132.152811 
L 224.34256 132.407375 
L 223.377893 132.831442 
L 221.840702 133.56349 
L 220.776922 134.111355 
L 220.303512 134.353761 
L 218.766322 135.19451 
L 217.712171 135.815336 
L 217.229132 136.099769 
L 215.691942 137.062294 
L 215.006427 137.519316 
L 214.154752 138.090259 
L 212.617562 139.191256 
L 212.574762 139.223296 
L 211.080372 140.354651 
L 210.366937 140.927276 
L 209.543182 141.598704 
" style="fill:none;stroke:#3b528b;stroke-width:1.5;"/>
   </g>
   <g id="LineCollection_13">
    <path clip-path="url(#p147d55bb37)" d="M 209.543182 238.712993 
L 210.486014 239.758125 
" style="fill:none;stroke:#2c728e;stroke-width:1.5;"/>
    <path clip-path="url(#p147d55bb37)" d="M 284.691359 239.758125 
L 284.865496 239.569152 
L 286.205143 238.054145 
L 286.402686 237.820752 
L 287.602959 236.350165 
L 287.939876 235.916698 
L 288.896702 234.646185 
L 289.477066 233.832671 
L 290.09546 232.942204 
L 291.014256 231.537872 
L 291.20597 231.238224 
L 292.237248 229.534244 
L 292.551446 228.980815 
L 293.194127 227.830264 
L 294.076675 226.126284 
L 294.088636 226.101738 
L 294.898742 224.422304 
L 295.625826 222.776317 
L 295.651294 222.718323 
L 296.350491 221.014343 
L 296.98619 219.310363 
L 297.163017 218.794129 
L 297.570522 217.606383 
L 298.100441 215.902403 
L 298.574856 214.198423 
L 298.700207 213.696875 
L 299.003474 212.494443 
L 299.383032 210.790462 
L 299.712389 209.086482 
L 299.993206 207.382502 
L 300.226887 205.678522 
L 300.237397 205.583744 
L 300.419393 203.974542 
L 300.565921 202.270562 
L 300.666908 200.566581 
L 300.719128 198.976057 
" style="fill:none;stroke:#2c728e;stroke-width:1.5;"/>
    <path clip-path="url(#p147d55bb37)" d="M 293.852278 168.603631 
L 293.644902 168.190959 
L 292.723706 166.486978 
L 292.551446 166.186695 
L 291.732356 164.782998 
L 291.014256 163.632667 
L 290.661116 163.079018 
L 289.50611 161.375038 
L 289.477066 161.33416 
L 288.262186 159.671058 
L 287.939876 159.252317 
L 286.918041 157.967078 
L 286.402686 157.348702 
L 285.463685 156.263097 
L 284.865496 155.600003 
L 283.886154 154.559117 
L 283.328306 153.987845 
L 282.168869 152.855137 
L 281.791116 152.497855 
L 280.290802 151.151157 
L 280.253926 151.118962 
L 278.716736 149.838634 
L 278.217279 149.447177 
L 277.179545 148.651161 
L 275.913246 147.743197 
L 275.642355 147.552247 
L 274.105165 146.531098 
L 273.308578 146.039216 
L 272.567975 145.58692 
L 271.030785 144.714948 
L 270.307221 144.335236 
L 269.493595 143.910423 
L 267.956405 143.171054 
L 266.724709 142.631256 
L 266.419215 142.497263 
L 264.882025 141.877952 
L 263.344835 141.32166 
L 262.126996 140.927276 
L 261.807645 140.822998 
L 260.270455 140.37365 
L 258.733264 139.980981 
L 257.196074 139.643003 
L 255.658884 139.35802 
L 254.77454 139.223296 
L 254.121694 139.121936 
L 252.584504 138.933985 
L 251.047314 138.796883 
L 249.510124 138.709957 
L 247.972934 138.672779 
L 246.435744 138.685166 
L 244.898554 138.747181 
L 243.361364 138.859126 
L 241.824174 139.021553 
L 240.372485 139.223296 
L 240.286983 139.234946 
L 238.749793 139.493982 
L 237.212603 139.805268 
L 235.675413 140.170362 
L 234.138223 140.591103 
L 233.053487 140.927276 
L 232.601033 141.066228 
L 231.063843 141.592118 
L 229.526653 142.179535 
L 228.455167 142.631256 
L 227.989463 142.827269 
L 226.452273 143.531943 
L 224.915083 144.307006 
L 224.862765 144.335236 
L 223.377893 145.141212 
L 221.862846 146.039216 
L 221.840702 146.052476 
L 220.303512 147.030784 
L 219.26558 147.743197 
L 218.766322 148.091487 
L 217.229132 149.234661 
L 216.958815 149.447177 
L 215.691942 150.465665 
L 214.888637 151.151157 
L 214.154752 151.794492 
L 213.0086 152.855137 
L 212.617562 153.228611 
L 211.290919 154.559117 
L 211.080372 154.778095 
L 209.713658 156.263097 
L 209.543182 156.456128 
" style="fill:none;stroke:#2c728e;stroke-width:1.5;"/>
   </g>
   <g id="LineCollection_14">
    <path clip-path="url(#p147d55bb37)" d="M 270.906029 239.758125 
L 271.030785 239.674662 
L 272.567975 238.573473 
L 273.242128 238.054145 
L 274.105165 237.368591 
L 275.303224 236.350165 
L 275.642355 236.051373 
L 277.14236 234.646185 
L 277.179545 234.609888 
L 278.716736 233.026948 
L 278.794995 232.942204 
L 280.253926 231.284363 
L 280.292725 231.238224 
L 281.65479 229.534244 
L 281.791116 229.353627 
L 282.897572 227.830264 
L 283.328306 227.197708 
L 284.03404 226.126284 
L 284.865496 224.770909 
L 285.073404 224.422304 
L 286.022782 222.718323 
L 286.402686 221.980568 
L 286.889578 221.014343 
L 287.67821 219.310363 
L 287.939876 218.693858 
L 288.394453 217.606383 
L 289.040851 215.902403 
L 289.477066 214.623269 
L 289.620657 214.198423 
L 290.138658 212.494443 
L 290.594106 210.790462 
L 290.989316 209.086482 
L 291.014256 208.961548 
L 291.329639 207.382502 
L 291.613063 205.678522 
L 291.840729 203.974542 
L 292.013763 202.270562 
L 292.13302 200.566581 
L 292.199085 198.862601 
L 292.212281 197.158621 
L 292.172675 195.454641 
L 292.080071 193.750661 
L 291.934015 192.046681 
L 291.733788 190.342701 
L 291.478402 188.63872 
L 291.166589 186.93474 
L 291.014256 186.228257 
L 290.799109 185.23076 
L 290.374049 183.52678 
L 289.887635 181.8228 
L 289.477066 180.546265 
L 289.338465 180.11882 
L 288.726317 178.414839 
L 288.044823 176.710859 
L 287.939876 176.469545 
L 287.293465 175.006879 
L 286.466005 173.302899 
L 286.402686 173.181454 
L 285.558828 171.598919 
L 284.865496 170.399971 
L 284.565339 169.894939 
L 284.106265 169.174786 
" style="fill:none;stroke:#21918c;stroke-width:1.5;"/>
    <path clip-path="url(#p147d55bb37)" d="M 255.460562 148.896146 
L 254.121694 148.649573 
L 252.584504 148.427621 
L 251.047314 148.265718 
L 249.510124 148.163066 
L 247.972934 148.119162 
L 246.435744 148.133791 
L 244.898554 148.207024 
L 243.361364 148.33922 
L 241.824174 148.53103 
L 240.286983 148.783398 
L 238.749793 149.097574 
L 237.325309 149.447177 
L 237.212603 149.474823 
L 235.675413 149.912914 
L 234.138223 150.41778 
L 232.601033 150.991986 
L 232.217772 151.151157 
L 231.063843 151.634703 
L 229.526653 152.351237 
L 228.545622 152.855137 
L 227.989463 153.145195 
L 226.452273 154.019395 
L 225.580625 154.559117 
L 224.915083 154.980242 
L 223.377893 156.032631 
L 223.06341 156.263097 
L 221.840702 157.184769 
L 220.874152 157.967078 
L 220.303512 158.444548 
L 218.929261 159.671058 
L 218.766322 159.822176 
L 217.229132 161.332029 
L 217.18751 161.375038 
L 215.691942 162.992268 
L 215.615493 163.079018 
L 214.187496 164.782998 
L 214.154752 164.824219 
L 212.887107 166.486978 
L 212.617562 166.862906 
L 211.698822 168.190959 
L 211.080372 169.147639 
L 210.611877 169.894939 
L 209.618475 171.598919 
L 209.543182 171.737211 
" style="fill:none;stroke:#21918c;stroke-width:1.5;"/>
    <path clip-path="url(#p147d55bb37)" d="M 209.543182 223.426242 
L 210.1041 224.422304 
L 211.080372 226.026826 
L 211.142722 226.126284 
L 212.279396 227.830264 
L 212.617562 228.305889 
L 213.523491 229.534244 
L 214.154752 230.341085 
L 214.886703 231.238224 
L 215.691942 232.174154 
L 216.384814 232.942204 
L 217.229132 233.834815 
L 218.038457 234.646185 
L 218.766322 235.345939 
L 219.874443 236.350165 
L 220.303512 236.725023 
L 221.840702 237.98503 
L 221.930425 238.054145 
L 223.377893 239.136345 
L 224.276457 239.758125 
" style="fill:none;stroke:#21918c;stroke-width:1.5;"/>
   </g>
   <g id="LineCollection_15">
    <path clip-path="url(#p147d55bb37)" d="M 210.930337 198.896873 
L 211.155028 202.270562 
L 211.645455 205.678522 
L 212.409203 209.086482 
L 213.467336 212.494443 
L 214.846196 215.902403 
L 216.5891 219.310363 
L 217.615829 221.014343 
L 218.766322 222.72966 
L 220.303512 224.750891 
L 221.840702 226.535666 
L 223.377893 228.123318 
L 224.915083 229.543254 
L 227.989463 231.947702 
L 231.063843 233.879717 
L 234.138223 235.408187 
L 237.212603 236.581132 
L 240.286983 237.427749 
L 243.361364 237.971389 
L 246.435744 238.222255 
L 249.510124 238.186544 
L 252.584504 237.863193 
L 255.658884 237.245051 
L 258.733264 236.32009 
L 261.807645 235.061591 
L 264.882025 233.437427 
L 266.419215 232.472442 
L 269.493595 230.191201 
L 272.093987 227.830264 
L 274.105165 225.669374 
L 276.4148 222.718323 
L 277.561653 221.014343 
L 279.508519 217.606383 
L 281.062914 214.198423 
L 282.277011 210.790462 
L 283.185477 207.382502 
L 283.810423 203.974542 
L 284.167416 200.566581 
L 284.264222 197.158621 
L 284.102746 193.750661 
L 283.679811 190.342701 
L 282.985323 186.93474 
L 282.003968 183.52678 
L 280.708385 180.11882 
L 279.062032 176.710859 
L 278.088418 175.006879 
L 277.005677 173.302899 
L 275.642355 171.396467 
L 274.105165 169.499122 
L 272.567975 167.817138 
L 271.030785 166.316504 
L 267.956405 163.77551 
L 266.419215 162.696256 
L 263.344835 160.871269 
L 260.270455 159.43511 
L 257.196074 158.347276 
L 254.121694 157.577433 
L 251.047314 157.108608 
L 247.972934 156.929611 
L 244.898554 157.036922 
L 241.824174 157.432649 
L 238.749793 158.125403 
L 235.675413 159.132441 
L 232.601033 160.478272 
L 229.526653 162.201323 
L 226.452273 164.359431 
L 223.968053 166.486978 
L 221.840702 168.634048 
L 221.179044 169.389085 
L 221.179044 169.389085 
" style="fill:none;stroke:#28ae80;stroke-width:1.5;"/>
   </g>
   <g id="LineCollection_16">
    <path clip-path="url(#p147d55bb37)" d="M 244.230376 229.04348 
L 244.898554 229.134248 
L 246.435744 229.249927 
L 247.972934 229.273035 
L 249.510124 229.203684 
L 251.047314 229.041535 
L 252.584504 228.785791 
L 254.121694 228.435194 
L 255.658884 227.988012 
L 256.105985 227.830264 
L 257.196074 227.43125 
L 258.733264 226.765762 
L 260.007414 226.126284 
L 260.270455 225.988186 
L 261.807645 225.07429 
L 262.782757 224.422304 
L 263.344835 224.025741 
L 264.882025 222.821973 
L 265.003036 222.718323 
L 266.419215 221.426543 
L 266.834308 221.014343 
L 267.956405 219.817923 
L 268.397813 219.310363 
L 269.493595 217.945273 
L 269.748014 217.606383 
L 270.919159 215.902403 
L 271.030785 215.723684 
L 271.930269 214.198423 
L 272.567975 212.988359 
L 272.815542 212.494443 
L 273.574607 210.790462 
L 274.105165 209.421077 
L 274.229511 209.086482 
L 274.774601 207.382502 
L 275.228198 205.678522 
L 275.592559 203.974542 
L 275.642355 203.669467 
L 275.863875 202.270562 
L 276.050019 200.566581 
L 276.153138 198.862601 
L 276.173736 197.158621 
L 276.111916 195.454641 
L 275.967373 193.750661 
L 275.739398 192.046681 
L 275.642355 191.515346 
L 275.42141 190.342701 
L 275.012684 188.63872 
L 274.513652 186.93474 
L 274.105165 185.754629 
L 273.916271 185.23076 
L 273.207852 183.52678 
L 272.567975 182.177773 
L 272.391088 181.8228 
L 271.441321 180.11882 
L 271.030785 179.45478 
L 270.349286 178.414839 
L 269.493595 177.227025 
L 269.096334 176.710859 
L 267.956405 175.349245 
L 267.647551 175.006879 
L 266.419215 173.743264 
L 265.953573 173.302899 
L 264.882025 172.354362 
L 263.943877 171.598919 
L 263.344835 171.143838 
L 261.807645 170.091019 
L 261.487417 169.894939 
L 260.270455 169.185633 
L 258.733264 168.400348 
L 258.260673 168.190959 
L 257.196074 167.73815 
L 255.658884 167.184971 
L 254.121694 166.731897 
L 253.06383 166.486978 
L 252.584504 166.379406 
L 251.047314 166.126696 
L 249.510124 165.966469 
L 247.972934 165.897941 
L 246.435744 165.920774 
L 244.898554 166.035082 
L 243.361364 166.241424 
L 242.099387 166.486978 
L 241.824174 166.542178 
L 240.286983 166.946073 
L 238.749793 167.448887 
L 237.212603 168.053121 
L 236.910759 168.190959 
L 235.675413 168.779084 
L 234.138223 169.62051 
L 233.692653 169.894939 
L 232.601033 170.601838 
L 231.225068 171.598919 
L 231.063843 171.722656 
L 229.526653 173.020875 
L 229.220934 173.302899 
L 227.989463 174.517577 
L 227.531584 175.006879 
L 226.452273 176.250727 
L 226.08042 176.710859 
L 224.915083 178.280698 
L 224.821578 178.414839 
L 223.735639 180.11882 
L 223.377893 180.741885 
L 222.789724 181.8228 
L 221.965283 183.52678 
L 221.840702 183.818362 
L 221.263818 185.23076 
L 220.66347 186.93474 
L 220.303512 188.143108 
L 220.161205 188.63872 
L 219.757795 190.342701 
L 219.441515 192.046681 
L 219.210804 193.750661 
L 219.064526 195.454641 
L 219.001964 197.158621 
L 219.022809 198.862601 
L 219.127166 200.566581 
L 219.315544 202.270562 
L 219.588871 203.974542 
L 219.948494 205.678522 
L 220.165229 206.504894 
" style="fill:none;stroke:#5ec962;stroke-width:1.5;"/>
   </g>
   <g id="LineCollection_17">
    <path clip-path="url(#p147d55bb37)" d="M 229.769021 205.687408 
L 230.481184 207.382502 
L 231.063843 208.54036 
L 231.363268 209.086482 
L 232.451448 210.790462 
L 232.601033 210.996141 
L 233.805568 212.494443 
L 234.138223 212.863192 
L 235.489867 214.198423 
L 235.675413 214.364238 
L 237.212603 215.57049 
L 237.705269 215.902403 
L 238.749793 216.548282 
L 240.286983 217.341856 
L 240.922291 217.606383 
L 241.824174 217.955499 
L 243.361364 218.409054 
L 244.898554 218.721647 
L 246.435744 218.894814 
L 247.972934 218.929406 
L 249.510124 218.82559 
L 251.047314 218.582859 
L 252.584504 218.20002 
L 254.121694 217.675189 
L 254.280799 217.606383 
L 255.658884 216.964812 
L 257.196074 216.091748 
L 257.479719 215.902403 
L 258.733264 214.989944 
L 259.675726 214.198423 
L 260.270455 213.646748 
L 261.368923 212.494443 
L 261.807645 211.978433 
L 262.715567 210.790462 
L 263.344835 209.850463 
L 263.810971 209.086482 
L 264.703235 207.382502 
L 264.882025 206.974857 
L 265.407317 205.678522 
L 265.963096 203.974542 
L 266.38551 202.270562 
L 266.419215 202.073929 
L 266.661242 200.566581 
L 266.812872 198.862601 
L 266.843161 197.158621 
L 266.752257 195.454641 
L 266.539714 193.750661 
L 266.419215 193.136386 
L 266.190828 192.046681 
L 265.702033 190.342701 
L 265.078582 188.63872 
L 264.882025 188.19565 
L 264.276084 186.93474 
L 263.344835 185.296064 
L 263.30415 185.23076 
L 262.08376 183.52678 
L 261.807645 183.186002 
L 260.577876 181.8228 
L 260.270455 181.516724 
L 258.733264 180.163919 
L 258.674353 180.11882 
L 257.196074 179.086526 
L 256.058586 178.414839 
L 255.658884 178.196956 
L 254.121694 177.505857 
L 252.584504 176.964026 
L 251.601462 176.710859 
L 251.047314 176.577285 
L 249.510124 176.341681 
L 247.972934 176.240914 
L 246.435744 176.274489 
L 244.898554 176.442572 
L 243.53875 176.710859 
L 243.361364 176.748221 
L 241.824174 177.216468 
L 240.361603 177.802645 
" style="fill:none;stroke:#addc30;stroke-width:1.5;"/>
   </g>
   <g id="LineCollection_18"/>
   <g id="line2d_22">
    <path clip-path="url(#p147d55bb37)" d="M 209.543182 32.672411 
L 211.080372 32.844203 
L 212.617562 33.01438 
L 214.154752 33.182937 
L 215.691942 33.349871 
L 217.229132 33.515177 
L 218.766322 33.678851 
L 220.303512 33.840889 
L 221.840702 34.001286 
L 223.377893 34.16004 
L 224.915083 34.317144 
L 226.452273 34.472596 
L 227.989463 34.62639 
L 229.526653 34.778523 
L 231.063843 34.92899 
L 232.601033 35.077788 
L 234.138223 35.224911 
L 235.675413 35.370356 
L 237.212603 35.514118 
L 238.749793 35.656193 
L 240.286983 35.796576 
L 241.824174 35.935264 
L 243.361364 36.072252 
L 244.898554 36.207536 
L 246.435744 36.341111 
L 247.972934 36.472972 
L 249.510124 36.603117 
L 251.047314 36.731539 
L 252.584504 36.858235 
L 254.121694 36.9832 
L 255.658884 37.10643 
L 257.196074 37.22792 
L 258.733264 37.347667 
L 260.270455 37.465665 
L 261.807645 37.581909 
L 263.344835 37.696397 
L 264.882025 37.809122 
L 266.419215 37.920081 
L 267.956405 38.029269 
L 269.493595 38.136681 
L 271.030785 38.242313 
L 272.567975 38.346161 
L 274.105165 38.448219 
L 275.642355 38.548483 
L 277.179545 38.646949 
L 278.716736 38.743612 
L 280.253926 38.838468 
L 281.791116 38.93151 
L 283.328306 39.022737 
L 284.865496 39.112141 
L 286.402686 39.199719 
L 287.939876 39.285467 
L 289.477066 39.369378 
L 291.014256 39.451449 
L 292.551446 39.531676 
L 294.088636 39.610052 
L 295.625826 39.686574 
L 297.163017 39.761237 
L 298.700207 39.834036 
L 300.237397 39.904965 
L 301.774587 39.974022 
L 303.311777 40.0412 
L 304.848967 40.106494 
L 306.386157 40.169901 
L 307.923347 40.231414 
L 309.460537 40.29103 
L 310.997727 40.348744 
L 312.534917 40.404549 
L 314.072107 40.458443 
L 315.609298 40.510419 
L 317.146488 40.560473 
L 318.683678 40.6086 
L 320.220868 40.654794 
L 321.758058 40.699052 
L 323.295248 40.741368 
L 324.832438 40.781736 
L 326.369628 40.820153 
L 327.906818 40.856613 
L 329.444008 40.89111 
L 330.981198 40.923641 
L 332.518388 40.9542 
L 334.055579 40.982781 
L 335.592769 41.00938 
L 337.129959 41.033992 
L 338.667149 41.056612 
L 340.204339 41.077234 
L 341.741529 41.095853 
L 343.278719 41.112465 
L 344.815909 41.127063 
L 346.353099 41.139644 
L 347.890289 41.150201 
L 349.427479 41.15873 
L 350.964669 41.165225 
L 352.50186 41.169682 
L 354.03905 41.172094 
L 355.57624 41.172457 
L 357.11343 41.170765 
L 358.65062 41.167013 
L 360.18781 41.161196 
L 361.725 41.153309 
" style="fill:none;stroke:#ff0000;stroke-dasharray:1.5,2.475;stroke-dashoffset:0;stroke-width:1.5;"/>
   </g>
   <g id="patch_8">
    <path d="M 209.543182 239.758125 
L 209.543182 22.318125 
" style="fill:none;stroke:#000000;stroke-linecap:square;stroke-linejoin:miter;stroke-width:0.8;"/>
   </g>
   <g id="patch_9">
    <path d="M 361.725 239.758125 
L 361.725 22.318125 
" style="fill:none;stroke:#000000;stroke-linecap:square;stroke-linejoin:miter;stroke-width:0.8;"/>
   </g>
   <g id="patch_10">
    <path d="M 209.543182 239.758125 
L 361.725 239.758125 
" style="fill:none;stroke:#000000;stroke-linecap:square;stroke-linejoin:miter;stroke-width:0.8;"/>
   </g>
   <g id="patch_11">
    <path d="M 209.543182 22.318125 
L 361.725 22.318125 
" style="fill:none;stroke:#000000;stroke-linecap:square;stroke-linejoin:miter;stroke-width:0.8;"/>
   </g>
   <g id="text_22">
    <g clip-path="url(#p147d55bb37)">
     <!-- 0.020 -->
     <defs>
      <path d="M 10.6875 12.40625 
L 21 12.40625 
L 21 0 
L 10.6875 0 
z
" id="DejaVuSans-46"/>
     </defs>
     <g style="fill:#472d7b;" transform="translate(298.451996 132.600288)rotate(-299.609168)scale(0.1 -0.1)">
      <use xlink:href="#DejaVuSans-48"/>
      <use x="63.623047" xlink:href="#DejaVuSans-46"/>
      <use x="95.410156" xlink:href="#DejaVuSans-48"/>
      <use x="159.033203" xlink:href="#DejaVuSans-50"/>
      <use x="222.65625" xlink:href="#DejaVuSans-48"/>
     </g>
    </g>
   </g>
   <g id="text_23">
    <g clip-path="url(#p147d55bb37)">
     <!-- 0.040 -->
     <g style="fill:#3b528b;" transform="translate(305.19987 237.882222)rotate(-74.420986)scale(0.1 -0.1)">
      <use xlink:href="#DejaVuSans-48"/>
      <use x="63.623047" xlink:href="#DejaVuSans-46"/>
      <use x="95.410156" xlink:href="#DejaVuSans-48"/>
      <use x="159.033203" xlink:href="#DejaVuSans-52"/>
      <use x="222.65625" xlink:href="#DejaVuSans-48"/>
     </g>
    </g>
   </g>
   <g id="text_24">
    <g clip-path="url(#p147d55bb37)">
     <!-- 0.060 -->
     <defs>
      <path d="M 33.015625 40.375 
Q 26.375 40.375 22.484375 35.828125 
Q 18.609375 31.296875 18.609375 23.390625 
Q 18.609375 15.53125 22.484375 10.953125 
Q 26.375 6.390625 33.015625 6.390625 
Q 39.65625 6.390625 43.53125 10.953125 
Q 47.40625 15.53125 47.40625 23.390625 
Q 47.40625 31.296875 43.53125 35.828125 
Q 39.65625 40.375 33.015625 40.375 
z
M 52.59375 71.296875 
L 52.59375 62.3125 
Q 48.875 64.0625 45.09375 64.984375 
Q 41.3125 65.921875 37.59375 65.921875 
Q 27.828125 65.921875 22.671875 59.328125 
Q 17.53125 52.734375 16.796875 39.40625 
Q 19.671875 43.65625 24.015625 45.921875 
Q 28.375 48.1875 33.59375 48.1875 
Q 44.578125 48.1875 50.953125 41.515625 
Q 57.328125 34.859375 57.328125 23.390625 
Q 57.328125 12.15625 50.6875 5.359375 
Q 44.046875 -1.421875 33.015625 -1.421875 
Q 20.359375 -1.421875 13.671875 8.265625 
Q 6.984375 17.96875 6.984375 36.375 
Q 6.984375 53.65625 15.1875 63.9375 
Q 23.390625 74.21875 37.203125 74.21875 
Q 40.921875 74.21875 44.703125 73.484375 
Q 48.484375 72.75 52.59375 71.296875 
z
" id="DejaVuSans-54"/>
     </defs>
     <g style="fill:#2c728e;" transform="translate(294.027881 169.897421)rotate(-279.868347)scale(0.1 -0.1)">
      <use xlink:href="#DejaVuSans-48"/>
      <use x="63.623047" xlink:href="#DejaVuSans-46"/>
      <use x="95.410156" xlink:href="#DejaVuSans-48"/>
      <use x="159.033203" xlink:href="#DejaVuSans-54"/>
      <use x="222.65625" xlink:href="#DejaVuSans-48"/>
     </g>
    </g>
   </g>
   <g id="text_25">
    <g clip-path="url(#p147d55bb37)">
     <!-- 0.080 -->
     <defs>
      <path d="M 31.78125 34.625 
Q 24.75 34.625 20.71875 30.859375 
Q 16.703125 27.09375 16.703125 20.515625 
Q 16.703125 13.921875 20.71875 10.15625 
Q 24.75 6.390625 31.78125 6.390625 
Q 38.8125 6.390625 42.859375 10.171875 
Q 46.921875 13.96875 46.921875 20.515625 
Q 46.921875 27.09375 42.890625 30.859375 
Q 38.875 34.625 31.78125 34.625 
z
M 21.921875 38.8125 
Q 15.578125 40.375 12.03125 44.71875 
Q 8.5 49.078125 8.5 55.328125 
Q 8.5 64.0625 14.71875 69.140625 
Q 20.953125 74.21875 31.78125 74.21875 
Q 42.671875 74.21875 48.875 69.140625 
Q 55.078125 64.0625 55.078125 55.328125 
Q 55.078125 49.078125 51.53125 44.71875 
Q 48 40.375 41.703125 38.8125 
Q 48.828125 37.15625 52.796875 32.3125 
Q 56.78125 27.484375 56.78125 20.515625 
Q 56.78125 9.90625 50.3125 4.234375 
Q 43.84375 -1.421875 31.78125 -1.421875 
Q 19.734375 -1.421875 13.25 4.234375 
Q 6.78125 9.90625 6.78125 20.515625 
Q 6.78125 27.484375 10.78125 32.3125 
Q 14.796875 37.15625 21.921875 38.8125 
z
M 18.3125 54.390625 
Q 18.3125 48.734375 21.84375 45.5625 
Q 25.390625 42.390625 31.78125 42.390625 
Q 38.140625 42.390625 41.71875 45.5625 
Q 45.3125 48.734375 45.3125 54.390625 
Q 45.3125 60.0625 41.71875 63.234375 
Q 38.140625 66.40625 31.78125 66.40625 
Q 25.390625 66.40625 21.84375 63.234375 
Q 18.3125 60.0625 18.3125 54.390625 
z
" id="DejaVuSans-56"/>
     </defs>
     <g style="fill:#21918c;" transform="translate(260.225789 148.83844)rotate(-316.938305)scale(0.1 -0.1)">
      <use xlink:href="#DejaVuSans-48"/>
      <use x="63.623047" xlink:href="#DejaVuSans-46"/>
      <use x="95.410156" xlink:href="#DejaVuSans-48"/>
      <use x="159.033203" xlink:href="#DejaVuSans-56"/>
      <use x="222.65625" xlink:href="#DejaVuSans-48"/>
     </g>
    </g>
   </g>
   <g id="text_26">
    <g clip-path="url(#p147d55bb37)">
     <!-- 0.100 -->
     <g style="fill:#28ae80;" transform="translate(212.185709 198.070835)rotate(-75.200822)scale(0.1 -0.1)">
      <use xlink:href="#DejaVuSans-48"/>
      <use x="63.623047" xlink:href="#DejaVuSans-46"/>
      <use x="95.410156" xlink:href="#DejaVuSans-49"/>
      <use x="159.033203" xlink:href="#DejaVuSans-48"/>
      <use x="222.65625" xlink:href="#DejaVuSans-48"/>
     </g>
    </g>
   </g>
   <g id="text_27">
    <g clip-path="url(#p147d55bb37)">
     <!-- 0.120 -->
     <g style="fill:#5ec962;" transform="translate(216.942574 211.141369)rotate(-308.359244)scale(0.1 -0.1)">
      <use xlink:href="#DejaVuSans-48"/>
      <use x="63.623047" xlink:href="#DejaVuSans-46"/>
      <use x="95.410156" xlink:href="#DejaVuSans-49"/>
      <use x="159.033203" xlink:href="#DejaVuSans-50"/>
      <use x="222.65625" xlink:href="#DejaVuSans-48"/>
     </g>
    </g>
   </g>
   <g id="text_28">
    <g clip-path="url(#p147d55bb37)">
     <!-- 0.140 -->
     <g style="fill:#addc30;" transform="translate(228.327545 204.875893)rotate(-74.615176)scale(0.1 -0.1)">
      <use xlink:href="#DejaVuSans-48"/>
      <use x="63.623047" xlink:href="#DejaVuSans-46"/>
      <use x="95.410156" xlink:href="#DejaVuSans-49"/>
      <use x="159.033203" xlink:href="#DejaVuSans-52"/>
      <use x="222.65625" xlink:href="#DejaVuSans-48"/>
     </g>
    </g>
   </g>
   <g id="text_29">
    <!-- U-Space -->
    <defs>
     <path d="M 8.6875 72.90625 
L 18.609375 72.90625 
L 18.609375 28.609375 
Q 18.609375 16.890625 22.84375 11.734375 
Q 27.09375 6.59375 36.625 6.59375 
Q 46.09375 6.59375 50.34375 11.734375 
Q 54.59375 16.890625 54.59375 28.609375 
L 54.59375 72.90625 
L 64.5 72.90625 
L 64.5 27.390625 
Q 64.5 13.140625 57.4375 5.859375 
Q 50.390625 -1.421875 36.625 -1.421875 
Q 22.796875 -1.421875 15.734375 5.859375 
Q 8.6875 13.140625 8.6875 27.390625 
z
" id="DejaVuSans-85"/>
    </defs>
    <g transform="translate(260.792216 16.318125)scale(0.12 -0.12)">
     <use xlink:href="#DejaVuSans-85"/>
     <use x="73.193359" xlink:href="#DejaVuSans-45"/>
     <use x="109.277344" xlink:href="#DejaVuSans-83"/>
     <use x="172.753906" xlink:href="#DejaVuSans-112"/>
     <use x="236.230469" xlink:href="#DejaVuSans-97"/>
     <use x="297.509766" xlink:href="#DejaVuSans-99"/>
     <use x="352.490234" xlink:href="#DejaVuSans-101"/>
    </g>
   </g>
  </g>
 </g>
 <defs>
  <clipPath id="pbecd29c23d">
   <rect height="217.44" width="152.181818" x="26.925" y="22.318125"/>
  </clipPath>
  <clipPath id="p147d55bb37">
   <rect height="217.44" width="152.181818" x="209.543182" y="22.318125"/>
  </clipPath>
 </defs>
</svg>
